<?xml version="1.0" encoding="UTF-8" standalone="no"?>
<!DOCTYPE svg PUBLIC "-//W3C//DTD SVG 1.1//EN"
 "http://www.w3.org/Graphics/SVG/1.1/DTD/svg11.dtd">
<!-- Generated by graphviz version 2.43.0 (0)
 -->
<!-- Title: App\Console\Commands\GenerateFunctions\isBusinessDay Pages: 1 -->
<svg width="445pt" height="146pt"
 viewBox="0.00 0.00 445.00 145.50" xmlns="http://www.w3.org/2000/svg" xmlns:xlink="http://www.w3.org/1999/xlink">
<g id="graph0" class="graph" transform="scale(1 1) rotate(0) translate(4 141.5)">
<title>App\Console\Commands\GenerateFunctions\isBusinessDay</title>
<!-- Node1 -->
<g id="Node000001" class="node">
<title>Node1</title>
<g id="a_Node000001"><a xlink:title="Verifica si un día es laborable (lunes a viernes)">
<polygon fill="#999999" stroke="#666666" points="437,-78 252,-78 252,-48 437,-48 437,-78"/>
<text text-anchor="start" x="260" y="-66" font-family="Helvetica,sans-Serif" font-size="10.00">App\Console\Commands</text>
<text text-anchor="middle" x="344.5" y="-55" font-family="Helvetica,sans-Serif" font-size="10.00">\GenerateFunctions\isBusinessDay</text>
</a>
</g>
</g>
<!-- Node2 -->
<g id="Node000002" class="node">
<title>Node2</title>
<g id="a_Node000002"><a xlink:href="classApp_1_1Console_1_1Commands_1_1GenerateFunctions.html#a49725a00ba60da8938d6d9a19d96e060" target="_top" xlink:title="Obtiene el índice de la última película mostrada en el día laborable anterior.">
<polygon fill="white" stroke="#666666" points="198,-137.5 18,-137.5 18,-96.5 198,-96.5 198,-137.5"/>
<text text-anchor="start" x="26" y="-125.5" font-family="Helvetica,sans-Serif" font-size="10.00">App\Console\Commands</text>
<text text-anchor="start" x="26" y="-114.5" font-family="Helvetica,sans-Serif" font-size="10.00">\GenerateFunctions\getLastMovie</text>
<text text-anchor="middle" x="108" y="-103.5" font-family="Helvetica,sans-Serif" font-size="10.00">Index</text>
</a>
</g>
</g>
<!-- Node1&#45;&gt;Node2 -->
<g id="edge1_Node000001_Node000002" class="edge">
<title>Node1&#45;&gt;Node2</title>
<g id="a_edge1_Node000001_Node000002"><a xlink:title=" ">
<path fill="none" stroke="#63b8ff" d="M268.41,-80.29C246.02,-85.45 221.26,-91.15 198.07,-96.49"/>
<polygon fill="#63b8ff" stroke="#63b8ff" points="269.22,-83.7 278.18,-78.04 267.65,-76.88 269.22,-83.7"/>
</a>
</g>
</g>
<!-- Node3 -->
<g id="Node000003" class="node">
<title>Node3</title>
<g id="a_Node000003"><a xlink:href="classApp_1_1Console_1_1Commands_1_1GenerateFunctions.html#a4b3339b1c6cd29fda987be1b045849b4" target="_top" xlink:title="Obtiene el siguiente día laborable.">
<polygon fill="white" stroke="#666666" points="216,-78 0,-78 0,-48 216,-48 216,-78"/>
<text text-anchor="start" x="8" y="-66" font-family="Helvetica,sans-Serif" font-size="10.00">App\Console\Commands</text>
<text text-anchor="middle" x="108" y="-55" font-family="Helvetica,sans-Serif" font-size="10.00">\GenerateFunctions\getNextBusinessDay</text>
</a>
</g>
</g>
<!-- Node1&#45;&gt;Node3 -->
<g id="edge2_Node000001_Node000003" class="edge">
<title>Node1&#45;&gt;Node3</title>
<g id="a_edge2_Node000001_Node000003"><a xlink:title=" ">
<path fill="none" stroke="#63b8ff" d="M241.61,-63C233.19,-63 224.65,-63 216.19,-63"/>
<polygon fill="#63b8ff" stroke="#63b8ff" points="241.83,-66.5 251.83,-63 241.83,-59.5 241.83,-66.5"/>
</a>
</g>
</g>
<!-- Node4 -->
<g id="Node000004" class="node">
<title>Node4</title>
<g id="a_Node000004"><a xlink:href="classApp_1_1Console_1_1Commands_1_1GenerateFunctions.html#a232319f14337c405409b8960a9a7241c" target="_top" xlink:title="Execute the console command.">
<polygon fill="white" stroke="#666666" points="181.5,-30 34.5,-30 34.5,0 181.5,0 181.5,-30"/>
<text text-anchor="start" x="42.5" y="-18" font-family="Helvetica,sans-Serif" font-size="10.00">App\Console\Commands</text>
<text text-anchor="middle" x="108" y="-7" font-family="Helvetica,sans-Serif" font-size="10.00">\GenerateFunctions\handle</text>
</a>
</g>
</g>
<!-- Node1&#45;&gt;Node4 -->
<g id="edge3_Node000001_Node000004" class="edge">
<title>Node1&#45;&gt;Node4</title>
<g id="a_edge3_Node000001_Node000004"><a xlink:title=" ">
<path fill="none" stroke="#63b8ff" d="M259.93,-45.89C234.43,-40.68 206.62,-34.98 181.89,-29.92"/>
<polygon fill="#63b8ff" stroke="#63b8ff" points="259.45,-49.37 269.95,-47.94 260.85,-42.51 259.45,-49.37"/>
</a>
</g>
</g>
</g>
</svg>
