<?xml version="1.0" encoding="UTF-8" standalone="no"?>
<!DOCTYPE svg PUBLIC "-//W3C//DTD SVG 1.1//EN"
 "http://www.w3.org/Graphics/SVG/1.1/DTD/svg11.dtd">
<!-- Generated by graphviz version 2.43.0 (0)
 -->
<!-- Title: App\Console\Commands\ImportMoviesFromJson\handle Pages: 1 -->
<!--zoomable 309 -->

<svg id="main" version="1.1" xmlns="http://www.w3.org/2000/svg" xmlns:xlink="http://www.w3.org/1999/xlink" xml:space="preserve" onload="init(evt)">
<style type="text/css"><![CDATA[
.node, .edge {opacity: 0.7;}
.node.selected, .edge.selected {opacity: 1;}
.edge:hover path { stroke: red; }
.edge:hover polygon { stroke: red; fill: red; }
]]></style>

<defs>
  <circle id="rim" cx="0" cy="0" r="7"/>
  <circle id="rim2" cx="0" cy="0" r="3.5"/>
  <g id="zoomPlus">
    <use xlink:href="#rim" fill="#404040"><set attributeName="fill" to="#808080" begin="zoomplus.mouseover" end="zoomplus.mouseout"/></use>
    <path d="M-4,0h8M0,-4v8" fill="none" stroke="white" stroke-width="1.5" pointer-events="none"/>
  </g>
  <g id="zoomMin">
    <use xlink:href="#rim" fill="#404040"><set attributeName="fill" to="#808080" begin="zoomminus.mouseover" end="zoomminus.mouseout"/></use>
    <path d="M-4,0h8" fill="none" stroke="white" stroke-width="1.5" pointer-events="none"/>
  </g>
  <g id="arrowUp" transform="translate(30 24)">
    <use xlink:href="#rim"/>
    <path pointer-events="none" fill="none" stroke="white" stroke-width="1.5" d="M0,-3.0v7 M-2.5,-0.5L0,-3.0L2.5,-0.5"/>
  </g>
  <g id="arrowRight" transform="rotate(90) translate(36 -43)">
    <use xlink:href="#rim"/>
    <path pointer-events="none" fill="none" stroke="white" stroke-width="1.5" d="M0,-3.0v7 M-2.5,-0.5L0,-3.0L2.5,-0.5"/>
  </g>
  <g id="arrowDown" transform="rotate(180) translate(-30 -48)">
    <use xlink:href="#rim"/>
    <path pointer-events="none" fill="none" stroke="white" stroke-width="1.5" d="M0,-3.0v7 M-2.5,-0.5L0,-3.0L2.5,-0.5"/>
  </g>
  <g id="arrowLeft" transform="rotate(270) translate(-36 17)">
    <use xlink:href="#rim"/>
    <path pointer-events="none" fill="none" stroke="white" stroke-width="1.5" d="M0,-3.0v7 M-2.5,-0.5L0,-3.0L2.5,-0.5"/>
  </g>
  <g id="resetDef">
    <use xlink:href="#rim2" fill="#404040"><set attributeName="fill" to="#808080" begin="reset.mouseover" end="reset.mouseout"/></use>
  </g>
</defs>
<script type="application/ecmascript">
var viewWidth = 688;
var viewHeight = 309;
var sectionId = 'dynsection-5';
</script>
<script type="application/ecmascript" xlink:href="svg.min.js"/>
<svg id="graph" class="graph">
<g id="viewport">
<title>App\Console\Commands\ImportMoviesFromJson\handle</title>
<!-- Node1 -->
<g id="Node000001" class="node">
<title>Node1</title>
<g id="a_Node000001"><a xlink:title=" ">
<polygon fill="#999999" stroke="#666666" points="136,-188 0,-188 0,-147 136,-147 136,-188"/>
<text text-anchor="start" x="8" y="-176" font-family="Helvetica,sans-Serif" font-size="10.00">App\Console\Commands</text>
<text text-anchor="start" x="8" y="-165" font-family="Helvetica,sans-Serif" font-size="10.00">\ImportMoviesFromJson</text>
<text text-anchor="middle" x="68" y="-154" font-family="Helvetica,sans-Serif" font-size="10.00">\handle</text>
</a>
</g>
</g>
<!-- Node2 -->
<g id="Node000002" class="node">
<title>Node2</title>
<g id="a_Node000002"><a xlink:href="classApp_1_1Console_1_1Commands_1_1ImportMoviesFromJson.html#a45c94929f5e636834f626838d20007f4" target="_top" xlink:title=" ">
<polygon fill="white" stroke="#666666" points="308,-159 172,-159 172,-118 308,-118 308,-159"/>
<text text-anchor="start" x="180" y="-147" font-family="Helvetica,sans-Serif" font-size="10.00">App\Console\Commands</text>
<text text-anchor="start" x="180" y="-136" font-family="Helvetica,sans-Serif" font-size="10.00">\ImportMoviesFromJson</text>
<text text-anchor="middle" x="240" y="-125" font-family="Helvetica,sans-Serif" font-size="10.00">\createMovie</text>
</a>
</g>
</g>
<!-- Node1&#45;&gt;Node2 -->
<g id="edge1_Node000001_Node000002" class="edge">
<title>Node1&#45;&gt;Node2</title>
<g id="a_edge1_Node000001_Node000002"><a xlink:title=" ">
<path fill="none" stroke="#63b8ff" d="M136.19,-156.04C144.59,-154.6 153.24,-153.13 161.78,-151.67"/>
<polygon fill="#63b8ff" stroke="#63b8ff" points="162.47,-155.11 171.74,-149.97 161.3,-148.2 162.47,-155.11"/>
</a>
</g>
</g>
<!-- Node11 -->
<g id="Node000011" class="node">
<title>Node11</title>
<g id="a_Node000011"><a xlink:href="classApp_1_1Console_1_1Commands_1_1ImportMoviesFromJson.html#a0ecc46e111e5fe5c504ef0d1c5ec7dcc" target="_top" xlink:title=" ">
<polygon fill="white" stroke="#666666" points="308,-218 172,-218 172,-177 308,-177 308,-218"/>
<text text-anchor="start" x="180" y="-206" font-family="Helvetica,sans-Serif" font-size="10.00">App\Console\Commands</text>
<text text-anchor="start" x="180" y="-195" font-family="Helvetica,sans-Serif" font-size="10.00">\ImportMoviesFromJson</text>
<text text-anchor="middle" x="240" y="-184" font-family="Helvetica,sans-Serif" font-size="10.00">\updateMovie</text>
</a>
</g>
</g>
<!-- Node1&#45;&gt;Node11 -->
<g id="edge10_Node000001_Node000011" class="edge">
<title>Node1&#45;&gt;Node11</title>
<g id="a_edge10_Node000001_Node000011"><a xlink:title=" ">
<path fill="none" stroke="#63b8ff" d="M136.19,-179.36C144.59,-180.84 153.24,-182.37 161.78,-183.87"/>
<polygon fill="#63b8ff" stroke="#63b8ff" points="161.29,-187.34 171.74,-185.63 162.5,-180.45 161.29,-187.34"/>
</a>
</g>
</g>
<!-- Node3 -->
<g id="Node000003" class="node">
<title>Node3</title>
<g id="a_Node000003"><a xlink:href="classApp_1_1Console_1_1Commands_1_1ImportMoviesFromJson.html#a4b0935604439e557197269e334a3fad7" target="_top" xlink:title=" ">
<polygon fill="white" stroke="#666666" points="492,-159 344,-159 344,-118 492,-118 492,-159"/>
<text text-anchor="start" x="352" y="-147" font-family="Helvetica,sans-Serif" font-size="10.00">App\Console\Commands</text>
<text text-anchor="start" x="352" y="-136" font-family="Helvetica,sans-Serif" font-size="10.00">\ImportMoviesFromJson</text>
<text text-anchor="middle" x="418" y="-125" font-family="Helvetica,sans-Serif" font-size="10.00">\convertDurationToMinutes</text>
</a>
</g>
</g>
<!-- Node2&#45;&gt;Node3 -->
<g id="edge2_Node000002_Node000003" class="edge">
<title>Node2&#45;&gt;Node3</title>
<g id="a_edge2_Node000002_Node000003"><a xlink:title=" ">
<path fill="none" stroke="#63b8ff" d="M308.04,-138.5C316.49,-138.5 325.21,-138.5 333.87,-138.5"/>
<polygon fill="#63b8ff" stroke="#63b8ff" points="333.99,-142 343.99,-138.5 333.99,-135 333.99,-142"/>
</a>
</g>
</g>
<!-- Node4 -->
<g id="Node000004" class="node">
<title>Node4</title>
<g id="a_Node000004"><a xlink:href="classApp_1_1Console_1_1Commands_1_1ImportMoviesFromJson.html#a21898d55b0a9483950826e0feb40d28c" target="_top" xlink:title=" ">
<polygon fill="white" stroke="#666666" points="486,-277 350,-277 350,-236 486,-236 486,-277"/>
<text text-anchor="start" x="358" y="-265" font-family="Helvetica,sans-Serif" font-size="10.00">App\Console\Commands</text>
<text text-anchor="start" x="358" y="-254" font-family="Helvetica,sans-Serif" font-size="10.00">\ImportMoviesFromJson</text>
<text text-anchor="middle" x="418" y="-243" font-family="Helvetica,sans-Serif" font-size="10.00">\parseReleaseDate</text>
</a>
</g>
</g>
<!-- Node2&#45;&gt;Node4 -->
<g id="edge3_Node000002_Node000004" class="edge">
<title>Node2&#45;&gt;Node4</title>
<g id="a_edge3_Node000002_Node000004"><a xlink:title=" ">
<path fill="none" stroke="#63b8ff" d="M296.46,-159.07C300.57,-161.61 304.47,-164.41 308,-167.5 331.39,-187.99 320.3,-207.36 344,-227.5 345.14,-228.47 346.31,-229.4 347.51,-230.31"/>
<polygon fill="#63b8ff" stroke="#63b8ff" points="345.59,-233.24 355.85,-235.89 349.49,-227.42 345.59,-233.24"/>
</a>
</g>
</g>
<!-- Node5 -->
<g id="Node000005" class="node">
<title>Node5</title>
<g id="a_Node000005"><a xlink:href="classApp_1_1Console_1_1Commands_1_1ImportMoviesFromJson.html#a4acb5e947f86842db726da784f9f8b61" target="_top" xlink:title=" ">
<polygon fill="white" stroke="#666666" points="486,-41 350,-41 350,0 486,0 486,-41"/>
<text text-anchor="start" x="358" y="-29" font-family="Helvetica,sans-Serif" font-size="10.00">App\Console\Commands</text>
<text text-anchor="start" x="358" y="-18" font-family="Helvetica,sans-Serif" font-size="10.00">\ImportMoviesFromJson</text>
<text text-anchor="middle" x="418" y="-7" font-family="Helvetica,sans-Serif" font-size="10.00">\syncActors</text>
</a>
</g>
</g>
<!-- Node2&#45;&gt;Node5 -->
<g id="edge4_Node000002_Node000005" class="edge">
<title>Node2&#45;&gt;Node5</title>
<g id="a_edge4_Node000002_Node000005"><a xlink:title=" ">
<path fill="none" stroke="#63b8ff" d="M260.69,-117.87C280.32,-98.23 312.08,-68.87 344,-49.5 346.19,-48.17 348.46,-46.88 350.77,-45.63"/>
<polygon fill="#63b8ff" stroke="#63b8ff" points="352.56,-48.64 359.9,-41 349.4,-42.4 352.56,-48.64"/>
</a>
</g>
</g>
<!-- Node7 -->
<g id="Node000007" class="node">
<title>Node7</title>
<g id="a_Node000007"><a xlink:href="classApp_1_1Console_1_1Commands_1_1ImportMoviesFromJson.html#aa646d9bb7bd746d03908dd3a3b80dd8d" target="_top" xlink:title=" ">
<polygon fill="white" stroke="#666666" points="486,-100 350,-100 350,-59 486,-59 486,-100"/>
<text text-anchor="start" x="358" y="-88" font-family="Helvetica,sans-Serif" font-size="10.00">App\Console\Commands</text>
<text text-anchor="start" x="358" y="-77" font-family="Helvetica,sans-Serif" font-size="10.00">\ImportMoviesFromJson</text>
<text text-anchor="middle" x="418" y="-66" font-family="Helvetica,sans-Serif" font-size="10.00">\syncDirectors</text>
</a>
</g>
</g>
<!-- Node2&#45;&gt;Node7 -->
<g id="edge6_Node000002_Node000007" class="edge">
<title>Node2&#45;&gt;Node7</title>
<g id="a_edge6_Node000002_Node000007"><a xlink:title=" ">
<path fill="none" stroke="#63b8ff" d="M302.56,-117.86C316.57,-113.17 331.57,-108.14 345.94,-103.32"/>
<polygon fill="#63b8ff" stroke="#63b8ff" points="347.41,-106.52 355.78,-100.02 345.18,-99.88 347.41,-106.52"/>
</a>
</g>
</g>
<!-- Node9 -->
<g id="Node000009" class="node">
<title>Node9</title>
<g id="a_Node000009"><a xlink:href="classApp_1_1Console_1_1Commands_1_1ImportMoviesFromJson.html#acc24932d8c99ad94ab046d6c873daab4" target="_top" xlink:title=" ">
<polygon fill="white" stroke="#666666" points="486,-218 350,-218 350,-177 486,-177 486,-218"/>
<text text-anchor="start" x="358" y="-206" font-family="Helvetica,sans-Serif" font-size="10.00">App\Console\Commands</text>
<text text-anchor="start" x="358" y="-195" font-family="Helvetica,sans-Serif" font-size="10.00">\ImportMoviesFromJson</text>
<text text-anchor="middle" x="418" y="-184" font-family="Helvetica,sans-Serif" font-size="10.00">\syncGenres</text>
</a>
</g>
</g>
<!-- Node2&#45;&gt;Node9 -->
<g id="edge8_Node000002_Node000009" class="edge">
<title>Node2&#45;&gt;Node9</title>
<g id="a_edge8_Node000002_Node000009"><a xlink:title=" ">
<path fill="none" stroke="#63b8ff" d="M302.56,-159.14C316.57,-163.83 331.57,-168.86 345.94,-173.68"/>
<polygon fill="#63b8ff" stroke="#63b8ff" points="345.18,-177.12 355.78,-176.98 347.41,-170.48 345.18,-177.12"/>
</a>
</g>
</g>
<!-- Node6 -->
<g id="Node000006" class="node">
<title>Node6</title>
<g id="a_Node000006"><a xlink:href="classApp_1_1Models_1_1Movie.html#a7346c784b36820a94e59edfd5b0999f1" target="_top" xlink:title="Obtener los actores asociados con esta película.">
<polygon fill="white" stroke="#666666" points="674,-30 534,-30 534,-11 674,-11 674,-30"/>
<text text-anchor="middle" x="604" y="-18" font-family="Helvetica,sans-Serif" font-size="10.00">App\Models\Movie\actors</text>
</a>
</g>
</g>
<!-- Node5&#45;&gt;Node6 -->
<g id="edge5_Node000005_Node000006" class="edge">
<title>Node5&#45;&gt;Node6</title>
<g id="a_edge5_Node000005_Node000006"><a xlink:title=" ">
<path fill="none" stroke="#63b8ff" d="M486.21,-20.5C498.32,-20.5 511.05,-20.5 523.47,-20.5"/>
<polygon fill="#63b8ff" stroke="#63b8ff" points="523.81,-24 533.81,-20.5 523.81,-17 523.81,-24"/>
</a>
</g>
</g>
<!-- Node8 -->
<g id="Node000008" class="node">
<title>Node8</title>
<g id="a_Node000008"><a xlink:href="classApp_1_1Models_1_1Movie.html#a2931db075bf239a874b08564ebfe9efd" target="_top" xlink:title="Obtener los directores asociados con esta película.">
<polygon fill="white" stroke="#666666" points="680,-279 528,-279 528,-260 680,-260 680,-279"/>
<text text-anchor="middle" x="604" y="-267" font-family="Helvetica,sans-Serif" font-size="10.00">App\Models\Movie\directors</text>
</a>
</g>
</g>
<!-- Node7&#45;&gt;Node8 -->
<g id="edge7_Node000007_Node000008" class="edge">
<title>Node7&#45;&gt;Node8</title>
<g id="a_edge7_Node000007_Node000008"><a xlink:title=" ">
<path fill="none" stroke="#63b8ff" d="M482.31,-100.22C485.82,-102.68 489.09,-105.43 492,-108.5 526.52,-144.92 498.21,-175.13 528,-215.5 540.18,-232.01 558.91,-245.5 574.61,-254.87"/>
<polygon fill="#63b8ff" stroke="#63b8ff" points="573,-257.99 583.42,-259.9 576.47,-251.91 573,-257.99"/>
</a>
</g>
</g>
<!-- Node10 -->
<g id="Node000010" class="node">
<title>Node10</title>
<g id="a_Node000010"><a xlink:href="classApp_1_1Models_1_1Movie.html#a1301ceed205ee879f5af32ece84a0076" target="_top" xlink:title="Obtener los géneros asociados con esta película.">
<polygon fill="white" stroke="#666666" points="675.5,-207 532.5,-207 532.5,-188 675.5,-188 675.5,-207"/>
<text text-anchor="middle" x="604" y="-195" font-family="Helvetica,sans-Serif" font-size="10.00">App\Models\Movie\genres</text>
</a>
</g>
</g>
<!-- Node9&#45;&gt;Node10 -->
<g id="edge9_Node000009_Node000010" class="edge">
<title>Node9&#45;&gt;Node10</title>
<g id="a_edge9_Node000009_Node000010"><a xlink:title=" ">
<path fill="none" stroke="#63b8ff" d="M486.21,-197.5C497.92,-197.5 510.21,-197.5 522.24,-197.5"/>
<polygon fill="#63b8ff" stroke="#63b8ff" points="522.26,-201 532.26,-197.5 522.26,-194 522.26,-201"/>
</a>
</g>
</g>
<!-- Node11&#45;&gt;Node3 -->
<g id="edge11_Node000011_Node000003" class="edge">
<title>Node11&#45;&gt;Node3</title>
<g id="a_edge11_Node000011_Node000003"><a xlink:title=" ">
<path fill="none" stroke="#63b8ff" d="M302.56,-176.86C316.57,-172.17 331.57,-167.14 345.94,-162.32"/>
<polygon fill="#63b8ff" stroke="#63b8ff" points="347.41,-165.52 355.78,-159.02 345.18,-158.88 347.41,-165.52"/>
</a>
</g>
</g>
<!-- Node11&#45;&gt;Node4 -->
<g id="edge13_Node000011_Node000004" class="edge">
<title>Node11&#45;&gt;Node4</title>
<g id="a_edge13_Node000011_Node000004"><a xlink:title=" ">
<path fill="none" stroke="#63b8ff" d="M302.56,-218.14C316.57,-222.83 331.57,-227.86 345.94,-232.68"/>
<polygon fill="#63b8ff" stroke="#63b8ff" points="345.18,-236.12 355.78,-235.98 347.41,-229.48 345.18,-236.12"/>
</a>
</g>
</g>
<!-- Node11&#45;&gt;Node5 -->
<g id="edge14_Node000011_Node000005" class="edge">
<title>Node11&#45;&gt;Node5</title>
<g id="a_edge14_Node000011_Node000005"><a xlink:title=" ">
<path fill="none" stroke="#63b8ff" d="M297.36,-176.96C301.26,-174.18 304.88,-171.04 308,-167.5 344.28,-126.39 306.85,-89.83 344,-49.5 344.54,-48.92 345.09,-48.35 345.65,-47.79"/>
<polygon fill="#63b8ff" stroke="#63b8ff" points="348.18,-50.23 353.59,-41.12 343.68,-44.87 348.18,-50.23"/>
</a>
</g>
</g>
<!-- Node11&#45;&gt;Node8 -->
<g id="edge12_Node000011_Node000008" class="edge">
<title>Node11&#45;&gt;Node8</title>
<g id="a_edge12_Node000011_Node000008"><a xlink:title=" ">
<path fill="none" stroke="#63b8ff" d="M256.94,-218.09C275.23,-239.86 307.46,-272.9 344,-286.5 417.84,-313.98 511.63,-295.99 563.68,-281.83"/>
<polygon fill="#63b8ff" stroke="#63b8ff" points="564.83,-285.14 573.51,-279.06 562.94,-278.4 564.83,-285.14"/>
</a>
</g>
</g>
<!-- Node11&#45;&gt;Node9 -->
<g id="edge15_Node000011_Node000009" class="edge">
<title>Node11&#45;&gt;Node9</title>
<g id="a_edge15_Node000011_Node000009"><a xlink:title=" ">
<path fill="none" stroke="#63b8ff" d="M308.04,-197.5C318.42,-197.5 329.21,-197.5 339.79,-197.5"/>
<polygon fill="#63b8ff" stroke="#63b8ff" points="339.85,-201 349.85,-197.5 339.85,-194 339.85,-201"/>
</a>
</g>
</g>
</g>
</svg>

<g id="navigator" transform="translate(0 0)" fill="#404254">
  <rect fill="#f2f5e9" fill-opacity="0.5" stroke="#606060" stroke-width=".5" x="0" y="0" width="60" height="60"/>
  <use id="zoomplus" xlink:href="#zoomPlus" x="17" y="9" onmousedown="handleZoom(evt,'in')"/>
  <use id="zoomminus" xlink:href="#zoomMin" x="42" y="9" onmousedown="handleZoom(evt,'out')"/>
  <use id="reset" xlink:href="#resetDef" x="30" y="36" onmousedown="handleReset()"/>
   <use id="arrowup" xlink:href="#arrowUp" x="0" y="0" onmousedown="handlePan(0,-1)"/>
  <use id="arrowright" xlink:href="#arrowRight" x="0" y="0" onmousedown="handlePan(1,0)"/>
  <use id="arrowdown" xlink:href="#arrowDown" x="0" y="0" onmousedown="handlePan(0,1)"/>
  <use id="arrowleft" xlink:href="#arrowLeft" x="0" y="0" onmousedown="handlePan(-1,0)"/>
</g>
<svg viewBox="0 0 15 15" width="100%" height="30px" preserveAspectRatio="xMaxYMin meet">
 <g id="arrow_out" transform="scale(0.3 0.3)">
  <a xlink:href="classApp_1_1Console_1_1Commands_1_1ImportMoviesFromJson_ac22640744ebb16ae8d65c0ab483c3e3f_cgraph_org.svg" target="_base">
   <rect id="button" ry="5" rx="5" y="6" x="6" height="38" width="38"
        fill="#f2f5e9" fill-opacity="0.5" stroke="#606060" stroke-width="1.0"/>
   <path id="arrow"
     d="M 11.500037,31.436501 C 11.940474,20.09759 22.043105,11.32322 32.158766,21.979434 L 37.068811,17.246167 C 37.068811,17.246167 37.088388,32 37.088388,32 L 22.160133,31.978069 C 22.160133,31.978069 26.997745,27.140456 26.997745,27.140456 C 18.528582,18.264221 13.291696,25.230495 11.500037,31.436501 z"
     style="fill:#404040;"/>
  </a>
 </g>
</svg>

<style type='text/css'>
<![CDATA[
[data-mouse-over-selected='false'] { opacity: 0.7; }
[data-mouse-over-selected='true']  { opacity: 1.0; }
]]>
</style>
<script type="application/ecmascript"><![CDATA[
document.addEventListener('DOMContentLoaded', (event) => {
  highlightEdges();
  highlightAdjacentNodes();
});
]]></script>
</svg>
