<?xml version="1.0" encoding="UTF-8" standalone="no"?>
<!DOCTYPE svg PUBLIC "-//W3C//DTD SVG 1.1//EN"
 "http://www.w3.org/Graphics/SVG/1.1/DTD/svg11.dtd">
<!-- Generated by graphviz version 2.43.0 (0)
 -->
<!-- Title: App\Models\Booking\seats Pages: 1 -->
<svg width="286pt" height="108pt"
 viewBox="0.00 0.00 286.00 108.00" xmlns="http://www.w3.org/2000/svg" xmlns:xlink="http://www.w3.org/1999/xlink">
<g id="graph0" class="graph" transform="scale(1 1) rotate(0) translate(4 104)">
<title>App\Models\Booking\seats</title>
<!-- Node1 -->
<g id="Node000001" class="node">
<title>Node1</title>
<g id="a_Node000001"><a xlink:title="Obtener los asientos asociados a esta reserva.">
<polygon fill="#999999" stroke="#666666" points="278,-64.5 162,-64.5 162,-34.5 278,-34.5 278,-64.5"/>
<text text-anchor="start" x="170" y="-52.5" font-family="Helvetica,sans-Serif" font-size="10.00">App\Models\Booking</text>
<text text-anchor="middle" x="220" y="-41.5" font-family="Helvetica,sans-Serif" font-size="10.00">\seats</text>
</a>
</g>
</g>
<!-- Node2 -->
<g id="Node000002" class="node">
<title>Node2</title>
<g id="a_Node000002"><a xlink:href="classApp_1_1Http_1_1Controllers_1_1API_1_1BookingController.html#a9a59eafd4c8d1bb8df0d7883b07d4f3f" target="_top" xlink:title="Cancelar una reserva.">
<polygon fill="white" stroke="#666666" points="126,-100 0,-100 0,-59 126,-59 126,-100"/>
<text text-anchor="start" x="8" y="-88" font-family="Helvetica,sans-Serif" font-size="10.00">App\Http\Controllers</text>
<text text-anchor="start" x="8" y="-77" font-family="Helvetica,sans-Serif" font-size="10.00">\API\BookingController</text>
<text text-anchor="middle" x="63" y="-66" font-family="Helvetica,sans-Serif" font-size="10.00">\cancel</text>
</a>
</g>
</g>
<!-- Node1&#45;&gt;Node2 -->
<g id="edge1_Node000001_Node000002" class="edge">
<title>Node1&#45;&gt;Node2</title>
<g id="a_edge1_Node000001_Node000002"><a xlink:title=" ">
<path fill="none" stroke="#63b8ff" d="M151.85,-62.5C143.34,-64.14 134.67,-65.82 126.25,-67.45"/>
<polygon fill="#63b8ff" stroke="#63b8ff" points="152.57,-65.92 161.72,-60.59 151.24,-59.05 152.57,-65.92"/>
</a>
</g>
</g>
<!-- Node3 -->
<g id="Node000003" class="node">
<title>Node3</title>
<g id="a_Node000003"><a xlink:href="classApp_1_1Http_1_1Controllers_1_1API_1_1BookingController.html#a2999311b3c2c308808d90ad28cd1daa5" target="_top" xlink:title="Confirmar una reserva después del pago.">
<polygon fill="white" stroke="#666666" points="126,-41 0,-41 0,0 126,0 126,-41"/>
<text text-anchor="start" x="8" y="-29" font-family="Helvetica,sans-Serif" font-size="10.00">App\Http\Controllers</text>
<text text-anchor="start" x="8" y="-18" font-family="Helvetica,sans-Serif" font-size="10.00">\API\BookingController</text>
<text text-anchor="middle" x="63" y="-7" font-family="Helvetica,sans-Serif" font-size="10.00">\confirm</text>
</a>
</g>
</g>
<!-- Node1&#45;&gt;Node3 -->
<g id="edge2_Node000001_Node000003" class="edge">
<title>Node1&#45;&gt;Node3</title>
<g id="a_edge2_Node000001_Node000003"><a xlink:title=" ">
<path fill="none" stroke="#63b8ff" d="M151.85,-36.94C143.34,-35.34 134.67,-33.72 126.25,-32.15"/>
<polygon fill="#63b8ff" stroke="#63b8ff" points="151.25,-40.39 161.72,-38.78 152.54,-33.5 151.25,-40.39"/>
</a>
</g>
</g>
</g>
</svg>
