<?xml version="1.0" encoding="UTF-8" standalone="no"?>
<!DOCTYPE svg PUBLIC "-//W3C//DTD SVG 1.1//EN"
 "http://www.w3.org/Graphics/SVG/1.1/DTD/svg11.dtd">
<!-- Generated by graphviz version 2.43.0 (0)
 -->
<!-- Title: App\Http\Controllers\API\FunctionController\generateMultiRoomSchedule Pages: 1 -->
<!--zoomable 160 -->

<svg id="main" version="1.1" xmlns="http://www.w3.org/2000/svg" xmlns:xlink="http://www.w3.org/1999/xlink" xml:space="preserve" onload="init(evt)">
<style type="text/css"><![CDATA[
.node, .edge {opacity: 0.7;}
.node.selected, .edge.selected {opacity: 1;}
.edge:hover path { stroke: red; }
.edge:hover polygon { stroke: red; fill: red; }
]]></style>

<defs>
  <circle id="rim" cx="0" cy="0" r="7"/>
  <circle id="rim2" cx="0" cy="0" r="3.5"/>
  <g id="zoomPlus">
    <use xlink:href="#rim" fill="#404040"><set attributeName="fill" to="#808080" begin="zoomplus.mouseover" end="zoomplus.mouseout"/></use>
    <path d="M-4,0h8M0,-4v8" fill="none" stroke="white" stroke-width="1.5" pointer-events="none"/>
  </g>
  <g id="zoomMin">
    <use xlink:href="#rim" fill="#404040"><set attributeName="fill" to="#808080" begin="zoomminus.mouseover" end="zoomminus.mouseout"/></use>
    <path d="M-4,0h8" fill="none" stroke="white" stroke-width="1.5" pointer-events="none"/>
  </g>
  <g id="arrowUp" transform="translate(30 24)">
    <use xlink:href="#rim"/>
    <path pointer-events="none" fill="none" stroke="white" stroke-width="1.5" d="M0,-3.0v7 M-2.5,-0.5L0,-3.0L2.5,-0.5"/>
  </g>
  <g id="arrowRight" transform="rotate(90) translate(36 -43)">
    <use xlink:href="#rim"/>
    <path pointer-events="none" fill="none" stroke="white" stroke-width="1.5" d="M0,-3.0v7 M-2.5,-0.5L0,-3.0L2.5,-0.5"/>
  </g>
  <g id="arrowDown" transform="rotate(180) translate(-30 -48)">
    <use xlink:href="#rim"/>
    <path pointer-events="none" fill="none" stroke="white" stroke-width="1.5" d="M0,-3.0v7 M-2.5,-0.5L0,-3.0L2.5,-0.5"/>
  </g>
  <g id="arrowLeft" transform="rotate(270) translate(-36 17)">
    <use xlink:href="#rim"/>
    <path pointer-events="none" fill="none" stroke="white" stroke-width="1.5" d="M0,-3.0v7 M-2.5,-0.5L0,-3.0L2.5,-0.5"/>
  </g>
  <g id="resetDef">
    <use xlink:href="#rim2" fill="#404040"><set attributeName="fill" to="#808080" begin="reset.mouseover" end="reset.mouseout"/></use>
  </g>
</defs>
<script type="application/ecmascript">
var viewWidth = 837;
var viewHeight = 160;
var sectionId = 'dynsection-2';
</script>
<script type="application/ecmascript" xlink:href="svg.min.js"/>
<svg id="graph" class="graph">
<g id="viewport">
<title>App\Http\Controllers\API\FunctionController\generateMultiRoomSchedule</title>
<!-- Node1 -->
<g id="Node000001" class="node">
<title>Node1</title>
<g id="a_Node000001"><a xlink:title="Generar horarios para múltiples salas.">
<polygon fill="#999999" stroke="#666666" points="161,-53.97 0,-53.97 0,-12.97 161,-12.97 161,-53.97"/>
<text text-anchor="start" x="8" y="-41.97" font-family="Helvetica,sans-Serif" font-size="10.00">App\Http\Controllers</text>
<text text-anchor="start" x="8" y="-30.97" font-family="Helvetica,sans-Serif" font-size="10.00">\API\FunctionController</text>
<text text-anchor="middle" x="80.5" y="-19.97" font-family="Helvetica,sans-Serif" font-size="10.00">\generateMultiRoomSchedule</text>
</a>
</g>
</g>
<!-- Node2 -->
<g id="Node000002" class="node">
<title>Node2</title>
<g id="a_Node000002"><a xlink:href="classApp_1_1Http_1_1Controllers_1_1API_1_1FunctionController.html#adad79c96a0ad6c74ee117c8279f18902" target="_top" xlink:title="Generar horarios automáticamente para una sala y fecha específica.">
<polygon fill="white" stroke="#666666" points="325,-102.97 197,-102.97 197,-61.97 325,-61.97 325,-102.97"/>
<text text-anchor="start" x="205" y="-90.97" font-family="Helvetica,sans-Serif" font-size="10.00">App\Http\Controllers</text>
<text text-anchor="start" x="205" y="-79.97" font-family="Helvetica,sans-Serif" font-size="10.00">\API\FunctionController</text>
<text text-anchor="middle" x="261" y="-68.97" font-family="Helvetica,sans-Serif" font-size="10.00">\generateSchedule</text>
</a>
</g>
</g>
<!-- Node1&#45;&gt;Node2 -->
<g id="edge1_Node000001_Node000002" class="edge">
<title>Node1&#45;&gt;Node2</title>
<g id="a_edge1_Node000001_Node000002"><a xlink:title=" ">
<path fill="none" stroke="#63b8ff" d="M156.42,-54.04C166.51,-56.81 176.85,-59.65 186.91,-62.41"/>
<polygon fill="#63b8ff" stroke="#63b8ff" points="186.28,-65.86 196.85,-65.14 188.14,-59.11 186.28,-65.86"/>
</a>
</g>
</g>
<!-- Node5 -->
<g id="Node000005" class="node">
<title>Node5</title>
<g id="a_Node000005"><a xlink:href="classApp_1_1Http_1_1Controllers_1_1API_1_1FunctionController.html#a19f394d5ebe3d3812496bf291797e86d" target="_top" xlink:title="Verifica si un día es laborable (lunes a viernes)">
<polygon fill="white" stroke="#666666" points="829,-82.97 701,-82.97 701,-41.97 829,-41.97 829,-82.97"/>
<text text-anchor="start" x="709" y="-70.97" font-family="Helvetica,sans-Serif" font-size="10.00">App\Http\Controllers</text>
<text text-anchor="start" x="709" y="-59.97" font-family="Helvetica,sans-Serif" font-size="10.00">\API\FunctionController</text>
<text text-anchor="middle" x="765" y="-48.97" font-family="Helvetica,sans-Serif" font-size="10.00">\isBusinessDay</text>
</a>
</g>
</g>
<!-- Node1&#45;&gt;Node5 -->
<g id="edge9_Node000001_Node000005" class="edge">
<title>Node1&#45;&gt;Node5</title>
<g id="a_edge9_Node000001_Node000005"><a xlink:title=" ">
<path fill="none" stroke="#63b8ff" d="M161.13,-22.63C216.96,-15.6 293.38,-7.09 361,-3.47 417.81,-0.43 432.37,1.95 489,-3.47 568.31,-11.06 587.24,-20.15 665,-37.47 673.42,-39.35 682.22,-41.41 690.95,-43.53"/>
<polygon fill="#63b8ff" stroke="#63b8ff" points="690.21,-46.95 700.75,-45.93 691.87,-40.15 690.21,-46.95"/>
</a>
</g>
</g>
<!-- Node6 -->
<g id="Node000006" class="node">
<title>Node6</title>
<g id="a_Node000006"><a xlink:href="classApp_1_1Http_1_1Controllers_1_1API_1_1FunctionController.html#acbc88471b3aa01c832c09c3cb45f77a4" target="_top" xlink:title="Obtiene el siguiente día laborable.">
<polygon fill="white" stroke="#666666" points="489,-53.97 361,-53.97 361,-12.97 489,-12.97 489,-53.97"/>
<text text-anchor="start" x="369" y="-41.97" font-family="Helvetica,sans-Serif" font-size="10.00">App\Http\Controllers</text>
<text text-anchor="start" x="369" y="-30.97" font-family="Helvetica,sans-Serif" font-size="10.00">\API\FunctionController</text>
<text text-anchor="middle" x="425" y="-19.97" font-family="Helvetica,sans-Serif" font-size="10.00">\getNextBusinessDay</text>
</a>
</g>
</g>
<!-- Node1&#45;&gt;Node6 -->
<g id="edge8_Node000001_Node000006" class="edge">
<title>Node1&#45;&gt;Node6</title>
<g id="a_edge8_Node000001_Node000006"><a xlink:title=" ">
<path fill="none" stroke="#63b8ff" d="M161.37,-33.47C218.59,-33.47 295.06,-33.47 350.72,-33.47"/>
<polygon fill="#63b8ff" stroke="#63b8ff" points="350.87,-36.97 360.87,-33.47 350.87,-29.97 350.87,-36.97"/>
</a>
</g>
</g>
<!-- Node3 -->
<g id="Node000003" class="node">
<title>Node3</title>
<g id="a_Node000003"><a xlink:href="classApp_1_1Http_1_1Controllers_1_1API_1_1FunctionController.html#a4f894ae856e94aec570ca628e0573241" target="_top" xlink:title="Obtener el índice de la última película mostrada en el día laborable anterior.">
<polygon fill="white" stroke="#666666" points="489,-151.97 361,-151.97 361,-110.97 489,-110.97 489,-151.97"/>
<text text-anchor="start" x="369" y="-139.97" font-family="Helvetica,sans-Serif" font-size="10.00">App\Http\Controllers</text>
<text text-anchor="start" x="369" y="-128.97" font-family="Helvetica,sans-Serif" font-size="10.00">\API\FunctionController</text>
<text text-anchor="middle" x="425" y="-117.97" font-family="Helvetica,sans-Serif" font-size="10.00">\getLastMovieIndex</text>
</a>
</g>
</g>
<!-- Node2&#45;&gt;Node3 -->
<g id="edge2_Node000002_Node000003" class="edge">
<title>Node2&#45;&gt;Node3</title>
<g id="a_edge2_Node000002_Node000003"><a xlink:title=" ">
<path fill="none" stroke="#63b8ff" d="M325.1,-101.55C333.62,-104.13 342.42,-106.79 351.09,-109.42"/>
<polygon fill="#63b8ff" stroke="#63b8ff" points="350.22,-112.81 360.81,-112.36 352.25,-106.11 350.22,-112.81"/>
</a>
</g>
</g>
<!-- Node2&#45;&gt;Node5 -->
<g id="edge7_Node000002_Node000005" class="edge">
<title>Node2&#45;&gt;Node5</title>
<g id="a_edge7_Node000002_Node000005"><a xlink:title=" ">
<path fill="none" stroke="#63b8ff" d="M325.07,-79.96C418.16,-76.25 591.93,-69.33 690.61,-65.39"/>
<polygon fill="#63b8ff" stroke="#63b8ff" points="690.94,-68.88 700.79,-64.99 690.66,-61.89 690.94,-68.88"/>
</a>
</g>
</g>
<!-- Node2&#45;&gt;Node6 -->
<g id="edge5_Node000002_Node000006" class="edge">
<title>Node2&#45;&gt;Node6</title>
<g id="a_edge5_Node000002_Node000006"><a xlink:title=" ">
<path fill="none" stroke="#63b8ff" d="M325.1,-63.38C333.62,-60.81 342.42,-58.15 351.09,-55.52"/>
<polygon fill="#63b8ff" stroke="#63b8ff" points="352.25,-58.83 360.81,-52.58 350.22,-52.13 352.25,-58.83"/>
</a>
</g>
</g>
<!-- Node4 -->
<g id="Node000004" class="node">
<title>Node4</title>
<g id="a_Node000004"><a xlink:href="classApp_1_1Http_1_1Controllers_1_1API_1_1FunctionController.html#a1bf5be5e471cca9832db774da9bdd3ce" target="_top" xlink:title="Obtiene el día laborable anterior.">
<polygon fill="white" stroke="#666666" points="665,-151.97 525,-151.97 525,-110.97 665,-110.97 665,-151.97"/>
<text text-anchor="start" x="533" y="-139.97" font-family="Helvetica,sans-Serif" font-size="10.00">App\Http\Controllers</text>
<text text-anchor="start" x="533" y="-128.97" font-family="Helvetica,sans-Serif" font-size="10.00">\API\FunctionController</text>
<text text-anchor="middle" x="595" y="-117.97" font-family="Helvetica,sans-Serif" font-size="10.00">\getPreviousBusinessDay</text>
</a>
</g>
</g>
<!-- Node3&#45;&gt;Node4 -->
<g id="edge3_Node000003_Node000004" class="edge">
<title>Node3&#45;&gt;Node4</title>
<g id="a_edge3_Node000003_Node000004"><a xlink:title=" ">
<path fill="none" stroke="#63b8ff" d="M489.03,-131.47C497.47,-131.47 506.2,-131.47 514.86,-131.47"/>
<polygon fill="#63b8ff" stroke="#63b8ff" points="514.98,-134.97 524.98,-131.47 514.98,-127.97 514.98,-134.97"/>
</a>
</g>
</g>
<!-- Node4&#45;&gt;Node5 -->
<g id="edge4_Node000004_Node000005" class="edge">
<title>Node4&#45;&gt;Node5</title>
<g id="a_edge4_Node000004_Node000005"><a xlink:title=" ">
<path fill="none" stroke="#63b8ff" d="M645.95,-110.95C664.4,-103.38 685.5,-94.71 704.7,-86.83"/>
<polygon fill="#63b8ff" stroke="#63b8ff" points="706.03,-90.06 713.95,-83.03 703.37,-83.59 706.03,-90.06"/>
</a>
</g>
</g>
<!-- Node6&#45;&gt;Node5 -->
<g id="edge6_Node000006_Node000005" class="edge">
<title>Node6&#45;&gt;Node5</title>
<g id="a_edge6_Node000006_Node000005"><a xlink:title=" ">
<path fill="none" stroke="#63b8ff" d="M489.18,-38.89C546.35,-43.8 630.55,-51.02 690.66,-56.18"/>
<polygon fill="#63b8ff" stroke="#63b8ff" points="690.58,-59.68 700.84,-57.05 691.18,-52.71 690.58,-59.68"/>
</a>
</g>
</g>
</g>
</svg>

<g id="navigator" transform="translate(0 0)" fill="#404254">
  <rect fill="#f2f5e9" fill-opacity="0.5" stroke="#606060" stroke-width=".5" x="0" y="0" width="60" height="60"/>
  <use id="zoomplus" xlink:href="#zoomPlus" x="17" y="9" onmousedown="handleZoom(evt,'in')"/>
  <use id="zoomminus" xlink:href="#zoomMin" x="42" y="9" onmousedown="handleZoom(evt,'out')"/>
  <use id="reset" xlink:href="#resetDef" x="30" y="36" onmousedown="handleReset()"/>
   <use id="arrowup" xlink:href="#arrowUp" x="0" y="0" onmousedown="handlePan(0,-1)"/>
  <use id="arrowright" xlink:href="#arrowRight" x="0" y="0" onmousedown="handlePan(1,0)"/>
  <use id="arrowdown" xlink:href="#arrowDown" x="0" y="0" onmousedown="handlePan(0,1)"/>
  <use id="arrowleft" xlink:href="#arrowLeft" x="0" y="0" onmousedown="handlePan(-1,0)"/>
</g>
<svg viewBox="0 0 15 15" width="100%" height="30px" preserveAspectRatio="xMaxYMin meet">
 <g id="arrow_out" transform="scale(0.3 0.3)">
  <a xlink:href="classApp_1_1Http_1_1Controllers_1_1API_1_1FunctionController_a0b96645c0280a70b48a7d83c7050ede0_cgraph_org.svg" target="_base">
   <rect id="button" ry="5" rx="5" y="6" x="6" height="38" width="38"
        fill="#f2f5e9" fill-opacity="0.5" stroke="#606060" stroke-width="1.0"/>
   <path id="arrow"
     d="M 11.500037,31.436501 C 11.940474,20.09759 22.043105,11.32322 32.158766,21.979434 L 37.068811,17.246167 C 37.068811,17.246167 37.088388,32 37.088388,32 L 22.160133,31.978069 C 22.160133,31.978069 26.997745,27.140456 26.997745,27.140456 C 18.528582,18.264221 13.291696,25.230495 11.500037,31.436501 z"
     style="fill:#404040;"/>
  </a>
 </g>
</svg>

<style type='text/css'>
<![CDATA[
[data-mouse-over-selected='false'] { opacity: 0.7; }
[data-mouse-over-selected='true']  { opacity: 1.0; }
]]>
</style>
<script type="application/ecmascript"><![CDATA[
document.addEventListener('DOMContentLoaded', (event) => {
  highlightEdges();
  highlightAdjacentNodes();
});
]]></script>
</svg>
