<?xml version="1.0" encoding="UTF-8" standalone="no"?>
<!DOCTYPE svg PUBLIC "-//W3C//DTD SVG 1.1//EN"
 "http://www.w3.org/Graphics/SVG/1.1/DTD/svg11.dtd">
<!-- Generated by graphviz version 2.43.0 (0)
 -->
<!-- Title: App\Http\Controllers\Controller Pages: 1 -->
<!--zoomable 614 -->

<svg id="main" version="1.1" xmlns="http://www.w3.org/2000/svg" xmlns:xlink="http://www.w3.org/1999/xlink" xml:space="preserve" onload="init(evt)">
<style type="text/css"><![CDATA[
.node, .edge {opacity: 0.7;}
.node.selected, .edge.selected {opacity: 1;}
.edge:hover path { stroke: red; }
.edge:hover polygon { stroke: red; fill: red; }
]]></style>

<defs>
  <circle id="rim" cx="0" cy="0" r="7"/>
  <circle id="rim2" cx="0" cy="0" r="3.5"/>
  <g id="zoomPlus">
    <use xlink:href="#rim" fill="#404040"><set attributeName="fill" to="#808080" begin="zoomplus.mouseover" end="zoomplus.mouseout"/></use>
    <path d="M-4,0h8M0,-4v8" fill="none" stroke="white" stroke-width="1.5" pointer-events="none"/>
  </g>
  <g id="zoomMin">
    <use xlink:href="#rim" fill="#404040"><set attributeName="fill" to="#808080" begin="zoomminus.mouseover" end="zoomminus.mouseout"/></use>
    <path d="M-4,0h8" fill="none" stroke="white" stroke-width="1.5" pointer-events="none"/>
  </g>
  <g id="arrowUp" transform="translate(30 24)">
    <use xlink:href="#rim"/>
    <path pointer-events="none" fill="none" stroke="white" stroke-width="1.5" d="M0,-3.0v7 M-2.5,-0.5L0,-3.0L2.5,-0.5"/>
  </g>
  <g id="arrowRight" transform="rotate(90) translate(36 -43)">
    <use xlink:href="#rim"/>
    <path pointer-events="none" fill="none" stroke="white" stroke-width="1.5" d="M0,-3.0v7 M-2.5,-0.5L0,-3.0L2.5,-0.5"/>
  </g>
  <g id="arrowDown" transform="rotate(180) translate(-30 -48)">
    <use xlink:href="#rim"/>
    <path pointer-events="none" fill="none" stroke="white" stroke-width="1.5" d="M0,-3.0v7 M-2.5,-0.5L0,-3.0L2.5,-0.5"/>
  </g>
  <g id="arrowLeft" transform="rotate(270) translate(-36 17)">
    <use xlink:href="#rim"/>
    <path pointer-events="none" fill="none" stroke="white" stroke-width="1.5" d="M0,-3.0v7 M-2.5,-0.5L0,-3.0L2.5,-0.5"/>
  </g>
  <g id="resetDef">
    <use xlink:href="#rim2" fill="#404040"><set attributeName="fill" to="#808080" begin="reset.mouseover" end="reset.mouseout"/></use>
  </g>
</defs>
<script type="application/ecmascript">
var viewWidth = 434;
var viewHeight = 614;
var sectionId = 'dynsection-0';
</script>
<script type="application/ecmascript" xlink:href="svg.min.js"/>
<svg id="graph" class="graph">
<g id="viewport">
<title>App\Http\Controllers\Controller</title>
<!-- Node1 -->
<g id="Node000001" class="node">
<title>Node1</title>
<g id="a_Node000001"><a xlink:title=" ">
<polygon fill="#999999" stroke="#666666" points="241,-318 125,-318 125,-288 241,-288 241,-318"/>
<text text-anchor="start" x="133" y="-306" font-family="Helvetica,sans-Serif" font-size="10.00">App\Http\Controllers</text>
<text text-anchor="middle" x="183" y="-295" font-family="Helvetica,sans-Serif" font-size="10.00">\Controller</text>
</a>
</g>
</g>
<!-- Node3 -->
<g id="Node000003" class="node">
<title>Node3</title>
<g id="a_Node000003"><a xlink:href="classApp_1_1Http_1_1Controllers_1_1API_1_1ApiInfoController.html" target="_top" xlink:title="Controlador para obtener información sobre los endpoints de la API.">
<polygon fill="white" stroke="#666666" points="412,-606 291,-606 291,-576 412,-576 412,-606"/>
<text text-anchor="start" x="299" y="-594" font-family="Helvetica,sans-Serif" font-size="10.00">App\Http\Controllers</text>
<text text-anchor="middle" x="351.5" y="-583" font-family="Helvetica,sans-Serif" font-size="10.00">\API\ApiInfoController</text>
</a>
</g>
</g>
<!-- Node1&#45;&gt;Node3 -->
<g id="edge2_Node000001_Node000003" class="edge">
<title>Node1&#45;&gt;Node3</title>
<g id="a_edge2_Node000001_Node000003"><a xlink:title=" ">
<path fill="none" stroke="#63b8ff" d="M185.67,-328.32C190.46,-380.41 208.7,-500.26 277,-567 281.03,-570.94 285.72,-574.23 290.74,-576.99"/>
<polygon fill="#63b8ff" stroke="#63b8ff" points="189.15,-327.96 184.84,-318.28 182.17,-328.53 189.15,-327.96"/>
</a>
</g>
</g>
<!-- Node4 -->
<g id="Node000004" class="node">
<title>Node4</title>
<g id="a_Node000004"><a xlink:href="classApp_1_1Http_1_1Controllers_1_1API_1_1AuthController.html" target="_top" xlink:title=" ">
<polygon fill="white" stroke="#666666" points="409.5,-558 293.5,-558 293.5,-528 409.5,-528 409.5,-558"/>
<text text-anchor="start" x="301.5" y="-546" font-family="Helvetica,sans-Serif" font-size="10.00">App\Http\Controllers</text>
<text text-anchor="middle" x="351.5" y="-535" font-family="Helvetica,sans-Serif" font-size="10.00">\API\AuthController</text>
</a>
</g>
</g>
<!-- Node1&#45;&gt;Node4 -->
<g id="edge3_Node000001_Node000004" class="edge">
<title>Node1&#45;&gt;Node4</title>
<g id="a_edge3_Node000001_Node000004"><a xlink:title=" ">
<path fill="none" stroke="#63b8ff" d="M187.89,-328.02C196.16,-372.75 219.62,-466.61 277,-519 281.76,-523.34 287.32,-526.9 293.21,-529.82"/>
<polygon fill="#63b8ff" stroke="#63b8ff" points="191.31,-327.26 186.15,-318.01 184.42,-328.46 191.31,-327.26"/>
</a>
</g>
</g>
<!-- Node5 -->
<g id="Node000005" class="node">
<title>Node5</title>
<g id="a_Node000005"><a xlink:href="classApp_1_1Http_1_1Controllers_1_1API_1_1CinemaController.html" target="_top" xlink:title="Controlador para gestionar operaciones relacionadas con cines.">
<polygon fill="white" stroke="#666666" points="413.5,-510 289.5,-510 289.5,-480 413.5,-480 413.5,-510"/>
<text text-anchor="start" x="297.5" y="-498" font-family="Helvetica,sans-Serif" font-size="10.00">App\Http\Controllers</text>
<text text-anchor="middle" x="351.5" y="-487" font-family="Helvetica,sans-Serif" font-size="10.00">\API\CinemaController</text>
</a>
</g>
</g>
<!-- Node1&#45;&gt;Node5 -->
<g id="edge4_Node000001_Node000005" class="edge">
<title>Node1&#45;&gt;Node5</title>
<g id="a_edge4_Node000001_Node000005"><a xlink:title=" ">
<path fill="none" stroke="#63b8ff" d="M191.45,-328.39C203.49,-365.09 230.68,-432.74 277,-471 281.14,-474.42 285.78,-477.36 290.66,-479.88"/>
<polygon fill="#63b8ff" stroke="#63b8ff" points="194.67,-326.97 188.32,-318.49 187.99,-329.08 194.67,-326.97"/>
</a>
</g>
</g>
<!-- Node6 -->
<g id="Node000006" class="node">
<title>Node6</title>
<g id="a_Node000006"><a xlink:href="classApp_1_1Http_1_1Controllers_1_1API_1_1FunctionController.html" target="_top" xlink:title=" ">
<polygon fill="white" stroke="#666666" points="415.5,-462 287.5,-462 287.5,-432 415.5,-432 415.5,-462"/>
<text text-anchor="start" x="295.5" y="-450" font-family="Helvetica,sans-Serif" font-size="10.00">App\Http\Controllers</text>
<text text-anchor="middle" x="351.5" y="-439" font-family="Helvetica,sans-Serif" font-size="10.00">\API\FunctionController</text>
</a>
</g>
</g>
<!-- Node1&#45;&gt;Node6 -->
<g id="edge5_Node000001_Node000006" class="edge">
<title>Node1&#45;&gt;Node6</title>
<g id="a_edge5_Node000001_Node000006"><a xlink:title=" ">
<path fill="none" stroke="#63b8ff" d="M196.78,-327.1C212.31,-354.17 240.95,-397.61 277,-423 281.83,-426.4 287.17,-429.34 292.7,-431.88"/>
<polygon fill="#63b8ff" stroke="#63b8ff" points="199.78,-325.29 191.84,-318.27 193.67,-328.71 199.78,-325.29"/>
</a>
</g>
</g>
<!-- Node7 -->
<g id="Node000007" class="node">
<title>Node7</title>
<g id="a_Node000007"><a xlink:href="classApp_1_1Http_1_1Controllers_1_1API_1_1GenreController.html" target="_top" xlink:title=" ">
<polygon fill="white" stroke="#666666" points="409.5,-414 293.5,-414 293.5,-384 409.5,-384 409.5,-414"/>
<text text-anchor="start" x="301.5" y="-402" font-family="Helvetica,sans-Serif" font-size="10.00">App\Http\Controllers</text>
<text text-anchor="middle" x="351.5" y="-391" font-family="Helvetica,sans-Serif" font-size="10.00">\API\GenreController</text>
</a>
</g>
</g>
<!-- Node1&#45;&gt;Node7 -->
<g id="edge6_Node000001_Node000007" class="edge">
<title>Node1&#45;&gt;Node7</title>
<g id="a_edge6_Node000001_Node000007"><a xlink:title=" ">
<path fill="none" stroke="#63b8ff" d="M207.58,-324.97C225.49,-340.69 251.34,-361.4 277,-375 283.29,-378.33 290.12,-381.31 297.01,-383.94"/>
<polygon fill="#63b8ff" stroke="#63b8ff" points="209.72,-322.19 199.94,-318.14 205.06,-327.41 209.72,-322.19"/>
</a>
</g>
</g>
<!-- Node8 -->
<g id="Node000008" class="node">
<title>Node8</title>
<g id="a_Node000008"><a xlink:href="classApp_1_1Http_1_1Controllers_1_1API_1_1MovieController.html" target="_top" xlink:title="Class MovieController.">
<polygon fill="white" stroke="#666666" points="409.5,-366 293.5,-366 293.5,-336 409.5,-336 409.5,-366"/>
<text text-anchor="start" x="301.5" y="-354" font-family="Helvetica,sans-Serif" font-size="10.00">App\Http\Controllers</text>
<text text-anchor="middle" x="351.5" y="-343" font-family="Helvetica,sans-Serif" font-size="10.00">\API\MovieController</text>
</a>
</g>
</g>
<!-- Node1&#45;&gt;Node8 -->
<g id="edge7_Node000001_Node000008" class="edge">
<title>Node1&#45;&gt;Node8</title>
<g id="a_edge7_Node000001_Node000008"><a xlink:title=" ">
<path fill="none" stroke="#63b8ff" d="M246.19,-320.93C263.4,-325.89 281.89,-331.22 298.46,-336"/>
<polygon fill="#63b8ff" stroke="#63b8ff" points="246.8,-317.46 236.22,-318.06 244.86,-324.19 246.8,-317.46"/>
</a>
</g>
</g>
<!-- Node9 -->
<g id="Node000009" class="node">
<title>Node9</title>
<g id="a_Node000009"><a xlink:href="classApp_1_1Http_1_1Controllers_1_1API_1_1ProfileController.html" target="_top" xlink:title=" ">
<polygon fill="white" stroke="#666666" points="410,-318 293,-318 293,-288 410,-288 410,-318"/>
<text text-anchor="start" x="301" y="-306" font-family="Helvetica,sans-Serif" font-size="10.00">App\Http\Controllers</text>
<text text-anchor="middle" x="351.5" y="-295" font-family="Helvetica,sans-Serif" font-size="10.00">\API\ProfileController</text>
</a>
</g>
</g>
<!-- Node1&#45;&gt;Node9 -->
<g id="edge8_Node000001_Node000009" class="edge">
<title>Node1&#45;&gt;Node9</title>
<g id="a_edge8_Node000001_Node000009"><a xlink:title=" ">
<path fill="none" stroke="#63b8ff" d="M251.61,-303C265.28,-303 279.53,-303 292.81,-303"/>
<polygon fill="#63b8ff" stroke="#63b8ff" points="251.3,-299.5 241.3,-303 251.3,-306.5 251.3,-299.5"/>
</a>
</g>
</g>
<!-- Node10 -->
<g id="Node000010" class="node">
<title>Node10</title>
<g id="a_Node000010"><a xlink:href="classApp_1_1Http_1_1Controllers_1_1API_1_1ServerStatusController.html" target="_top" xlink:title=" ">
<polygon fill="white" stroke="#666666" points="426,-270 277,-270 277,-240 426,-240 426,-270"/>
<text text-anchor="start" x="285" y="-258" font-family="Helvetica,sans-Serif" font-size="10.00">App\Http\Controllers</text>
<text text-anchor="middle" x="351.5" y="-247" font-family="Helvetica,sans-Serif" font-size="10.00">\API\ServerStatusController</text>
</a>
</g>
</g>
<!-- Node1&#45;&gt;Node10 -->
<g id="edge9_Node000001_Node000010" class="edge">
<title>Node1&#45;&gt;Node10</title>
<g id="a_edge9_Node000001_Node000010"><a xlink:title=" ">
<path fill="none" stroke="#63b8ff" d="M246.19,-285.07C263.4,-280.11 281.89,-274.78 298.46,-270"/>
<polygon fill="#63b8ff" stroke="#63b8ff" points="244.86,-281.81 236.22,-287.94 246.8,-288.54 244.86,-281.81"/>
</a>
</g>
</g>
<!-- Node11 -->
<g id="Node000011" class="node">
<title>Node11</title>
<g id="a_Node000011"><a xlink:href="classApp_1_1Http_1_1Controllers_1_1API_1_1UserController.html" target="_top" xlink:title=" ">
<polygon fill="white" stroke="#666666" points="409.5,-222 293.5,-222 293.5,-192 409.5,-192 409.5,-222"/>
<text text-anchor="start" x="301.5" y="-210" font-family="Helvetica,sans-Serif" font-size="10.00">App\Http\Controllers</text>
<text text-anchor="middle" x="351.5" y="-199" font-family="Helvetica,sans-Serif" font-size="10.00">\API\UserController</text>
</a>
</g>
</g>
<!-- Node1&#45;&gt;Node11 -->
<g id="edge10_Node000001_Node000011" class="edge">
<title>Node1&#45;&gt;Node11</title>
<g id="a_edge10_Node000001_Node000011"><a xlink:title=" ">
<path fill="none" stroke="#63b8ff" d="M207.58,-281.03C225.49,-265.31 251.34,-244.6 277,-231 283.29,-227.67 290.12,-224.69 297.01,-222.06"/>
<polygon fill="#63b8ff" stroke="#63b8ff" points="205.06,-278.59 199.94,-287.86 209.72,-283.81 205.06,-278.59"/>
</a>
</g>
</g>
<!-- Node12 -->
<g id="Node000012" class="node">
<title>Node12</title>
<g id="a_Node000012"><a xlink:href="classApp_1_1Http_1_1Controllers_1_1LanguageController.html" target="_top" xlink:title="Controlador para manejar el cambio de idioma en la aplicación.">
<polygon fill="white" stroke="#666666" points="409.5,-174 293.5,-174 293.5,-144 409.5,-144 409.5,-174"/>
<text text-anchor="start" x="301.5" y="-162" font-family="Helvetica,sans-Serif" font-size="10.00">App\Http\Controllers</text>
<text text-anchor="middle" x="351.5" y="-151" font-family="Helvetica,sans-Serif" font-size="10.00">\LanguageController</text>
</a>
</g>
</g>
<!-- Node1&#45;&gt;Node12 -->
<g id="edge11_Node000001_Node000012" class="edge">
<title>Node1&#45;&gt;Node12</title>
<g id="a_edge11_Node000001_Node000012"><a xlink:title=" ">
<path fill="none" stroke="#63b8ff" d="M196.78,-278.9C212.31,-251.83 240.95,-208.39 277,-183 282.05,-179.44 287.66,-176.39 293.46,-173.78"/>
<polygon fill="#63b8ff" stroke="#63b8ff" points="193.67,-277.29 191.84,-287.73 199.78,-280.71 193.67,-277.29"/>
</a>
</g>
</g>
<!-- Node13 -->
<g id="Node000013" class="node">
<title>Node13</title>
<g id="a_Node000013"><a xlink:href="classApp_1_1Http_1_1Controllers_1_1MovieController.html" target="_top" xlink:title="Controlador para manejar las vistas relacionadas con películas.">
<polygon fill="white" stroke="#666666" points="409.5,-126 293.5,-126 293.5,-96 409.5,-96 409.5,-126"/>
<text text-anchor="start" x="301.5" y="-114" font-family="Helvetica,sans-Serif" font-size="10.00">App\Http\Controllers</text>
<text text-anchor="middle" x="351.5" y="-103" font-family="Helvetica,sans-Serif" font-size="10.00">\MovieController</text>
</a>
</g>
</g>
<!-- Node1&#45;&gt;Node13 -->
<g id="edge12_Node000001_Node000013" class="edge">
<title>Node1&#45;&gt;Node13</title>
<g id="a_edge12_Node000001_Node000013"><a xlink:title=" ">
<path fill="none" stroke="#63b8ff" d="M191.45,-277.61C203.49,-240.91 230.68,-173.26 277,-135 281.86,-130.98 287.42,-127.63 293.25,-124.84"/>
<polygon fill="#63b8ff" stroke="#63b8ff" points="187.99,-276.92 188.32,-287.51 194.67,-279.03 187.99,-276.92"/>
</a>
</g>
</g>
<!-- Node14 -->
<g id="Node000014" class="node">
<title>Node14</title>
<g id="a_Node000014"><a xlink:href="classApp_1_1Http_1_1Controllers_1_1SimpleEndpointController.html" target="_top" xlink:title="Controlador para mostrar los endpoints disponibles en la aplicación.">
<polygon fill="white" stroke="#666666" points="423.5,-78 279.5,-78 279.5,-48 423.5,-48 423.5,-78"/>
<text text-anchor="start" x="287.5" y="-66" font-family="Helvetica,sans-Serif" font-size="10.00">App\Http\Controllers</text>
<text text-anchor="middle" x="351.5" y="-55" font-family="Helvetica,sans-Serif" font-size="10.00">\SimpleEndpointController</text>
</a>
</g>
</g>
<!-- Node1&#45;&gt;Node14 -->
<g id="edge13_Node000001_Node000014" class="edge">
<title>Node1&#45;&gt;Node14</title>
<g id="a_edge13_Node000001_Node000014"><a xlink:title=" ">
<path fill="none" stroke="#63b8ff" d="M187.89,-277.98C196.16,-233.25 219.62,-139.39 277,-87 280.77,-83.56 285.04,-80.61 289.57,-78.09"/>
<polygon fill="#63b8ff" stroke="#63b8ff" points="184.42,-277.54 186.15,-287.99 191.31,-278.74 184.42,-277.54"/>
</a>
</g>
</g>
<!-- Node15 -->
<g id="Node000015" class="node">
<title>Node15</title>
<g id="a_Node000015"><a xlink:href="classApp_1_1Http_1_1Controllers_1_1WelcomeController.html" target="_top" xlink:title="Controlador que gestiona la página principal de bienvenida.">
<polygon fill="white" stroke="#666666" points="409.5,-30 293.5,-30 293.5,0 409.5,0 409.5,-30"/>
<text text-anchor="start" x="301.5" y="-18" font-family="Helvetica,sans-Serif" font-size="10.00">App\Http\Controllers</text>
<text text-anchor="middle" x="351.5" y="-7" font-family="Helvetica,sans-Serif" font-size="10.00">\WelcomeController</text>
</a>
</g>
</g>
<!-- Node1&#45;&gt;Node15 -->
<g id="edge14_Node000001_Node000015" class="edge">
<title>Node1&#45;&gt;Node15</title>
<g id="a_edge14_Node000001_Node000015"><a xlink:title=" ">
<path fill="none" stroke="#63b8ff" d="M185.67,-277.68C190.46,-225.59 208.7,-105.74 277,-39 281.7,-34.4 287.3,-30.69 293.27,-27.68"/>
<polygon fill="#63b8ff" stroke="#63b8ff" points="182.17,-277.47 184.84,-287.72 189.15,-278.04 182.17,-277.47"/>
</a>
</g>
</g>
<!-- Node2 -->
<g id="Node000002" class="node">
<title>Node2</title>
<g id="a_Node000002"><a xlink:title=" ">
<polygon fill="white" stroke="#666666" points="89,-312.5 0,-312.5 0,-293.5 89,-293.5 89,-312.5"/>
<text text-anchor="middle" x="44.5" y="-300.5" font-family="Helvetica,sans-Serif" font-size="10.00">BaseController</text>
</a>
</g>
</g>
<!-- Node2&#45;&gt;Node1 -->
<g id="edge1_Node000001_Node000002" class="edge">
<title>Node2&#45;&gt;Node1</title>
<g id="a_edge1_Node000001_Node000002"><a xlink:title=" ">
<path fill="none" stroke="#63b8ff" d="M99.17,-303C107.62,-303 116.37,-303 124.89,-303"/>
<polygon fill="#63b8ff" stroke="#63b8ff" points="99.06,-299.5 89.06,-303 99.06,-306.5 99.06,-299.5"/>
</a>
</g>
</g>
</g>
</svg>

<g id="navigator" transform="translate(0 0)" fill="#404254">
  <rect fill="#f2f5e9" fill-opacity="0.5" stroke="#606060" stroke-width=".5" x="0" y="0" width="60" height="60"/>
  <use id="zoomplus" xlink:href="#zoomPlus" x="17" y="9" onmousedown="handleZoom(evt,'in')"/>
  <use id="zoomminus" xlink:href="#zoomMin" x="42" y="9" onmousedown="handleZoom(evt,'out')"/>
  <use id="reset" xlink:href="#resetDef" x="30" y="36" onmousedown="handleReset()"/>
   <use id="arrowup" xlink:href="#arrowUp" x="0" y="0" onmousedown="handlePan(0,-1)"/>
  <use id="arrowright" xlink:href="#arrowRight" x="0" y="0" onmousedown="handlePan(1,0)"/>
  <use id="arrowdown" xlink:href="#arrowDown" x="0" y="0" onmousedown="handlePan(0,1)"/>
  <use id="arrowleft" xlink:href="#arrowLeft" x="0" y="0" onmousedown="handlePan(-1,0)"/>
</g>
<svg viewBox="0 0 15 15" width="100%" height="30px" preserveAspectRatio="xMaxYMin meet">
 <g id="arrow_out" transform="scale(0.3 0.3)">
  <a xlink:href="classApp_1_1Http_1_1Controllers_1_1Controller__inherit__graph_org.svg" target="_base">
   <rect id="button" ry="5" rx="5" y="6" x="6" height="38" width="38"
        fill="#f2f5e9" fill-opacity="0.5" stroke="#606060" stroke-width="1.0"/>
   <path id="arrow"
     d="M 11.500037,31.436501 C 11.940474,20.09759 22.043105,11.32322 32.158766,21.979434 L 37.068811,17.246167 C 37.068811,17.246167 37.088388,32 37.088388,32 L 22.160133,31.978069 C 22.160133,31.978069 26.997745,27.140456 26.997745,27.140456 C 18.528582,18.264221 13.291696,25.230495 11.500037,31.436501 z"
     style="fill:#404040;"/>
  </a>
 </g>
</svg>

<style type='text/css'>
<![CDATA[
[data-mouse-over-selected='false'] { opacity: 0.7; }
[data-mouse-over-selected='true']  { opacity: 1.0; }
]]>
</style>
<script type="application/ecmascript"><![CDATA[
document.addEventListener('DOMContentLoaded', (event) => {
  highlightEdges();
  highlightAdjacentNodes();
});
]]></script>
</svg>
