<?xml version="1.0" encoding="UTF-8" standalone="no"?>
<!DOCTYPE svg PUBLIC "-//W3C//DTD SVG 1.1//EN"
 "http://www.w3.org/Graphics/SVG/1.1/DTD/svg11.dtd">
<!-- Generated by graphviz version 2.43.0 (0)
 -->
<!-- Title: App\Console\Commands\ImportMoviesFromJson\updateMovie Pages: 1 -->
<svg width="511pt" height="263pt"
 viewBox="0.00 0.00 511.00 263.00" xmlns="http://www.w3.org/2000/svg" xmlns:xlink="http://www.w3.org/1999/xlink">
<g id="graph0" class="graph" transform="scale(1 1) rotate(0) translate(4 259)">
<title>App\Console\Commands\ImportMoviesFromJson\updateMovie</title>
<!-- Node1 -->
<g id="Node000001" class="node">
<title>Node1</title>
<g id="a_Node000001"><a xlink:title=" ">
<polygon fill="#999999" stroke="#666666" points="136,-159 0,-159 0,-118 136,-118 136,-159"/>
<text text-anchor="start" x="8" y="-147" font-family="Helvetica,sans-Serif" font-size="10.00">App\Console\Commands</text>
<text text-anchor="start" x="8" y="-136" font-family="Helvetica,sans-Serif" font-size="10.00">\ImportMoviesFromJson</text>
<text text-anchor="middle" x="68" y="-125" font-family="Helvetica,sans-Serif" font-size="10.00">\updateMovie</text>
</a>
</g>
</g>
<!-- Node2 -->
<g id="Node000002" class="node">
<title>Node2</title>
<g id="a_Node000002"><a xlink:href="classApp_1_1Console_1_1Commands_1_1ImportMoviesFromJson.html#a4b0935604439e557197269e334a3fad7" target="_top" xlink:title=" ">
<polygon fill="white" stroke="#666666" points="322,-255 174,-255 174,-214 322,-214 322,-255"/>
<text text-anchor="start" x="182" y="-243" font-family="Helvetica,sans-Serif" font-size="10.00">App\Console\Commands</text>
<text text-anchor="start" x="182" y="-232" font-family="Helvetica,sans-Serif" font-size="10.00">\ImportMoviesFromJson</text>
<text text-anchor="middle" x="248" y="-221" font-family="Helvetica,sans-Serif" font-size="10.00">\convertDurationToMinutes</text>
</a>
</g>
</g>
<!-- Node1&#45;&gt;Node2 -->
<g id="edge1_Node000001_Node000002" class="edge">
<title>Node1&#45;&gt;Node2</title>
<g id="a_edge1_Node000001_Node000002"><a xlink:title=" ">
<path fill="none" stroke="#63b8ff" d="M97.34,-159.23C117.5,-173.4 145.6,-192 172,-205.5 174.77,-206.92 177.62,-208.31 180.53,-209.66"/>
<polygon fill="#63b8ff" stroke="#63b8ff" points="179.38,-212.98 189.94,-213.88 182.24,-206.59 179.38,-212.98"/>
</a>
</g>
</g>
<!-- Node3 -->
<g id="Node000003" class="node">
<title>Node3</title>
<g id="a_Node000003"><a xlink:href="classApp_1_1Models_1_1Movie.html#a2931db075bf239a874b08564ebfe9efd" target="_top" xlink:title="Obtener los directores asociados con esta película.">
<polygon fill="white" stroke="#666666" points="324,-196 172,-196 172,-177 324,-177 324,-196"/>
<text text-anchor="middle" x="248" y="-184" font-family="Helvetica,sans-Serif" font-size="10.00">App\Models\Movie\directors</text>
</a>
</g>
</g>
<!-- Node1&#45;&gt;Node3 -->
<g id="edge2_Node000001_Node000003" class="edge">
<title>Node1&#45;&gt;Node3</title>
<g id="a_edge2_Node000001_Node000003"><a xlink:title=" ">
<path fill="none" stroke="#63b8ff" d="M136.19,-158.57C148.09,-161.98 160.39,-165.42 172,-168.5 179.64,-170.53 187.75,-172.58 195.71,-174.53"/>
<polygon fill="#63b8ff" stroke="#63b8ff" points="195.1,-177.99 205.65,-176.95 196.76,-171.19 195.1,-177.99"/>
</a>
</g>
</g>
<!-- Node4 -->
<g id="Node000004" class="node">
<title>Node4</title>
<g id="a_Node000004"><a xlink:href="classApp_1_1Console_1_1Commands_1_1ImportMoviesFromJson.html#a21898d55b0a9483950826e0feb40d28c" target="_top" xlink:title=" ">
<polygon fill="white" stroke="#666666" points="316,-159 180,-159 180,-118 316,-118 316,-159"/>
<text text-anchor="start" x="188" y="-147" font-family="Helvetica,sans-Serif" font-size="10.00">App\Console\Commands</text>
<text text-anchor="start" x="188" y="-136" font-family="Helvetica,sans-Serif" font-size="10.00">\ImportMoviesFromJson</text>
<text text-anchor="middle" x="248" y="-125" font-family="Helvetica,sans-Serif" font-size="10.00">\parseReleaseDate</text>
</a>
</g>
</g>
<!-- Node1&#45;&gt;Node4 -->
<g id="edge3_Node000001_Node000004" class="edge">
<title>Node1&#45;&gt;Node4</title>
<g id="a_edge3_Node000001_Node000004"><a xlink:title=" ">
<path fill="none" stroke="#63b8ff" d="M136.04,-138.5C146.98,-138.5 158.39,-138.5 169.56,-138.5"/>
<polygon fill="#63b8ff" stroke="#63b8ff" points="169.72,-142 179.72,-138.5 169.72,-135 169.72,-142"/>
</a>
</g>
</g>
<!-- Node5 -->
<g id="Node000005" class="node">
<title>Node5</title>
<g id="a_Node000005"><a xlink:href="classApp_1_1Console_1_1Commands_1_1ImportMoviesFromJson.html#a4acb5e947f86842db726da784f9f8b61" target="_top" xlink:title=" ">
<polygon fill="white" stroke="#666666" points="316,-100 180,-100 180,-59 316,-59 316,-100"/>
<text text-anchor="start" x="188" y="-88" font-family="Helvetica,sans-Serif" font-size="10.00">App\Console\Commands</text>
<text text-anchor="start" x="188" y="-77" font-family="Helvetica,sans-Serif" font-size="10.00">\ImportMoviesFromJson</text>
<text text-anchor="middle" x="248" y="-66" font-family="Helvetica,sans-Serif" font-size="10.00">\syncActors</text>
</a>
</g>
</g>
<!-- Node1&#45;&gt;Node5 -->
<g id="edge4_Node000001_Node000005" class="edge">
<title>Node1&#45;&gt;Node5</title>
<g id="a_edge4_Node000001_Node000005"><a xlink:title=" ">
<path fill="none" stroke="#63b8ff" d="M131.26,-117.86C145.57,-113.12 160.89,-108.04 175.56,-103.18"/>
<polygon fill="#63b8ff" stroke="#63b8ff" points="176.69,-106.49 185.08,-100.02 174.49,-99.85 176.69,-106.49"/>
</a>
</g>
</g>
<!-- Node7 -->
<g id="Node000007" class="node">
<title>Node7</title>
<g id="a_Node000007"><a xlink:href="classApp_1_1Console_1_1Commands_1_1ImportMoviesFromJson.html#acc24932d8c99ad94ab046d6c873daab4" target="_top" xlink:title=" ">
<polygon fill="white" stroke="#666666" points="316,-41 180,-41 180,0 316,0 316,-41"/>
<text text-anchor="start" x="188" y="-29" font-family="Helvetica,sans-Serif" font-size="10.00">App\Console\Commands</text>
<text text-anchor="start" x="188" y="-18" font-family="Helvetica,sans-Serif" font-size="10.00">\ImportMoviesFromJson</text>
<text text-anchor="middle" x="248" y="-7" font-family="Helvetica,sans-Serif" font-size="10.00">\syncGenres</text>
</a>
</g>
</g>
<!-- Node1&#45;&gt;Node7 -->
<g id="edge6_Node000001_Node000007" class="edge">
<title>Node1&#45;&gt;Node7</title>
<g id="a_edge6_Node000001_Node000007"><a xlink:title=" ">
<path fill="none" stroke="#63b8ff" d="M89.12,-117.77C108.82,-98.37 140.4,-69.6 172,-50.5 174.82,-48.79 177.75,-47.15 180.76,-45.57"/>
<polygon fill="#63b8ff" stroke="#63b8ff" points="182.53,-48.6 189.93,-41.02 179.42,-42.33 182.53,-48.6"/>
</a>
</g>
</g>
<!-- Node6 -->
<g id="Node000006" class="node">
<title>Node6</title>
<g id="a_Node000006"><a xlink:href="classApp_1_1Models_1_1Movie.html#a7346c784b36820a94e59edfd5b0999f1" target="_top" xlink:title="Obtener los actores asociados con esta película.">
<polygon fill="white" stroke="#666666" points="501.5,-89 361.5,-89 361.5,-70 501.5,-70 501.5,-89"/>
<text text-anchor="middle" x="431.5" y="-77" font-family="Helvetica,sans-Serif" font-size="10.00">App\Models\Movie\actors</text>
</a>
</g>
</g>
<!-- Node5&#45;&gt;Node6 -->
<g id="edge5_Node000005_Node000006" class="edge">
<title>Node5&#45;&gt;Node6</title>
<g id="a_edge5_Node000005_Node000006"><a xlink:title=" ">
<path fill="none" stroke="#63b8ff" d="M316.07,-79.5C327.47,-79.5 339.41,-79.5 351.1,-79.5"/>
<polygon fill="#63b8ff" stroke="#63b8ff" points="351.28,-83 361.28,-79.5 351.28,-76 351.28,-83"/>
</a>
</g>
</g>
<!-- Node8 -->
<g id="Node000008" class="node">
<title>Node8</title>
<g id="a_Node000008"><a xlink:href="classApp_1_1Models_1_1Movie.html#a1301ceed205ee879f5af32ece84a0076" target="_top" xlink:title="Obtener los géneros asociados con esta película.">
<polygon fill="white" stroke="#666666" points="503,-30 360,-30 360,-11 503,-11 503,-30"/>
<text text-anchor="middle" x="431.5" y="-18" font-family="Helvetica,sans-Serif" font-size="10.00">App\Models\Movie\genres</text>
</a>
</g>
</g>
<!-- Node7&#45;&gt;Node8 -->
<g id="edge7_Node000007_Node000008" class="edge">
<title>Node7&#45;&gt;Node8</title>
<g id="a_edge7_Node000007_Node000008"><a xlink:title=" ">
<path fill="none" stroke="#63b8ff" d="M316.07,-20.5C326.97,-20.5 338.36,-20.5 349.55,-20.5"/>
<polygon fill="#63b8ff" stroke="#63b8ff" points="349.75,-24 359.75,-20.5 349.75,-17 349.75,-24"/>
</a>
</g>
</g>
</g>
</svg>
