<?xml version="1.0" encoding="UTF-8" standalone="no"?>
<!DOCTYPE svg PUBLIC "-//W3C//DTD SVG 1.1//EN"
 "http://www.w3.org/Graphics/SVG/1.1/DTD/svg11.dtd">
<!-- Generated by graphviz version 2.43.0 (0)
 -->
<!-- Title: App\Models\Movie\actors Pages: 1 -->
<svg width="691pt" height="128pt"
 viewBox="0.00 0.00 691.00 127.50" xmlns="http://www.w3.org/2000/svg" xmlns:xlink="http://www.w3.org/1999/xlink">
<g id="graph0" class="graph" transform="scale(1 1) rotate(0) translate(4 123.5)">
<title>App\Models\Movie\actors</title>
<!-- Node1 -->
<g id="Node000001" class="node">
<title>Node1</title>
<g id="a_Node000001"><a xlink:title="Obtener los actores asociados con esta película.">
<polygon fill="#999999" stroke="#666666" points="683,-51.5 543,-51.5 543,-32.5 683,-32.5 683,-51.5"/>
<text text-anchor="middle" x="613" y="-39.5" font-family="Helvetica,sans-Serif" font-size="10.00">App\Models\Movie\actors</text>
</a>
</g>
</g>
<!-- Node2 -->
<g id="Node000002" class="node">
<title>Node2</title>
<g id="a_Node000002"><a xlink:href="classApp_1_1Console_1_1Commands_1_1ImportMoviesFromJson.html#a4acb5e947f86842db726da784f9f8b61" target="_top" xlink:title=" ">
<polygon fill="white" stroke="#666666" points="493.5,-89.5 357.5,-89.5 357.5,-48.5 493.5,-48.5 493.5,-89.5"/>
<text text-anchor="start" x="365.5" y="-77.5" font-family="Helvetica,sans-Serif" font-size="10.00">App\Console\Commands</text>
<text text-anchor="start" x="365.5" y="-66.5" font-family="Helvetica,sans-Serif" font-size="10.00">\ImportMoviesFromJson</text>
<text text-anchor="middle" x="425.5" y="-55.5" font-family="Helvetica,sans-Serif" font-size="10.00">\syncActors</text>
</a>
</g>
</g>
<!-- Node1&#45;&gt;Node2 -->
<g id="edge1_Node000001_Node000002" class="edge">
<title>Node1&#45;&gt;Node2</title>
<g id="a_edge1_Node000001_Node000002"><a xlink:title=" ">
<path fill="none" stroke="#63b8ff" d="M536.38,-53.01C522.18,-55.07 507.42,-57.22 493.5,-59.25"/>
<polygon fill="#63b8ff" stroke="#63b8ff" points="537.21,-56.42 546.6,-51.52 536.2,-49.5 537.21,-56.42"/>
</a>
</g>
</g>
<!-- Node6 -->
<g id="Node000006" class="node">
<title>Node6</title>
<g id="a_Node000006"><a xlink:href="classApp_1_1Models_1_1Movie.html#a761af6742dda30a1259a4bc88786d594" target="_top" xlink:title="Sincronizar actores desde un array de nombres.">
<polygon fill="white" stroke="#666666" points="507,-30 344,-30 344,0 507,0 507,-30"/>
<text text-anchor="start" x="352" y="-18" font-family="Helvetica,sans-Serif" font-size="10.00">App\Models\Movie\syncActors</text>
<text text-anchor="middle" x="425.5" y="-7" font-family="Helvetica,sans-Serif" font-size="10.00">ByName</text>
</a>
</g>
</g>
<!-- Node1&#45;&gt;Node6 -->
<g id="edge6_Node000001_Node000006" class="edge">
<title>Node1&#45;&gt;Node6</title>
<g id="a_edge6_Node000001_Node000006"><a xlink:title=" ">
<path fill="none" stroke="#63b8ff" d="M536.63,-31.03C526.94,-29.62 517,-28.17 507.24,-26.75"/>
<polygon fill="#63b8ff" stroke="#63b8ff" points="536.2,-34.5 546.6,-32.48 537.21,-27.58 536.2,-34.5"/>
</a>
</g>
</g>
<!-- Node3 -->
<g id="Node000003" class="node">
<title>Node3</title>
<g id="a_Node000003"><a xlink:href="classApp_1_1Console_1_1Commands_1_1ImportMoviesFromJson.html#a45c94929f5e636834f626838d20007f4" target="_top" xlink:title=" ">
<polygon fill="white" stroke="#666666" points="308,-119.5 172,-119.5 172,-78.5 308,-78.5 308,-119.5"/>
<text text-anchor="start" x="180" y="-107.5" font-family="Helvetica,sans-Serif" font-size="10.00">App\Console\Commands</text>
<text text-anchor="start" x="180" y="-96.5" font-family="Helvetica,sans-Serif" font-size="10.00">\ImportMoviesFromJson</text>
<text text-anchor="middle" x="240" y="-85.5" font-family="Helvetica,sans-Serif" font-size="10.00">\createMovie</text>
</a>
</g>
</g>
<!-- Node2&#45;&gt;Node3 -->
<g id="edge2_Node000002_Node000003" class="edge">
<title>Node2&#45;&gt;Node3</title>
<g id="a_edge2_Node000002_Node000003"><a xlink:title=" ">
<path fill="none" stroke="#63b8ff" d="M347.56,-81.58C334.47,-83.72 320.97,-85.93 308.15,-88.02"/>
<polygon fill="#63b8ff" stroke="#63b8ff" points="348.17,-85.03 357.47,-79.96 347.04,-78.12 348.17,-85.03"/>
</a>
</g>
</g>
<!-- Node5 -->
<g id="Node000005" class="node">
<title>Node5</title>
<g id="a_Node000005"><a xlink:href="classApp_1_1Console_1_1Commands_1_1ImportMoviesFromJson.html#a0ecc46e111e5fe5c504ef0d1c5ec7dcc" target="_top" xlink:title=" ">
<polygon fill="white" stroke="#666666" points="308,-60.5 172,-60.5 172,-19.5 308,-19.5 308,-60.5"/>
<text text-anchor="start" x="180" y="-48.5" font-family="Helvetica,sans-Serif" font-size="10.00">App\Console\Commands</text>
<text text-anchor="start" x="180" y="-37.5" font-family="Helvetica,sans-Serif" font-size="10.00">\ImportMoviesFromJson</text>
<text text-anchor="middle" x="240" y="-26.5" font-family="Helvetica,sans-Serif" font-size="10.00">\updateMovie</text>
</a>
</g>
</g>
<!-- Node2&#45;&gt;Node5 -->
<g id="edge4_Node000002_Node000005" class="edge">
<title>Node2&#45;&gt;Node5</title>
<g id="a_edge4_Node000002_Node000005"><a xlink:title=" ">
<path fill="none" stroke="#63b8ff" d="M347.56,-56.84C334.47,-54.77 320.97,-52.64 308.15,-50.61"/>
<polygon fill="#63b8ff" stroke="#63b8ff" points="347.05,-60.3 357.47,-58.41 348.14,-53.39 347.05,-60.3"/>
</a>
</g>
</g>
<!-- Node4 -->
<g id="Node000004" class="node">
<title>Node4</title>
<g id="a_Node000004"><a xlink:href="classApp_1_1Console_1_1Commands_1_1ImportMoviesFromJson.html#ac22640744ebb16ae8d65c0ab483c3e3f" target="_top" xlink:title=" ">
<polygon fill="white" stroke="#666666" points="136,-89.5 0,-89.5 0,-48.5 136,-48.5 136,-89.5"/>
<text text-anchor="start" x="8" y="-77.5" font-family="Helvetica,sans-Serif" font-size="10.00">App\Console\Commands</text>
<text text-anchor="start" x="8" y="-66.5" font-family="Helvetica,sans-Serif" font-size="10.00">\ImportMoviesFromJson</text>
<text text-anchor="middle" x="68" y="-55.5" font-family="Helvetica,sans-Serif" font-size="10.00">\handle</text>
</a>
</g>
</g>
<!-- Node3&#45;&gt;Node4 -->
<g id="edge3_Node000003_Node000004" class="edge">
<title>Node3&#45;&gt;Node4</title>
<g id="a_edge3_Node000003_Node000004"><a xlink:title=" ">
<path fill="none" stroke="#63b8ff" d="M161.85,-85.39C153.31,-83.88 144.66,-82.35 136.26,-80.87"/>
<polygon fill="#63b8ff" stroke="#63b8ff" points="161.36,-88.85 171.81,-87.14 162.57,-81.96 161.36,-88.85"/>
</a>
</g>
</g>
<!-- Node5&#45;&gt;Node4 -->
<g id="edge5_Node000005_Node000004" class="edge">
<title>Node5&#45;&gt;Node4</title>
<g id="a_edge5_Node000005_Node000004"><a xlink:title=" ">
<path fill="none" stroke="#63b8ff" d="M161.85,-53.16C153.31,-54.62 144.66,-56.09 136.26,-57.53"/>
<polygon fill="#63b8ff" stroke="#63b8ff" points="162.54,-56.59 171.81,-51.46 161.37,-49.69 162.54,-56.59"/>
</a>
</g>
</g>
</g>
</svg>
