<?xml version="1.0" encoding="UTF-8" standalone="no"?>
<!DOCTYPE svg PUBLIC "-//W3C//DTD SVG 1.1//EN"
 "http://www.w3.org/Graphics/SVG/1.1/DTD/svg11.dtd">
<!-- Generated by graphviz version 2.43.0 (0)
 -->
<!-- Title: App\Http\Controllers\API\ServerStatusController\status Pages: 1 -->
<svg width="527pt" height="226pt"
 viewBox="0.00 0.00 527.00 226.00" xmlns="http://www.w3.org/2000/svg" xmlns:xlink="http://www.w3.org/1999/xlink">
<g id="graph0" class="graph" transform="scale(1 1) rotate(0) translate(4 222)">
<title>App\Http\Controllers\API\ServerStatusController\status</title>
<!-- Node1 -->
<g id="Node000001" class="node">
<title>Node1</title>
<g id="a_Node000001"><a xlink:title=" ">
<polygon fill="#999999" stroke="#666666" points="149,-129 0,-129 0,-88 149,-88 149,-129"/>
<text text-anchor="start" x="8" y="-117" font-family="Helvetica,sans-Serif" font-size="10.00">App\Http\Controllers</text>
<text text-anchor="start" x="8" y="-106" font-family="Helvetica,sans-Serif" font-size="10.00">\API\ServerStatusController</text>
<text text-anchor="middle" x="74.5" y="-95" font-family="Helvetica,sans-Serif" font-size="10.00">\status</text>
</a>
</g>
</g>
<!-- Node2 -->
<g id="Node000002" class="node">
<title>Node2</title>
<g id="a_Node000002"><a xlink:href="classApp_1_1Http_1_1Controllers_1_1API_1_1ServerStatusController.html#a729fd21e70a745208e3ec4c68672649d" target="_top" xlink:title=" ">
<polygon fill="white" stroke="#666666" points="334,-218 185,-218 185,-177 334,-177 334,-218"/>
<text text-anchor="start" x="193" y="-206" font-family="Helvetica,sans-Serif" font-size="10.00">App\Http\Controllers</text>
<text text-anchor="start" x="193" y="-195" font-family="Helvetica,sans-Serif" font-size="10.00">\API\ServerStatusController</text>
<text text-anchor="middle" x="259.5" y="-184" font-family="Helvetica,sans-Serif" font-size="10.00">\getCpuUsage</text>
</a>
</g>
</g>
<!-- Node1&#45;&gt;Node2 -->
<g id="edge1_Node000001_Node000002" class="edge">
<title>Node1&#45;&gt;Node2</title>
<g id="a_edge1_Node000001_Node000002"><a xlink:title=" ">
<path fill="none" stroke="#63b8ff" d="M110.42,-129.1C131.65,-141.25 159.49,-156.53 185,-168.5 188.14,-169.97 191.37,-171.44 194.65,-172.88"/>
<polygon fill="#63b8ff" stroke="#63b8ff" points="193.41,-176.15 203.98,-176.88 196.17,-169.72 193.41,-176.15"/>
</a>
</g>
</g>
<!-- Node3 -->
<g id="Node000003" class="node">
<title>Node3</title>
<g id="a_Node000003"><a xlink:href="classApp_1_1Http_1_1Controllers_1_1API_1_1ServerStatusController.html#ad47c7164944bf4946d089b596318e2b5" target="_top" xlink:title=" ">
<polygon fill="white" stroke="#666666" points="334,-159 185,-159 185,-118 334,-118 334,-159"/>
<text text-anchor="start" x="193" y="-147" font-family="Helvetica,sans-Serif" font-size="10.00">App\Http\Controllers</text>
<text text-anchor="start" x="193" y="-136" font-family="Helvetica,sans-Serif" font-size="10.00">\API\ServerStatusController</text>
<text text-anchor="middle" x="259.5" y="-125" font-family="Helvetica,sans-Serif" font-size="10.00">\getDatabaseStats</text>
</a>
</g>
</g>
<!-- Node1&#45;&gt;Node3 -->
<g id="edge2_Node000001_Node000003" class="edge">
<title>Node1&#45;&gt;Node3</title>
<g id="a_edge2_Node000001_Node000003"><a xlink:title=" ">
<path fill="none" stroke="#63b8ff" d="M149.14,-120.57C157.57,-121.95 166.2,-123.37 174.74,-124.77"/>
<polygon fill="#63b8ff" stroke="#63b8ff" points="174.28,-128.24 184.71,-126.4 175.41,-121.33 174.28,-128.24"/>
</a>
</g>
</g>
<!-- Node5 -->
<g id="Node000005" class="node">
<title>Node5</title>
<g id="a_Node000005"><a xlink:href="classApp_1_1Http_1_1Controllers_1_1API_1_1ServerStatusController.html#a05a0d318d32afe5f38be9f516ac4c6b4" target="_top" xlink:title=" ">
<polygon fill="white" stroke="#666666" points="334,-100 185,-100 185,-59 334,-59 334,-100"/>
<text text-anchor="start" x="193" y="-88" font-family="Helvetica,sans-Serif" font-size="10.00">App\Http\Controllers</text>
<text text-anchor="start" x="193" y="-77" font-family="Helvetica,sans-Serif" font-size="10.00">\API\ServerStatusController</text>
<text text-anchor="middle" x="259.5" y="-66" font-family="Helvetica,sans-Serif" font-size="10.00">\getDiskSpace</text>
</a>
</g>
</g>
<!-- Node1&#45;&gt;Node5 -->
<g id="edge4_Node000001_Node000005" class="edge">
<title>Node1&#45;&gt;Node5</title>
<g id="a_edge4_Node000001_Node000005"><a xlink:title=" ">
<path fill="none" stroke="#63b8ff" d="M149.14,-96.83C157.57,-95.5 166.2,-94.13 174.74,-92.77"/>
<polygon fill="#63b8ff" stroke="#63b8ff" points="175.38,-96.22 184.71,-91.19 174.29,-89.3 175.38,-96.22"/>
</a>
</g>
</g>
<!-- Node6 -->
<g id="Node000006" class="node">
<title>Node6</title>
<g id="a_Node000006"><a xlink:href="classApp_1_1Http_1_1Controllers_1_1API_1_1ServerStatusController.html#ac631ffd453ffcffce6a1c42402fe8419" target="_top" xlink:title=" ">
<polygon fill="white" stroke="#666666" points="334,-41 185,-41 185,0 334,0 334,-41"/>
<text text-anchor="start" x="193" y="-29" font-family="Helvetica,sans-Serif" font-size="10.00">App\Http\Controllers</text>
<text text-anchor="start" x="193" y="-18" font-family="Helvetica,sans-Serif" font-size="10.00">\API\ServerStatusController</text>
<text text-anchor="middle" x="259.5" y="-7" font-family="Helvetica,sans-Serif" font-size="10.00">\getMemoryUsage</text>
</a>
</g>
</g>
<!-- Node1&#45;&gt;Node6 -->
<g id="edge6_Node000001_Node000006" class="edge">
<title>Node1&#45;&gt;Node6</title>
<g id="a_edge6_Node000001_Node000006"><a xlink:title=" ">
<path fill="none" stroke="#63b8ff" d="M112.04,-87.97C133.11,-76.44 160.25,-62.07 185,-50.5 188.86,-48.69 192.87,-46.89 196.92,-45.1"/>
<polygon fill="#63b8ff" stroke="#63b8ff" points="198.63,-48.18 206.42,-41 195.85,-41.75 198.63,-48.18"/>
</a>
</g>
</g>
<!-- Node4 -->
<g id="Node000004" class="node">
<title>Node4</title>
<g id="a_Node000004"><a xlink:href="classApp_1_1Http_1_1Controllers_1_1API_1_1ServerStatusController.html#a9d58445e86f94531b7a6867433e149f7" target="_top" xlink:title=" ">
<polygon fill="white" stroke="#666666" points="519,-129 370,-129 370,-88 519,-88 519,-129"/>
<text text-anchor="start" x="378" y="-117" font-family="Helvetica,sans-Serif" font-size="10.00">App\Http\Controllers</text>
<text text-anchor="start" x="378" y="-106" font-family="Helvetica,sans-Serif" font-size="10.00">\API\ServerStatusController</text>
<text text-anchor="middle" x="444.5" y="-95" font-family="Helvetica,sans-Serif" font-size="10.00">\formatBytes</text>
</a>
</g>
</g>
<!-- Node3&#45;&gt;Node4 -->
<g id="edge3_Node000003_Node000004" class="edge">
<title>Node3&#45;&gt;Node4</title>
<g id="a_edge3_Node000003_Node000004"><a xlink:title=" ">
<path fill="none" stroke="#63b8ff" d="M334.14,-126.43C342.57,-125.05 351.2,-123.63 359.74,-122.23"/>
<polygon fill="#63b8ff" stroke="#63b8ff" points="360.41,-125.67 369.71,-120.6 359.28,-118.76 360.41,-125.67"/>
</a>
</g>
</g>
<!-- Node5&#45;&gt;Node4 -->
<g id="edge5_Node000005_Node000004" class="edge">
<title>Node5&#45;&gt;Node4</title>
<g id="a_edge5_Node000005_Node000004"><a xlink:title=" ">
<path fill="none" stroke="#63b8ff" d="M334.14,-91.17C342.57,-92.5 351.2,-93.87 359.74,-95.23"/>
<polygon fill="#63b8ff" stroke="#63b8ff" points="359.29,-98.7 369.71,-96.81 360.38,-91.78 359.29,-98.7"/>
</a>
</g>
</g>
</g>
</svg>
