<?xml version="1.0" encoding="UTF-8" standalone="no"?>
<!DOCTYPE svg PUBLIC "-//W3C//DTD SVG 1.1//EN"
 "http://www.w3.org/Graphics/SVG/1.1/DTD/svg11.dtd">
<!-- Generated by graphviz version 2.43.0 (0)
 -->
<!-- Title: App\Http\Controllers\API\ServerStatusController\formatBytes Pages: 1 -->
<svg width="527pt" height="108pt"
 viewBox="0.00 0.00 527.00 108.00" xmlns="http://www.w3.org/2000/svg" xmlns:xlink="http://www.w3.org/1999/xlink">
<g id="graph0" class="graph" transform="scale(1 1) rotate(0) translate(4 104)">
<title>App\Http\Controllers\API\ServerStatusController\formatBytes</title>
<!-- Node1 -->
<g id="Node000001" class="node">
<title>Node1</title>
<g id="a_Node000001"><a xlink:title=" ">
<polygon fill="#999999" stroke="#666666" points="519,-70 370,-70 370,-29 519,-29 519,-70"/>
<text text-anchor="start" x="378" y="-58" font-family="Helvetica,sans-Serif" font-size="10.00">App\Http\Controllers</text>
<text text-anchor="start" x="378" y="-47" font-family="Helvetica,sans-Serif" font-size="10.00">\API\ServerStatusController</text>
<text text-anchor="middle" x="444.5" y="-36" font-family="Helvetica,sans-Serif" font-size="10.00">\formatBytes</text>
</a>
</g>
</g>
<!-- Node2 -->
<g id="Node000002" class="node">
<title>Node2</title>
<g id="a_Node000002"><a xlink:href="classApp_1_1Http_1_1Controllers_1_1API_1_1ServerStatusController.html#ad47c7164944bf4946d089b596318e2b5" target="_top" xlink:title=" ">
<polygon fill="white" stroke="#666666" points="334,-100 185,-100 185,-59 334,-59 334,-100"/>
<text text-anchor="start" x="193" y="-88" font-family="Helvetica,sans-Serif" font-size="10.00">App\Http\Controllers</text>
<text text-anchor="start" x="193" y="-77" font-family="Helvetica,sans-Serif" font-size="10.00">\API\ServerStatusController</text>
<text text-anchor="middle" x="259.5" y="-66" font-family="Helvetica,sans-Serif" font-size="10.00">\getDatabaseStats</text>
</a>
</g>
</g>
<!-- Node1&#45;&gt;Node2 -->
<g id="edge1_Node000001_Node000002" class="edge">
<title>Node1&#45;&gt;Node2</title>
<g id="a_edge1_Node000001_Node000002"><a xlink:title=" ">
<path fill="none" stroke="#63b8ff" d="M359.89,-63.21C351.35,-64.61 342.72,-66.02 334.29,-67.4"/>
<polygon fill="#63b8ff" stroke="#63b8ff" points="360.56,-66.64 369.86,-61.57 359.42,-59.74 360.56,-66.64"/>
</a>
</g>
</g>
<!-- Node4 -->
<g id="Node000004" class="node">
<title>Node4</title>
<g id="a_Node000004"><a xlink:href="classApp_1_1Http_1_1Controllers_1_1API_1_1ServerStatusController.html#a05a0d318d32afe5f38be9f516ac4c6b4" target="_top" xlink:title=" ">
<polygon fill="white" stroke="#666666" points="334,-41 185,-41 185,0 334,0 334,-41"/>
<text text-anchor="start" x="193" y="-29" font-family="Helvetica,sans-Serif" font-size="10.00">App\Http\Controllers</text>
<text text-anchor="start" x="193" y="-18" font-family="Helvetica,sans-Serif" font-size="10.00">\API\ServerStatusController</text>
<text text-anchor="middle" x="259.5" y="-7" font-family="Helvetica,sans-Serif" font-size="10.00">\getDiskSpace</text>
</a>
</g>
</g>
<!-- Node1&#45;&gt;Node4 -->
<g id="edge3_Node000001_Node000004" class="edge">
<title>Node1&#45;&gt;Node4</title>
<g id="a_edge3_Node000001_Node000004"><a xlink:title=" ">
<path fill="none" stroke="#63b8ff" d="M359.89,-36.25C351.35,-34.9 342.72,-33.53 334.29,-32.19"/>
<polygon fill="#63b8ff" stroke="#63b8ff" points="359.43,-39.72 369.86,-37.83 360.53,-32.81 359.43,-39.72"/>
</a>
</g>
</g>
<!-- Node3 -->
<g id="Node000003" class="node">
<title>Node3</title>
<g id="a_Node000003"><a xlink:href="classApp_1_1Http_1_1Controllers_1_1API_1_1ServerStatusController.html#a854c60a2d4c7c4c0f63f49607ae14f65" target="_top" xlink:title=" ">
<polygon fill="white" stroke="#666666" points="149,-70 0,-70 0,-29 149,-29 149,-70"/>
<text text-anchor="start" x="8" y="-58" font-family="Helvetica,sans-Serif" font-size="10.00">App\Http\Controllers</text>
<text text-anchor="start" x="8" y="-47" font-family="Helvetica,sans-Serif" font-size="10.00">\API\ServerStatusController</text>
<text text-anchor="middle" x="74.5" y="-36" font-family="Helvetica,sans-Serif" font-size="10.00">\status</text>
</a>
</g>
</g>
<!-- Node2&#45;&gt;Node3 -->
<g id="edge2_Node000002_Node000003" class="edge">
<title>Node2&#45;&gt;Node3</title>
<g id="a_edge2_Node000002_Node000003"><a xlink:title=" ">
<path fill="none" stroke="#63b8ff" d="M174.89,-65.79C166.35,-64.39 157.72,-62.98 149.29,-61.6"/>
<polygon fill="#63b8ff" stroke="#63b8ff" points="174.42,-69.26 184.86,-67.43 175.56,-62.36 174.42,-69.26"/>
</a>
</g>
</g>
<!-- Node4&#45;&gt;Node3 -->
<g id="edge4_Node000004_Node000003" class="edge">
<title>Node4&#45;&gt;Node3</title>
<g id="a_edge4_Node000004_Node000003"><a xlink:title=" ">
<path fill="none" stroke="#63b8ff" d="M174.89,-33.75C166.35,-35.1 157.72,-36.47 149.29,-37.81"/>
<polygon fill="#63b8ff" stroke="#63b8ff" points="175.53,-37.19 184.86,-32.17 174.43,-30.28 175.53,-37.19"/>
</a>
</g>
</g>
</g>
</svg>
