<?xml version="1.0" encoding="UTF-8" standalone="no"?>
<!DOCTYPE svg PUBLIC "-//W3C//DTD SVG 1.1//EN"
 "http://www.w3.org/Graphics/SVG/1.1/DTD/svg11.dtd">
<!-- Generated by graphviz version 2.43.0 (0)
 -->
<!-- Title: App\Http\Controllers\API\FunctionController\isBusinessDay Pages: 1 -->
<svg width="837pt" height="150pt"
 viewBox="0.00 0.00 837.00 150.18" xmlns="http://www.w3.org/2000/svg" xmlns:xlink="http://www.w3.org/1999/xlink">
<g id="graph0" class="graph" transform="scale(1 1) rotate(0) translate(4 146.18)">
<title>App\Http\Controllers\API\FunctionController\isBusinessDay</title>
<!-- Node1 -->
<g id="Node000001" class="node">
<title>Node1</title>
<g id="a_Node000001"><a xlink:title="Verifica si un día es laborable (lunes a viernes)">
<polygon fill="#999999" stroke="#666666" points="829,-101.7 701,-101.7 701,-60.7 829,-60.7 829,-101.7"/>
<text text-anchor="start" x="709" y="-89.7" font-family="Helvetica,sans-Serif" font-size="10.00">App\Http\Controllers</text>
<text text-anchor="start" x="709" y="-78.7" font-family="Helvetica,sans-Serif" font-size="10.00">\API\FunctionController</text>
<text text-anchor="middle" x="765" y="-67.7" font-family="Helvetica,sans-Serif" font-size="10.00">\isBusinessDay</text>
</a>
</g>
</g>
<!-- Node2 -->
<g id="Node000002" class="node">
<title>Node2</title>
<g id="a_Node000002"><a xlink:href="classApp_1_1Http_1_1Controllers_1_1API_1_1FunctionController.html#a0b96645c0280a70b48a7d83c7050ede0" target="_top" xlink:title="Generar horarios para múltiples salas.">
<polygon fill="white" stroke="#666666" points="161,-129.7 0,-129.7 0,-88.7 161,-88.7 161,-129.7"/>
<text text-anchor="start" x="8" y="-117.7" font-family="Helvetica,sans-Serif" font-size="10.00">App\Http\Controllers</text>
<text text-anchor="start" x="8" y="-106.7" font-family="Helvetica,sans-Serif" font-size="10.00">\API\FunctionController</text>
<text text-anchor="middle" x="80.5" y="-95.7" font-family="Helvetica,sans-Serif" font-size="10.00">\generateMultiRoomSchedule</text>
</a>
</g>
</g>
<!-- Node1&#45;&gt;Node2 -->
<g id="edge1_Node000001_Node000002" class="edge">
<title>Node1&#45;&gt;Node2</title>
<g id="a_edge1_Node000001_Node000002"><a xlink:title=" ">
<path fill="none" stroke="#63b8ff" d="M691.06,-102.78C682.32,-105.08 673.48,-107.28 665,-109.2 462.02,-155.06 403.86,-145.82 197,-123.2 185.35,-121.92 173.06,-120.51 161,-119.08"/>
<polygon fill="#63b8ff" stroke="#63b8ff" points="692.13,-106.11 700.88,-100.14 690.32,-99.35 692.13,-106.11"/>
</a>
</g>
</g>
<!-- Node3 -->
<g id="Node000003" class="node">
<title>Node3</title>
<g id="a_Node000003"><a xlink:href="classApp_1_1Http_1_1Controllers_1_1API_1_1FunctionController.html#adad79c96a0ad6c74ee117c8279f18902" target="_top" xlink:title="Generar horarios automáticamente para una sala y fecha específica.">
<polygon fill="white" stroke="#666666" points="325,-75.7 197,-75.7 197,-34.7 325,-34.7 325,-75.7"/>
<text text-anchor="start" x="205" y="-63.7" font-family="Helvetica,sans-Serif" font-size="10.00">App\Http\Controllers</text>
<text text-anchor="start" x="205" y="-52.7" font-family="Helvetica,sans-Serif" font-size="10.00">\API\FunctionController</text>
<text text-anchor="middle" x="261" y="-41.7" font-family="Helvetica,sans-Serif" font-size="10.00">\generateSchedule</text>
</a>
</g>
</g>
<!-- Node1&#45;&gt;Node3 -->
<g id="edge2_Node000001_Node000003" class="edge">
<title>Node1&#45;&gt;Node3</title>
<g id="a_edge2_Node000001_Node000003"><a xlink:title=" ">
<path fill="none" stroke="#63b8ff" d="M729.12,-54.73C711.01,-42.61 687.93,-29.56 665,-23.2 534.8,12.93 494.27,1.05 361,-21.2 344.42,-23.97 326.9,-29.17 311.28,-34.69"/>
<polygon fill="#63b8ff" stroke="#63b8ff" points="727.37,-57.77 737.58,-60.57 731.34,-52.01 727.37,-57.77"/>
</a>
</g>
</g>
<!-- Node4 -->
<g id="Node000004" class="node">
<title>Node4</title>
<g id="a_Node000004"><a xlink:href="classApp_1_1Http_1_1Controllers_1_1API_1_1FunctionController.html#acbc88471b3aa01c832c09c3cb45f77a4" target="_top" xlink:title="Obtiene el siguiente día laborable.">
<polygon fill="white" stroke="#666666" points="489,-129.7 361,-129.7 361,-88.7 489,-88.7 489,-129.7"/>
<text text-anchor="start" x="369" y="-117.7" font-family="Helvetica,sans-Serif" font-size="10.00">App\Http\Controllers</text>
<text text-anchor="start" x="369" y="-106.7" font-family="Helvetica,sans-Serif" font-size="10.00">\API\FunctionController</text>
<text text-anchor="middle" x="425" y="-95.7" font-family="Helvetica,sans-Serif" font-size="10.00">\getNextBusinessDay</text>
</a>
</g>
</g>
<!-- Node1&#45;&gt;Node4 -->
<g id="edge4_Node000001_Node000004" class="edge">
<title>Node1&#45;&gt;Node4</title>
<g id="a_edge4_Node000001_Node000004"><a xlink:title=" ">
<path fill="none" stroke="#63b8ff" d="M690.64,-87.28C630.51,-92.26 546.32,-99.23 489.16,-103.97"/>
<polygon fill="#63b8ff" stroke="#63b8ff" points="691.14,-90.75 700.82,-86.43 690.57,-83.77 691.14,-90.75"/>
</a>
</g>
</g>
<!-- Node5 -->
<g id="Node000005" class="node">
<title>Node5</title>
<g id="a_Node000005"><a xlink:href="classApp_1_1Http_1_1Controllers_1_1API_1_1FunctionController.html#a1bf5be5e471cca9832db774da9bdd3ce" target="_top" xlink:title="Obtiene el día laborable anterior.">
<polygon fill="white" stroke="#666666" points="665,-72.7 525,-72.7 525,-31.7 665,-31.7 665,-72.7"/>
<text text-anchor="start" x="533" y="-60.7" font-family="Helvetica,sans-Serif" font-size="10.00">App\Http\Controllers</text>
<text text-anchor="start" x="533" y="-49.7" font-family="Helvetica,sans-Serif" font-size="10.00">\API\FunctionController</text>
<text text-anchor="middle" x="595" y="-38.7" font-family="Helvetica,sans-Serif" font-size="10.00">\getPreviousBusinessDay</text>
</a>
</g>
</g>
<!-- Node1&#45;&gt;Node5 -->
<g id="edge7_Node000001_Node000005" class="edge">
<title>Node1&#45;&gt;Node5</title>
<g id="a_edge7_Node000001_Node000005"><a xlink:title=" ">
<path fill="none" stroke="#63b8ff" d="M690.95,-68.59C682.34,-67.1 673.57,-65.59 665.02,-64.11"/>
<polygon fill="#63b8ff" stroke="#63b8ff" points="690.52,-72.07 700.97,-70.32 691.71,-65.17 690.52,-72.07"/>
</a>
</g>
</g>
<!-- Node3&#45;&gt;Node2 -->
<g id="edge3_Node000003_Node000002" class="edge">
<title>Node3&#45;&gt;Node2</title>
<g id="a_edge3_Node000003_Node000002"><a xlink:title=" ">
<path fill="none" stroke="#63b8ff" d="M186.97,-77.29C174.56,-81.04 161.72,-84.93 149.45,-88.64"/>
<polygon fill="#63b8ff" stroke="#63b8ff" points="188.26,-80.56 196.82,-74.31 186.23,-73.86 188.26,-80.56"/>
</a>
</g>
</g>
<!-- Node4&#45;&gt;Node2 -->
<g id="edge5_Node000004_Node000002" class="edge">
<title>Node4&#45;&gt;Node2</title>
<g id="a_edge5_Node000004_Node000002"><a xlink:title=" ">
<path fill="none" stroke="#63b8ff" d="M350.63,-109.2C294.94,-109.2 218.45,-109.2 161.24,-109.2"/>
<polygon fill="#63b8ff" stroke="#63b8ff" points="350.78,-112.7 360.78,-109.2 350.78,-105.7 350.78,-112.7"/>
</a>
</g>
</g>
<!-- Node4&#45;&gt;Node3 -->
<g id="edge6_Node000004_Node000003" class="edge">
<title>Node4&#45;&gt;Node3</title>
<g id="a_edge6_Node000004_Node000003"><a xlink:title=" ">
<path fill="none" stroke="#63b8ff" d="M352.66,-85.42C342.95,-82.18 333.05,-78.88 323.54,-75.71"/>
<polygon fill="#63b8ff" stroke="#63b8ff" points="351.7,-88.79 362.29,-88.63 353.91,-82.15 351.7,-88.79"/>
</a>
</g>
</g>
<!-- Node6 -->
<g id="Node000006" class="node">
<title>Node6</title>
<g id="a_Node000006"><a xlink:href="classApp_1_1Http_1_1Controllers_1_1API_1_1FunctionController.html#a4f894ae856e94aec570ca628e0573241" target="_top" xlink:title="Obtener el índice de la última película mostrada en el día laborable anterior.">
<polygon fill="white" stroke="#666666" points="489,-70.7 361,-70.7 361,-29.7 489,-29.7 489,-70.7"/>
<text text-anchor="start" x="369" y="-58.7" font-family="Helvetica,sans-Serif" font-size="10.00">App\Http\Controllers</text>
<text text-anchor="start" x="369" y="-47.7" font-family="Helvetica,sans-Serif" font-size="10.00">\API\FunctionController</text>
<text text-anchor="middle" x="425" y="-36.7" font-family="Helvetica,sans-Serif" font-size="10.00">\getLastMovieIndex</text>
</a>
</g>
</g>
<!-- Node5&#45;&gt;Node6 -->
<g id="edge8_Node000005_Node000006" class="edge">
<title>Node5&#45;&gt;Node6</title>
<g id="a_edge8_Node000005_Node000006"><a xlink:title=" ">
<path fill="none" stroke="#63b8ff" d="M514.43,-51.25C505.97,-51.15 497.45,-51.05 489.22,-50.95"/>
<polygon fill="#63b8ff" stroke="#63b8ff" points="514.66,-54.75 524.7,-51.37 514.74,-47.75 514.66,-54.75"/>
</a>
</g>
</g>
<!-- Node6&#45;&gt;Node3 -->
<g id="edge9_Node000006_Node000003" class="edge">
<title>Node6&#45;&gt;Node3</title>
<g id="a_edge9_Node000006_Node000003"><a xlink:title=" ">
<path fill="none" stroke="#63b8ff" d="M350.91,-52.45C342.32,-52.72 333.62,-52.99 325.19,-53.25"/>
<polygon fill="#63b8ff" stroke="#63b8ff" points="351.02,-55.95 360.9,-52.15 350.8,-48.96 351.02,-55.95"/>
</a>
</g>
</g>
</g>
</svg>
