<?xml version="1.0" encoding="UTF-8" standalone="no"?>
<!DOCTYPE svg PUBLIC "-//W3C//DTD SVG 1.1//EN"
 "http://www.w3.org/Graphics/SVG/1.1/DTD/svg11.dtd">
<!-- Generated by graphviz version 2.43.0 (0)
 -->
<!-- Title: App\Http\Controllers\Api\V1\FunctionController\getFunctionSeats Pages: 1 -->
<svg width="518pt" height="49pt"
 viewBox="0.00 0.00 518.00 49.00" xmlns="http://www.w3.org/2000/svg" xmlns:xlink="http://www.w3.org/1999/xlink">
<g id="graph0" class="graph" transform="scale(1 1) rotate(0) translate(4 45)">
<title>App\Http\Controllers\Api\V1\FunctionController\getFunctionSeats</title>
<!-- Node1 -->
<g id="Node000001" class="node">
<title>Node1</title>
<g id="a_Node000001"><a xlink:title="Get seat layout with availability for a specific function.">
<polygon fill="#999999" stroke="#666666" points="143,-41 0,-41 0,0 143,0 143,-41"/>
<text text-anchor="start" x="8" y="-29" font-family="Helvetica,sans-Serif" font-size="10.00">App\Http\Controllers</text>
<text text-anchor="start" x="8" y="-18" font-family="Helvetica,sans-Serif" font-size="10.00">\Api\V1\FunctionController</text>
<text text-anchor="middle" x="71.5" y="-7" font-family="Helvetica,sans-Serif" font-size="10.00">\getFunctionSeats</text>
</a>
</g>
</g>
<!-- Node2 -->
<g id="Node000002" class="node">
<title>Node2</title>
<g id="a_Node000002"><a xlink:href="classApp_1_1Http_1_1Controllers_1_1Api_1_1V1_1_1FunctionController.html#a53d96a35b7b7ad9ab3b264debf910772" target="_top" xlink:title="Calculate final price for a function.">
<polygon fill="white" stroke="#666666" points="322,-41 179,-41 179,0 322,0 322,-41"/>
<text text-anchor="start" x="187" y="-29" font-family="Helvetica,sans-Serif" font-size="10.00">App\Http\Controllers</text>
<text text-anchor="start" x="187" y="-18" font-family="Helvetica,sans-Serif" font-size="10.00">\Api\V1\FunctionController</text>
<text text-anchor="middle" x="250.5" y="-7" font-family="Helvetica,sans-Serif" font-size="10.00">\calculatePrice</text>
</a>
</g>
</g>
<!-- Node1&#45;&gt;Node2 -->
<g id="edge1_Node000001_Node000002" class="edge">
<title>Node1&#45;&gt;Node2</title>
<g id="a_edge1_Node000001_Node000002"><a xlink:title=" ">
<path fill="none" stroke="#63b8ff" d="M143.22,-20.5C151.57,-20.5 160.14,-20.5 168.62,-20.5"/>
<polygon fill="#63b8ff" stroke="#63b8ff" points="168.89,-24 178.89,-20.5 168.89,-17 168.89,-24"/>
</a>
</g>
</g>
<!-- Node3 -->
<g id="Node000003" class="node">
<title>Node3</title>
<g id="a_Node000003"><a xlink:href="classApp_1_1Models_1_1Functions.html#a6ed68bacb4913edef1d9afc5b6847b8c" target="_top" xlink:title="Obtener la sala asociada a esta función.">
<polygon fill="white" stroke="#666666" points="510,-30 358,-30 358,-11 510,-11 510,-30"/>
<text text-anchor="middle" x="434" y="-18" font-family="Helvetica,sans-Serif" font-size="10.00">App\Models\Functions\room</text>
</a>
</g>
</g>
<!-- Node2&#45;&gt;Node3 -->
<g id="edge2_Node000002_Node000003" class="edge">
<title>Node2&#45;&gt;Node3</title>
<g id="a_edge2_Node000002_Node000003"><a xlink:title=" ">
<path fill="none" stroke="#63b8ff" d="M322.19,-20.5C330.47,-20.5 338.99,-20.5 347.44,-20.5"/>
<polygon fill="#63b8ff" stroke="#63b8ff" points="347.7,-24 357.7,-20.5 347.7,-17 347.7,-24"/>
</a>
</g>
</g>
</g>
</svg>
