<?xml version="1.0" encoding="UTF-8" standalone="no"?>
<!DOCTYPE svg PUBLIC "-//W3C//DTD SVG 1.1//EN"
 "http://www.w3.org/Graphics/SVG/1.1/DTD/svg11.dtd">
<!-- Generated by graphviz version 2.43.0 (0)
 -->
<!-- Title: App\Http\Controllers\API\FunctionController\getNextBusinessDay Pages: 1 -->
<svg width="497pt" height="73pt"
 viewBox="0.00 0.00 497.00 73.00" xmlns="http://www.w3.org/2000/svg" xmlns:xlink="http://www.w3.org/1999/xlink">
<g id="graph0" class="graph" transform="scale(1 1) rotate(0) translate(4 69)">
<title>App\Http\Controllers\API\FunctionController\getNextBusinessDay</title>
<!-- Node1 -->
<g id="Node000001" class="node">
<title>Node1</title>
<g id="a_Node000001"><a xlink:title="Obtiene el siguiente día laborable.">
<polygon fill="#999999" stroke="#666666" points="489,-65 361,-65 361,-24 489,-24 489,-65"/>
<text text-anchor="start" x="369" y="-53" font-family="Helvetica,sans-Serif" font-size="10.00">App\Http\Controllers</text>
<text text-anchor="start" x="369" y="-42" font-family="Helvetica,sans-Serif" font-size="10.00">\API\FunctionController</text>
<text text-anchor="middle" x="425" y="-31" font-family="Helvetica,sans-Serif" font-size="10.00">\getNextBusinessDay</text>
</a>
</g>
</g>
<!-- Node2 -->
<g id="Node000002" class="node">
<title>Node2</title>
<g id="a_Node000002"><a xlink:href="classApp_1_1Http_1_1Controllers_1_1API_1_1FunctionController.html#a0b96645c0280a70b48a7d83c7050ede0" target="_top" xlink:title="Generar horarios para múltiples salas.">
<polygon fill="white" stroke="#666666" points="161,-65 0,-65 0,-24 161,-24 161,-65"/>
<text text-anchor="start" x="8" y="-53" font-family="Helvetica,sans-Serif" font-size="10.00">App\Http\Controllers</text>
<text text-anchor="start" x="8" y="-42" font-family="Helvetica,sans-Serif" font-size="10.00">\API\FunctionController</text>
<text text-anchor="middle" x="80.5" y="-31" font-family="Helvetica,sans-Serif" font-size="10.00">\generateMultiRoomSchedule</text>
</a>
</g>
</g>
<!-- Node1&#45;&gt;Node2 -->
<g id="edge1_Node000001_Node000002" class="edge">
<title>Node1&#45;&gt;Node2</title>
<g id="a_edge1_Node000001_Node000002"><a xlink:title=" ">
<path fill="none" stroke="#63b8ff" d="M350.77,-49.44C342.09,-49.87 333.35,-50.25 325,-50.5 268.14,-52.22 253.87,-51.98 197,-50.5 185.36,-50.2 173.06,-49.72 161.01,-49.17"/>
<polygon fill="#63b8ff" stroke="#63b8ff" points="351.12,-52.92 360.92,-48.9 350.74,-45.93 351.12,-52.92"/>
</a>
</g>
</g>
<!-- Node3 -->
<g id="Node000003" class="node">
<title>Node3</title>
<g id="a_Node000003"><a xlink:href="classApp_1_1Http_1_1Controllers_1_1API_1_1FunctionController.html#adad79c96a0ad6c74ee117c8279f18902" target="_top" xlink:title="Generar horarios automáticamente para una sala y fecha específica.">
<polygon fill="white" stroke="#666666" points="325,-41 197,-41 197,0 325,0 325,-41"/>
<text text-anchor="start" x="205" y="-29" font-family="Helvetica,sans-Serif" font-size="10.00">App\Http\Controllers</text>
<text text-anchor="start" x="205" y="-18" font-family="Helvetica,sans-Serif" font-size="10.00">\API\FunctionController</text>
<text text-anchor="middle" x="261" y="-7" font-family="Helvetica,sans-Serif" font-size="10.00">\generateSchedule</text>
</a>
</g>
</g>
<!-- Node1&#45;&gt;Node3 -->
<g id="edge2_Node000001_Node000003" class="edge">
<title>Node1&#45;&gt;Node3</title>
<g id="a_edge2_Node000001_Node000003"><a xlink:title=" ">
<path fill="none" stroke="#63b8ff" d="M350.91,-33.67C342.32,-32.4 333.62,-31.11 325.19,-29.86"/>
<polygon fill="#63b8ff" stroke="#63b8ff" points="350.5,-37.15 360.9,-35.15 351.52,-30.22 350.5,-37.15"/>
</a>
</g>
</g>
<!-- Node3&#45;&gt;Node2 -->
<g id="edge3_Node000003_Node000002" class="edge">
<title>Node3&#45;&gt;Node2</title>
<g id="a_edge3_Node000003_Node000002"><a xlink:title=" ">
<path fill="none" stroke="#63b8ff" d="M186.68,-30.36C178.27,-31.49 169.66,-32.65 161.17,-33.79"/>
<polygon fill="#63b8ff" stroke="#63b8ff" points="187.37,-33.8 196.82,-29 186.44,-26.86 187.37,-33.8"/>
</a>
</g>
</g>
</g>
</svg>
