<?xml version="1.0" encoding="UTF-8" standalone="no"?>
<!DOCTYPE svg PUBLIC "-//W3C//DTD SVG 1.1//EN"
 "http://www.w3.org/Graphics/SVG/1.1/DTD/svg11.dtd">
<!-- Generated by graphviz version 2.43.0 (0)
 -->
<!-- Title: App\Console\Commands\ImportMoviesFromJson\syncDirectors Pages: 1 -->
<svg width="488pt" height="49pt"
 viewBox="0.00 0.00 488.00 49.00" xmlns="http://www.w3.org/2000/svg" xmlns:xlink="http://www.w3.org/1999/xlink">
<g id="graph0" class="graph" transform="scale(1 1) rotate(0) translate(4 45)">
<title>App\Console\Commands\ImportMoviesFromJson\syncDirectors</title>
<!-- Node1 -->
<g id="Node000001" class="node">
<title>Node1</title>
<g id="a_Node000001"><a xlink:title=" ">
<polygon fill="#999999" stroke="#666666" points="480,-41 344,-41 344,0 480,0 480,-41"/>
<text text-anchor="start" x="352" y="-29" font-family="Helvetica,sans-Serif" font-size="10.00">App\Console\Commands</text>
<text text-anchor="start" x="352" y="-18" font-family="Helvetica,sans-Serif" font-size="10.00">\ImportMoviesFromJson</text>
<text text-anchor="middle" x="412" y="-7" font-family="Helvetica,sans-Serif" font-size="10.00">\syncDirectors</text>
</a>
</g>
</g>
<!-- Node2 -->
<g id="Node000002" class="node">
<title>Node2</title>
<g id="a_Node000002"><a xlink:href="classApp_1_1Console_1_1Commands_1_1ImportMoviesFromJson.html#a45c94929f5e636834f626838d20007f4" target="_top" xlink:title=" ">
<polygon fill="white" stroke="#666666" points="308,-41 172,-41 172,0 308,0 308,-41"/>
<text text-anchor="start" x="180" y="-29" font-family="Helvetica,sans-Serif" font-size="10.00">App\Console\Commands</text>
<text text-anchor="start" x="180" y="-18" font-family="Helvetica,sans-Serif" font-size="10.00">\ImportMoviesFromJson</text>
<text text-anchor="middle" x="240" y="-7" font-family="Helvetica,sans-Serif" font-size="10.00">\createMovie</text>
</a>
</g>
</g>
<!-- Node1&#45;&gt;Node2 -->
<g id="edge1_Node000001_Node000002" class="edge">
<title>Node1&#45;&gt;Node2</title>
<g id="a_edge1_Node000001_Node000002"><a xlink:title=" ">
<path fill="none" stroke="#63b8ff" d="M333.58,-20.5C325.12,-20.5 316.57,-20.5 308.26,-20.5"/>
<polygon fill="#63b8ff" stroke="#63b8ff" points="333.81,-24 343.81,-20.5 333.81,-17 333.81,-24"/>
</a>
</g>
</g>
<!-- Node3 -->
<g id="Node000003" class="node">
<title>Node3</title>
<g id="a_Node000003"><a xlink:href="classApp_1_1Console_1_1Commands_1_1ImportMoviesFromJson.html#ac22640744ebb16ae8d65c0ab483c3e3f" target="_top" xlink:title=" ">
<polygon fill="white" stroke="#666666" points="136,-41 0,-41 0,0 136,0 136,-41"/>
<text text-anchor="start" x="8" y="-29" font-family="Helvetica,sans-Serif" font-size="10.00">App\Console\Commands</text>
<text text-anchor="start" x="8" y="-18" font-family="Helvetica,sans-Serif" font-size="10.00">\ImportMoviesFromJson</text>
<text text-anchor="middle" x="68" y="-7" font-family="Helvetica,sans-Serif" font-size="10.00">\handle</text>
</a>
</g>
</g>
<!-- Node2&#45;&gt;Node3 -->
<g id="edge2_Node000002_Node000003" class="edge">
<title>Node2&#45;&gt;Node3</title>
<g id="a_edge2_Node000002_Node000003"><a xlink:title=" ">
<path fill="none" stroke="#63b8ff" d="M161.58,-20.5C153.12,-20.5 144.57,-20.5 136.26,-20.5"/>
<polygon fill="#63b8ff" stroke="#63b8ff" points="161.81,-24 171.81,-20.5 161.81,-17 161.81,-24"/>
</a>
</g>
</g>
</g>
</svg>
