<?xml version="1.0" encoding="UTF-8" standalone="no"?>
<!DOCTYPE svg PUBLIC "-//W3C//DTD SVG 1.1//EN"
 "http://www.w3.org/Graphics/SVG/1.1/DTD/svg11.dtd">
<!-- Generated by graphviz version 2.43.0 (0)
 -->
<!-- Title: App\Http\Controllers\API\FunctionController\generateSchedule Pages: 1 -->
<svg width="640pt" height="147pt"
 viewBox="0.00 0.00 640.00 147.00" xmlns="http://www.w3.org/2000/svg" xmlns:xlink="http://www.w3.org/1999/xlink">
<g id="graph0" class="graph" transform="scale(1 1) rotate(0) translate(4 143)">
<title>App\Http\Controllers\API\FunctionController\generateSchedule</title>
<!-- Node1 -->
<g id="Node000001" class="node">
<title>Node1</title>
<g id="a_Node000001"><a xlink:title="Generar horarios automáticamente para una sala y fecha específica.">
<polygon fill="#999999" stroke="#666666" points="128,-90 0,-90 0,-49 128,-49 128,-90"/>
<text text-anchor="start" x="8" y="-78" font-family="Helvetica,sans-Serif" font-size="10.00">App\Http\Controllers</text>
<text text-anchor="start" x="8" y="-67" font-family="Helvetica,sans-Serif" font-size="10.00">\API\FunctionController</text>
<text text-anchor="middle" x="64" y="-56" font-family="Helvetica,sans-Serif" font-size="10.00">\generateSchedule</text>
</a>
</g>
</g>
<!-- Node2 -->
<g id="Node000002" class="node">
<title>Node2</title>
<g id="a_Node000002"><a xlink:href="classApp_1_1Http_1_1Controllers_1_1API_1_1FunctionController.html#a4f894ae856e94aec570ca628e0573241" target="_top" xlink:title="Obtener el índice de la última película mostrada en el día laborable anterior.">
<polygon fill="white" stroke="#666666" points="292,-139 164,-139 164,-98 292,-98 292,-139"/>
<text text-anchor="start" x="172" y="-127" font-family="Helvetica,sans-Serif" font-size="10.00">App\Http\Controllers</text>
<text text-anchor="start" x="172" y="-116" font-family="Helvetica,sans-Serif" font-size="10.00">\API\FunctionController</text>
<text text-anchor="middle" x="228" y="-105" font-family="Helvetica,sans-Serif" font-size="10.00">\getLastMovieIndex</text>
</a>
</g>
</g>
<!-- Node1&#45;&gt;Node2 -->
<g id="edge1_Node000001_Node000002" class="edge">
<title>Node1&#45;&gt;Node2</title>
<g id="a_edge1_Node000001_Node000002"><a xlink:title=" ">
<path fill="none" stroke="#63b8ff" d="M128.1,-88.58C136.62,-91.16 145.42,-93.82 154.09,-96.45"/>
<polygon fill="#63b8ff" stroke="#63b8ff" points="153.22,-99.84 163.81,-99.39 155.25,-93.14 153.22,-99.84"/>
</a>
</g>
</g>
<!-- Node4 -->
<g id="Node000004" class="node">
<title>Node4</title>
<g id="a_Node000004"><a xlink:href="classApp_1_1Http_1_1Controllers_1_1API_1_1FunctionController.html#a19f394d5ebe3d3812496bf291797e86d" target="_top" xlink:title="Verifica si un día es laborable (lunes a viernes)">
<polygon fill="white" stroke="#666666" points="632,-90 504,-90 504,-49 632,-49 632,-90"/>
<text text-anchor="start" x="512" y="-78" font-family="Helvetica,sans-Serif" font-size="10.00">App\Http\Controllers</text>
<text text-anchor="start" x="512" y="-67" font-family="Helvetica,sans-Serif" font-size="10.00">\API\FunctionController</text>
<text text-anchor="middle" x="568" y="-56" font-family="Helvetica,sans-Serif" font-size="10.00">\isBusinessDay</text>
</a>
</g>
</g>
<!-- Node1&#45;&gt;Node4 -->
<g id="edge6_Node000001_Node000004" class="edge">
<title>Node1&#45;&gt;Node4</title>
<g id="a_edge6_Node000001_Node000004"><a xlink:title=" ">
<path fill="none" stroke="#63b8ff" d="M128.07,-69.5C221.16,-69.5 394.93,-69.5 493.61,-69.5"/>
<polygon fill="#63b8ff" stroke="#63b8ff" points="493.79,-73 503.79,-69.5 493.79,-66 493.79,-73"/>
</a>
</g>
</g>
<!-- Node5 -->
<g id="Node000005" class="node">
<title>Node5</title>
<g id="a_Node000005"><a xlink:href="classApp_1_1Http_1_1Controllers_1_1API_1_1FunctionController.html#acbc88471b3aa01c832c09c3cb45f77a4" target="_top" xlink:title="Obtiene el siguiente día laborable.">
<polygon fill="white" stroke="#666666" points="462,-41 334,-41 334,0 462,0 462,-41"/>
<text text-anchor="start" x="342" y="-29" font-family="Helvetica,sans-Serif" font-size="10.00">App\Http\Controllers</text>
<text text-anchor="start" x="342" y="-18" font-family="Helvetica,sans-Serif" font-size="10.00">\API\FunctionController</text>
<text text-anchor="middle" x="398" y="-7" font-family="Helvetica,sans-Serif" font-size="10.00">\getNextBusinessDay</text>
</a>
</g>
</g>
<!-- Node1&#45;&gt;Node5 -->
<g id="edge4_Node000001_Node000005" class="edge">
<title>Node1&#45;&gt;Node5</title>
<g id="a_edge4_Node000001_Node000005"><a xlink:title=" ">
<path fill="none" stroke="#63b8ff" d="M128.23,-60.17C183.98,-51.94 265.24,-39.95 323.8,-31.3"/>
<polygon fill="#63b8ff" stroke="#63b8ff" points="324.34,-34.76 333.73,-29.84 323.32,-27.84 324.34,-34.76"/>
</a>
</g>
</g>
<!-- Node3 -->
<g id="Node000003" class="node">
<title>Node3</title>
<g id="a_Node000003"><a xlink:href="classApp_1_1Http_1_1Controllers_1_1API_1_1FunctionController.html#a1bf5be5e471cca9832db774da9bdd3ce" target="_top" xlink:title="Obtiene el día laborable anterior.">
<polygon fill="white" stroke="#666666" points="468,-139 328,-139 328,-98 468,-98 468,-139"/>
<text text-anchor="start" x="336" y="-127" font-family="Helvetica,sans-Serif" font-size="10.00">App\Http\Controllers</text>
<text text-anchor="start" x="336" y="-116" font-family="Helvetica,sans-Serif" font-size="10.00">\API\FunctionController</text>
<text text-anchor="middle" x="398" y="-105" font-family="Helvetica,sans-Serif" font-size="10.00">\getPreviousBusinessDay</text>
</a>
</g>
</g>
<!-- Node2&#45;&gt;Node3 -->
<g id="edge2_Node000002_Node000003" class="edge">
<title>Node2&#45;&gt;Node3</title>
<g id="a_edge2_Node000002_Node000003"><a xlink:title=" ">
<path fill="none" stroke="#63b8ff" d="M292.03,-118.5C300.47,-118.5 309.2,-118.5 317.86,-118.5"/>
<polygon fill="#63b8ff" stroke="#63b8ff" points="317.98,-122 327.98,-118.5 317.98,-115 317.98,-122"/>
</a>
</g>
</g>
<!-- Node3&#45;&gt;Node4 -->
<g id="edge3_Node000003_Node000004" class="edge">
<title>Node3&#45;&gt;Node4</title>
<g id="a_edge3_Node000003_Node000004"><a xlink:title=" ">
<path fill="none" stroke="#63b8ff" d="M468.3,-98.29C476.84,-95.8 485.59,-93.25 494.17,-90.74"/>
<polygon fill="#63b8ff" stroke="#63b8ff" points="495.16,-94.1 503.78,-87.94 493.2,-87.38 495.16,-94.1"/>
</a>
</g>
</g>
<!-- Node5&#45;&gt;Node4 -->
<g id="edge5_Node000005_Node000004" class="edge">
<title>Node5&#45;&gt;Node4</title>
<g id="a_edge5_Node000005_Node000004"><a xlink:title=" ">
<path fill="none" stroke="#63b8ff" d="M462.03,-38.89C472.51,-41.94 483.46,-45.13 494.16,-48.25"/>
<polygon fill="#63b8ff" stroke="#63b8ff" points="493.31,-51.65 503.89,-51.09 495.27,-44.93 493.31,-51.65"/>
</a>
</g>
</g>
</g>
</svg>
