<?xml version="1.0" encoding="UTF-8" standalone="no"?>
<!DOCTYPE svg PUBLIC "-//W3C//DTD SVG 1.1//EN"
 "http://www.w3.org/Graphics/SVG/1.1/DTD/svg11.dtd">
<!-- Generated by graphviz version 2.43.0 (0)
 -->
<!-- Title: App\Http\Controllers\API\FunctionController\generateMultiRoomSchedule Pages: 1 -->
<svg width="837pt" height="160pt"
 viewBox="0.00 0.00 837.00 159.97" xmlns="http://www.w3.org/2000/svg" xmlns:xlink="http://www.w3.org/1999/xlink">
<g id="graph0" class="graph" transform="scale(1 1) rotate(0) translate(4 155.97)">
<title>App\Http\Controllers\API\FunctionController\generateMultiRoomSchedule</title>
<!-- Node1 -->
<g id="Node000001" class="node">
<title>Node1</title>
<g id="a_Node000001"><a xlink:title="Generar horarios para múltiples salas.">
<polygon fill="#999999" stroke="#666666" points="161,-53.97 0,-53.97 0,-12.97 161,-12.97 161,-53.97"/>
<text text-anchor="start" x="8" y="-41.97" font-family="Helvetica,sans-Serif" font-size="10.00">App\Http\Controllers</text>
<text text-anchor="start" x="8" y="-30.97" font-family="Helvetica,sans-Serif" font-size="10.00">\API\FunctionController</text>
<text text-anchor="middle" x="80.5" y="-19.97" font-family="Helvetica,sans-Serif" font-size="10.00">\generateMultiRoomSchedule</text>
</a>
</g>
</g>
<!-- Node2 -->
<g id="Node000002" class="node">
<title>Node2</title>
<g id="a_Node000002"><a xlink:href="classApp_1_1Http_1_1Controllers_1_1API_1_1FunctionController.html#adad79c96a0ad6c74ee117c8279f18902" target="_top" xlink:title="Generar horarios automáticamente para una sala y fecha específica.">
<polygon fill="white" stroke="#666666" points="325,-102.97 197,-102.97 197,-61.97 325,-61.97 325,-102.97"/>
<text text-anchor="start" x="205" y="-90.97" font-family="Helvetica,sans-Serif" font-size="10.00">App\Http\Controllers</text>
<text text-anchor="start" x="205" y="-79.97" font-family="Helvetica,sans-Serif" font-size="10.00">\API\FunctionController</text>
<text text-anchor="middle" x="261" y="-68.97" font-family="Helvetica,sans-Serif" font-size="10.00">\generateSchedule</text>
</a>
</g>
</g>
<!-- Node1&#45;&gt;Node2 -->
<g id="edge1_Node000001_Node000002" class="edge">
<title>Node1&#45;&gt;Node2</title>
<g id="a_edge1_Node000001_Node000002"><a xlink:title=" ">
<path fill="none" stroke="#63b8ff" d="M156.42,-54.04C166.51,-56.81 176.85,-59.65 186.91,-62.41"/>
<polygon fill="#63b8ff" stroke="#63b8ff" points="186.28,-65.86 196.85,-65.14 188.14,-59.11 186.28,-65.86"/>
</a>
</g>
</g>
<!-- Node5 -->
<g id="Node000005" class="node">
<title>Node5</title>
<g id="a_Node000005"><a xlink:href="classApp_1_1Http_1_1Controllers_1_1API_1_1FunctionController.html#a19f394d5ebe3d3812496bf291797e86d" target="_top" xlink:title="Verifica si un día es laborable (lunes a viernes)">
<polygon fill="white" stroke="#666666" points="829,-82.97 701,-82.97 701,-41.97 829,-41.97 829,-82.97"/>
<text text-anchor="start" x="709" y="-70.97" font-family="Helvetica,sans-Serif" font-size="10.00">App\Http\Controllers</text>
<text text-anchor="start" x="709" y="-59.97" font-family="Helvetica,sans-Serif" font-size="10.00">\API\FunctionController</text>
<text text-anchor="middle" x="765" y="-48.97" font-family="Helvetica,sans-Serif" font-size="10.00">\isBusinessDay</text>
</a>
</g>
</g>
<!-- Node1&#45;&gt;Node5 -->
<g id="edge9_Node000001_Node000005" class="edge">
<title>Node1&#45;&gt;Node5</title>
<g id="a_edge9_Node000001_Node000005"><a xlink:title=" ">
<path fill="none" stroke="#63b8ff" d="M161.13,-22.63C216.96,-15.6 293.38,-7.09 361,-3.47 417.81,-0.43 432.37,1.95 489,-3.47 568.31,-11.06 587.24,-20.15 665,-37.47 673.42,-39.35 682.22,-41.41 690.95,-43.53"/>
<polygon fill="#63b8ff" stroke="#63b8ff" points="690.21,-46.95 700.75,-45.93 691.87,-40.15 690.21,-46.95"/>
</a>
</g>
</g>
<!-- Node6 -->
<g id="Node000006" class="node">
<title>Node6</title>
<g id="a_Node000006"><a xlink:href="classApp_1_1Http_1_1Controllers_1_1API_1_1FunctionController.html#acbc88471b3aa01c832c09c3cb45f77a4" target="_top" xlink:title="Obtiene el siguiente día laborable.">
<polygon fill="white" stroke="#666666" points="489,-53.97 361,-53.97 361,-12.97 489,-12.97 489,-53.97"/>
<text text-anchor="start" x="369" y="-41.97" font-family="Helvetica,sans-Serif" font-size="10.00">App\Http\Controllers</text>
<text text-anchor="start" x="369" y="-30.97" font-family="Helvetica,sans-Serif" font-size="10.00">\API\FunctionController</text>
<text text-anchor="middle" x="425" y="-19.97" font-family="Helvetica,sans-Serif" font-size="10.00">\getNextBusinessDay</text>
</a>
</g>
</g>
<!-- Node1&#45;&gt;Node6 -->
<g id="edge8_Node000001_Node000006" class="edge">
<title>Node1&#45;&gt;Node6</title>
<g id="a_edge8_Node000001_Node000006"><a xlink:title=" ">
<path fill="none" stroke="#63b8ff" d="M161.37,-33.47C218.59,-33.47 295.06,-33.47 350.72,-33.47"/>
<polygon fill="#63b8ff" stroke="#63b8ff" points="350.87,-36.97 360.87,-33.47 350.87,-29.97 350.87,-36.97"/>
</a>
</g>
</g>
<!-- Node3 -->
<g id="Node000003" class="node">
<title>Node3</title>
<g id="a_Node000003"><a xlink:href="classApp_1_1Http_1_1Controllers_1_1API_1_1FunctionController.html#a4f894ae856e94aec570ca628e0573241" target="_top" xlink:title="Obtener el índice de la última película mostrada en el día laborable anterior.">
<polygon fill="white" stroke="#666666" points="489,-151.97 361,-151.97 361,-110.97 489,-110.97 489,-151.97"/>
<text text-anchor="start" x="369" y="-139.97" font-family="Helvetica,sans-Serif" font-size="10.00">App\Http\Controllers</text>
<text text-anchor="start" x="369" y="-128.97" font-family="Helvetica,sans-Serif" font-size="10.00">\API\FunctionController</text>
<text text-anchor="middle" x="425" y="-117.97" font-family="Helvetica,sans-Serif" font-size="10.00">\getLastMovieIndex</text>
</a>
</g>
</g>
<!-- Node2&#45;&gt;Node3 -->
<g id="edge2_Node000002_Node000003" class="edge">
<title>Node2&#45;&gt;Node3</title>
<g id="a_edge2_Node000002_Node000003"><a xlink:title=" ">
<path fill="none" stroke="#63b8ff" d="M325.1,-101.55C333.62,-104.13 342.42,-106.79 351.09,-109.42"/>
<polygon fill="#63b8ff" stroke="#63b8ff" points="350.22,-112.81 360.81,-112.36 352.25,-106.11 350.22,-112.81"/>
</a>
</g>
</g>
<!-- Node2&#45;&gt;Node5 -->
<g id="edge7_Node000002_Node000005" class="edge">
<title>Node2&#45;&gt;Node5</title>
<g id="a_edge7_Node000002_Node000005"><a xlink:title=" ">
<path fill="none" stroke="#63b8ff" d="M325.07,-79.96C418.16,-76.25 591.93,-69.33 690.61,-65.39"/>
<polygon fill="#63b8ff" stroke="#63b8ff" points="690.94,-68.88 700.79,-64.99 690.66,-61.89 690.94,-68.88"/>
</a>
</g>
</g>
<!-- Node2&#45;&gt;Node6 -->
<g id="edge5_Node000002_Node000006" class="edge">
<title>Node2&#45;&gt;Node6</title>
<g id="a_edge5_Node000002_Node000006"><a xlink:title=" ">
<path fill="none" stroke="#63b8ff" d="M325.1,-63.38C333.62,-60.81 342.42,-58.15 351.09,-55.52"/>
<polygon fill="#63b8ff" stroke="#63b8ff" points="352.25,-58.83 360.81,-52.58 350.22,-52.13 352.25,-58.83"/>
</a>
</g>
</g>
<!-- Node4 -->
<g id="Node000004" class="node">
<title>Node4</title>
<g id="a_Node000004"><a xlink:href="classApp_1_1Http_1_1Controllers_1_1API_1_1FunctionController.html#a1bf5be5e471cca9832db774da9bdd3ce" target="_top" xlink:title="Obtiene el día laborable anterior.">
<polygon fill="white" stroke="#666666" points="665,-151.97 525,-151.97 525,-110.97 665,-110.97 665,-151.97"/>
<text text-anchor="start" x="533" y="-139.97" font-family="Helvetica,sans-Serif" font-size="10.00">App\Http\Controllers</text>
<text text-anchor="start" x="533" y="-128.97" font-family="Helvetica,sans-Serif" font-size="10.00">\API\FunctionController</text>
<text text-anchor="middle" x="595" y="-117.97" font-family="Helvetica,sans-Serif" font-size="10.00">\getPreviousBusinessDay</text>
</a>
</g>
</g>
<!-- Node3&#45;&gt;Node4 -->
<g id="edge3_Node000003_Node000004" class="edge">
<title>Node3&#45;&gt;Node4</title>
<g id="a_edge3_Node000003_Node000004"><a xlink:title=" ">
<path fill="none" stroke="#63b8ff" d="M489.03,-131.47C497.47,-131.47 506.2,-131.47 514.86,-131.47"/>
<polygon fill="#63b8ff" stroke="#63b8ff" points="514.98,-134.97 524.98,-131.47 514.98,-127.97 514.98,-134.97"/>
</a>
</g>
</g>
<!-- Node4&#45;&gt;Node5 -->
<g id="edge4_Node000004_Node000005" class="edge">
<title>Node4&#45;&gt;Node5</title>
<g id="a_edge4_Node000004_Node000005"><a xlink:title=" ">
<path fill="none" stroke="#63b8ff" d="M645.95,-110.95C664.4,-103.38 685.5,-94.71 704.7,-86.83"/>
<polygon fill="#63b8ff" stroke="#63b8ff" points="706.03,-90.06 713.95,-83.03 703.37,-83.59 706.03,-90.06"/>
</a>
</g>
</g>
<!-- Node6&#45;&gt;Node5 -->
<g id="edge6_Node000006_Node000005" class="edge">
<title>Node6&#45;&gt;Node5</title>
<g id="a_edge6_Node000006_Node000005"><a xlink:title=" ">
<path fill="none" stroke="#63b8ff" d="M489.18,-38.89C546.35,-43.8 630.55,-51.02 690.66,-56.18"/>
<polygon fill="#63b8ff" stroke="#63b8ff" points="690.58,-59.68 700.84,-57.05 691.18,-52.71 690.58,-59.68"/>
</a>
</g>
</g>
</g>
</svg>
