<?xml version="1.0" encoding="UTF-8" standalone="no"?>
<!DOCTYPE svg PUBLIC "-//W3C//DTD SVG 1.1//EN"
 "http://www.w3.org/Graphics/SVG/1.1/DTD/svg11.dtd">
<!-- Generated by graphviz version 2.43.0 (0)
 -->
<!-- Title: App\Console\Commands\ImportMoviesFromJson\handle Pages: 1 -->
<svg width="679pt" height="226pt"
 viewBox="0.00 0.00 679.00 226.00" xmlns="http://www.w3.org/2000/svg" xmlns:xlink="http://www.w3.org/1999/xlink">
<g id="graph0" class="graph" transform="scale(1 1) rotate(0) translate(4 222)">
<title>App\Console\Commands\ImportMoviesFromJson\handle</title>
<!-- Node1 -->
<g id="Node000001" class="node">
<title>Node1</title>
<g id="a_Node000001"><a xlink:title=" ">
<polygon fill="#999999" stroke="#666666" points="136,-129 0,-129 0,-88 136,-88 136,-129"/>
<text text-anchor="start" x="8" y="-117" font-family="Helvetica,sans-Serif" font-size="10.00">App\Console\Commands</text>
<text text-anchor="start" x="8" y="-106" font-family="Helvetica,sans-Serif" font-size="10.00">\ImportMoviesFromJson</text>
<text text-anchor="middle" x="68" y="-95" font-family="Helvetica,sans-Serif" font-size="10.00">\handle</text>
</a>
</g>
</g>
<!-- Node2 -->
<g id="Node000002" class="node">
<title>Node2</title>
<g id="a_Node000002"><a xlink:href="classApp_1_1Console_1_1Commands_1_1ImportMoviesFromJson.html#a45c94929f5e636834f626838d20007f4" target="_top" xlink:title=" ">
<polygon fill="white" stroke="#666666" points="308,-159 172,-159 172,-118 308,-118 308,-159"/>
<text text-anchor="start" x="180" y="-147" font-family="Helvetica,sans-Serif" font-size="10.00">App\Console\Commands</text>
<text text-anchor="start" x="180" y="-136" font-family="Helvetica,sans-Serif" font-size="10.00">\ImportMoviesFromJson</text>
<text text-anchor="middle" x="240" y="-125" font-family="Helvetica,sans-Serif" font-size="10.00">\createMovie</text>
</a>
</g>
</g>
<!-- Node1&#45;&gt;Node2 -->
<g id="edge1_Node000001_Node000002" class="edge">
<title>Node1&#45;&gt;Node2</title>
<g id="a_edge1_Node000001_Node000002"><a xlink:title=" ">
<path fill="none" stroke="#63b8ff" d="M136.19,-120.36C144.59,-121.84 153.24,-123.37 161.78,-124.87"/>
<polygon fill="#63b8ff" stroke="#63b8ff" points="161.29,-128.34 171.74,-126.63 162.5,-121.45 161.29,-128.34"/>
</a>
</g>
</g>
<!-- Node9 -->
<g id="Node000009" class="node">
<title>Node9</title>
<g id="a_Node000009"><a xlink:href="classApp_1_1Console_1_1Commands_1_1ImportMoviesFromJson.html#a0ecc46e111e5fe5c504ef0d1c5ec7dcc" target="_top" xlink:title=" ">
<polygon fill="white" stroke="#666666" points="308,-100 172,-100 172,-59 308,-59 308,-100"/>
<text text-anchor="start" x="180" y="-88" font-family="Helvetica,sans-Serif" font-size="10.00">App\Console\Commands</text>
<text text-anchor="start" x="180" y="-77" font-family="Helvetica,sans-Serif" font-size="10.00">\ImportMoviesFromJson</text>
<text text-anchor="middle" x="240" y="-66" font-family="Helvetica,sans-Serif" font-size="10.00">\updateMovie</text>
</a>
</g>
</g>
<!-- Node1&#45;&gt;Node9 -->
<g id="edge8_Node000001_Node000009" class="edge">
<title>Node1&#45;&gt;Node9</title>
<g id="a_edge8_Node000001_Node000009"><a xlink:title=" ">
<path fill="none" stroke="#63b8ff" d="M136.19,-97.04C144.59,-95.6 153.24,-94.13 161.78,-92.67"/>
<polygon fill="#63b8ff" stroke="#63b8ff" points="162.47,-96.11 171.74,-90.97 161.3,-89.2 162.47,-96.11"/>
</a>
</g>
</g>
<!-- Node3 -->
<g id="Node000003" class="node">
<title>Node3</title>
<g id="a_Node000003"><a xlink:href="classApp_1_1Console_1_1Commands_1_1ImportMoviesFromJson.html#a4b0935604439e557197269e334a3fad7" target="_top" xlink:title=" ">
<polygon fill="white" stroke="#666666" points="492,-100 344,-100 344,-59 492,-59 492,-100"/>
<text text-anchor="start" x="352" y="-88" font-family="Helvetica,sans-Serif" font-size="10.00">App\Console\Commands</text>
<text text-anchor="start" x="352" y="-77" font-family="Helvetica,sans-Serif" font-size="10.00">\ImportMoviesFromJson</text>
<text text-anchor="middle" x="418" y="-66" font-family="Helvetica,sans-Serif" font-size="10.00">\convertDurationToMinutes</text>
</a>
</g>
</g>
<!-- Node2&#45;&gt;Node3 -->
<g id="edge2_Node000002_Node000003" class="edge">
<title>Node2&#45;&gt;Node3</title>
<g id="a_edge2_Node000002_Node000003"><a xlink:title=" ">
<path fill="none" stroke="#63b8ff" d="M302.56,-117.86C316.57,-113.17 331.57,-108.14 345.94,-103.32"/>
<polygon fill="#63b8ff" stroke="#63b8ff" points="347.41,-106.52 355.78,-100.02 345.18,-99.88 347.41,-106.52"/>
</a>
</g>
</g>
<!-- Node4 -->
<g id="Node000004" class="node">
<title>Node4</title>
<g id="a_Node000004"><a xlink:href="classApp_1_1Console_1_1Commands_1_1ImportMoviesFromJson.html#a21898d55b0a9483950826e0feb40d28c" target="_top" xlink:title=" ">
<polygon fill="white" stroke="#666666" points="486,-41 350,-41 350,0 486,0 486,-41"/>
<text text-anchor="start" x="358" y="-29" font-family="Helvetica,sans-Serif" font-size="10.00">App\Console\Commands</text>
<text text-anchor="start" x="358" y="-18" font-family="Helvetica,sans-Serif" font-size="10.00">\ImportMoviesFromJson</text>
<text text-anchor="middle" x="418" y="-7" font-family="Helvetica,sans-Serif" font-size="10.00">\parseReleaseDate</text>
</a>
</g>
</g>
<!-- Node2&#45;&gt;Node4 -->
<g id="edge3_Node000002_Node000004" class="edge">
<title>Node2&#45;&gt;Node4</title>
<g id="a_edge3_Node000002_Node000004"><a xlink:title=" ">
<path fill="none" stroke="#63b8ff" d="M296.44,-117.9C300.55,-115.37 304.46,-112.58 308,-109.5 331.18,-89.34 320.63,-70.44 344,-50.5 345.52,-49.2 347.11,-47.95 348.75,-46.75"/>
<polygon fill="#63b8ff" stroke="#63b8ff" points="350.87,-49.55 357.33,-41.15 347.04,-43.68 350.87,-49.55"/>
</a>
</g>
</g>
<!-- Node5 -->
<g id="Node000005" class="node">
<title>Node5</title>
<g id="a_Node000005"><a xlink:href="classApp_1_1Console_1_1Commands_1_1ImportMoviesFromJson.html#a4acb5e947f86842db726da784f9f8b61" target="_top" xlink:title=" ">
<polygon fill="white" stroke="#666666" points="486,-218 350,-218 350,-177 486,-177 486,-218"/>
<text text-anchor="start" x="358" y="-206" font-family="Helvetica,sans-Serif" font-size="10.00">App\Console\Commands</text>
<text text-anchor="start" x="358" y="-195" font-family="Helvetica,sans-Serif" font-size="10.00">\ImportMoviesFromJson</text>
<text text-anchor="middle" x="418" y="-184" font-family="Helvetica,sans-Serif" font-size="10.00">\syncActors</text>
</a>
</g>
</g>
<!-- Node2&#45;&gt;Node5 -->
<g id="edge4_Node000002_Node000005" class="edge">
<title>Node2&#45;&gt;Node5</title>
<g id="a_edge4_Node000002_Node000005"><a xlink:title=" ">
<path fill="none" stroke="#63b8ff" d="M302.56,-159.14C316.57,-163.83 331.57,-168.86 345.94,-173.68"/>
<polygon fill="#63b8ff" stroke="#63b8ff" points="345.18,-177.12 355.78,-176.98 347.41,-170.48 345.18,-177.12"/>
</a>
</g>
</g>
<!-- Node7 -->
<g id="Node000007" class="node">
<title>Node7</title>
<g id="a_Node000007"><a xlink:href="classApp_1_1Console_1_1Commands_1_1ImportMoviesFromJson.html#acc24932d8c99ad94ab046d6c873daab4" target="_top" xlink:title=" ">
<polygon fill="white" stroke="#666666" points="486,-159 350,-159 350,-118 486,-118 486,-159"/>
<text text-anchor="start" x="358" y="-147" font-family="Helvetica,sans-Serif" font-size="10.00">App\Console\Commands</text>
<text text-anchor="start" x="358" y="-136" font-family="Helvetica,sans-Serif" font-size="10.00">\ImportMoviesFromJson</text>
<text text-anchor="middle" x="418" y="-125" font-family="Helvetica,sans-Serif" font-size="10.00">\syncGenres</text>
</a>
</g>
</g>
<!-- Node2&#45;&gt;Node7 -->
<g id="edge6_Node000002_Node000007" class="edge">
<title>Node2&#45;&gt;Node7</title>
<g id="a_edge6_Node000002_Node000007"><a xlink:title=" ">
<path fill="none" stroke="#63b8ff" d="M308.04,-138.5C318.42,-138.5 329.21,-138.5 339.79,-138.5"/>
<polygon fill="#63b8ff" stroke="#63b8ff" points="339.85,-142 349.85,-138.5 339.85,-135 339.85,-142"/>
</a>
</g>
</g>
<!-- Node6 -->
<g id="Node000006" class="node">
<title>Node6</title>
<g id="a_Node000006"><a xlink:href="classApp_1_1Models_1_1Movie.html#a7346c784b36820a94e59edfd5b0999f1" target="_top" xlink:title="Obtener los actores asociados con esta película.">
<polygon fill="white" stroke="#666666" points="669.5,-207 529.5,-207 529.5,-188 669.5,-188 669.5,-207"/>
<text text-anchor="middle" x="599.5" y="-195" font-family="Helvetica,sans-Serif" font-size="10.00">App\Models\Movie\actors</text>
</a>
</g>
</g>
<!-- Node5&#45;&gt;Node6 -->
<g id="edge5_Node000005_Node000006" class="edge">
<title>Node5&#45;&gt;Node6</title>
<g id="a_edge5_Node000005_Node000006"><a xlink:title=" ">
<path fill="none" stroke="#63b8ff" d="M486.09,-197.5C496.92,-197.5 508.22,-197.5 519.3,-197.5"/>
<polygon fill="#63b8ff" stroke="#63b8ff" points="519.39,-201 529.39,-197.5 519.39,-194 519.39,-201"/>
</a>
</g>
</g>
<!-- Node8 -->
<g id="Node000008" class="node">
<title>Node8</title>
<g id="a_Node000008"><a xlink:href="classApp_1_1Models_1_1Movie.html#a1301ceed205ee879f5af32ece84a0076" target="_top" xlink:title="Obtener los géneros asociados con esta película.">
<polygon fill="white" stroke="#666666" points="671,-148 528,-148 528,-129 671,-129 671,-148"/>
<text text-anchor="middle" x="599.5" y="-136" font-family="Helvetica,sans-Serif" font-size="10.00">App\Models\Movie\genres</text>
</a>
</g>
</g>
<!-- Node7&#45;&gt;Node8 -->
<g id="edge7_Node000007_Node000008" class="edge">
<title>Node7&#45;&gt;Node8</title>
<g id="a_edge7_Node000007_Node000008"><a xlink:title=" ">
<path fill="none" stroke="#63b8ff" d="M486.09,-138.5C496.43,-138.5 507.2,-138.5 517.8,-138.5"/>
<polygon fill="#63b8ff" stroke="#63b8ff" points="517.89,-142 527.89,-138.5 517.89,-135 517.89,-142"/>
</a>
</g>
</g>
<!-- Node9&#45;&gt;Node3 -->
<g id="edge9_Node000009_Node000003" class="edge">
<title>Node9&#45;&gt;Node3</title>
<g id="a_edge9_Node000009_Node000003"><a xlink:title=" ">
<path fill="none" stroke="#63b8ff" d="M308.04,-79.5C316.49,-79.5 325.21,-79.5 333.87,-79.5"/>
<polygon fill="#63b8ff" stroke="#63b8ff" points="333.99,-83 343.99,-79.5 333.99,-76 333.99,-83"/>
</a>
</g>
</g>
<!-- Node9&#45;&gt;Node4 -->
<g id="edge10_Node000009_Node000004" class="edge">
<title>Node9&#45;&gt;Node4</title>
<g id="a_edge10_Node000009_Node000004"><a xlink:title=" ">
<path fill="none" stroke="#63b8ff" d="M302.56,-58.86C316.57,-54.17 331.57,-49.14 345.94,-44.32"/>
<polygon fill="#63b8ff" stroke="#63b8ff" points="347.41,-47.52 355.78,-41.02 345.18,-40.88 347.41,-47.52"/>
</a>
</g>
</g>
<!-- Node9&#45;&gt;Node5 -->
<g id="edge11_Node000009_Node000005" class="edge">
<title>Node9&#45;&gt;Node5</title>
<g id="a_edge11_Node000009_Node000005"><a xlink:title=" ">
<path fill="none" stroke="#63b8ff" d="M295.1,-100.13C299.69,-102.93 304.08,-106.05 308,-109.5 331.05,-129.8 320.52,-148.7 344,-168.5 345.14,-169.46 346.32,-170.39 347.52,-171.3"/>
<polygon fill="#63b8ff" stroke="#63b8ff" points="345.61,-174.23 355.88,-176.86 349.49,-168.4 345.61,-174.23"/>
</a>
</g>
</g>
<!-- Node9&#45;&gt;Node7 -->
<g id="edge12_Node000009_Node000007" class="edge">
<title>Node9&#45;&gt;Node7</title>
<g id="a_edge12_Node000009_Node000007"><a xlink:title=" ">
<path fill="none" stroke="#63b8ff" d="M302.56,-100.14C316.57,-104.83 331.57,-109.86 345.94,-114.68"/>
<polygon fill="#63b8ff" stroke="#63b8ff" points="345.18,-118.12 355.78,-117.98 347.41,-111.48 345.18,-118.12"/>
</a>
</g>
</g>
</g>
</svg>
