<?xml version="1.0" encoding="UTF-8" standalone="no"?>
<!DOCTYPE svg PUBLIC "-//W3C//DTD SVG 1.1//EN"
 "http://www.w3.org/Graphics/SVG/1.1/DTD/svg11.dtd">
<!-- Generated by graphviz version 2.43.0 (0)
 -->
<!-- Title: App\Models\Movie\actors Pages: 1 -->
<!--zoomable 128 -->

<svg id="main" version="1.1" xmlns="http://www.w3.org/2000/svg" xmlns:xlink="http://www.w3.org/1999/xlink" xml:space="preserve" onload="init(evt)">
<style type="text/css"><![CDATA[
.node, .edge {opacity: 0.7;}
.node.selected, .edge.selected {opacity: 1;}
.edge:hover path { stroke: red; }
.edge:hover polygon { stroke: red; fill: red; }
]]></style>

<defs>
  <circle id="rim" cx="0" cy="0" r="7"/>
  <circle id="rim2" cx="0" cy="0" r="3.5"/>
  <g id="zoomPlus">
    <use xlink:href="#rim" fill="#404040"><set attributeName="fill" to="#808080" begin="zoomplus.mouseover" end="zoomplus.mouseout"/></use>
    <path d="M-4,0h8M0,-4v8" fill="none" stroke="white" stroke-width="1.5" pointer-events="none"/>
  </g>
  <g id="zoomMin">
    <use xlink:href="#rim" fill="#404040"><set attributeName="fill" to="#808080" begin="zoomminus.mouseover" end="zoomminus.mouseout"/></use>
    <path d="M-4,0h8" fill="none" stroke="white" stroke-width="1.5" pointer-events="none"/>
  </g>
  <g id="arrowUp" transform="translate(30 24)">
    <use xlink:href="#rim"/>
    <path pointer-events="none" fill="none" stroke="white" stroke-width="1.5" d="M0,-3.0v7 M-2.5,-0.5L0,-3.0L2.5,-0.5"/>
  </g>
  <g id="arrowRight" transform="rotate(90) translate(36 -43)">
    <use xlink:href="#rim"/>
    <path pointer-events="none" fill="none" stroke="white" stroke-width="1.5" d="M0,-3.0v7 M-2.5,-0.5L0,-3.0L2.5,-0.5"/>
  </g>
  <g id="arrowDown" transform="rotate(180) translate(-30 -48)">
    <use xlink:href="#rim"/>
    <path pointer-events="none" fill="none" stroke="white" stroke-width="1.5" d="M0,-3.0v7 M-2.5,-0.5L0,-3.0L2.5,-0.5"/>
  </g>
  <g id="arrowLeft" transform="rotate(270) translate(-36 17)">
    <use xlink:href="#rim"/>
    <path pointer-events="none" fill="none" stroke="white" stroke-width="1.5" d="M0,-3.0v7 M-2.5,-0.5L0,-3.0L2.5,-0.5"/>
  </g>
  <g id="resetDef">
    <use xlink:href="#rim2" fill="#404040"><set attributeName="fill" to="#808080" begin="reset.mouseover" end="reset.mouseout"/></use>
  </g>
</defs>
<script type="application/ecmascript">
var viewWidth = 691;
var viewHeight = 128;
var sectionId = 'dynsection-2';
</script>
<script type="application/ecmascript" xlink:href="svg.min.js"/>
<svg id="graph" class="graph">
<g id="viewport">
<title>App\Models\Movie\actors</title>
<!-- Node1 -->
<g id="Node000001" class="node">
<title>Node1</title>
<g id="a_Node000001"><a xlink:title="Obtener los actores asociados con esta película.">
<polygon fill="#999999" stroke="#666666" points="683,-51.5 543,-51.5 543,-32.5 683,-32.5 683,-51.5"/>
<text text-anchor="middle" x="613" y="-39.5" font-family="Helvetica,sans-Serif" font-size="10.00">App\Models\Movie\actors</text>
</a>
</g>
</g>
<!-- Node2 -->
<g id="Node000002" class="node">
<title>Node2</title>
<g id="a_Node000002"><a xlink:href="classApp_1_1Console_1_1Commands_1_1ImportMoviesFromJson.html#a4acb5e947f86842db726da784f9f8b61" target="_top" xlink:title=" ">
<polygon fill="white" stroke="#666666" points="493.5,-89.5 357.5,-89.5 357.5,-48.5 493.5,-48.5 493.5,-89.5"/>
<text text-anchor="start" x="365.5" y="-77.5" font-family="Helvetica,sans-Serif" font-size="10.00">App\Console\Commands</text>
<text text-anchor="start" x="365.5" y="-66.5" font-family="Helvetica,sans-Serif" font-size="10.00">\ImportMoviesFromJson</text>
<text text-anchor="middle" x="425.5" y="-55.5" font-family="Helvetica,sans-Serif" font-size="10.00">\syncActors</text>
</a>
</g>
</g>
<!-- Node1&#45;&gt;Node2 -->
<g id="edge1_Node000001_Node000002" class="edge">
<title>Node1&#45;&gt;Node2</title>
<g id="a_edge1_Node000001_Node000002"><a xlink:title=" ">
<path fill="none" stroke="#63b8ff" d="M536.38,-53.01C522.18,-55.07 507.42,-57.22 493.5,-59.25"/>
<polygon fill="#63b8ff" stroke="#63b8ff" points="537.21,-56.42 546.6,-51.52 536.2,-49.5 537.21,-56.42"/>
</a>
</g>
</g>
<!-- Node6 -->
<g id="Node000006" class="node">
<title>Node6</title>
<g id="a_Node000006"><a xlink:href="classApp_1_1Models_1_1Movie.html#a761af6742dda30a1259a4bc88786d594" target="_top" xlink:title="Sincronizar actores desde un array de nombres.">
<polygon fill="white" stroke="#666666" points="507,-30 344,-30 344,0 507,0 507,-30"/>
<text text-anchor="start" x="352" y="-18" font-family="Helvetica,sans-Serif" font-size="10.00">App\Models\Movie\syncActors</text>
<text text-anchor="middle" x="425.5" y="-7" font-family="Helvetica,sans-Serif" font-size="10.00">ByName</text>
</a>
</g>
</g>
<!-- Node1&#45;&gt;Node6 -->
<g id="edge6_Node000001_Node000006" class="edge">
<title>Node1&#45;&gt;Node6</title>
<g id="a_edge6_Node000001_Node000006"><a xlink:title=" ">
<path fill="none" stroke="#63b8ff" d="M536.63,-31.03C526.94,-29.62 517,-28.17 507.24,-26.75"/>
<polygon fill="#63b8ff" stroke="#63b8ff" points="536.2,-34.5 546.6,-32.48 537.21,-27.58 536.2,-34.5"/>
</a>
</g>
</g>
<!-- Node3 -->
<g id="Node000003" class="node">
<title>Node3</title>
<g id="a_Node000003"><a xlink:href="classApp_1_1Console_1_1Commands_1_1ImportMoviesFromJson.html#a45c94929f5e636834f626838d20007f4" target="_top" xlink:title=" ">
<polygon fill="white" stroke="#666666" points="308,-119.5 172,-119.5 172,-78.5 308,-78.5 308,-119.5"/>
<text text-anchor="start" x="180" y="-107.5" font-family="Helvetica,sans-Serif" font-size="10.00">App\Console\Commands</text>
<text text-anchor="start" x="180" y="-96.5" font-family="Helvetica,sans-Serif" font-size="10.00">\ImportMoviesFromJson</text>
<text text-anchor="middle" x="240" y="-85.5" font-family="Helvetica,sans-Serif" font-size="10.00">\createMovie</text>
</a>
</g>
</g>
<!-- Node2&#45;&gt;Node3 -->
<g id="edge2_Node000002_Node000003" class="edge">
<title>Node2&#45;&gt;Node3</title>
<g id="a_edge2_Node000002_Node000003"><a xlink:title=" ">
<path fill="none" stroke="#63b8ff" d="M347.56,-81.58C334.47,-83.72 320.97,-85.93 308.15,-88.02"/>
<polygon fill="#63b8ff" stroke="#63b8ff" points="348.17,-85.03 357.47,-79.96 347.04,-78.12 348.17,-85.03"/>
</a>
</g>
</g>
<!-- Node5 -->
<g id="Node000005" class="node">
<title>Node5</title>
<g id="a_Node000005"><a xlink:href="classApp_1_1Console_1_1Commands_1_1ImportMoviesFromJson.html#a0ecc46e111e5fe5c504ef0d1c5ec7dcc" target="_top" xlink:title=" ">
<polygon fill="white" stroke="#666666" points="308,-60.5 172,-60.5 172,-19.5 308,-19.5 308,-60.5"/>
<text text-anchor="start" x="180" y="-48.5" font-family="Helvetica,sans-Serif" font-size="10.00">App\Console\Commands</text>
<text text-anchor="start" x="180" y="-37.5" font-family="Helvetica,sans-Serif" font-size="10.00">\ImportMoviesFromJson</text>
<text text-anchor="middle" x="240" y="-26.5" font-family="Helvetica,sans-Serif" font-size="10.00">\updateMovie</text>
</a>
</g>
</g>
<!-- Node2&#45;&gt;Node5 -->
<g id="edge4_Node000002_Node000005" class="edge">
<title>Node2&#45;&gt;Node5</title>
<g id="a_edge4_Node000002_Node000005"><a xlink:title=" ">
<path fill="none" stroke="#63b8ff" d="M347.56,-56.84C334.47,-54.77 320.97,-52.64 308.15,-50.61"/>
<polygon fill="#63b8ff" stroke="#63b8ff" points="347.05,-60.3 357.47,-58.41 348.14,-53.39 347.05,-60.3"/>
</a>
</g>
</g>
<!-- Node4 -->
<g id="Node000004" class="node">
<title>Node4</title>
<g id="a_Node000004"><a xlink:href="classApp_1_1Console_1_1Commands_1_1ImportMoviesFromJson.html#ac22640744ebb16ae8d65c0ab483c3e3f" target="_top" xlink:title=" ">
<polygon fill="white" stroke="#666666" points="136,-89.5 0,-89.5 0,-48.5 136,-48.5 136,-89.5"/>
<text text-anchor="start" x="8" y="-77.5" font-family="Helvetica,sans-Serif" font-size="10.00">App\Console\Commands</text>
<text text-anchor="start" x="8" y="-66.5" font-family="Helvetica,sans-Serif" font-size="10.00">\ImportMoviesFromJson</text>
<text text-anchor="middle" x="68" y="-55.5" font-family="Helvetica,sans-Serif" font-size="10.00">\handle</text>
</a>
</g>
</g>
<!-- Node3&#45;&gt;Node4 -->
<g id="edge3_Node000003_Node000004" class="edge">
<title>Node3&#45;&gt;Node4</title>
<g id="a_edge3_Node000003_Node000004"><a xlink:title=" ">
<path fill="none" stroke="#63b8ff" d="M161.85,-85.39C153.31,-83.88 144.66,-82.35 136.26,-80.87"/>
<polygon fill="#63b8ff" stroke="#63b8ff" points="161.36,-88.85 171.81,-87.14 162.57,-81.96 161.36,-88.85"/>
</a>
</g>
</g>
<!-- Node5&#45;&gt;Node4 -->
<g id="edge5_Node000005_Node000004" class="edge">
<title>Node5&#45;&gt;Node4</title>
<g id="a_edge5_Node000005_Node000004"><a xlink:title=" ">
<path fill="none" stroke="#63b8ff" d="M161.85,-53.16C153.31,-54.62 144.66,-56.09 136.26,-57.53"/>
<polygon fill="#63b8ff" stroke="#63b8ff" points="162.54,-56.59 171.81,-51.46 161.37,-49.69 162.54,-56.59"/>
</a>
</g>
</g>
</g>
</svg>

<g id="navigator" transform="translate(0 0)" fill="#404254">
  <rect fill="#f2f5e9" fill-opacity="0.5" stroke="#606060" stroke-width=".5" x="0" y="0" width="60" height="60"/>
  <use id="zoomplus" xlink:href="#zoomPlus" x="17" y="9" onmousedown="handleZoom(evt,'in')"/>
  <use id="zoomminus" xlink:href="#zoomMin" x="42" y="9" onmousedown="handleZoom(evt,'out')"/>
  <use id="reset" xlink:href="#resetDef" x="30" y="36" onmousedown="handleReset()"/>
   <use id="arrowup" xlink:href="#arrowUp" x="0" y="0" onmousedown="handlePan(0,-1)"/>
  <use id="arrowright" xlink:href="#arrowRight" x="0" y="0" onmousedown="handlePan(1,0)"/>
  <use id="arrowdown" xlink:href="#arrowDown" x="0" y="0" onmousedown="handlePan(0,1)"/>
  <use id="arrowleft" xlink:href="#arrowLeft" x="0" y="0" onmousedown="handlePan(-1,0)"/>
</g>
<svg viewBox="0 0 15 15" width="100%" height="30px" preserveAspectRatio="xMaxYMin meet">
 <g id="arrow_out" transform="scale(0.3 0.3)">
  <a xlink:href="classApp_1_1Models_1_1Movie_a7346c784b36820a94e59edfd5b0999f1_icgraph_org.svg" target="_base">
   <rect id="button" ry="5" rx="5" y="6" x="6" height="38" width="38"
        fill="#f2f5e9" fill-opacity="0.5" stroke="#606060" stroke-width="1.0"/>
   <path id="arrow"
     d="M 11.500037,31.436501 C 11.940474,20.09759 22.043105,11.32322 32.158766,21.979434 L 37.068811,17.246167 C 37.068811,17.246167 37.088388,32 37.088388,32 L 22.160133,31.978069 C 22.160133,31.978069 26.997745,27.140456 26.997745,27.140456 C 18.528582,18.264221 13.291696,25.230495 11.500037,31.436501 z"
     style="fill:#404040;"/>
  </a>
 </g>
</svg>

<style type='text/css'>
<![CDATA[
[data-mouse-over-selected='false'] { opacity: 0.7; }
[data-mouse-over-selected='true']  { opacity: 1.0; }
]]>
</style>
<script type="application/ecmascript"><![CDATA[
document.addEventListener('DOMContentLoaded', (event) => {
  highlightEdges();
  highlightAdjacentNodes();
});
]]></script>
</svg>
