<?xml version="1.0" encoding="UTF-8" standalone="no"?>
<!DOCTYPE svg PUBLIC "-//W3C//DTD SVG 1.1//EN"
 "http://www.w3.org/Graphics/SVG/1.1/DTD/svg11.dtd">
<!-- Generated by graphviz version 2.43.0 (0)
 -->
<!-- Title: App\Models\Movie\fromScrapedData Pages: 1 -->
<svg width="438pt" height="76pt"
 viewBox="0.00 0.00 438.00 75.50" xmlns="http://www.w3.org/2000/svg" xmlns:xlink="http://www.w3.org/1999/xlink">
<g id="graph0" class="graph" transform="scale(1 1) rotate(0) translate(4 71.5)">
<title>App\Models\Movie\fromScrapedData</title>
<!-- Node1 -->
<g id="Node000001" class="node">
<title>Node1</title>
<g id="a_Node000001"><a xlink:title="Importar datos de scraping al modelo.">
<polygon fill="#999999" stroke="#666666" points="195,-40 0,-40 0,-21 195,-21 195,-40"/>
<text text-anchor="middle" x="97.5" y="-28" font-family="Helvetica,sans-Serif" font-size="10.00">App\Models\Movie\fromScrapedData</text>
</a>
</g>
</g>
<!-- Node2 -->
<g id="Node000002" class="node">
<title>Node2</title>
<g id="a_Node000002"><a xlink:href="classApp_1_1Models_1_1Movie.html#a63516c6ed856982ff443952b9e7545d8" target="_top" xlink:title="Convierte una duración en formato texto (1h 55m) a minutos.">
<polygon fill="white" stroke="#666666" points="403.5,-67.5 257.5,-67.5 257.5,-37.5 403.5,-37.5 403.5,-67.5"/>
<text text-anchor="start" x="265.5" y="-55.5" font-family="Helvetica,sans-Serif" font-size="10.00">App\Models\Movie\convert</text>
<text text-anchor="middle" x="330.5" y="-44.5" font-family="Helvetica,sans-Serif" font-size="10.00">DurationToMinutes</text>
</a>
</g>
</g>
<!-- Node1&#45;&gt;Node2 -->
<g id="edge1_Node000001_Node000002" class="edge">
<title>Node1&#45;&gt;Node2</title>
<g id="a_edge1_Node000001_Node000002"><a xlink:title=" ">
<path fill="none" stroke="#63b8ff" d="M195.13,-39.7C212.33,-41.34 230.1,-43.03 246.87,-44.63"/>
<polygon fill="#63b8ff" stroke="#63b8ff" points="246.88,-48.15 257.16,-45.61 247.54,-41.18 246.88,-48.15"/>
</a>
</g>
</g>
<!-- Node3 -->
<g id="Node000003" class="node">
<title>Node3</title>
<g id="a_Node000003"><a xlink:href="classApp_1_1Models_1_1Movie.html#abae625fb2528e51cfc642d55c7ccb31e" target="_top" xlink:title="Parsea una fecha en formato texto (21 mayo 2025) a objeto Carbon.">
<polygon fill="white" stroke="#666666" points="430,-19 231,-19 231,0 430,0 430,-19"/>
<text text-anchor="middle" x="330.5" y="-7" font-family="Helvetica,sans-Serif" font-size="10.00">App\Models\Movie\parseReleaseDate</text>
</a>
</g>
</g>
<!-- Node1&#45;&gt;Node3 -->
<g id="edge2_Node000001_Node000003" class="edge">
<title>Node1&#45;&gt;Node3</title>
<g id="a_edge2_Node000001_Node000003"><a xlink:title=" ">
<path fill="none" stroke="#63b8ff" d="M195.13,-21.72C203.57,-20.95 212.15,-20.17 220.68,-19.39"/>
<polygon fill="#63b8ff" stroke="#63b8ff" points="221.02,-22.88 230.66,-18.49 220.39,-15.91 221.02,-22.88"/>
</a>
</g>
</g>
</g>
</svg>
