<?xml version="1.0" encoding="UTF-8" standalone="no"?>
<!DOCTYPE svg PUBLIC "-//W3C//DTD SVG 1.1//EN"
 "http://www.w3.org/Graphics/SVG/1.1/DTD/svg11.dtd">
<!-- Generated by graphviz version 2.43.0 (0)
 -->
<!-- Title: srcs/front/src/routes Pages: 1 -->
<!--zoomable 94 -->

<svg id="main" version="1.1" xmlns="http://www.w3.org/2000/svg" xmlns:xlink="http://www.w3.org/1999/xlink" xml:space="preserve" onload="init(evt)">
<style type="text/css"><![CDATA[
.node, .edge {opacity: 0.7;}
.node.selected, .edge.selected {opacity: 1;}
.edge:hover path { stroke: red; }
.edge:hover polygon { stroke: red; fill: red; }
]]></style>

<defs>
  <circle id="rim" cx="0" cy="0" r="7"/>
  <circle id="rim2" cx="0" cy="0" r="3.5"/>
  <g id="zoomPlus">
    <use xlink:href="#rim" fill="#404040"><set attributeName="fill" to="#808080" begin="zoomplus.mouseover" end="zoomplus.mouseout"/></use>
    <path d="M-4,0h8M0,-4v8" fill="none" stroke="white" stroke-width="1.5" pointer-events="none"/>
  </g>
  <g id="zoomMin">
    <use xlink:href="#rim" fill="#404040"><set attributeName="fill" to="#808080" begin="zoomminus.mouseover" end="zoomminus.mouseout"/></use>
    <path d="M-4,0h8" fill="none" stroke="white" stroke-width="1.5" pointer-events="none"/>
  </g>
  <g id="arrowUp" transform="translate(30 24)">
    <use xlink:href="#rim"/>
    <path pointer-events="none" fill="none" stroke="white" stroke-width="1.5" d="M0,-3.0v7 M-2.5,-0.5L0,-3.0L2.5,-0.5"/>
  </g>
  <g id="arrowRight" transform="rotate(90) translate(36 -43)">
    <use xlink:href="#rim"/>
    <path pointer-events="none" fill="none" stroke="white" stroke-width="1.5" d="M0,-3.0v7 M-2.5,-0.5L0,-3.0L2.5,-0.5"/>
  </g>
  <g id="arrowDown" transform="rotate(180) translate(-30 -48)">
    <use xlink:href="#rim"/>
    <path pointer-events="none" fill="none" stroke="white" stroke-width="1.5" d="M0,-3.0v7 M-2.5,-0.5L0,-3.0L2.5,-0.5"/>
  </g>
  <g id="arrowLeft" transform="rotate(270) translate(-36 17)">
    <use xlink:href="#rim"/>
    <path pointer-events="none" fill="none" stroke="white" stroke-width="1.5" d="M0,-3.0v7 M-2.5,-0.5L0,-3.0L2.5,-0.5"/>
  </g>
  <g id="resetDef">
    <use xlink:href="#rim2" fill="#404040"><set attributeName="fill" to="#808080" begin="reset.mouseover" end="reset.mouseout"/></use>
  </g>
</defs>
<script type="application/ecmascript">
var viewWidth = 513;
var viewHeight = 94;
var sectionId = 'dynsection-0';
</script>
<script type="application/ecmascript" xlink:href="svg.min.js"/>
<svg id="graph" class="graph">
<g id="viewport">
<title>srcs/front/src/routes</title>
<g id="clust1" class="cluster">
<title>clusterdir_6b71d2d9839b00be3aa4cad958706265</title>
<g id="a_clust1"><a xlink:href="dir_6b71d2d9839b00be3aa4cad958706265.html" target="_top" xlink:title="src">
<polygon fill="#e5dafa" stroke="#7f7f7f" stroke-dasharray="5,2" points="8,-8 8,-78 497,-78 497,-8 8,-8"/>
<text text-anchor="middle" x="252.5" y="-66" font-family="Helvetica,sans-Serif" font-size="10.00">src</text>
</a>
</g>
</g>
<g id="clust2" class="cluster">
<title>clusterdir_711e061037f1f3e03ef0d7826512e504</title>
<g id="a_clust2"><a xlink:href="dir_711e061037f1f3e03ef0d7826512e504.html" target="_top">
<polygon fill="#e5dafa" stroke="#404040" stroke-width="2" points="16,-16 16,-51 489,-51 489,-16 16,-16"/>
</a>
</g>
</g>
<!-- dir_711e061037f1f3e03ef0d7826512e504 -->
<g id="node1" class="node">
<title>dir_711e061037f1f3e03ef0d7826512e504</title>
<text text-anchor="middle" x="457" y="-31" font-family="Helvetica,sans-Serif" font-size="10.00">routes</text>
</g>
<!-- dir_b41b5bfe653785ffeb64fb4b825f6860 -->
<g id="node2" class="node">
<title>dir_b41b5bfe653785ffeb64fb4b825f6860</title>
<g id="a_node2"><a xlink:href="dir_b41b5bfe653785ffeb64fb4b825f6860.html" target="_top" xlink:title="admin">
<polygon fill="#824ee9" stroke="#404040" points="415.5,-43 368.5,-43 368.5,-24 415.5,-24 415.5,-43"/>
<text text-anchor="middle" x="392" y="-31" font-family="Helvetica,sans-Serif" font-size="10.00">admin</text>
</a>
</g>
</g>
<!-- dir_870f87bd6c0dd284c3aa5f0dbacdb4c2 -->
<g id="node3" class="node">
<title>dir_870f87bd6c0dd284c3aa5f0dbacdb4c2</title>
<g id="a_node3"><a xlink:href="dir_870f87bd6c0dd284c3aa5f0dbacdb4c2.html" target="_top" xlink:title="cinemas">
<polygon fill="#824ee9" stroke="#404040" points="350,-43 292,-43 292,-24 350,-24 350,-43"/>
<text text-anchor="middle" x="321" y="-31" font-family="Helvetica,sans-Serif" font-size="10.00">cinemas</text>
</a>
</g>
</g>
<!-- dir_5855735372a1999ad98096b4f6e72500 -->
<g id="node4" class="node">
<title>dir_5855735372a1999ad98096b4f6e72500</title>
<g id="a_node4"><a xlink:href="dir_5855735372a1999ad98096b4f6e72500.html" target="_top" xlink:title="login">
<polygon fill="#824ee9" stroke="#404040" points="273.5,-43 232.5,-43 232.5,-24 273.5,-24 273.5,-43"/>
<text text-anchor="middle" x="253" y="-31" font-family="Helvetica,sans-Serif" font-size="10.00">login</text>
</a>
</g>
</g>
<!-- dir_d9e8884468d97d32cc68700781fa45ca -->
<g id="node5" class="node">
<title>dir_d9e8884468d97d32cc68700781fa45ca</title>
<g id="a_node5"><a xlink:href="dir_d9e8884468d97d32cc68700781fa45ca.html" target="_top" xlink:title="movies">
<polygon fill="#824ee9" stroke="#404040" points="214.5,-43 161.5,-43 161.5,-24 214.5,-24 214.5,-43"/>
<text text-anchor="middle" x="188" y="-31" font-family="Helvetica,sans-Serif" font-size="10.00">movies</text>
</a>
</g>
</g>
<!-- dir_dde2b3f1147643c31c3749f20178e703 -->
<g id="node6" class="node">
<title>dir_dde2b3f1147643c31c3749f20178e703</title>
<g id="a_node6"><a xlink:href="dir_dde2b3f1147643c31c3749f20178e703.html" target="_top" xlink:title="profile">
<polygon fill="#824ee9" stroke="#404040" points="143.5,-43 96.5,-43 96.5,-24 143.5,-24 143.5,-43"/>
<text text-anchor="middle" x="120" y="-31" font-family="Helvetica,sans-Serif" font-size="10.00">profile</text>
</a>
</g>
</g>
<!-- dir_7b3723c929aa6215559d8165db89aa00 -->
<g id="node7" class="node">
<title>dir_7b3723c929aa6215559d8165db89aa00</title>
<g id="a_node7"><a xlink:href="dir_7b3723c929aa6215559d8165db89aa00.html" target="_top" xlink:title="register">
<polygon fill="#824ee9" stroke="#404040" points="78,-43 24,-43 24,-24 78,-24 78,-43"/>
<text text-anchor="middle" x="51" y="-31" font-family="Helvetica,sans-Serif" font-size="10.00">register</text>
</a>
</g>
</g>
</g>
</svg>

<g id="navigator" transform="translate(0 0)" fill="#404254">
  <rect fill="#f2f5e9" fill-opacity="0.5" stroke="#606060" stroke-width=".5" x="0" y="0" width="60" height="60"/>
  <use id="zoomplus" xlink:href="#zoomPlus" x="17" y="9" onmousedown="handleZoom(evt,'in')"/>
  <use id="zoomminus" xlink:href="#zoomMin" x="42" y="9" onmousedown="handleZoom(evt,'out')"/>
  <use id="reset" xlink:href="#resetDef" x="30" y="36" onmousedown="handleReset()"/>
   <use id="arrowup" xlink:href="#arrowUp" x="0" y="0" onmousedown="handlePan(0,-1)"/>
  <use id="arrowright" xlink:href="#arrowRight" x="0" y="0" onmousedown="handlePan(1,0)"/>
  <use id="arrowdown" xlink:href="#arrowDown" x="0" y="0" onmousedown="handlePan(0,1)"/>
  <use id="arrowleft" xlink:href="#arrowLeft" x="0" y="0" onmousedown="handlePan(-1,0)"/>
</g>
<svg viewBox="0 0 15 15" width="100%" height="30px" preserveAspectRatio="xMaxYMin meet">
 <g id="arrow_out" transform="scale(0.3 0.3)">
  <a xlink:href="dir_711e061037f1f3e03ef0d7826512e504_dep_org.svg" target="_base">
   <rect id="button" ry="5" rx="5" y="6" x="6" height="38" width="38"
        fill="#f2f5e9" fill-opacity="0.5" stroke="#606060" stroke-width="1.0"/>
   <path id="arrow"
     d="M 11.500037,31.436501 C 11.940474,20.09759 22.043105,11.32322 32.158766,21.979434 L 37.068811,17.246167 C 37.068811,17.246167 37.088388,32 37.088388,32 L 22.160133,31.978069 C 22.160133,31.978069 26.997745,27.140456 26.997745,27.140456 C 18.528582,18.264221 13.291696,25.230495 11.500037,31.436501 z"
     style="fill:#404040;"/>
  </a>
 </g>
</svg>

<style type='text/css'>
<![CDATA[
[data-mouse-over-selected='false'] { opacity: 0.7; }
[data-mouse-over-selected='true']  { opacity: 1.0; }
]]>
</style>
<script type="application/ecmascript"><![CDATA[
document.addEventListener('DOMContentLoaded', (event) => {
  highlightEdges();
  highlightAdjacentNodes();
});
]]></script>
</svg>
