<?xml version="1.0" encoding="UTF-8" standalone="no"?>
<!DOCTYPE svg PUBLIC "-//W3C//DTD SVG 1.1//EN"
 "http://www.w3.org/Graphics/SVG/1.1/DTD/svg11.dtd">
<!-- Generated by graphviz version 2.43.0 (0)
 -->
<!-- Title: srcs/back/app Pages: 1 -->
<!--zoomable 94 -->

<svg id="main" version="1.1" xmlns="http://www.w3.org/2000/svg" xmlns:xlink="http://www.w3.org/1999/xlink" xml:space="preserve" onload="init(evt)">
<style type="text/css"><![CDATA[
.node, .edge {opacity: 0.7;}
.node.selected, .edge.selected {opacity: 1;}
.edge:hover path { stroke: red; }
.edge:hover polygon { stroke: red; fill: red; }
]]></style>

<defs>
  <circle id="rim" cx="0" cy="0" r="7"/>
  <circle id="rim2" cx="0" cy="0" r="3.5"/>
  <g id="zoomPlus">
    <use xlink:href="#rim" fill="#404040"><set attributeName="fill" to="#808080" begin="zoomplus.mouseover" end="zoomplus.mouseout"/></use>
    <path d="M-4,0h8M0,-4v8" fill="none" stroke="white" stroke-width="1.5" pointer-events="none"/>
  </g>
  <g id="zoomMin">
    <use xlink:href="#rim" fill="#404040"><set attributeName="fill" to="#808080" begin="zoomminus.mouseover" end="zoomminus.mouseout"/></use>
    <path d="M-4,0h8" fill="none" stroke="white" stroke-width="1.5" pointer-events="none"/>
  </g>
  <g id="arrowUp" transform="translate(30 24)">
    <use xlink:href="#rim"/>
    <path pointer-events="none" fill="none" stroke="white" stroke-width="1.5" d="M0,-3.0v7 M-2.5,-0.5L0,-3.0L2.5,-0.5"/>
  </g>
  <g id="arrowRight" transform="rotate(90) translate(36 -43)">
    <use xlink:href="#rim"/>
    <path pointer-events="none" fill="none" stroke="white" stroke-width="1.5" d="M0,-3.0v7 M-2.5,-0.5L0,-3.0L2.5,-0.5"/>
  </g>
  <g id="arrowDown" transform="rotate(180) translate(-30 -48)">
    <use xlink:href="#rim"/>
    <path pointer-events="none" fill="none" stroke="white" stroke-width="1.5" d="M0,-3.0v7 M-2.5,-0.5L0,-3.0L2.5,-0.5"/>
  </g>
  <g id="arrowLeft" transform="rotate(270) translate(-36 17)">
    <use xlink:href="#rim"/>
    <path pointer-events="none" fill="none" stroke="white" stroke-width="1.5" d="M0,-3.0v7 M-2.5,-0.5L0,-3.0L2.5,-0.5"/>
  </g>
  <g id="resetDef">
    <use xlink:href="#rim2" fill="#404040"><set attributeName="fill" to="#808080" begin="reset.mouseover" end="reset.mouseout"/></use>
  </g>
</defs>
<script type="application/ecmascript">
var viewWidth = 632;
var viewHeight = 94;
var sectionId = 'dynsection-0';
</script>
<script type="application/ecmascript" xlink:href="svg.min.js"/>
<svg id="graph" class="graph">
<g id="viewport">
<title>srcs/back/app</title>
<g id="clust1" class="cluster">
<title>clusterdir_49bd007d94e193dda169e385b90a8d7f</title>
<g id="a_clust1"><a xlink:href="dir_49bd007d94e193dda169e385b90a8d7f.html" target="_top" xlink:title="back">
<polygon fill="#e5dafa" stroke="#7f7f7f" stroke-dasharray="5,2" points="8,-8 8,-78 616,-78 616,-8 8,-8"/>
<text text-anchor="middle" x="312" y="-66" font-family="Helvetica,sans-Serif" font-size="10.00">back</text>
</a>
</g>
</g>
<g id="clust2" class="cluster">
<title>clusterdir_b58e4a7361a2edb8306a9c5d9962e840</title>
<g id="a_clust2"><a xlink:href="dir_b58e4a7361a2edb8306a9c5d9962e840.html" target="_top">
<polygon fill="#e5dafa" stroke="#404040" stroke-width="2" points="16,-16 16,-51 608,-51 608,-16 16,-16"/>
</a>
</g>
</g>
<!-- dir_b58e4a7361a2edb8306a9c5d9962e840 -->
<g id="node1" class="node">
<title>dir_b58e4a7361a2edb8306a9c5d9962e840</title>
<text text-anchor="middle" x="582" y="-31" font-family="Helvetica,sans-Serif" font-size="10.00">app</text>
</g>
<!-- dir_28a9361bb596abd5579c93e060459e8c -->
<g id="node2" class="node">
<title>dir_28a9361bb596abd5579c93e060459e8c</title>
<g id="a_node2"><a xlink:href="dir_28a9361bb596abd5579c93e060459e8c.html" target="_top" xlink:title="Console">
<polygon fill="#824ee9" stroke="#404040" points="546,-43 490,-43 490,-24 546,-24 546,-43"/>
<text text-anchor="middle" x="518" y="-31" font-family="Helvetica,sans-Serif" font-size="10.00">Console</text>
</a>
</g>
</g>
<!-- dir_8cbf1e0360cdbcf9616860276d5ed86b -->
<g id="node3" class="node">
<title>dir_8cbf1e0360cdbcf9616860276d5ed86b</title>
<g id="a_node3"><a xlink:href="dir_8cbf1e0360cdbcf9616860276d5ed86b.html" target="_top" xlink:title="Exceptions">
<polygon fill="#824ee9" stroke="#404040" points="472,-43 402,-43 402,-24 472,-24 472,-43"/>
<text text-anchor="middle" x="437" y="-31" font-family="Helvetica,sans-Serif" font-size="10.00">Exceptions</text>
</a>
</g>
</g>
<!-- dir_c2bd6bf1369840d554be5054ceff4965 -->
<g id="node4" class="node">
<title>dir_c2bd6bf1369840d554be5054ceff4965</title>
<g id="a_node4"><a xlink:href="dir_c2bd6bf1369840d554be5054ceff4965.html" target="_top" xlink:title="Http">
<polygon fill="#824ee9" stroke="#404040" points="384,-43 346,-43 346,-24 384,-24 384,-43"/>
<text text-anchor="middle" x="365" y="-31" font-family="Helvetica,sans-Serif" font-size="10.00">Http</text>
</a>
</g>
</g>
<!-- dir_d0bf55a684362e14049411f317e79873 -->
<g id="node5" class="node">
<title>dir_d0bf55a684362e14049411f317e79873</title>
<g id="a_node5"><a xlink:href="dir_d0bf55a684362e14049411f317e79873.html" target="_top" xlink:title="Models">
<polygon fill="#824ee9" stroke="#404040" points="328,-43 276,-43 276,-24 328,-24 328,-43"/>
<text text-anchor="middle" x="302" y="-31" font-family="Helvetica,sans-Serif" font-size="10.00">Models</text>
</a>
</g>
</g>
<!-- dir_622c8dd1301273e4febb33785fda6b71 -->
<g id="node6" class="node">
<title>dir_622c8dd1301273e4febb33785fda6b71</title>
<g id="a_node6"><a xlink:href="dir_622c8dd1301273e4febb33785fda6b71.html" target="_top" xlink:title="Providers">
<polygon fill="#824ee9" stroke="#404040" points="258,-43 196,-43 196,-24 258,-24 258,-43"/>
<text text-anchor="middle" x="227" y="-31" font-family="Helvetica,sans-Serif" font-size="10.00">Providers</text>
</a>
</g>
</g>
<!-- dir_0d1860f550fd15cc1f45c0a037ddafb2 -->
<g id="node7" class="node">
<title>dir_0d1860f550fd15cc1f45c0a037ddafb2</title>
<g id="a_node7"><a xlink:href="dir_0d1860f550fd15cc1f45c0a037ddafb2.html" target="_top" xlink:title="Repositories">
<polygon fill="#824ee9" stroke="#404040" points="177.5,-43 100.5,-43 100.5,-24 177.5,-24 177.5,-43"/>
<text text-anchor="middle" x="139" y="-31" font-family="Helvetica,sans-Serif" font-size="10.00">Repositories</text>
</a>
</g>
</g>
<!-- dir_50e9a23a819a363211ee2366f61a357c -->
<g id="node8" class="node">
<title>dir_50e9a23a819a363211ee2366f61a357c</title>
<g id="a_node8"><a xlink:href="dir_50e9a23a819a363211ee2366f61a357c.html" target="_top" xlink:title="Services">
<polygon fill="#824ee9" stroke="#404040" points="82,-43 24,-43 24,-24 82,-24 82,-43"/>
<text text-anchor="middle" x="53" y="-31" font-family="Helvetica,sans-Serif" font-size="10.00">Services</text>
</a>
</g>
</g>
</g>
</svg>

<g id="navigator" transform="translate(0 0)" fill="#404254">
  <rect fill="#f2f5e9" fill-opacity="0.5" stroke="#606060" stroke-width=".5" x="0" y="0" width="60" height="60"/>
  <use id="zoomplus" xlink:href="#zoomPlus" x="17" y="9" onmousedown="handleZoom(evt,'in')"/>
  <use id="zoomminus" xlink:href="#zoomMin" x="42" y="9" onmousedown="handleZoom(evt,'out')"/>
  <use id="reset" xlink:href="#resetDef" x="30" y="36" onmousedown="handleReset()"/>
   <use id="arrowup" xlink:href="#arrowUp" x="0" y="0" onmousedown="handlePan(0,-1)"/>
  <use id="arrowright" xlink:href="#arrowRight" x="0" y="0" onmousedown="handlePan(1,0)"/>
  <use id="arrowdown" xlink:href="#arrowDown" x="0" y="0" onmousedown="handlePan(0,1)"/>
  <use id="arrowleft" xlink:href="#arrowLeft" x="0" y="0" onmousedown="handlePan(-1,0)"/>
</g>
<svg viewBox="0 0 15 15" width="100%" height="30px" preserveAspectRatio="xMaxYMin meet">
 <g id="arrow_out" transform="scale(0.3 0.3)">
  <a xlink:href="dir_b58e4a7361a2edb8306a9c5d9962e840_dep_org.svg" target="_base">
   <rect id="button" ry="5" rx="5" y="6" x="6" height="38" width="38"
        fill="#f2f5e9" fill-opacity="0.5" stroke="#606060" stroke-width="1.0"/>
   <path id="arrow"
     d="M 11.500037,31.436501 C 11.940474,20.09759 22.043105,11.32322 32.158766,21.979434 L 37.068811,17.246167 C 37.068811,17.246167 37.088388,32 37.088388,32 L 22.160133,31.978069 C 22.160133,31.978069 26.997745,27.140456 26.997745,27.140456 C 18.528582,18.264221 13.291696,25.230495 11.500037,31.436501 z"
     style="fill:#404040;"/>
  </a>
 </g>
</svg>

<style type='text/css'>
<![CDATA[
[data-mouse-over-selected='false'] { opacity: 0.7; }
[data-mouse-over-selected='true']  { opacity: 1.0; }
]]>
</style>
<script type="application/ecmascript"><![CDATA[
document.addEventListener('DOMContentLoaded', (event) => {
  highlightEdges();
  highlightAdjacentNodes();
});
]]></script>
</svg>
