<?xml version="1.0" encoding="UTF-8" standalone="no"?>
<!DOCTYPE svg PUBLIC "-//W3C//DTD SVG 1.1//EN"
 "http://www.w3.org/Graphics/SVG/1.1/DTD/svg11.dtd">
<!-- Generated by graphviz version 2.43.0 (0)
 -->
<!-- Title: srcs/back Pages: 1 -->
<!--zoomable 94 -->

<svg id="main" version="1.1" xmlns="http://www.w3.org/2000/svg" xmlns:xlink="http://www.w3.org/1999/xlink" xml:space="preserve" onload="init(evt)">
<style type="text/css"><![CDATA[
.node, .edge {opacity: 0.7;}
.node.selected, .edge.selected {opacity: 1;}
.edge:hover path { stroke: red; }
.edge:hover polygon { stroke: red; fill: red; }
]]></style>

<defs>
  <circle id="rim" cx="0" cy="0" r="7"/>
  <circle id="rim2" cx="0" cy="0" r="3.5"/>
  <g id="zoomPlus">
    <use xlink:href="#rim" fill="#404040"><set attributeName="fill" to="#808080" begin="zoomplus.mouseover" end="zoomplus.mouseout"/></use>
    <path d="M-4,0h8M0,-4v8" fill="none" stroke="white" stroke-width="1.5" pointer-events="none"/>
  </g>
  <g id="zoomMin">
    <use xlink:href="#rim" fill="#404040"><set attributeName="fill" to="#808080" begin="zoomminus.mouseover" end="zoomminus.mouseout"/></use>
    <path d="M-4,0h8" fill="none" stroke="white" stroke-width="1.5" pointer-events="none"/>
  </g>
  <g id="arrowUp" transform="translate(30 24)">
    <use xlink:href="#rim"/>
    <path pointer-events="none" fill="none" stroke="white" stroke-width="1.5" d="M0,-3.0v7 M-2.5,-0.5L0,-3.0L2.5,-0.5"/>
  </g>
  <g id="arrowRight" transform="rotate(90) translate(36 -43)">
    <use xlink:href="#rim"/>
    <path pointer-events="none" fill="none" stroke="white" stroke-width="1.5" d="M0,-3.0v7 M-2.5,-0.5L0,-3.0L2.5,-0.5"/>
  </g>
  <g id="arrowDown" transform="rotate(180) translate(-30 -48)">
    <use xlink:href="#rim"/>
    <path pointer-events="none" fill="none" stroke="white" stroke-width="1.5" d="M0,-3.0v7 M-2.5,-0.5L0,-3.0L2.5,-0.5"/>
  </g>
  <g id="arrowLeft" transform="rotate(270) translate(-36 17)">
    <use xlink:href="#rim"/>
    <path pointer-events="none" fill="none" stroke="white" stroke-width="1.5" d="M0,-3.0v7 M-2.5,-0.5L0,-3.0L2.5,-0.5"/>
  </g>
  <g id="resetDef">
    <use xlink:href="#rim2" fill="#404040"><set attributeName="fill" to="#808080" begin="reset.mouseover" end="reset.mouseout"/></use>
  </g>
</defs>
<script type="application/ecmascript">
var viewWidth = 646;
var viewHeight = 94;
var sectionId = 'dynsection-0';
</script>
<script type="application/ecmascript" xlink:href="svg.min.js"/>
<svg id="graph" class="graph">
<g id="viewport">
<title>srcs/back</title>
<g id="clust1" class="cluster">
<title>clusterdir_b73b02d482d1c4a3db20c3d9ad52d395</title>
<g id="a_clust1"><a xlink:href="dir_b73b02d482d1c4a3db20c3d9ad52d395.html" target="_top" xlink:title="srcs">
<polygon fill="#e5dafa" stroke="#404040" stroke-dasharray="5,2" points="8,-8 8,-78 630,-78 630,-8 8,-8"/>
<text text-anchor="middle" x="319" y="-66" font-family="Helvetica,sans-Serif" font-size="10.00">srcs</text>
</a>
</g>
</g>
<g id="clust2" class="cluster">
<title>clusterdir_49bd007d94e193dda169e385b90a8d7f</title>
<g id="a_clust2"><a xlink:href="dir_49bd007d94e193dda169e385b90a8d7f.html" target="_top">
<polygon fill="#e5dafa" stroke="#404040" stroke-width="2" points="16,-16 16,-51 622,-51 622,-16 16,-16"/>
</a>
</g>
</g>
<!-- dir_49bd007d94e193dda169e385b90a8d7f -->
<g id="node1" class="node">
<title>dir_49bd007d94e193dda169e385b90a8d7f</title>
<text text-anchor="middle" x="594" y="-31" font-family="Helvetica,sans-Serif" font-size="10.00">back</text>
</g>
<!-- dir_b58e4a7361a2edb8306a9c5d9962e840 -->
<g id="node2" class="node">
<title>dir_b58e4a7361a2edb8306a9c5d9962e840</title>
<g id="a_node2"><a xlink:href="dir_b58e4a7361a2edb8306a9c5d9962e840.html" target="_top" xlink:title="app">
<polygon fill="#824ee9" stroke="#404040" points="555.5,-43 520.5,-43 520.5,-24 555.5,-24 555.5,-43"/>
<text text-anchor="middle" x="538" y="-31" font-family="Helvetica,sans-Serif" font-size="10.00">app</text>
</a>
</g>
</g>
<!-- dir_328bff3e42e854642e9d87de5daec8c7 -->
<g id="node3" class="node">
<title>dir_328bff3e42e854642e9d87de5daec8c7</title>
<g id="a_node3"><a xlink:href="dir_328bff3e42e854642e9d87de5daec8c7.html" target="_top" xlink:title="bootstrap">
<polygon fill="#824ee9" stroke="#404040" points="502.5,-43 439.5,-43 439.5,-24 502.5,-24 502.5,-43"/>
<text text-anchor="middle" x="471" y="-31" font-family="Helvetica,sans-Serif" font-size="10.00">bootstrap</text>
</a>
</g>
</g>
<!-- dir_0c9d3badb98a46fc7a69a8b419394c2f -->
<g id="node4" class="node">
<title>dir_0c9d3badb98a46fc7a69a8b419394c2f</title>
<g id="a_node4"><a xlink:href="dir_0c9d3badb98a46fc7a69a8b419394c2f.html" target="_top" xlink:title="config">
<polygon fill="#824ee9" stroke="#404040" points="421,-43 375,-43 375,-24 421,-24 421,-43"/>
<text text-anchor="middle" x="398" y="-31" font-family="Helvetica,sans-Serif" font-size="10.00">config</text>
</a>
</g>
</g>
<!-- dir_6e92dfaafa04339c52452b0fe376cc76 -->
<g id="node5" class="node">
<title>dir_6e92dfaafa04339c52452b0fe376cc76</title>
<g id="a_node5"><a xlink:href="dir_6e92dfaafa04339c52452b0fe376cc76.html" target="_top" xlink:title="database">
<polygon fill="#824ee9" stroke="#404040" points="357,-43 295,-43 295,-24 357,-24 357,-43"/>
<text text-anchor="middle" x="326" y="-31" font-family="Helvetica,sans-Serif" font-size="10.00">database</text>
</a>
</g>
</g>
<!-- dir_a6c35862c31f6d003589c827a8a2bb7b -->
<g id="node6" class="node">
<title>dir_a6c35862c31f6d003589c827a8a2bb7b</title>
<g id="a_node6"><a xlink:href="dir_a6c35862c31f6d003589c827a8a2bb7b.html" target="_top" xlink:title="public">
<polygon fill="#824ee9" stroke="#404040" points="277,-43 231,-43 231,-24 277,-24 277,-43"/>
<text text-anchor="middle" x="254" y="-31" font-family="Helvetica,sans-Serif" font-size="10.00">public</text>
</a>
</g>
</g>
<!-- dir_05b94c106db228aa886b619eecad6bfe -->
<g id="node7" class="node">
<title>dir_05b94c106db228aa886b619eecad6bfe</title>
<g id="a_node7"><a xlink:href="dir_05b94c106db228aa886b619eecad6bfe.html" target="_top" xlink:title="resources">
<polygon fill="#824ee9" stroke="#404040" points="213,-43 149,-43 149,-24 213,-24 213,-43"/>
<text text-anchor="middle" x="181" y="-31" font-family="Helvetica,sans-Serif" font-size="10.00">resources</text>
</a>
</g>
</g>
<!-- dir_2fcc3eba5c39246d0e890b678b648978 -->
<g id="node8" class="node">
<title>dir_2fcc3eba5c39246d0e890b678b648978</title>
<g id="a_node8"><a xlink:href="dir_2fcc3eba5c39246d0e890b678b648978.html" target="_top" xlink:title="routes">
<polygon fill="#824ee9" stroke="#404040" points="130.5,-43 83.5,-43 83.5,-24 130.5,-24 130.5,-43"/>
<text text-anchor="middle" x="107" y="-31" font-family="Helvetica,sans-Serif" font-size="10.00">routes</text>
</a>
</g>
</g>
<!-- dir_f258c9b2e25cebdb84795abb151f3ec5 -->
<g id="node9" class="node">
<title>dir_f258c9b2e25cebdb84795abb151f3ec5</title>
<g id="a_node9"><a xlink:href="dir_f258c9b2e25cebdb84795abb151f3ec5.html" target="_top" xlink:title="tools">
<polygon fill="#824ee9" stroke="#404040" points="65.5,-43 24.5,-43 24.5,-24 65.5,-24 65.5,-43"/>
<text text-anchor="middle" x="45" y="-31" font-family="Helvetica,sans-Serif" font-size="10.00">tools</text>
</a>
</g>
</g>
</g>
</svg>

<g id="navigator" transform="translate(0 0)" fill="#404254">
  <rect fill="#f2f5e9" fill-opacity="0.5" stroke="#606060" stroke-width=".5" x="0" y="0" width="60" height="60"/>
  <use id="zoomplus" xlink:href="#zoomPlus" x="17" y="9" onmousedown="handleZoom(evt,'in')"/>
  <use id="zoomminus" xlink:href="#zoomMin" x="42" y="9" onmousedown="handleZoom(evt,'out')"/>
  <use id="reset" xlink:href="#resetDef" x="30" y="36" onmousedown="handleReset()"/>
   <use id="arrowup" xlink:href="#arrowUp" x="0" y="0" onmousedown="handlePan(0,-1)"/>
  <use id="arrowright" xlink:href="#arrowRight" x="0" y="0" onmousedown="handlePan(1,0)"/>
  <use id="arrowdown" xlink:href="#arrowDown" x="0" y="0" onmousedown="handlePan(0,1)"/>
  <use id="arrowleft" xlink:href="#arrowLeft" x="0" y="0" onmousedown="handlePan(-1,0)"/>
</g>
<svg viewBox="0 0 15 15" width="100%" height="30px" preserveAspectRatio="xMaxYMin meet">
 <g id="arrow_out" transform="scale(0.3 0.3)">
  <a xlink:href="dir_49bd007d94e193dda169e385b90a8d7f_dep_org.svg" target="_base">
   <rect id="button" ry="5" rx="5" y="6" x="6" height="38" width="38"
        fill="#f2f5e9" fill-opacity="0.5" stroke="#606060" stroke-width="1.0"/>
   <path id="arrow"
     d="M 11.500037,31.436501 C 11.940474,20.09759 22.043105,11.32322 32.158766,21.979434 L 37.068811,17.246167 C 37.068811,17.246167 37.088388,32 37.088388,32 L 22.160133,31.978069 C 22.160133,31.978069 26.997745,27.140456 26.997745,27.140456 C 18.528582,18.264221 13.291696,25.230495 11.500037,31.436501 z"
     style="fill:#404040;"/>
  </a>
 </g>
</svg>

<style type='text/css'>
<![CDATA[
[data-mouse-over-selected='false'] { opacity: 0.7; }
[data-mouse-over-selected='true']  { opacity: 1.0; }
]]>
</style>
<script type="application/ecmascript"><![CDATA[
document.addEventListener('DOMContentLoaded', (event) => {
  highlightEdges();
  highlightAdjacentNodes();
});
]]></script>
</svg>
