<?xml version="1.0" encoding="UTF-8" standalone="no"?>
<!DOCTYPE svg PUBLIC "-//W3C//DTD SVG 1.1//EN"
 "http://www.w3.org/Graphics/SVG/1.1/DTD/svg11.dtd">
<!-- Generated by graphviz version 2.43.0 (0)
 -->
<!-- Title: srcs/front/src/routes/admin Pages: 1 -->
<!--zoomable 94 -->

<svg id="main" version="1.1" xmlns="http://www.w3.org/2000/svg" xmlns:xlink="http://www.w3.org/1999/xlink" xml:space="preserve" onload="init(evt)">
<style type="text/css"><![CDATA[
.node, .edge {opacity: 0.7;}
.node.selected, .edge.selected {opacity: 1;}
.edge:hover path { stroke: red; }
.edge:hover polygon { stroke: red; fill: red; }
]]></style>

<defs>
  <circle id="rim" cx="0" cy="0" r="7"/>
  <circle id="rim2" cx="0" cy="0" r="3.5"/>
  <g id="zoomPlus">
    <use xlink:href="#rim" fill="#404040"><set attributeName="fill" to="#808080" begin="zoomplus.mouseover" end="zoomplus.mouseout"/></use>
    <path d="M-4,0h8M0,-4v8" fill="none" stroke="white" stroke-width="1.5" pointer-events="none"/>
  </g>
  <g id="zoomMin">
    <use xlink:href="#rim" fill="#404040"><set attributeName="fill" to="#808080" begin="zoomminus.mouseover" end="zoomminus.mouseout"/></use>
    <path d="M-4,0h8" fill="none" stroke="white" stroke-width="1.5" pointer-events="none"/>
  </g>
  <g id="arrowUp" transform="translate(30 24)">
    <use xlink:href="#rim"/>
    <path pointer-events="none" fill="none" stroke="white" stroke-width="1.5" d="M0,-3.0v7 M-2.5,-0.5L0,-3.0L2.5,-0.5"/>
  </g>
  <g id="arrowRight" transform="rotate(90) translate(36 -43)">
    <use xlink:href="#rim"/>
    <path pointer-events="none" fill="none" stroke="white" stroke-width="1.5" d="M0,-3.0v7 M-2.5,-0.5L0,-3.0L2.5,-0.5"/>
  </g>
  <g id="arrowDown" transform="rotate(180) translate(-30 -48)">
    <use xlink:href="#rim"/>
    <path pointer-events="none" fill="none" stroke="white" stroke-width="1.5" d="M0,-3.0v7 M-2.5,-0.5L0,-3.0L2.5,-0.5"/>
  </g>
  <g id="arrowLeft" transform="rotate(270) translate(-36 17)">
    <use xlink:href="#rim"/>
    <path pointer-events="none" fill="none" stroke="white" stroke-width="1.5" d="M0,-3.0v7 M-2.5,-0.5L0,-3.0L2.5,-0.5"/>
  </g>
  <g id="resetDef">
    <use xlink:href="#rim2" fill="#404040"><set attributeName="fill" to="#808080" begin="reset.mouseover" end="reset.mouseout"/></use>
  </g>
</defs>
<script type="application/ecmascript">
var viewWidth = 536;
var viewHeight = 94;
var sectionId = 'dynsection-0';
</script>
<script type="application/ecmascript" xlink:href="svg.min.js"/>
<svg id="graph" class="graph">
<g id="viewport">
<title>srcs/front/src/routes/admin</title>
<g id="clust1" class="cluster">
<title>clusterdir_711e061037f1f3e03ef0d7826512e504</title>
<g id="a_clust1"><a xlink:href="dir_711e061037f1f3e03ef0d7826512e504.html" target="_top" xlink:title="routes">
<polygon fill="#e5dafa" stroke="#7f7f7f" stroke-dasharray="5,2" points="8,-8 8,-78 520,-78 520,-8 8,-8"/>
<text text-anchor="middle" x="264" y="-66" font-family="Helvetica,sans-Serif" font-size="10.00">routes</text>
</a>
</g>
</g>
<g id="clust2" class="cluster">
<title>clusterdir_b41b5bfe653785ffeb64fb4b825f6860</title>
<g id="a_clust2"><a xlink:href="dir_b41b5bfe653785ffeb64fb4b825f6860.html" target="_top">
<polygon fill="#e5dafa" stroke="#404040" stroke-width="2" points="16,-16 16,-51 512,-51 512,-16 16,-16"/>
</a>
</g>
</g>
<!-- dir_b41b5bfe653785ffeb64fb4b825f6860 -->
<g id="node1" class="node">
<title>dir_b41b5bfe653785ffeb64fb4b825f6860</title>
<text text-anchor="middle" x="480" y="-31" font-family="Helvetica,sans-Serif" font-size="10.00">admin</text>
</g>
<!-- dir_b24a32bda96aa20aa4460faf8ffac443 -->
<g id="node2" class="node">
<title>dir_b24a32bda96aa20aa4460faf8ffac443</title>
<g id="a_node2"><a xlink:href="dir_b24a32bda96aa20aa4460faf8ffac443.html" target="_top" xlink:title="bookings">
<polygon fill="#824ee9" stroke="#404040" points="438.5,-43 377.5,-43 377.5,-24 438.5,-24 438.5,-43"/>
<text text-anchor="middle" x="408" y="-31" font-family="Helvetica,sans-Serif" font-size="10.00">bookings</text>
</a>
</g>
</g>
<!-- dir_c2c60789d14114b262b23c0d2c78db2f -->
<g id="node3" class="node">
<title>dir_c2c60789d14114b262b23c0d2c78db2f</title>
<g id="a_node3"><a xlink:href="dir_c2c60789d14114b262b23c0d2c78db2f.html" target="_top" xlink:title="cinemas">
<polygon fill="#824ee9" stroke="#404040" points="359,-43 301,-43 301,-24 359,-24 359,-43"/>
<text text-anchor="middle" x="330" y="-31" font-family="Helvetica,sans-Serif" font-size="10.00">cinemas</text>
</a>
</g>
</g>
<!-- dir_c9f2039f2ad89a170842fc77b0a6a204 -->
<g id="node4" class="node">
<title>dir_c9f2039f2ad89a170842fc77b0a6a204</title>
<g id="a_node4"><a xlink:href="dir_c9f2039f2ad89a170842fc77b0a6a204.html" target="_top" xlink:title="movies">
<polygon fill="#824ee9" stroke="#404040" points="282.5,-43 229.5,-43 229.5,-24 282.5,-24 282.5,-43"/>
<text text-anchor="middle" x="256" y="-31" font-family="Helvetica,sans-Serif" font-size="10.00">movies</text>
</a>
</g>
</g>
<!-- dir_c8148aa1e8695e990eb1bfbd92d439ef -->
<g id="node5" class="node">
<title>dir_c8148aa1e8695e990eb1bfbd92d439ef</title>
<g id="a_node5"><a xlink:href="dir_c8148aa1e8695e990eb1bfbd92d439ef.html" target="_top" xlink:title="reports">
<polygon fill="#824ee9" stroke="#404040" points="211.5,-43 160.5,-43 160.5,-24 211.5,-24 211.5,-43"/>
<text text-anchor="middle" x="186" y="-31" font-family="Helvetica,sans-Serif" font-size="10.00">reports</text>
</a>
</g>
</g>
<!-- dir_f70fc9f43fca9860d811ed75b157c7c7 -->
<g id="node6" class="node">
<title>dir_f70fc9f43fca9860d811ed75b157c7c7</title>
<g id="a_node6"><a xlink:href="dir_f70fc9f43fca9860d811ed75b157c7c7.html" target="_top" xlink:title="settings">
<polygon fill="#824ee9" stroke="#404040" points="142,-43 86,-43 86,-24 142,-24 142,-43"/>
<text text-anchor="middle" x="114" y="-31" font-family="Helvetica,sans-Serif" font-size="10.00">settings</text>
</a>
</g>
</g>
<!-- dir_9de0e14c540677c94fe81142de104a8a -->
<g id="node7" class="node">
<title>dir_9de0e14c540677c94fe81142de104a8a</title>
<g id="a_node7"><a xlink:href="dir_9de0e14c540677c94fe81142de104a8a.html" target="_top" xlink:title="users">
<polygon fill="#824ee9" stroke="#404040" points="67.5,-43 24.5,-43 24.5,-24 67.5,-24 67.5,-43"/>
<text text-anchor="middle" x="46" y="-31" font-family="Helvetica,sans-Serif" font-size="10.00">users</text>
</a>
</g>
</g>
</g>
</svg>

<g id="navigator" transform="translate(0 0)" fill="#404254">
  <rect fill="#f2f5e9" fill-opacity="0.5" stroke="#606060" stroke-width=".5" x="0" y="0" width="60" height="60"/>
  <use id="zoomplus" xlink:href="#zoomPlus" x="17" y="9" onmousedown="handleZoom(evt,'in')"/>
  <use id="zoomminus" xlink:href="#zoomMin" x="42" y="9" onmousedown="handleZoom(evt,'out')"/>
  <use id="reset" xlink:href="#resetDef" x="30" y="36" onmousedown="handleReset()"/>
   <use id="arrowup" xlink:href="#arrowUp" x="0" y="0" onmousedown="handlePan(0,-1)"/>
  <use id="arrowright" xlink:href="#arrowRight" x="0" y="0" onmousedown="handlePan(1,0)"/>
  <use id="arrowdown" xlink:href="#arrowDown" x="0" y="0" onmousedown="handlePan(0,1)"/>
  <use id="arrowleft" xlink:href="#arrowLeft" x="0" y="0" onmousedown="handlePan(-1,0)"/>
</g>
<svg viewBox="0 0 15 15" width="100%" height="30px" preserveAspectRatio="xMaxYMin meet">
 <g id="arrow_out" transform="scale(0.3 0.3)">
  <a xlink:href="dir_b41b5bfe653785ffeb64fb4b825f6860_dep_org.svg" target="_base">
   <rect id="button" ry="5" rx="5" y="6" x="6" height="38" width="38"
        fill="#f2f5e9" fill-opacity="0.5" stroke="#606060" stroke-width="1.0"/>
   <path id="arrow"
     d="M 11.500037,31.436501 C 11.940474,20.09759 22.043105,11.32322 32.158766,21.979434 L 37.068811,17.246167 C 37.068811,17.246167 37.088388,32 37.088388,32 L 22.160133,31.978069 C 22.160133,31.978069 26.997745,27.140456 26.997745,27.140456 C 18.528582,18.264221 13.291696,25.230495 11.500037,31.436501 z"
     style="fill:#404040;"/>
  </a>
 </g>
</svg>

<style type='text/css'>
<![CDATA[
[data-mouse-over-selected='false'] { opacity: 0.7; }
[data-mouse-over-selected='true']  { opacity: 1.0; }
]]>
</style>
<script type="application/ecmascript"><![CDATA[
document.addEventListener('DOMContentLoaded', (event) => {
  highlightEdges();
  highlightAdjacentNodes();
});
]]></script>
</svg>
