<?xml version="1.0" encoding="UTF-8" standalone="no"?>
<!DOCTYPE svg PUBLIC "-//W3C//DTD SVG 1.1//EN"
 "http://www.w3.org/Graphics/SVG/1.1/DTD/svg11.dtd">
<!-- Generated by graphviz version 2.43.0 (0)
 -->
<!-- Title: Gráfico de jerarquía de clases Pages: 1 -->
<svg width="253pt" height="278pt"
 viewBox="0.00 0.00 253.00 278.00" xmlns="http://www.w3.org/2000/svg" xmlns:xlink="http://www.w3.org/1999/xlink">
<g id="graph0" class="graph" transform="scale(1 1) rotate(0) translate(4 274)">
<title>Gráfico de jerarquía de clases</title>
<!-- Node0 -->
<g id="Node000000" class="node">
<title>Node0</title>
<g id="a_Node000000"><a xlink:title=" ">
<polygon fill="#e0e0e0" stroke="#999999" points="67,-144.5 0,-144.5 0,-125.5 67,-125.5 67,-144.5"/>
<text text-anchor="middle" x="33.5" y="-132.5" font-family="Helvetica,sans-Serif" font-size="10.00">Command</text>
</a>
</g>
</g>
<!-- Node1 -->
<g id="Node000001" class="node">
<title>Node1</title>
<g id="a_Node000001"><a xlink:href="classApp_1_1Console_1_1Commands_1_1CheckDuplicateActors.html" target="_top" xlink:title=" ">
<polygon fill="white" stroke="#666666" points="242,-270 106,-270 106,-240 242,-240 242,-270"/>
<text text-anchor="start" x="114" y="-258" font-family="Helvetica,sans-Serif" font-size="10.00">App\Console\Commands</text>
<text text-anchor="middle" x="174" y="-247" font-family="Helvetica,sans-Serif" font-size="10.00">\CheckDuplicateActors</text>
</a>
</g>
</g>
<!-- Node0&#45;&gt;Node1 -->
<g id="edge28_Node000000_Node000001" class="edge">
<title>Node0&#45;&gt;Node1</title>
<g id="a_edge28_Node000000_Node000001"><a xlink:title=" ">
<path fill="none" stroke="#63b8ff" d="M43.38,-153.81C54.46,-175.38 75.37,-210.4 103,-231 107.53,-234.38 112.57,-237.31 117.82,-239.83"/>
<polygon fill="#63b8ff" stroke="#63b8ff" points="46.43,-152.1 38.86,-144.69 40.16,-155.2 46.43,-152.1"/>
</a>
</g>
</g>
<!-- Node2 -->
<g id="Node000002" class="node">
<title>Node2</title>
<g id="a_Node000002"><a xlink:href="classApp_1_1Console_1_1Commands_1_1CreateUser.html" target="_top" xlink:title=" ">
<polygon fill="white" stroke="#666666" points="242,-222 106,-222 106,-192 242,-192 242,-222"/>
<text text-anchor="start" x="114" y="-210" font-family="Helvetica,sans-Serif" font-size="10.00">App\Console\Commands</text>
<text text-anchor="middle" x="174" y="-199" font-family="Helvetica,sans-Serif" font-size="10.00">\CreateUser</text>
</a>
</g>
</g>
<!-- Node0&#45;&gt;Node2 -->
<g id="edge29_Node000000_Node000002" class="edge">
<title>Node0&#45;&gt;Node2</title>
<g id="a_edge29_Node000000_Node000002"><a xlink:title=" ">
<path fill="none" stroke="#63b8ff" d="M53.89,-150.81C67.12,-161.02 85.38,-174.03 103,-183 109.41,-186.26 116.37,-189.25 123.32,-191.92"/>
<polygon fill="#63b8ff" stroke="#63b8ff" points="56,-148.02 45.98,-144.57 51.67,-153.51 56,-148.02"/>
</a>
</g>
</g>
<!-- Node3 -->
<g id="Node000003" class="node">
<title>Node3</title>
<g id="a_Node000003"><a xlink:href="classApp_1_1Console_1_1Commands_1_1GenerateFunctions.html" target="_top" xlink:title=" ">
<polygon fill="white" stroke="#666666" points="242,-174 106,-174 106,-144 242,-144 242,-174"/>
<text text-anchor="start" x="114" y="-162" font-family="Helvetica,sans-Serif" font-size="10.00">App\Console\Commands</text>
<text text-anchor="middle" x="174" y="-151" font-family="Helvetica,sans-Serif" font-size="10.00">\GenerateFunctions</text>
</a>
</g>
</g>
<!-- Node0&#45;&gt;Node3 -->
<g id="edge30_Node000000_Node000003" class="edge">
<title>Node0&#45;&gt;Node3</title>
<g id="a_edge30_Node000000_Node000003"><a xlink:title=" ">
<path fill="none" stroke="#63b8ff" d="M77.22,-142.4C86.3,-143.98 96.09,-145.67 105.83,-147.36"/>
<polygon fill="#63b8ff" stroke="#63b8ff" points="77.77,-138.95 67.32,-140.69 76.58,-145.84 77.77,-138.95"/>
</a>
</g>
</g>
<!-- Node4 -->
<g id="Node000004" class="node">
<title>Node4</title>
<g id="a_Node000004"><a xlink:href="classApp_1_1Console_1_1Commands_1_1ImportMoviesFromJson.html" target="_top" xlink:title=" ">
<polygon fill="white" stroke="#666666" points="242,-126 106,-126 106,-96 242,-96 242,-126"/>
<text text-anchor="start" x="114" y="-114" font-family="Helvetica,sans-Serif" font-size="10.00">App\Console\Commands</text>
<text text-anchor="middle" x="174" y="-103" font-family="Helvetica,sans-Serif" font-size="10.00">\ImportMoviesFromJson</text>
</a>
</g>
</g>
<!-- Node0&#45;&gt;Node4 -->
<g id="edge31_Node000000_Node000004" class="edge">
<title>Node0&#45;&gt;Node4</title>
<g id="a_edge31_Node000000_Node000004"><a xlink:title=" ">
<path fill="none" stroke="#63b8ff" d="M77.22,-127.6C86.3,-126.02 96.09,-124.33 105.83,-122.64"/>
<polygon fill="#63b8ff" stroke="#63b8ff" points="76.58,-124.16 67.32,-129.31 77.77,-131.05 76.58,-124.16"/>
</a>
</g>
</g>
<!-- Node5 -->
<g id="Node000005" class="node">
<title>Node5</title>
<g id="a_Node000005"><a xlink:href="classApp_1_1Console_1_1Commands_1_1UpdateMovieImagePaths.html" target="_top" xlink:title=" ">
<polygon fill="white" stroke="#666666" points="245,-78 103,-78 103,-48 245,-48 245,-78"/>
<text text-anchor="start" x="111" y="-66" font-family="Helvetica,sans-Serif" font-size="10.00">App\Console\Commands</text>
<text text-anchor="middle" x="174" y="-55" font-family="Helvetica,sans-Serif" font-size="10.00">\UpdateMovieImagePaths</text>
</a>
</g>
</g>
<!-- Node0&#45;&gt;Node5 -->
<g id="edge32_Node000000_Node000005" class="edge">
<title>Node0&#45;&gt;Node5</title>
<g id="a_edge32_Node000000_Node000005"><a xlink:title=" ">
<path fill="none" stroke="#63b8ff" d="M53.89,-119.19C67.12,-108.98 85.38,-95.97 103,-87 109.41,-83.74 116.37,-80.75 123.32,-78.08"/>
<polygon fill="#63b8ff" stroke="#63b8ff" points="51.67,-116.49 45.98,-125.43 56,-121.98 51.67,-116.49"/>
</a>
</g>
</g>
<!-- Node6 -->
<g id="Node000006" class="node">
<title>Node6</title>
<g id="a_Node000006"><a xlink:href="classApp_1_1Console_1_1Commands_1_1VerifyDatabaseStructure.html" target="_top" xlink:title=" ">
<polygon fill="white" stroke="#666666" points="243,-30 105,-30 105,0 243,0 243,-30"/>
<text text-anchor="start" x="113" y="-18" font-family="Helvetica,sans-Serif" font-size="10.00">App\Console\Commands</text>
<text text-anchor="middle" x="174" y="-7" font-family="Helvetica,sans-Serif" font-size="10.00">\VerifyDatabaseStructure</text>
</a>
</g>
</g>
<!-- Node0&#45;&gt;Node6 -->
<g id="edge33_Node000000_Node000006" class="edge">
<title>Node0&#45;&gt;Node6</title>
<g id="a_edge33_Node000000_Node000006"><a xlink:title=" ">
<path fill="none" stroke="#63b8ff" d="M43.38,-116.19C54.46,-94.62 75.37,-59.6 103,-39 107.53,-35.62 112.57,-32.69 117.82,-30.17"/>
<polygon fill="#63b8ff" stroke="#63b8ff" points="40.16,-114.8 38.86,-125.31 46.43,-117.9 40.16,-114.8"/>
</a>
</g>
</g>
</g>
</svg>
