<?xml version="1.0" encoding="UTF-8" standalone="no"?>
<!DOCTYPE svg PUBLIC "-//W3C//DTD SVG 1.1//EN"
 "http://www.w3.org/Graphics/SVG/1.1/DTD/svg11.dtd">
<!-- Generated by graphviz version 2.43.0 (0)
 -->
<!-- Title: Gráfico de jerarquía de clases Pages: 1 -->
<svg width="220pt" height="134pt"
 viewBox="0.00 0.00 220.00 134.00" xmlns="http://www.w3.org/2000/svg" xmlns:xlink="http://www.w3.org/1999/xlink">
<g id="graph0" class="graph" transform="scale(1 1) rotate(0) translate(4 130)">
<title>Gráfico de jerarquía de clases</title>
<!-- Node0 -->
<g id="Node000000" class="node">
<title>Node0</title>
<g id="a_Node000000"><a xlink:title=" ">
<polygon fill="#e0e0e0" stroke="#999999" points="66,-90.5 0,-90.5 0,-71.5 66,-71.5 66,-90.5"/>
<text text-anchor="middle" x="33" y="-78.5" font-family="Helvetica,sans-Serif" font-size="10.00">Illuminate</text>
</a>
</g>
</g>
<!-- Node1 -->
<g id="Node000001" class="node">
<title>Node1</title>
<g id="a_Node000001"><a xlink:href="classDatabase_1_1Factories_1_1CinemaFactory.html" target="_top" xlink:title="\Databaseloquent\Factories\Factory&lt;\App\Models\Cinema&gt;">
<polygon fill="white" stroke="#666666" points="212,-126 102,-126 102,-96 212,-96 212,-126"/>
<text text-anchor="start" x="110" y="-114" font-family="Helvetica,sans-Serif" font-size="10.00">Database\Factories</text>
<text text-anchor="middle" x="157" y="-103" font-family="Helvetica,sans-Serif" font-size="10.00">\CinemaFactory</text>
</a>
</g>
</g>
<!-- Node0&#45;&gt;Node1 -->
<g id="edge38_Node000000_Node000001" class="edge">
<title>Node0&#45;&gt;Node1</title>
<g id="a_edge38_Node000000_Node000001"><a xlink:title=" ">
<path fill="none" stroke="#63b8ff" d="M75.97,-91.32C84.35,-93.38 93.27,-95.57 101.99,-97.72"/>
<polygon fill="#63b8ff" stroke="#63b8ff" points="76.6,-87.87 66.05,-88.88 74.93,-94.67 76.6,-87.87"/>
</a>
</g>
</g>
<!-- Node3 -->
<g id="Node000003" class="node">
<title>Node3</title>
<g id="a_Node000003"><a xlink:href="classDatabase_1_1Factories_1_1MovieFactory.html" target="_top" xlink:title="\Databaseloquent\Factories\Factory&lt;\App\Models\Movie&gt;">
<polygon fill="white" stroke="#666666" points="212,-78 102,-78 102,-48 212,-48 212,-78"/>
<text text-anchor="start" x="110" y="-66" font-family="Helvetica,sans-Serif" font-size="10.00">Database\Factories</text>
<text text-anchor="middle" x="157" y="-55" font-family="Helvetica,sans-Serif" font-size="10.00">\MovieFactory</text>
</a>
</g>
</g>
<!-- Node0&#45;&gt;Node3 -->
<g id="edge39_Node000000_Node000003" class="edge">
<title>Node0&#45;&gt;Node3</title>
<g id="a_edge39_Node000000_Node000003"><a xlink:title=" ">
<path fill="none" stroke="#63b8ff" d="M75.97,-74.81C84.35,-73.57 93.27,-72.26 101.99,-70.97"/>
<polygon fill="#63b8ff" stroke="#63b8ff" points="75.44,-71.35 66.05,-76.27 76.46,-78.27 75.44,-71.35"/>
</a>
</g>
</g>
<!-- Node4 -->
<g id="Node000004" class="node">
<title>Node4</title>
<g id="a_Node000004"><a xlink:href="classDatabase_1_1Factories_1_1UserFactory.html" target="_top" xlink:title="\Databaseloquent\Factories\Factory&lt;\App\Models\User&gt;">
<polygon fill="white" stroke="#666666" points="212,-30 102,-30 102,0 212,0 212,-30"/>
<text text-anchor="start" x="110" y="-18" font-family="Helvetica,sans-Serif" font-size="10.00">Database\Factories</text>
<text text-anchor="middle" x="157" y="-7" font-family="Helvetica,sans-Serif" font-size="10.00">\UserFactory</text>
</a>
</g>
</g>
<!-- Node0&#45;&gt;Node4 -->
<g id="edge40_Node000000_Node000004" class="edge">
<title>Node0&#45;&gt;Node4</title>
<g id="a_edge40_Node000000_Node000004"><a xlink:title=" ">
<path fill="none" stroke="#63b8ff" d="M60.72,-66.17C62.51,-65.11 64.29,-64.05 66,-63 82.39,-52.95 85.15,-48.27 102,-39 107.66,-35.88 113.81,-32.85 119.86,-30.04"/>
<polygon fill="#63b8ff" stroke="#63b8ff" points="58.67,-63.31 51.74,-71.33 62.16,-69.38 58.67,-63.31"/>
</a>
</g>
</g>
<!-- Node2 -->
<g id="Node000002" class="node">
<title>Node2</title>
<g id="a_Node000002"><a xlink:title=" ">
<polygon fill="#e0e0e0" stroke="#999999" points="59,-53.5 7,-53.5 7,-34.5 59,-34.5 59,-53.5"/>
<text text-anchor="middle" x="33" y="-41.5" font-family="Helvetica,sans-Serif" font-size="10.00">Factory</text>
</a>
</g>
</g>
<!-- Node2&#45;&gt;Node1 -->
<g id="edge41_Node000002_Node000001" class="edge">
<title>Node2&#45;&gt;Node1</title>
<g id="a_edge41_Node000002_Node000001"><a xlink:title=" ">
<path fill="none" stroke="#63b8ff" d="M59.19,-58.79C61.5,-60.19 63.8,-61.61 66,-63 82.27,-73.25 85.15,-77.73 102,-87 107.66,-90.12 113.81,-93.15 119.86,-95.96"/>
<polygon fill="#63b8ff" stroke="#63b8ff" points="60.75,-55.65 50.38,-53.5 57.15,-61.65 60.75,-55.65"/>
</a>
</g>
</g>
<!-- Node2&#45;&gt;Node3 -->
<g id="edge42_Node000002_Node000003" class="edge">
<title>Node2&#45;&gt;Node3</title>
<g id="a_edge42_Node000002_Node000003"><a xlink:title=" ">
<path fill="none" stroke="#63b8ff" d="M69.37,-49.51C79.52,-51.09 90.83,-52.85 101.83,-54.56"/>
<polygon fill="#63b8ff" stroke="#63b8ff" points="69.7,-46.02 59.28,-47.94 68.62,-52.93 69.7,-46.02"/>
</a>
</g>
</g>
<!-- Node2&#45;&gt;Node4 -->
<g id="edge43_Node000002_Node000004" class="edge">
<title>Node2&#45;&gt;Node4</title>
<g id="a_edge43_Node000002_Node000004"><a xlink:title=" ">
<path fill="none" stroke="#63b8ff" d="M69.05,-35.67C79.28,-33.24 90.71,-30.52 101.83,-27.88"/>
<polygon fill="#63b8ff" stroke="#63b8ff" points="68.2,-32.27 59.28,-37.99 69.82,-39.08 68.2,-32.27"/>
</a>
</g>
</g>
</g>
</svg>
