<?xml version="1.0" encoding="UTF-8" standalone="no"?>
<!DOCTYPE svg PUBLIC "-//W3C//DTD SVG 1.1//EN"
 "http://www.w3.org/Graphics/SVG/1.1/DTD/svg11.dtd">
<!-- Generated by graphviz version 2.43.0 (0)
 -->
<!-- Title: Gráfico de jerarquía de clases Pages: 1 -->
<svg width="315pt" height="374pt"
 viewBox="0.00 0.00 315.00 374.00" xmlns="http://www.w3.org/2000/svg" xmlns:xlink="http://www.w3.org/1999/xlink">
<g id="graph0" class="graph" transform="scale(1 1) rotate(0) translate(4 370)">
<title>Gráfico de jerarquía de clases</title>
<!-- Node0 -->
<g id="Node000000" class="node">
<title>Node0</title>
<g id="a_Node000000"><a xlink:title=" ">
<polygon fill="#e0e0e0" stroke="#999999" points="74,-192.5 0,-192.5 0,-173.5 74,-173.5 74,-192.5"/>
<text text-anchor="middle" x="37" y="-180.5" font-family="Helvetica,sans-Serif" font-size="10.00">Middleware</text>
</a>
</g>
</g>
<!-- Node1 -->
<g id="Node000001" class="node">
<title>Node1</title>
<g id="a_Node000001"><a xlink:href="classApp_1_1Http_1_1Middleware_1_1Authenticate.html" target="_top" xlink:title=" ">
<polygon fill="white" stroke="#666666" points="268,-366 149,-366 149,-336 268,-336 268,-366"/>
<text text-anchor="start" x="157" y="-354" font-family="Helvetica,sans-Serif" font-size="10.00">App\Http\Middleware</text>
<text text-anchor="middle" x="208.5" y="-343" font-family="Helvetica,sans-Serif" font-size="10.00">\Authenticate</text>
</a>
</g>
</g>
<!-- Node0&#45;&gt;Node1 -->
<g id="edge45_Node000000_Node000001" class="edge">
<title>Node0&#45;&gt;Node1</title>
<g id="a_edge45_Node000000_Node000001"><a xlink:title=" ">
<path fill="none" stroke="#63b8ff" d="M42.3,-202.96C50.13,-234.31 69.75,-294.83 110,-327 121.1,-335.87 135.01,-341.52 148.82,-345.11"/>
<polygon fill="#63b8ff" stroke="#63b8ff" points="45.62,-201.78 39.94,-192.84 38.8,-203.37 45.62,-201.78"/>
</a>
</g>
</g>
<!-- Node2 -->
<g id="Node000002" class="node">
<title>Node2</title>
<g id="a_Node000002"><a xlink:href="classApp_1_1Http_1_1Middleware_1_1EncryptCookies.html" target="_top" xlink:title=" ">
<polygon fill="white" stroke="#666666" points="268,-318 149,-318 149,-288 268,-288 268,-318"/>
<text text-anchor="start" x="157" y="-306" font-family="Helvetica,sans-Serif" font-size="10.00">App\Http\Middleware</text>
<text text-anchor="middle" x="208.5" y="-295" font-family="Helvetica,sans-Serif" font-size="10.00">\EncryptCookies</text>
</a>
</g>
</g>
<!-- Node0&#45;&gt;Node2 -->
<g id="edge46_Node000000_Node000002" class="edge">
<title>Node0&#45;&gt;Node2</title>
<g id="a_edge46_Node000000_Node000002"><a xlink:title=" ">
<path fill="none" stroke="#63b8ff" d="M46.92,-201.62C58.41,-223.55 80.46,-259.47 110,-279 121.56,-286.64 135.34,-291.86 148.85,-295.41"/>
<polygon fill="#63b8ff" stroke="#63b8ff" points="50.02,-199.99 42.4,-192.64 43.77,-203.14 50.02,-199.99"/>
</a>
</g>
</g>
<!-- Node3 -->
<g id="Node000003" class="node">
<title>Node3</title>
<g id="a_Node000003"><a xlink:href="classApp_1_1Http_1_1Middleware_1_1PreventRequestsDuringMaintenance.html" target="_top" xlink:title=" ">
<polygon fill="white" stroke="#666666" points="307,-270 110,-270 110,-240 307,-240 307,-270"/>
<text text-anchor="start" x="118" y="-258" font-family="Helvetica,sans-Serif" font-size="10.00">App\Http\Middleware</text>
<text text-anchor="middle" x="208.5" y="-247" font-family="Helvetica,sans-Serif" font-size="10.00">\PreventRequestsDuringMaintenance</text>
</a>
</g>
</g>
<!-- Node0&#45;&gt;Node3 -->
<g id="edge47_Node000000_Node000003" class="edge">
<title>Node0&#45;&gt;Node3</title>
<g id="a_edge47_Node000000_Node000003"><a xlink:title=" ">
<path fill="none" stroke="#63b8ff" d="M57.75,-198.91C71.64,-209.39 91.05,-222.66 110,-231 117.74,-234.41 126.04,-237.38 134.42,-239.97"/>
<polygon fill="#63b8ff" stroke="#63b8ff" points="59.54,-195.87 49.49,-192.51 55.25,-201.4 59.54,-195.87"/>
</a>
</g>
</g>
<!-- Node4 -->
<g id="Node000004" class="node">
<title>Node4</title>
<g id="a_Node000004"><a xlink:href="classApp_1_1Http_1_1Middleware_1_1TrimStrings.html" target="_top" xlink:title=" ">
<polygon fill="white" stroke="#666666" points="268,-222 149,-222 149,-192 268,-192 268,-222"/>
<text text-anchor="start" x="157" y="-210" font-family="Helvetica,sans-Serif" font-size="10.00">App\Http\Middleware</text>
<text text-anchor="middle" x="208.5" y="-199" font-family="Helvetica,sans-Serif" font-size="10.00">\TrimStrings</text>
</a>
</g>
</g>
<!-- Node0&#45;&gt;Node4 -->
<g id="edge48_Node000000_Node000004" class="edge">
<title>Node0&#45;&gt;Node4</title>
<g id="a_edge48_Node000000_Node000004"><a xlink:title=" ">
<path fill="none" stroke="#63b8ff" d="M84.41,-189.57C104.31,-192.39 127.78,-195.71 148.86,-198.7"/>
<polygon fill="#63b8ff" stroke="#63b8ff" points="84.75,-186.09 74.36,-188.15 83.77,-193.02 84.75,-186.09"/>
</a>
</g>
</g>
<!-- Node5 -->
<g id="Node000005" class="node">
<title>Node5</title>
<g id="a_Node000005"><a xlink:href="classApp_1_1Http_1_1Middleware_1_1TrustHosts.html" target="_top" xlink:title=" ">
<polygon fill="white" stroke="#666666" points="268,-174 149,-174 149,-144 268,-144 268,-174"/>
<text text-anchor="start" x="157" y="-162" font-family="Helvetica,sans-Serif" font-size="10.00">App\Http\Middleware</text>
<text text-anchor="middle" x="208.5" y="-151" font-family="Helvetica,sans-Serif" font-size="10.00">\TrustHosts</text>
</a>
</g>
</g>
<!-- Node0&#45;&gt;Node5 -->
<g id="edge49_Node000000_Node000005" class="edge">
<title>Node0&#45;&gt;Node5</title>
<g id="a_edge49_Node000000_Node000005"><a xlink:title=" ">
<path fill="none" stroke="#63b8ff" d="M84.41,-176.43C104.31,-173.61 127.78,-170.29 148.86,-167.3"/>
<polygon fill="#63b8ff" stroke="#63b8ff" points="83.77,-172.98 74.36,-177.85 84.75,-179.91 83.77,-172.98"/>
</a>
</g>
</g>
<!-- Node6 -->
<g id="Node000006" class="node">
<title>Node6</title>
<g id="a_Node000006"><a xlink:href="classApp_1_1Http_1_1Middleware_1_1TrustProxies.html" target="_top" xlink:title=" ">
<polygon fill="white" stroke="#666666" points="268,-126 149,-126 149,-96 268,-96 268,-126"/>
<text text-anchor="start" x="157" y="-114" font-family="Helvetica,sans-Serif" font-size="10.00">App\Http\Middleware</text>
<text text-anchor="middle" x="208.5" y="-103" font-family="Helvetica,sans-Serif" font-size="10.00">\TrustProxies</text>
</a>
</g>
</g>
<!-- Node0&#45;&gt;Node6 -->
<g id="edge50_Node000000_Node000006" class="edge">
<title>Node0&#45;&gt;Node6</title>
<g id="a_edge50_Node000000_Node000006"><a xlink:title=" ">
<path fill="none" stroke="#63b8ff" d="M57.75,-167.09C71.64,-156.61 91.05,-143.34 110,-135 122.21,-129.63 135.82,-125.32 148.92,-121.93"/>
<polygon fill="#63b8ff" stroke="#63b8ff" points="55.25,-164.6 49.49,-173.49 59.54,-170.13 55.25,-164.6"/>
</a>
</g>
</g>
<!-- Node7 -->
<g id="Node000007" class="node">
<title>Node7</title>
<g id="a_Node000007"><a xlink:href="classApp_1_1Http_1_1Middleware_1_1ValidateSignature.html" target="_top" xlink:title=" ">
<polygon fill="white" stroke="#666666" points="268,-78 149,-78 149,-48 268,-48 268,-78"/>
<text text-anchor="start" x="157" y="-66" font-family="Helvetica,sans-Serif" font-size="10.00">App\Http\Middleware</text>
<text text-anchor="middle" x="208.5" y="-55" font-family="Helvetica,sans-Serif" font-size="10.00">\ValidateSignature</text>
</a>
</g>
</g>
<!-- Node0&#45;&gt;Node7 -->
<g id="edge51_Node000000_Node000007" class="edge">
<title>Node0&#45;&gt;Node7</title>
<g id="a_edge51_Node000000_Node000007"><a xlink:title=" ">
<path fill="none" stroke="#63b8ff" d="M46.92,-164.38C58.41,-142.45 80.46,-106.53 110,-87 121.56,-79.36 135.34,-74.14 148.85,-70.59"/>
<polygon fill="#63b8ff" stroke="#63b8ff" points="43.77,-162.86 42.4,-173.36 50.02,-166.01 43.77,-162.86"/>
</a>
</g>
</g>
<!-- Node8 -->
<g id="Node000008" class="node">
<title>Node8</title>
<g id="a_Node000008"><a xlink:href="classApp_1_1Http_1_1Middleware_1_1VerifyCsrfToken.html" target="_top" xlink:title=" ">
<polygon fill="white" stroke="#666666" points="268,-30 149,-30 149,0 268,0 268,-30"/>
<text text-anchor="start" x="157" y="-18" font-family="Helvetica,sans-Serif" font-size="10.00">App\Http\Middleware</text>
<text text-anchor="middle" x="208.5" y="-7" font-family="Helvetica,sans-Serif" font-size="10.00">\VerifyCsrfToken</text>
</a>
</g>
</g>
<!-- Node0&#45;&gt;Node8 -->
<g id="edge52_Node000000_Node000008" class="edge">
<title>Node0&#45;&gt;Node8</title>
<g id="a_edge52_Node000000_Node000008"><a xlink:title=" ">
<path fill="none" stroke="#63b8ff" d="M42.3,-163.04C50.13,-131.69 69.75,-71.17 110,-39 121.1,-30.13 135.01,-24.48 148.82,-20.89"/>
<polygon fill="#63b8ff" stroke="#63b8ff" points="38.8,-162.63 39.94,-173.16 45.62,-164.22 38.8,-162.63"/>
</a>
</g>
</g>
</g>
</svg>
