<?xml version="1.0" encoding="UTF-8" standalone="no"?>
<!DOCTYPE svg PUBLIC "-//W3C//DTD SVG 1.1//EN"
 "http://www.w3.org/Graphics/SVG/1.1/DTD/svg11.dtd">
<!-- Generated by graphviz version 2.43.0 (0)
 -->
<!-- Title: Gráfico de jerarquía de clases Pages: 1 -->
<svg width="249pt" height="86pt"
 viewBox="0.00 0.00 249.00 86.00" xmlns="http://www.w3.org/2000/svg" xmlns:xlink="http://www.w3.org/1999/xlink">
<g id="graph0" class="graph" transform="scale(1 1) rotate(0) translate(4 82)">
<title>Gráfico de jerarquía de clases</title>
<!-- Node0 -->
<g id="Node000000" class="node">
<title>Node0</title>
<g id="a_Node000000"><a xlink:title=" ">
<polygon fill="#e0e0e0" stroke="#999999" points="67,-48.5 0,-48.5 0,-29.5 67,-29.5 67,-48.5"/>
<text text-anchor="middle" x="33.5" y="-36.5" font-family="Helvetica,sans-Serif" font-size="10.00">Command</text>
</a>
</g>
</g>
<!-- Node1 -->
<g id="Node000001" class="node">
<title>Node1</title>
<g id="a_Node000001"><a xlink:href="classApp_1_1Console_1_1Commands_1_1CreateUser.html" target="_top" xlink:title=" ">
<polygon fill="white" stroke="#666666" points="240,-78 104,-78 104,-48 240,-48 240,-78"/>
<text text-anchor="start" x="112" y="-66" font-family="Helvetica,sans-Serif" font-size="10.00">App\Console\Commands</text>
<text text-anchor="middle" x="172" y="-55" font-family="Helvetica,sans-Serif" font-size="10.00">\CreateUser</text>
</a>
</g>
</g>
<!-- Node0&#45;&gt;Node1 -->
<g id="edge18_Node000000_Node000001" class="edge">
<title>Node0&#45;&gt;Node1</title>
<g id="a_edge18_Node000000_Node000001"><a xlink:title=" ">
<path fill="none" stroke="#63b8ff" d="M77.23,-46.51C85.75,-48.01 94.89,-49.62 103.99,-51.22"/>
<polygon fill="#63b8ff" stroke="#63b8ff" points="77.65,-43.03 67.2,-44.75 76.44,-49.93 77.65,-43.03"/>
</a>
</g>
</g>
<!-- Node2 -->
<g id="Node000002" class="node">
<title>Node2</title>
<g id="a_Node000002"><a xlink:href="classApp_1_1Console_1_1Commands_1_1VerifyDatabaseStructure.html" target="_top" xlink:title=" ">
<polygon fill="white" stroke="#666666" points="241,-30 103,-30 103,0 241,0 241,-30"/>
<text text-anchor="start" x="111" y="-18" font-family="Helvetica,sans-Serif" font-size="10.00">App\Console\Commands</text>
<text text-anchor="middle" x="172" y="-7" font-family="Helvetica,sans-Serif" font-size="10.00">\VerifyDatabaseStructure</text>
</a>
</g>
</g>
<!-- Node0&#45;&gt;Node2 -->
<g id="edge19_Node000000_Node000002" class="edge">
<title>Node0&#45;&gt;Node2</title>
<g id="a_edge19_Node000000_Node000002"><a xlink:title=" ">
<path fill="none" stroke="#63b8ff" d="M77.21,-31.49C85.4,-30.05 94.15,-28.51 102.9,-26.97"/>
<polygon fill="#63b8ff" stroke="#63b8ff" points="76.44,-28.07 67.2,-33.25 77.65,-34.97 76.44,-28.07"/>
</a>
</g>
</g>
</g>
</svg>
