<?xml version="1.0" encoding="UTF-8" standalone="no"?>
<!DOCTYPE svg PUBLIC "-//W3C//DTD SVG 1.1//EN"
 "http://www.w3.org/Graphics/SVG/1.1/DTD/svg11.dtd">
<!-- Generated by graphviz version 2.43.0 (0)
 -->
<!-- Title: Gráfico de jerarquía de clases Pages: 1 -->
<svg width="273pt" height="187pt"
 viewBox="0.00 0.00 273.00 187.00" xmlns="http://www.w3.org/2000/svg" xmlns:xlink="http://www.w3.org/1999/xlink">
<g id="graph0" class="graph" transform="scale(1 1) rotate(0) translate(4 183)">
<title>Gráfico de jerarquía de clases</title>
<!-- Node0 -->
<g id="Node000000" class="node">
<title>Node0</title>
<g id="a_Node000000"><a xlink:title=" ">
<polygon fill="#e0e0e0" stroke="#999999" points="50,-93 0,-93 0,-74 50,-74 50,-93"/>
<text text-anchor="middle" x="25" y="-81" font-family="Helvetica,sans-Serif" font-size="10.00">Seeder</text>
</a>
</g>
</g>
<!-- Node1 -->
<g id="Node000001" class="node">
<title>Node1</title>
<g id="a_Node000001"><a xlink:href="classDatabase_1_1Seeders_1_1CinemaSeeder.html" target="_top" xlink:title=" ">
<polygon fill="white" stroke="#666666" points="265,-179 86,-179 86,-160 265,-160 265,-179"/>
<text text-anchor="middle" x="175.5" y="-167" font-family="Helvetica,sans-Serif" font-size="10.00">Database\Seeders\CinemaSeeder</text>
</a>
</g>
</g>
<!-- Node0&#45;&gt;Node1 -->
<g id="edge55_Node000000_Node000001" class="edge">
<title>Node0&#45;&gt;Node1</title>
<g id="a_edge55_Node000000_Node000001"><a xlink:title=" ">
<path fill="none" stroke="#63b8ff" d="M37.77,-102.18C48.46,-117.56 65.65,-138.68 86,-150.5 92.66,-154.37 100.01,-157.45 107.55,-159.9"/>
<polygon fill="#63b8ff" stroke="#63b8ff" points="40.44,-99.87 31.98,-93.48 34.61,-103.75 40.44,-99.87"/>
</a>
</g>
</g>
<!-- Node2 -->
<g id="Node000002" class="node">
<title>Node2</title>
<g id="a_Node000002"><a xlink:href="classDatabase_1_1Seeders_1_1DatabaseSeeder.html" target="_top" xlink:title="Seeder principal que llama a los demás seeders.">
<polygon fill="white" stroke="#666666" points="253,-141.5 98,-141.5 98,-111.5 253,-111.5 253,-141.5"/>
<text text-anchor="start" x="106" y="-129.5" font-family="Helvetica,sans-Serif" font-size="10.00">Database\Seeders\Database</text>
<text text-anchor="middle" x="175.5" y="-118.5" font-family="Helvetica,sans-Serif" font-size="10.00">Seeder</text>
</a>
</g>
</g>
<!-- Node0&#45;&gt;Node2 -->
<g id="edge56_Node000000_Node000002" class="edge">
<title>Node0&#45;&gt;Node2</title>
<g id="a_edge56_Node000000_Node000002"><a xlink:title=" ">
<path fill="none" stroke="#63b8ff" d="M59.81,-94.48C68.33,-97.17 77.49,-100 86,-102.5 96.23,-105.51 107.17,-108.58 117.75,-111.49"/>
<polygon fill="#63b8ff" stroke="#63b8ff" points="60.75,-91.11 50.16,-91.4 58.63,-97.78 60.75,-91.11"/>
</a>
</g>
</g>
<!-- Node3 -->
<g id="Node000003" class="node">
<title>Node3</title>
<g id="a_Node000003"><a xlink:href="classDatabase_1_1Seeders_1_1GenreSeeder.html" target="_top" xlink:title=" ">
<polygon fill="white" stroke="#666666" points="261,-93 90,-93 90,-74 261,-74 261,-93"/>
<text text-anchor="middle" x="175.5" y="-81" font-family="Helvetica,sans-Serif" font-size="10.00">Database\Seeders\GenreSeeder</text>
</a>
</g>
</g>
<!-- Node0&#45;&gt;Node3 -->
<g id="edge57_Node000000_Node000003" class="edge">
<title>Node0&#45;&gt;Node3</title>
<g id="a_edge57_Node000000_Node000003"><a xlink:title=" ">
<path fill="none" stroke="#63b8ff" d="M60.24,-83.5C69.29,-83.5 79.47,-83.5 89.93,-83.5"/>
<polygon fill="#63b8ff" stroke="#63b8ff" points="60.19,-80 50.19,-83.5 60.19,-87 60.19,-80"/>
</a>
</g>
</g>
<!-- Node4 -->
<g id="Node000004" class="node">
<title>Node4</title>
<g id="a_Node000004"><a xlink:href="classDatabase_1_1Seeders_1_1MovieSeeder.html" target="_top" xlink:title="Seeder para poblar la tabla de películas con datos iniciales.">
<polygon fill="white" stroke="#666666" points="261.5,-56 89.5,-56 89.5,-37 261.5,-37 261.5,-56"/>
<text text-anchor="middle" x="175.5" y="-44" font-family="Helvetica,sans-Serif" font-size="10.00">Database\Seeders\MovieSeeder</text>
</a>
</g>
</g>
<!-- Node0&#45;&gt;Node4 -->
<g id="edge58_Node000000_Node000004" class="edge">
<title>Node0&#45;&gt;Node4</title>
<g id="a_edge58_Node000000_Node000004"><a xlink:title=" ">
<path fill="none" stroke="#63b8ff" d="M59.75,-72.86C68.28,-70.31 77.45,-67.7 86,-65.5 99.09,-62.14 113.37,-58.89 126.57,-56.06"/>
<polygon fill="#63b8ff" stroke="#63b8ff" points="58.66,-69.53 50.11,-75.79 60.69,-76.23 58.66,-69.53"/>
</a>
</g>
</g>
<!-- Node5 -->
<g id="Node000005" class="node">
<title>Node5</title>
<g id="a_Node000005"><a xlink:href="classDatabase_1_1Seeders_1_1UserSeeder.html" target="_top" xlink:title=" ">
<polygon fill="white" stroke="#666666" points="257.5,-19 93.5,-19 93.5,0 257.5,0 257.5,-19"/>
<text text-anchor="middle" x="175.5" y="-7" font-family="Helvetica,sans-Serif" font-size="10.00">Database\Seeders\UserSeeder</text>
</a>
</g>
</g>
<!-- Node0&#45;&gt;Node5 -->
<g id="edge59_Node000000_Node000005" class="edge">
<title>Node0&#45;&gt;Node5</title>
<g id="a_edge59_Node000000_Node000005"><a xlink:title=" ">
<path fill="none" stroke="#63b8ff" d="M40.64,-65.81C51.81,-53.48 68.25,-37.67 86,-28.5 93.54,-24.61 101.84,-21.51 110.24,-19.05"/>
<polygon fill="#63b8ff" stroke="#63b8ff" points="37.73,-63.82 33.8,-73.66 43.01,-68.42 37.73,-63.82"/>
</a>
</g>
</g>
</g>
</svg>
