<?xml version="1.0" encoding="UTF-8" standalone="no"?>
<!DOCTYPE svg PUBLIC "-//W3C//DTD SVG 1.1//EN"
 "http://www.w3.org/Graphics/SVG/1.1/DTD/svg11.dtd">
<!-- Generated by graphviz version 2.43.0 (0)
 -->
<!-- Title: Gráfico de jerarquía de clases Pages: 1 -->
<svg width="253pt" height="182pt"
 viewBox="0.00 0.00 253.00 182.00" xmlns="http://www.w3.org/2000/svg" xmlns:xlink="http://www.w3.org/1999/xlink">
<g id="graph0" class="graph" transform="scale(1 1) rotate(0) translate(4 178)">
<title>Gráfico de jerarquía de clases</title>
<!-- Node0 -->
<g id="Node000000" class="node">
<title>Node0</title>
<g id="a_Node000000"><a xlink:title=" ">
<polygon fill="#e0e0e0" stroke="#999999" points="67,-96.5 0,-96.5 0,-77.5 67,-77.5 67,-96.5"/>
<text text-anchor="middle" x="33.5" y="-84.5" font-family="Helvetica,sans-Serif" font-size="10.00">Command</text>
</a>
</g>
</g>
<!-- Node1 -->
<g id="Node000001" class="node">
<title>Node1</title>
<g id="a_Node000001"><a xlink:href="classApp_1_1Console_1_1Commands_1_1CreateUser.html" target="_top" xlink:title=" ">
<polygon fill="white" stroke="#666666" points="242,-174 106,-174 106,-144 242,-144 242,-174"/>
<text text-anchor="start" x="114" y="-162" font-family="Helvetica,sans-Serif" font-size="10.00">App\Console\Commands</text>
<text text-anchor="middle" x="174" y="-151" font-family="Helvetica,sans-Serif" font-size="10.00">\CreateUser</text>
</a>
</g>
</g>
<!-- Node0&#45;&gt;Node1 -->
<g id="edge19_Node000000_Node000001" class="edge">
<title>Node0&#45;&gt;Node1</title>
<g id="a_edge19_Node000000_Node000001"><a xlink:title=" ">
<path fill="none" stroke="#63b8ff" d="M53.89,-102.81C67.12,-113.02 85.38,-126.03 103,-135 109.41,-138.26 116.37,-141.25 123.32,-143.92"/>
<polygon fill="#63b8ff" stroke="#63b8ff" points="56,-100.02 45.98,-96.57 51.67,-105.51 56,-100.02"/>
</a>
</g>
</g>
<!-- Node2 -->
<g id="Node000002" class="node">
<title>Node2</title>
<g id="a_Node000002"><a xlink:href="classApp_1_1Console_1_1Commands_1_1ImportMoviesFromJson.html" target="_top" xlink:title=" ">
<polygon fill="white" stroke="#666666" points="242,-126 106,-126 106,-96 242,-96 242,-126"/>
<text text-anchor="start" x="114" y="-114" font-family="Helvetica,sans-Serif" font-size="10.00">App\Console\Commands</text>
<text text-anchor="middle" x="174" y="-103" font-family="Helvetica,sans-Serif" font-size="10.00">\ImportMoviesFromJson</text>
</a>
</g>
</g>
<!-- Node0&#45;&gt;Node2 -->
<g id="edge20_Node000000_Node000002" class="edge">
<title>Node0&#45;&gt;Node2</title>
<g id="a_edge20_Node000000_Node000002"><a xlink:title=" ">
<path fill="none" stroke="#63b8ff" d="M77.22,-94.4C86.3,-95.98 96.09,-97.67 105.83,-99.36"/>
<polygon fill="#63b8ff" stroke="#63b8ff" points="77.77,-90.95 67.32,-92.69 76.58,-97.84 77.77,-90.95"/>
</a>
</g>
</g>
<!-- Node3 -->
<g id="Node000003" class="node">
<title>Node3</title>
<g id="a_Node000003"><a xlink:href="classApp_1_1Console_1_1Commands_1_1UpdateMovieImagePaths.html" target="_top" xlink:title=" ">
<polygon fill="white" stroke="#666666" points="245,-78 103,-78 103,-48 245,-48 245,-78"/>
<text text-anchor="start" x="111" y="-66" font-family="Helvetica,sans-Serif" font-size="10.00">App\Console\Commands</text>
<text text-anchor="middle" x="174" y="-55" font-family="Helvetica,sans-Serif" font-size="10.00">\UpdateMovieImagePaths</text>
</a>
</g>
</g>
<!-- Node0&#45;&gt;Node3 -->
<g id="edge21_Node000000_Node000003" class="edge">
<title>Node0&#45;&gt;Node3</title>
<g id="a_edge21_Node000000_Node000003"><a xlink:title=" ">
<path fill="none" stroke="#63b8ff" d="M77.26,-79.59C85.38,-78.18 94.07,-76.68 102.78,-75.17"/>
<polygon fill="#63b8ff" stroke="#63b8ff" points="76.58,-76.16 67.32,-81.31 77.77,-83.05 76.58,-76.16"/>
</a>
</g>
</g>
<!-- Node4 -->
<g id="Node000004" class="node">
<title>Node4</title>
<g id="a_Node000004"><a xlink:href="classApp_1_1Console_1_1Commands_1_1VerifyDatabaseStructure.html" target="_top" xlink:title=" ">
<polygon fill="white" stroke="#666666" points="243,-30 105,-30 105,0 243,0 243,-30"/>
<text text-anchor="start" x="113" y="-18" font-family="Helvetica,sans-Serif" font-size="10.00">App\Console\Commands</text>
<text text-anchor="middle" x="174" y="-7" font-family="Helvetica,sans-Serif" font-size="10.00">\VerifyDatabaseStructure</text>
</a>
</g>
</g>
<!-- Node0&#45;&gt;Node4 -->
<g id="edge22_Node000000_Node000004" class="edge">
<title>Node0&#45;&gt;Node4</title>
<g id="a_edge22_Node000000_Node000004"><a xlink:title=" ">
<path fill="none" stroke="#63b8ff" d="M53.89,-71.19C67.12,-60.98 85.38,-47.97 103,-39 109.41,-35.74 116.37,-32.75 123.32,-30.08"/>
<polygon fill="#63b8ff" stroke="#63b8ff" points="51.67,-68.49 45.98,-77.43 56,-73.98 51.67,-68.49"/>
</a>
</g>
</g>
</g>
</svg>
