<?xml version="1.0" encoding="UTF-8" standalone="no"?>
<!DOCTYPE svg PUBLIC "-//W3C//DTD SVG 1.1//EN"
 "http://www.w3.org/Graphics/SVG/1.1/DTD/svg11.dtd">
<!-- Generated by graphviz version 2.43.0 (0)
 -->
<!-- Title: Gráfico de jerarquía de clases Pages: 1 -->
<svg width="229pt" height="471pt"
 viewBox="0.00 0.00 229.00 471.00" xmlns="http://www.w3.org/2000/svg" xmlns:xlink="http://www.w3.org/1999/xlink">
<g id="graph0" class="graph" transform="scale(1 1) rotate(0) translate(4 467)">
<title>Gráfico de jerarquía de clases</title>
<!-- Node0 -->
<g id="Node000000" class="node">
<title>Node0</title>
<g id="a_Node000000"><a xlink:title=" ">
<polygon fill="#e0e0e0" stroke="#999999" points="47,-241 0,-241 0,-222 47,-222 47,-241"/>
<text text-anchor="middle" x="23.5" y="-229" font-family="Helvetica,sans-Serif" font-size="10.00">Model</text>
</a>
</g>
</g>
<!-- Node1 -->
<g id="Node000001" class="node">
<title>Node1</title>
<g id="a_Node000001"><a xlink:href="classApp_1_1Models_1_1Actor.html" target="_top" xlink:title=" ">
<polygon fill="white" stroke="#666666" points="203,-463 101,-463 101,-444 203,-444 203,-463"/>
<text text-anchor="middle" x="152" y="-451" font-family="Helvetica,sans-Serif" font-size="10.00">App\Models\Actor</text>
</a>
</g>
</g>
<!-- Node0&#45;&gt;Node1 -->
<g id="edge42_Node000000_Node000001" class="edge">
<title>Node0&#45;&gt;Node1</title>
<g id="a_edge42_Node000000_Node000001"><a xlink:title=" ">
<path fill="none" stroke="#63b8ff" d="M24.13,-251.47C24.52,-292.13 31.39,-384.94 83,-435.5 88.06,-440.46 94.32,-444.09 100.97,-446.75"/>
<polygon fill="#63b8ff" stroke="#63b8ff" points="27.63,-251.27 24.17,-241.26 20.63,-251.24 27.63,-251.27"/>
</a>
</g>
</g>
<!-- Node2 -->
<g id="Node000002" class="node">
<title>Node2</title>
<g id="a_Node000002"><a xlink:href="classApp_1_1Models_1_1Booking.html" target="_top" xlink:title=" ">
<polygon fill="white" stroke="#666666" points="210,-426 94,-426 94,-407 210,-407 210,-426"/>
<text text-anchor="middle" x="152" y="-414" font-family="Helvetica,sans-Serif" font-size="10.00">App\Models\Booking</text>
</a>
</g>
</g>
<!-- Node0&#45;&gt;Node2 -->
<g id="edge43_Node000000_Node000002" class="edge">
<title>Node0&#45;&gt;Node2</title>
<g id="a_edge43_Node000000_Node000002"><a xlink:title=" ">
<path fill="none" stroke="#63b8ff" d="M25.64,-251.41C28.73,-286.4 40.24,-358.96 83,-398.5 86.68,-401.9 90.92,-404.67 95.45,-406.93"/>
<polygon fill="#63b8ff" stroke="#63b8ff" points="29.1,-250.8 24.88,-241.09 22.12,-251.32 29.1,-250.8"/>
</a>
</g>
</g>
<!-- Node3 -->
<g id="Node000003" class="node">
<title>Node3</title>
<g id="a_Node000003"><a xlink:href="classApp_1_1Models_1_1BookingSeat.html" target="_top" xlink:title=" ">
<polygon fill="white" stroke="#666666" points="221,-389 83,-389 83,-370 221,-370 221,-389"/>
<text text-anchor="middle" x="152" y="-377" font-family="Helvetica,sans-Serif" font-size="10.00">App\Models\BookingSeat</text>
</a>
</g>
</g>
<!-- Node0&#45;&gt;Node3 -->
<g id="edge44_Node000000_Node000003" class="edge">
<title>Node0&#45;&gt;Node3</title>
<g id="a_edge44_Node000000_Node000003"><a xlink:title=" ">
<path fill="none" stroke="#63b8ff" d="M27.83,-250.99C33.74,-279.55 48.84,-332.53 83,-361.5 87,-364.9 91.58,-367.66 96.43,-369.91"/>
<polygon fill="#63b8ff" stroke="#63b8ff" points="31.24,-250.19 25.93,-241.02 24.36,-251.49 31.24,-250.19"/>
</a>
</g>
</g>
<!-- Node4 -->
<g id="Node000004" class="node">
<title>Node4</title>
<g id="a_Node000004"><a xlink:href="classApp_1_1Models_1_1Cinema.html" target="_top" xlink:title=" ">
<polygon fill="white" stroke="#666666" points="209,-352 95,-352 95,-333 209,-333 209,-352"/>
<text text-anchor="middle" x="152" y="-340" font-family="Helvetica,sans-Serif" font-size="10.00">App\Models\Cinema</text>
</a>
</g>
</g>
<!-- Node0&#45;&gt;Node4 -->
<g id="edge45_Node000000_Node000004" class="edge">
<title>Node0&#45;&gt;Node4</title>
<g id="a_edge45_Node000000_Node000004"><a xlink:title=" ">
<path fill="none" stroke="#63b8ff" d="M31.52,-250.63C40.3,-271.88 57.36,-305.65 83,-324.5 87.62,-327.9 92.84,-330.66 98.28,-332.9"/>
<polygon fill="#63b8ff" stroke="#63b8ff" points="34.68,-249.11 27.78,-241.07 28.16,-251.66 34.68,-249.11"/>
</a>
</g>
</g>
<!-- Node5 -->
<g id="Node000005" class="node">
<title>Node5</title>
<g id="a_Node000005"><a xlink:href="classApp_1_1Models_1_1Functions.html" target="_top" xlink:title=" ">
<polygon fill="white" stroke="#666666" points="213.5,-315 90.5,-315 90.5,-296 213.5,-296 213.5,-315"/>
<text text-anchor="middle" x="152" y="-303" font-family="Helvetica,sans-Serif" font-size="10.00">App\Models\Functions</text>
</a>
</g>
</g>
<!-- Node0&#45;&gt;Node5 -->
<g id="edge46_Node000000_Node000005" class="edge">
<title>Node0&#45;&gt;Node5</title>
<g id="a_edge46_Node000000_Node000005"><a xlink:title=" ">
<path fill="none" stroke="#63b8ff" d="M38.76,-249.28C49.63,-261.71 65.66,-277.78 83,-287.5 89.07,-290.91 95.81,-293.69 102.62,-295.95"/>
<polygon fill="#63b8ff" stroke="#63b8ff" points="41.21,-246.76 32.09,-241.37 35.86,-251.28 41.21,-246.76"/>
</a>
</g>
</g>
<!-- Node6 -->
<g id="Node000006" class="node">
<title>Node6</title>
<g id="a_Node000006"><a xlink:href="classApp_1_1Models_1_1Genre.html" target="_top" xlink:title=" ">
<polygon fill="white" stroke="#666666" points="205,-278 99,-278 99,-259 205,-259 205,-278"/>
<text text-anchor="middle" x="152" y="-266" font-family="Helvetica,sans-Serif" font-size="10.00">App\Models\Genre</text>
</a>
</g>
</g>
<!-- Node0&#45;&gt;Node6 -->
<g id="edge47_Node000000_Node000006" class="edge">
<title>Node0&#45;&gt;Node6</title>
<g id="a_edge47_Node000000_Node000006"><a xlink:title=" ">
<path fill="none" stroke="#63b8ff" d="M56.78,-242.34C65.28,-245.09 74.46,-247.98 83,-250.5 92.84,-253.4 103.54,-256.33 113.49,-258.97"/>
<polygon fill="#63b8ff" stroke="#63b8ff" points="57.78,-238.98 47.19,-239.19 55.6,-245.63 57.78,-238.98"/>
</a>
</g>
</g>
<!-- Node7 -->
<g id="Node000007" class="node">
<title>Node7</title>
<g id="a_Node000007"><a xlink:href="classApp_1_1Models_1_1Manage.html" target="_top" xlink:title=" ">
<polygon fill="white" stroke="#666666" points="210,-241 94,-241 94,-222 210,-222 210,-241"/>
<text text-anchor="middle" x="152" y="-229" font-family="Helvetica,sans-Serif" font-size="10.00">App\Models\Manage</text>
</a>
</g>
</g>
<!-- Node0&#45;&gt;Node7 -->
<g id="edge48_Node000000_Node000007" class="edge">
<title>Node0&#45;&gt;Node7</title>
<g id="a_edge48_Node000000_Node000007"><a xlink:title=" ">
<path fill="none" stroke="#63b8ff" d="M57.26,-231.5C68.44,-231.5 81.29,-231.5 93.82,-231.5"/>
<polygon fill="#63b8ff" stroke="#63b8ff" points="57.12,-228 47.12,-231.5 57.12,-235 57.12,-228"/>
</a>
</g>
</g>
<!-- Node8 -->
<g id="Node000008" class="node">
<title>Node8</title>
<g id="a_Node000008"><a xlink:href="classApp_1_1Models_1_1Movie.html" target="_top" xlink:title=" ">
<polygon fill="white" stroke="#666666" points="205.5,-204 98.5,-204 98.5,-185 205.5,-185 205.5,-204"/>
<text text-anchor="middle" x="152" y="-192" font-family="Helvetica,sans-Serif" font-size="10.00">App\Models\Movie</text>
</a>
</g>
</g>
<!-- Node0&#45;&gt;Node8 -->
<g id="edge49_Node000000_Node000008" class="edge">
<title>Node0&#45;&gt;Node8</title>
<g id="a_edge49_Node000000_Node000008"><a xlink:title=" ">
<path fill="none" stroke="#63b8ff" d="M56.83,-221.39C65.33,-218.77 74.5,-216 83,-213.5 93.7,-210.36 105.39,-207.05 116.01,-204.09"/>
<polygon fill="#63b8ff" stroke="#63b8ff" points="55.76,-218.06 47.24,-224.35 57.83,-224.74 55.76,-218.06"/>
</a>
</g>
</g>
<!-- Node9 -->
<g id="Node000009" class="node">
<title>Node9</title>
<g id="a_Node000009"><a xlink:href="classApp_1_1Models_1_1MovieActor.html" target="_top" xlink:title=" ">
<polygon fill="white" stroke="#666666" points="218,-167 86,-167 86,-148 218,-148 218,-167"/>
<text text-anchor="middle" x="152" y="-155" font-family="Helvetica,sans-Serif" font-size="10.00">App\Models\MovieActor</text>
</a>
</g>
</g>
<!-- Node0&#45;&gt;Node9 -->
<g id="edge50_Node000000_Node000009" class="edge">
<title>Node0&#45;&gt;Node9</title>
<g id="a_edge50_Node000000_Node000009"><a xlink:title=" ">
<path fill="none" stroke="#63b8ff" d="M38.86,-214.12C49.79,-201.94 65.83,-186.18 83,-176.5 89.83,-172.65 97.5,-169.53 105.16,-167.03"/>
<polygon fill="#63b8ff" stroke="#63b8ff" points="36.06,-212 32.16,-221.85 41.35,-216.59 36.06,-212"/>
</a>
</g>
</g>
<!-- Node10 -->
<g id="Node000010" class="node">
<title>Node10</title>
<g id="a_Node000010"><a xlink:href="classApp_1_1Models_1_1MovieGenre.html" target="_top" xlink:title=" ">
<polygon fill="white" stroke="#666666" points="220,-130 84,-130 84,-111 220,-111 220,-130"/>
<text text-anchor="middle" x="152" y="-118" font-family="Helvetica,sans-Serif" font-size="10.00">App\Models\MovieGenre</text>
</a>
</g>
</g>
<!-- Node0&#45;&gt;Node10 -->
<g id="edge51_Node000000_Node000010" class="edge">
<title>Node0&#45;&gt;Node10</title>
<g id="a_edge51_Node000000_Node000010"><a xlink:title=" ">
<path fill="none" stroke="#63b8ff" d="M31.76,-212.31C40.67,-191.33 57.77,-158.22 83,-139.5 88.22,-135.63 94.19,-132.55 100.38,-130.09"/>
<polygon fill="#63b8ff" stroke="#63b8ff" points="28.44,-211.19 27.94,-221.78 34.93,-213.81 28.44,-211.19"/>
</a>
</g>
</g>
<!-- Node11 -->
<g id="Node000011" class="node">
<title>Node11</title>
<g id="a_Node000011"><a xlink:href="classApp_1_1Models_1_1Room.html" target="_top" xlink:title=" ">
<polygon fill="white" stroke="#666666" points="204.5,-93 99.5,-93 99.5,-74 204.5,-74 204.5,-93"/>
<text text-anchor="middle" x="152" y="-81" font-family="Helvetica,sans-Serif" font-size="10.00">App\Models\Room</text>
</a>
</g>
</g>
<!-- Node0&#45;&gt;Node11 -->
<g id="edge52_Node000000_Node000011" class="edge">
<title>Node0&#45;&gt;Node11</title>
<g id="a_edge52_Node000000_Node000011"><a xlink:title=" ">
<path fill="none" stroke="#63b8ff" d="M28.01,-211.8C34.11,-183.44 49.38,-131.33 83,-102.5 87.84,-98.35 93.52,-95.1 99.5,-92.56"/>
<polygon fill="#63b8ff" stroke="#63b8ff" points="24.55,-211.25 26.05,-221.74 31.42,-212.61 24.55,-211.25"/>
</a>
</g>
</g>
<!-- Node12 -->
<g id="Node000012" class="node">
<title>Node12</title>
<g id="a_Node000012"><a xlink:href="classApp_1_1Models_1_1Screening.html" target="_top" xlink:title=" ">
<polygon fill="white" stroke="#666666" points="214.5,-56 89.5,-56 89.5,-37 214.5,-37 214.5,-56"/>
<text text-anchor="middle" x="152" y="-44" font-family="Helvetica,sans-Serif" font-size="10.00">App\Models\Screening</text>
</a>
</g>
</g>
<!-- Node0&#45;&gt;Node12 -->
<g id="edge53_Node000000_Node000012" class="edge">
<title>Node0&#45;&gt;Node12</title>
<g id="a_edge53_Node000000_Node000012"><a xlink:title=" ">
<path fill="none" stroke="#63b8ff" d="M25.73,-211.76C28.97,-177.07 40.7,-105.08 83,-65.5 87.12,-61.65 91.95,-58.57 97.11,-56.1"/>
<polygon fill="#63b8ff" stroke="#63b8ff" points="22.22,-211.76 24.92,-222 29.2,-212.3 22.22,-211.76"/>
</a>
</g>
</g>
<!-- Node13 -->
<g id="Node000013" class="node">
<title>Node13</title>
<g id="a_Node000013"><a xlink:href="classApp_1_1Models_1_1Seat.html" target="_top" xlink:title=" ">
<polygon fill="white" stroke="#666666" points="201,-19 103,-19 103,0 201,0 201,-19"/>
<text text-anchor="middle" x="152" y="-7" font-family="Helvetica,sans-Serif" font-size="10.00">App\Models\Seat</text>
</a>
</g>
</g>
<!-- Node0&#45;&gt;Node13 -->
<g id="edge54_Node000000_Node000013" class="edge">
<title>Node0&#45;&gt;Node13</title>
<g id="a_edge54_Node000000_Node000013"><a xlink:title=" ">
<path fill="none" stroke="#63b8ff" d="M24.22,-211.68C24.78,-171.32 31.94,-79.15 83,-28.5 88.48,-23.06 95.39,-19.15 102.68,-16.34"/>
<polygon fill="#63b8ff" stroke="#63b8ff" points="20.72,-211.82 24.21,-221.82 27.72,-211.82 20.72,-211.82"/>
</a>
</g>
</g>
</g>
</svg>
