<?xml version="1.0" encoding="UTF-8" standalone="no"?>
<!DOCTYPE svg PUBLIC "-//W3C//DTD SVG 1.1//EN"
 "http://www.w3.org/Graphics/SVG/1.1/DTD/svg11.dtd">
<!-- Generated by graphviz version 2.43.0 (0)
 -->
<!-- Title: Gráfico de jerarquía de clases Pages: 1 -->
<svg width="273pt" height="187pt"
 viewBox="0.00 0.00 273.00 187.00" xmlns="http://www.w3.org/2000/svg" xmlns:xlink="http://www.w3.org/1999/xlink">
<g id="graph0" class="graph" transform="scale(1 1) rotate(0) translate(4 183)">
<title>Gráfico de jerarquía de clases</title>
<!-- Node0 -->
<g id="Node000000" class="node">
<title>Node0</title>
<g id="a_Node000000"><a xlink:title=" ">
<polygon fill="#e0e0e0" stroke="#999999" points="50,-99 0,-99 0,-80 50,-80 50,-99"/>
<text text-anchor="middle" x="25" y="-87" font-family="Helvetica,sans-Serif" font-size="10.00">Seeder</text>
</a>
</g>
</g>
<!-- Node1 -->
<g id="Node000001" class="node">
<title>Node1</title>
<g id="a_Node000001"><a xlink:href="classDatabase_1_1Seeders_1_1AdminSeeder.html" target="_top" xlink:title=" ">
<polygon fill="white" stroke="#666666" points="262,-179 89,-179 89,-160 262,-160 262,-179"/>
<text text-anchor="middle" x="175.5" y="-167" font-family="Helvetica,sans-Serif" font-size="10.00">Database\Seeders\AdminSeeder</text>
</a>
</g>
</g>
<!-- Node0&#45;&gt;Node1 -->
<g id="edge52_Node000000_Node000001" class="edge">
<title>Node0&#45;&gt;Node1</title>
<g id="a_edge52_Node000000_Node000001"><a xlink:title=" ">
<path fill="none" stroke="#63b8ff" d="M38.41,-107.3C49.3,-121.52 66.42,-140.77 86,-151.5 92.19,-154.89 98.93,-157.64 105.85,-159.88"/>
<polygon fill="#63b8ff" stroke="#63b8ff" points="41.22,-105.21 32.47,-99.22 35.58,-109.35 41.22,-105.21"/>
</a>
</g>
</g>
<!-- Node2 -->
<g id="Node000002" class="node">
<title>Node2</title>
<g id="a_Node000002"><a xlink:href="classDatabase_1_1Seeders_1_1CinemaSeeder.html" target="_top" xlink:title=" ">
<polygon fill="white" stroke="#666666" points="265,-142 86,-142 86,-123 265,-123 265,-142"/>
<text text-anchor="middle" x="175.5" y="-130" font-family="Helvetica,sans-Serif" font-size="10.00">Database\Seeders\CinemaSeeder</text>
</a>
</g>
</g>
<!-- Node0&#45;&gt;Node2 -->
<g id="edge53_Node000000_Node000002" class="edge">
<title>Node0&#45;&gt;Node2</title>
<g id="a_edge53_Node000000_Node000002"><a xlink:title=" ">
<path fill="none" stroke="#63b8ff" d="M56.62,-102.9C65.93,-106.67 76.28,-110.54 86,-113.5 97.72,-117.08 110.52,-120.24 122.65,-122.9"/>
<polygon fill="#63b8ff" stroke="#63b8ff" points="57.92,-99.66 47.35,-99.06 55.24,-106.12 57.92,-99.66"/>
</a>
</g>
</g>
<!-- Node3 -->
<g id="Node000003" class="node">
<title>Node3</title>
<g id="a_Node000003"><a xlink:href="classDatabase_1_1Seeders_1_1DatabaseSeeder.html" target="_top" xlink:title="Seeder principal que llama a los demás seeders.">
<polygon fill="white" stroke="#666666" points="253,-104.5 98,-104.5 98,-74.5 253,-74.5 253,-104.5"/>
<text text-anchor="start" x="106" y="-92.5" font-family="Helvetica,sans-Serif" font-size="10.00">Database\Seeders\Database</text>
<text text-anchor="middle" x="175.5" y="-81.5" font-family="Helvetica,sans-Serif" font-size="10.00">Seeder</text>
</a>
</g>
</g>
<!-- Node0&#45;&gt;Node3 -->
<g id="edge54_Node000000_Node000003" class="edge">
<title>Node0&#45;&gt;Node3</title>
<g id="a_edge54_Node000000_Node000003"><a xlink:title=" ">
<path fill="none" stroke="#63b8ff" d="M60.45,-89.5C71.76,-89.5 84.83,-89.5 97.99,-89.5"/>
<polygon fill="#63b8ff" stroke="#63b8ff" points="60.19,-86 50.19,-89.5 60.19,-93 60.19,-86"/>
</a>
</g>
</g>
<!-- Node4 -->
<g id="Node000004" class="node">
<title>Node4</title>
<g id="a_Node000004"><a xlink:href="classDatabase_1_1Seeders_1_1GenreSeeder.html" target="_top" xlink:title=" ">
<polygon fill="white" stroke="#666666" points="261,-56 90,-56 90,-37 261,-37 261,-56"/>
<text text-anchor="middle" x="175.5" y="-44" font-family="Helvetica,sans-Serif" font-size="10.00">Database\Seeders\GenreSeeder</text>
</a>
</g>
</g>
<!-- Node0&#45;&gt;Node4 -->
<g id="edge55_Node000000_Node000004" class="edge">
<title>Node0&#45;&gt;Node4</title>
<g id="a_edge55_Node000000_Node000004"><a xlink:title=" ">
<path fill="none" stroke="#63b8ff" d="M56.62,-76.1C65.93,-72.33 76.28,-68.46 86,-65.5 97.72,-61.92 110.52,-58.76 122.65,-56.1"/>
<polygon fill="#63b8ff" stroke="#63b8ff" points="55.24,-72.88 47.35,-79.94 57.92,-79.34 55.24,-72.88"/>
</a>
</g>
</g>
<!-- Node5 -->
<g id="Node000005" class="node">
<title>Node5</title>
<g id="a_Node000005"><a xlink:href="classDatabase_1_1Seeders_1_1MovieSeeder.html" target="_top" xlink:title="Seeder para poblar la tabla de películas con datos iniciales.">
<polygon fill="white" stroke="#666666" points="261.5,-19 89.5,-19 89.5,0 261.5,0 261.5,-19"/>
<text text-anchor="middle" x="175.5" y="-7" font-family="Helvetica,sans-Serif" font-size="10.00">Database\Seeders\MovieSeeder</text>
</a>
</g>
</g>
<!-- Node0&#45;&gt;Node5 -->
<g id="edge56_Node000000_Node000005" class="edge">
<title>Node0&#45;&gt;Node5</title>
<g id="a_edge56_Node000000_Node000005"><a xlink:title=" ">
<path fill="none" stroke="#63b8ff" d="M38.82,-71.65C49.77,-57.74 66.78,-39.07 86,-28.5 93.02,-24.64 100.76,-21.56 108.65,-19.11"/>
<polygon fill="#63b8ff" stroke="#63b8ff" points="35.76,-69.88 32.53,-79.97 41.35,-74.1 35.76,-69.88"/>
</a>
</g>
</g>
</g>
</svg>
