<?xml version="1.0" encoding="UTF-8" standalone="no"?>
<!DOCTYPE svg PUBLIC "-//W3C//DTD SVG 1.1//EN"
 "http://www.w3.org/Graphics/SVG/1.1/DTD/svg11.dtd">
<!-- Generated by graphviz version 2.43.0 (0)
 -->
<!-- Title: Gráfico de jerarquía de clases Pages: 1 -->
<svg width="266pt" height="235pt"
 viewBox="0.00 0.00 266.00 234.50" xmlns="http://www.w3.org/2000/svg" xmlns:xlink="http://www.w3.org/1999/xlink">
<g id="graph0" class="graph" transform="scale(1 1) rotate(0) translate(4 230.5)">
<title>Gráfico de jerarquía de clases</title>
<!-- Node0 -->
<g id="Node000000" class="node">
<title>Node0</title>
<g id="a_Node000000"><a xlink:title=" ">
<polygon fill="#e0e0e0" stroke="#999999" points="50,-111 0,-111 0,-92 50,-92 50,-111"/>
<text text-anchor="middle" x="25" y="-99" font-family="Helvetica,sans-Serif" font-size="10.00">Seeder</text>
</a>
</g>
</g>
<!-- Node1 -->
<g id="Node000001" class="node">
<title>Node1</title>
<g id="a_Node000001"><a xlink:href="classDatabase_1_1Seeders_1_1DatabaseSeeder.html" target="_top" xlink:title="Seeder principal que llama a los demás seeders.">
<polygon fill="white" stroke="#666666" points="249.5,-226.5 94.5,-226.5 94.5,-196.5 249.5,-196.5 249.5,-226.5"/>
<text text-anchor="start" x="102.5" y="-214.5" font-family="Helvetica,sans-Serif" font-size="10.00">Database\Seeders\Database</text>
<text text-anchor="middle" x="172" y="-203.5" font-family="Helvetica,sans-Serif" font-size="10.00">Seeder</text>
</a>
</g>
</g>
<!-- Node0&#45;&gt;Node1 -->
<g id="edge68_Node000000_Node000001" class="edge">
<title>Node0&#45;&gt;Node1</title>
<g id="a_edge68_Node000000_Node000001"><a xlink:title=" ">
<path fill="none" stroke="#63b8ff" d="M34.34,-120.31C44,-139.95 61.75,-170.24 86,-187.5 90.87,-190.97 96.23,-193.93 101.82,-196.47"/>
<polygon fill="#63b8ff" stroke="#63b8ff" points="37.45,-118.7 30.03,-111.14 31.12,-121.68 37.45,-118.7"/>
</a>
</g>
</g>
<!-- Node2 -->
<g id="Node000002" class="node">
<title>Node2</title>
<g id="a_Node000002"><a xlink:href="classDatabase_1_1Seeders_1_1FunctionSeeder.html" target="_top" xlink:title=" ">
<polygon fill="white" stroke="#666666" points="246.5,-178.5 97.5,-178.5 97.5,-148.5 246.5,-148.5 246.5,-178.5"/>
<text text-anchor="start" x="105.5" y="-166.5" font-family="Helvetica,sans-Serif" font-size="10.00">Database\Seeders\Function</text>
<text text-anchor="middle" x="172" y="-155.5" font-family="Helvetica,sans-Serif" font-size="10.00">Seeder</text>
</a>
</g>
</g>
<!-- Node0&#45;&gt;Node2 -->
<g id="edge69_Node000000_Node000002" class="edge">
<title>Node0&#45;&gt;Node2</title>
<g id="a_edge69_Node000000_Node000002"><a xlink:title=" ">
<path fill="none" stroke="#63b8ff" d="M46.95,-116.89C58.11,-124.52 72.32,-133.39 86,-139.5 93.42,-142.81 101.41,-145.78 109.42,-148.41"/>
<polygon fill="#63b8ff" stroke="#63b8ff" points="48.92,-113.99 38.73,-111.1 44.89,-119.72 48.92,-113.99"/>
</a>
</g>
</g>
<!-- Node3 -->
<g id="Node000003" class="node">
<title>Node3</title>
<g id="a_Node000003"><a xlink:href="classDatabase_1_1Seeders_1_1GenreSeeder.html" target="_top" xlink:title=" ">
<polygon fill="white" stroke="#666666" points="257.5,-130 86.5,-130 86.5,-111 257.5,-111 257.5,-130"/>
<text text-anchor="middle" x="172" y="-118" font-family="Helvetica,sans-Serif" font-size="10.00">Database\Seeders\GenreSeeder</text>
</a>
</g>
</g>
<!-- Node0&#45;&gt;Node3 -->
<g id="edge70_Node000000_Node000003" class="edge">
<title>Node0&#45;&gt;Node3</title>
<g id="a_edge70_Node000000_Node000003"><a xlink:title=" ">
<path fill="none" stroke="#63b8ff" d="M60.29,-105.99C71.81,-107.5 85.13,-109.25 98.45,-110.99"/>
<polygon fill="#63b8ff" stroke="#63b8ff" points="60.64,-102.51 50.27,-104.68 59.73,-109.45 60.64,-102.51"/>
</a>
</g>
</g>
<!-- Node4 -->
<g id="Node000004" class="node">
<title>Node4</title>
<g id="a_Node000004"><a xlink:href="classDatabase_1_1Seeders_1_1MovieSeeder.html" target="_top" xlink:title="Seeder para poblar la tabla de películas con datos iniciales.">
<polygon fill="white" stroke="#666666" points="258,-93 86,-93 86,-74 258,-74 258,-93"/>
<text text-anchor="middle" x="172" y="-81" font-family="Helvetica,sans-Serif" font-size="10.00">Database\Seeders\MovieSeeder</text>
</a>
</g>
</g>
<!-- Node0&#45;&gt;Node4 -->
<g id="edge71_Node000000_Node000004" class="edge">
<title>Node0&#45;&gt;Node4</title>
<g id="a_edge71_Node000000_Node000004"><a xlink:title=" ">
<path fill="none" stroke="#63b8ff" d="M60.44,-97.23C70.74,-95.95 82.48,-94.49 94.36,-93.01"/>
<polygon fill="#63b8ff" stroke="#63b8ff" points="59.76,-93.78 50.27,-98.49 60.62,-100.73 59.76,-93.78"/>
</a>
</g>
</g>
<!-- Node5 -->
<g id="Node000005" class="node">
<title>Node5</title>
<g id="a_Node000005"><a xlink:href="classDatabase_1_1Seeders_1_1RoomSeeder.html" target="_top" xlink:title=" ">
<polygon fill="white" stroke="#666666" points="257,-56 87,-56 87,-37 257,-37 257,-56"/>
<text text-anchor="middle" x="172" y="-44" font-family="Helvetica,sans-Serif" font-size="10.00">Database\Seeders\RoomSeeder</text>
</a>
</g>
</g>
<!-- Node0&#45;&gt;Node5 -->
<g id="edge72_Node000000_Node000005" class="edge">
<title>Node0&#45;&gt;Node5</title>
<g id="a_edge72_Node000000_Node000005"><a xlink:title=" ">
<path fill="none" stroke="#63b8ff" d="M47.7,-86.17C58.73,-78.99 72.6,-70.85 86,-65.5 95.55,-61.68 106.02,-58.56 116.25,-56.02"/>
<polygon fill="#63b8ff" stroke="#63b8ff" points="45.52,-83.41 39.17,-91.9 49.42,-89.22 45.52,-83.41"/>
</a>
</g>
</g>
<!-- Node6 -->
<g id="Node000006" class="node">
<title>Node6</title>
<g id="a_Node000006"><a xlink:href="classDatabase_1_1Seeders_1_1UserSeeder.html" target="_top" xlink:title=" ">
<polygon fill="white" stroke="#666666" points="254,-19 90,-19 90,0 254,0 254,-19"/>
<text text-anchor="middle" x="172" y="-7" font-family="Helvetica,sans-Serif" font-size="10.00">Database\Seeders\UserSeeder</text>
</a>
</g>
</g>
<!-- Node0&#45;&gt;Node6 -->
<g id="edge73_Node000000_Node000006" class="edge">
<title>Node0&#45;&gt;Node6</title>
<g id="a_edge73_Node000000_Node000006"><a xlink:title=" ">
<path fill="none" stroke="#63b8ff" d="M36.27,-83.03C46.62,-66.18 64.16,-41.93 86,-28.5 92.31,-24.62 99.32,-21.53 106.53,-19.06"/>
<polygon fill="#63b8ff" stroke="#63b8ff" points="33.08,-81.56 31.03,-91.95 39.11,-85.1 33.08,-81.56"/>
</a>
</g>
</g>
</g>
</svg>
