<?xml version="1.0" encoding="UTF-8" standalone="no"?>
<!DOCTYPE svg PUBLIC "-//W3C//DTD SVG 1.1//EN"
 "http://www.w3.org/Graphics/SVG/1.1/DTD/svg11.dtd">
<!-- Generated by graphviz version 2.43.0 (0)
 -->
<!-- Title: Gráfico de jerarquía de clases Pages: 1 -->
<svg width="227pt" height="508pt"
 viewBox="0.00 0.00 227.00 508.00" xmlns="http://www.w3.org/2000/svg" xmlns:xlink="http://www.w3.org/1999/xlink">
<g id="graph0" class="graph" transform="scale(1 1) rotate(0) translate(4 504)">
<title>Gráfico de jerarquía de clases</title>
<!-- Node0 -->
<g id="Node000000" class="node">
<title>Node0</title>
<g id="a_Node000000"><a xlink:title=" ">
<polygon fill="#e0e0e0" stroke="#999999" points="47,-259 0,-259 0,-240 47,-240 47,-259"/>
<text text-anchor="middle" x="23.5" y="-247" font-family="Helvetica,sans-Serif" font-size="10.00">Model</text>
</a>
</g>
</g>
<!-- Node1 -->
<g id="Node000001" class="node">
<title>Node1</title>
<g id="a_Node000001"><a xlink:href="classApp_1_1Models_1_1Actor.html" target="_top" xlink:title=" ">
<polygon fill="white" stroke="#666666" points="202,-500 100,-500 100,-481 202,-481 202,-500"/>
<text text-anchor="middle" x="151" y="-488" font-family="Helvetica,sans-Serif" font-size="10.00">App\Models\Actor</text>
</a>
</g>
</g>
<!-- Node0&#45;&gt;Node1 -->
<g id="edge53_Node000000_Node000001" class="edge">
<title>Node0&#45;&gt;Node1</title>
<g id="a_edge53_Node000000_Node000001"><a xlink:title=" ">
<path fill="none" stroke="#63b8ff" d="M27.09,-269.04C33.96,-317.87 54.07,-443.4 83,-472.5 87.76,-477.28 93.64,-480.84 99.92,-483.47"/>
<polygon fill="#63b8ff" stroke="#63b8ff" points="30.56,-268.54 25.73,-259.11 23.62,-269.49 30.56,-268.54"/>
</a>
</g>
</g>
<!-- Node2 -->
<g id="Node000002" class="node">
<title>Node2</title>
<g id="a_Node000002"><a xlink:href="classApp_1_1Models_1_1Booking.html" target="_top" xlink:title=" ">
<polygon fill="white" stroke="#666666" points="209,-463 93,-463 93,-444 209,-444 209,-463"/>
<text text-anchor="middle" x="151" y="-451" font-family="Helvetica,sans-Serif" font-size="10.00">App\Models\Booking</text>
</a>
</g>
</g>
<!-- Node0&#45;&gt;Node2 -->
<g id="edge54_Node000000_Node000002" class="edge">
<title>Node0&#45;&gt;Node2</title>
<g id="a_edge54_Node000000_Node000002"><a xlink:title=" ">
<path fill="none" stroke="#63b8ff" d="M24.82,-269.52C26.53,-307.5 35.83,-390.28 83,-435.5 86.56,-438.92 90.71,-441.7 95.15,-443.97"/>
<polygon fill="#63b8ff" stroke="#63b8ff" points="28.31,-269.14 24.49,-259.26 21.31,-269.36 28.31,-269.14"/>
</a>
</g>
</g>
<!-- Node3 -->
<g id="Node000003" class="node">
<title>Node3</title>
<g id="a_Node000003"><a xlink:href="classApp_1_1Models_1_1Cinema.html" target="_top" xlink:title=" ">
<polygon fill="white" stroke="#666666" points="208,-426 94,-426 94,-407 208,-407 208,-426"/>
<text text-anchor="middle" x="151" y="-414" font-family="Helvetica,sans-Serif" font-size="10.00">App\Models\Cinema</text>
</a>
</g>
</g>
<!-- Node0&#45;&gt;Node3 -->
<g id="edge55_Node000000_Node000003" class="edge">
<title>Node0&#45;&gt;Node3</title>
<g id="a_edge55_Node000000_Node000003"><a xlink:title=" ">
<path fill="none" stroke="#63b8ff" d="M26.64,-269.49C31.15,-301.51 44.62,-364.19 83,-398.5 86.77,-401.87 91.11,-404.62 95.72,-406.86"/>
<polygon fill="#63b8ff" stroke="#63b8ff" points="30.07,-268.68 25.35,-259.19 23.12,-269.54 30.07,-268.68"/>
</a>
</g>
</g>
<!-- Node4 -->
<g id="Node000004" class="node">
<title>Node4</title>
<g id="a_Node000004"><a xlink:href="classApp_1_1Models_1_1Director.html" target="_top" xlink:title=" ">
<polygon fill="white" stroke="#666666" points="209,-389 93,-389 93,-370 209,-370 209,-389"/>
<text text-anchor="middle" x="151" y="-377" font-family="Helvetica,sans-Serif" font-size="10.00">App\Models\Director</text>
</a>
</g>
</g>
<!-- Node0&#45;&gt;Node4 -->
<g id="edge56_Node000000_Node000004" class="edge">
<title>Node0&#45;&gt;Node4</title>
<g id="a_edge56_Node000000_Node000004"><a xlink:title=" ">
<path fill="none" stroke="#63b8ff" d="M29.47,-269.17C36.86,-294.35 53.19,-337.59 83,-361.5 87.23,-364.89 92.04,-367.65 97.1,-369.88"/>
<polygon fill="#63b8ff" stroke="#63b8ff" points="32.78,-268.01 26.76,-259.29 26.03,-269.86 32.78,-268.01"/>
</a>
</g>
</g>
<!-- Node5 -->
<g id="Node000005" class="node">
<title>Node5</title>
<g id="a_Node000005"><a xlink:href="classApp_1_1Models_1_1Functions.html" target="_top" xlink:title=" ">
<polygon fill="white" stroke="#666666" points="212.5,-352 89.5,-352 89.5,-333 212.5,-333 212.5,-352"/>
<text text-anchor="middle" x="151" y="-340" font-family="Helvetica,sans-Serif" font-size="10.00">App\Models\Functions</text>
</a>
</g>
</g>
<!-- Node0&#45;&gt;Node5 -->
<g id="edge57_Node000000_Node000005" class="edge">
<title>Node0&#45;&gt;Node5</title>
<g id="a_edge57_Node000000_Node000005"><a xlink:title=" ">
<path fill="none" stroke="#63b8ff" d="M34.42,-268.27C44.43,-285.43 61.48,-310.24 83,-324.5 88.12,-327.89 93.86,-330.65 99.77,-332.89"/>
<polygon fill="#63b8ff" stroke="#63b8ff" points="37.28,-266.22 29.35,-259.19 31.16,-269.63 37.28,-266.22"/>
</a>
</g>
</g>
<!-- Node6 -->
<g id="Node000006" class="node">
<title>Node6</title>
<g id="a_Node000006"><a xlink:href="classApp_1_1Models_1_1Genre.html" target="_top" xlink:title=" ">
<polygon fill="white" stroke="#666666" points="204,-315 98,-315 98,-296 204,-296 204,-315"/>
<text text-anchor="middle" x="151" y="-303" font-family="Helvetica,sans-Serif" font-size="10.00">App\Models\Genre</text>
</a>
</g>
</g>
<!-- Node0&#45;&gt;Node6 -->
<g id="edge58_Node000000_Node000006" class="edge">
<title>Node0&#45;&gt;Node6</title>
<g id="a_edge58_Node000000_Node000006"><a xlink:title=" ">
<path fill="none" stroke="#63b8ff" d="M45.17,-265.21C55.97,-272.82 69.69,-281.57 83,-287.5 90.37,-290.79 98.47,-293.58 106.42,-295.93"/>
<polygon fill="#63b8ff" stroke="#63b8ff" points="47,-262.21 36.85,-259.17 42.89,-267.88 47,-262.21"/>
</a>
</g>
</g>
<!-- Node7 -->
<g id="Node000007" class="node">
<title>Node7</title>
<g id="a_Node000007"><a xlink:href="classApp_1_1Models_1_1Manage.html" target="_top" xlink:title=" ">
<polygon fill="white" stroke="#666666" points="209,-278 93,-278 93,-259 209,-259 209,-278"/>
<text text-anchor="middle" x="151" y="-266" font-family="Helvetica,sans-Serif" font-size="10.00">App\Models\Manage</text>
</a>
</g>
</g>
<!-- Node0&#45;&gt;Node7 -->
<g id="edge59_Node000000_Node000007" class="edge">
<title>Node0&#45;&gt;Node7</title>
<g id="a_edge59_Node000000_Node000007"><a xlink:title=" ">
<path fill="none" stroke="#63b8ff" d="M57.18,-254.45C68.14,-256.11 80.71,-258.01 92.97,-259.87"/>
<polygon fill="#63b8ff" stroke="#63b8ff" points="57.64,-250.98 47.23,-252.94 56.59,-257.9 57.64,-250.98"/>
</a>
</g>
</g>
<!-- Node8 -->
<g id="Node000008" class="node">
<title>Node8</title>
<g id="a_Node000008"><a xlink:href="classApp_1_1Models_1_1Movie.html" target="_top" xlink:title=" ">
<polygon fill="white" stroke="#666666" points="204.5,-241 97.5,-241 97.5,-222 204.5,-222 204.5,-241"/>
<text text-anchor="middle" x="151" y="-229" font-family="Helvetica,sans-Serif" font-size="10.00">App\Models\Movie</text>
</a>
</g>
</g>
<!-- Node0&#45;&gt;Node8 -->
<g id="edge60_Node000000_Node000008" class="edge">
<title>Node0&#45;&gt;Node8</title>
<g id="a_edge60_Node000000_Node000008"><a xlink:title=" ">
<path fill="none" stroke="#63b8ff" d="M57.42,-244.78C69.68,-243.02 83.92,-240.98 97.49,-239.03"/>
<polygon fill="#63b8ff" stroke="#63b8ff" points="56.63,-241.36 47.23,-246.24 57.62,-248.29 56.63,-241.36"/>
</a>
</g>
</g>
<!-- Node9 -->
<g id="Node000009" class="node">
<title>Node9</title>
<g id="a_Node000009"><a xlink:href="classApp_1_1Models_1_1MovieActor.html" target="_top" xlink:title=" ">
<polygon fill="white" stroke="#666666" points="217,-204 85,-204 85,-185 217,-185 217,-204"/>
<text text-anchor="middle" x="151" y="-192" font-family="Helvetica,sans-Serif" font-size="10.00">App\Models\MovieActor</text>
</a>
</g>
</g>
<!-- Node0&#45;&gt;Node9 -->
<g id="edge61_Node000000_Node000009" class="edge">
<title>Node0&#45;&gt;Node9</title>
<g id="a_edge61_Node000000_Node000009"><a xlink:title=" ">
<path fill="none" stroke="#63b8ff" d="M46.16,-234.18C56.87,-227.14 70.21,-219.12 83,-213.5 91.3,-209.85 100.49,-206.71 109.33,-204.09"/>
<polygon fill="#63b8ff" stroke="#63b8ff" points="44.18,-231.3 37.86,-239.8 48.1,-237.09 44.18,-231.3"/>
</a>
</g>
</g>
<!-- Node10 -->
<g id="Node000010" class="node">
<title>Node10</title>
<g id="a_Node000010"><a xlink:href="classApp_1_1Models_1_1MovieGenre.html" target="_top" xlink:title=" ">
<polygon fill="white" stroke="#666666" points="219,-167 83,-167 83,-148 219,-148 219,-167"/>
<text text-anchor="middle" x="151" y="-155" font-family="Helvetica,sans-Serif" font-size="10.00">App\Models\MovieGenre</text>
</a>
</g>
</g>
<!-- Node0&#45;&gt;Node10 -->
<g id="edge62_Node000000_Node000010" class="edge">
<title>Node0&#45;&gt;Node10</title>
<g id="a_edge62_Node000000_Node000010"><a xlink:title=" ">
<path fill="none" stroke="#63b8ff" d="M34.74,-231.03C44.9,-214.39 61.96,-190.46 83,-176.5 88.84,-172.62 95.48,-169.53 102.25,-167.06"/>
<polygon fill="#63b8ff" stroke="#63b8ff" points="31.61,-229.46 29.58,-239.86 37.65,-232.99 31.61,-229.46"/>
</a>
</g>
</g>
<!-- Node11 -->
<g id="Node000011" class="node">
<title>Node11</title>
<g id="a_Node000011"><a xlink:href="classApp_1_1Models_1_1Room.html" target="_top" xlink:title=" ">
<polygon fill="white" stroke="#666666" points="203.5,-130 98.5,-130 98.5,-111 203.5,-111 203.5,-130"/>
<text text-anchor="middle" x="151" y="-118" font-family="Helvetica,sans-Serif" font-size="10.00">App\Models\Room</text>
</a>
</g>
</g>
<!-- Node0&#45;&gt;Node11 -->
<g id="edge63_Node000000_Node000011" class="edge">
<title>Node0&#45;&gt;Node11</title>
<g id="a_edge63_Node000000_Node000011"><a xlink:title=" ">
<path fill="none" stroke="#63b8ff" d="M29.62,-230.24C37.17,-205.57 53.68,-163.17 83,-139.5 87.8,-135.63 93.34,-132.54 99.15,-130.09"/>
<polygon fill="#63b8ff" stroke="#63b8ff" points="26.24,-229.34 26.84,-239.91 32.97,-231.27 26.24,-229.34"/>
</a>
</g>
</g>
<!-- Node12 -->
<g id="Node000012" class="node">
<title>Node12</title>
<g id="a_Node000012"><a xlink:href="classApp_1_1Models_1_1Screening.html" target="_top" xlink:title=" ">
<polygon fill="white" stroke="#666666" points="213.5,-93 88.5,-93 88.5,-74 213.5,-74 213.5,-93"/>
<text text-anchor="middle" x="151" y="-81" font-family="Helvetica,sans-Serif" font-size="10.00">App\Models\Screening</text>
</a>
</g>
</g>
<!-- Node0&#45;&gt;Node12 -->
<g id="edge64_Node000000_Node000012" class="edge">
<title>Node0&#45;&gt;Node12</title>
<g id="a_edge64_Node000000_Node000012"><a xlink:title=" ">
<path fill="none" stroke="#63b8ff" d="M26.78,-229.83C31.49,-198.32 45.23,-136.59 83,-102.5 87.31,-98.61 92.36,-95.51 97.72,-93.05"/>
<polygon fill="#63b8ff" stroke="#63b8ff" points="23.28,-229.6 25.43,-239.97 30.22,-230.52 23.28,-229.6"/>
</a>
</g>
</g>
<!-- Node13 -->
<g id="Node000013" class="node">
<title>Node13</title>
<g id="a_Node000013"><a xlink:href="classApp_1_1Models_1_1Seat.html" target="_top" xlink:title=" ">
<polygon fill="white" stroke="#666666" points="200,-56 102,-56 102,-37 200,-37 200,-56"/>
<text text-anchor="middle" x="151" y="-44" font-family="Helvetica,sans-Serif" font-size="10.00">App\Models\Seat</text>
</a>
</g>
</g>
<!-- Node0&#45;&gt;Node13 -->
<g id="edge65_Node000000_Node000013" class="edge">
<title>Node0&#45;&gt;Node13</title>
<g id="a_edge65_Node000000_Node000013"><a xlink:title=" ">
<path fill="none" stroke="#63b8ff" d="M24.94,-229.75C26.88,-192.27 36.53,-110.53 83,-65.5 88.3,-60.37 94.87,-56.6 101.82,-53.84"/>
<polygon fill="#63b8ff" stroke="#63b8ff" points="21.44,-229.75 24.56,-239.88 28.44,-230.02 21.44,-229.75"/>
</a>
</g>
</g>
<!-- Node14 -->
<g id="Node000014" class="node">
<title>Node14</title>
<g id="a_Node000014"><a xlink:href="classApp_1_1Models_1_1Ticket.html" target="_top" xlink:title=" ">
<polygon fill="white" stroke="#666666" points="204,-19 98,-19 98,0 204,0 204,-19"/>
<text text-anchor="middle" x="151" y="-7" font-family="Helvetica,sans-Serif" font-size="10.00">App\Models\Ticket</text>
</a>
</g>
</g>
<!-- Node0&#45;&gt;Node14 -->
<g id="edge66_Node000000_Node000014" class="edge">
<title>Node0&#45;&gt;Node14</title>
<g id="a_edge66_Node000000_Node000014"><a xlink:title=" ">
<path fill="none" stroke="#63b8ff" d="M23.67,-229.74C23.01,-186.9 27.71,-84.77 83,-28.5 87.24,-24.19 92.37,-20.84 97.9,-18.23"/>
<polygon fill="#63b8ff" stroke="#63b8ff" points="20.18,-230.05 23.96,-239.95 27.18,-229.86 20.18,-230.05"/>
</a>
</g>
</g>
</g>
</svg>
