<?xml version="1.0" encoding="UTF-8" standalone="no"?>
<!DOCTYPE svg PUBLIC "-//W3C//DTD SVG 1.1//EN"
 "http://www.w3.org/Graphics/SVG/1.1/DTD/svg11.dtd">
<!-- Generated by graphviz version 2.43.0 (0)
 -->
<!-- Title: Gráfico de jerarquía de clases Pages: 1 -->
<svg width="434pt" height="614pt"
 viewBox="0.00 0.00 434.00 614.00" xmlns="http://www.w3.org/2000/svg" xmlns:xlink="http://www.w3.org/1999/xlink">
<g id="graph0" class="graph" transform="scale(1 1) rotate(0) translate(4 610)">
<title>Gráfico de jerarquía de clases</title>
<!-- Node0 -->
<g id="Node000000" class="node">
<title>Node0</title>
<g id="a_Node000000"><a xlink:title=" ">
<polygon fill="#e0e0e0" stroke="#999999" points="89,-312.5 0,-312.5 0,-293.5 89,-293.5 89,-312.5"/>
<text text-anchor="middle" x="44.5" y="-300.5" font-family="Helvetica,sans-Serif" font-size="10.00">BaseController</text>
</a>
</g>
</g>
<!-- Node1 -->
<g id="Node000001" class="node">
<title>Node1</title>
<g id="a_Node000001"><a xlink:href="classApp_1_1Http_1_1Controllers_1_1Controller.html" target="_top" xlink:title=" ">
<polygon fill="white" stroke="#666666" points="241,-318 125,-318 125,-288 241,-288 241,-318"/>
<text text-anchor="start" x="133" y="-306" font-family="Helvetica,sans-Serif" font-size="10.00">App\Http\Controllers</text>
<text text-anchor="middle" x="183" y="-295" font-family="Helvetica,sans-Serif" font-size="10.00">\Controller</text>
</a>
</g>
</g>
<!-- Node0&#45;&gt;Node1 -->
<g id="edge4_Node000000_Node000001" class="edge">
<title>Node0&#45;&gt;Node1</title>
<g id="a_edge4_Node000000_Node000001"><a xlink:title=" ">
<path fill="none" stroke="#63b8ff" d="M99.17,-303C107.62,-303 116.37,-303 124.89,-303"/>
<polygon fill="#63b8ff" stroke="#63b8ff" points="99.06,-299.5 89.06,-303 99.06,-306.5 99.06,-299.5"/>
</a>
</g>
</g>
<!-- Node2 -->
<g id="Node000002" class="node">
<title>Node2</title>
<g id="a_Node000002"><a xlink:href="classApp_1_1Http_1_1Controllers_1_1API_1_1ApiInfoController.html" target="_top" xlink:title="Controlador para obtener información sobre los endpoints de la API.">
<polygon fill="white" stroke="#666666" points="412,-606 291,-606 291,-576 412,-576 412,-606"/>
<text text-anchor="start" x="299" y="-594" font-family="Helvetica,sans-Serif" font-size="10.00">App\Http\Controllers</text>
<text text-anchor="middle" x="351.5" y="-583" font-family="Helvetica,sans-Serif" font-size="10.00">\API\ApiInfoController</text>
</a>
</g>
</g>
<!-- Node1&#45;&gt;Node2 -->
<g id="edge5_Node000001_Node000002" class="edge">
<title>Node1&#45;&gt;Node2</title>
<g id="a_edge5_Node000001_Node000002"><a xlink:title=" ">
<path fill="none" stroke="#63b8ff" d="M185.67,-328.32C190.46,-380.41 208.7,-500.26 277,-567 281.03,-570.94 285.72,-574.23 290.74,-576.99"/>
<polygon fill="#63b8ff" stroke="#63b8ff" points="189.15,-327.96 184.84,-318.28 182.17,-328.53 189.15,-327.96"/>
</a>
</g>
</g>
<!-- Node3 -->
<g id="Node000003" class="node">
<title>Node3</title>
<g id="a_Node000003"><a xlink:href="classApp_1_1Http_1_1Controllers_1_1API_1_1AuthController.html" target="_top" xlink:title=" ">
<polygon fill="white" stroke="#666666" points="409.5,-558 293.5,-558 293.5,-528 409.5,-528 409.5,-558"/>
<text text-anchor="start" x="301.5" y="-546" font-family="Helvetica,sans-Serif" font-size="10.00">App\Http\Controllers</text>
<text text-anchor="middle" x="351.5" y="-535" font-family="Helvetica,sans-Serif" font-size="10.00">\API\AuthController</text>
</a>
</g>
</g>
<!-- Node1&#45;&gt;Node3 -->
<g id="edge6_Node000001_Node000003" class="edge">
<title>Node1&#45;&gt;Node3</title>
<g id="a_edge6_Node000001_Node000003"><a xlink:title=" ">
<path fill="none" stroke="#63b8ff" d="M187.89,-328.02C196.16,-372.75 219.62,-466.61 277,-519 281.76,-523.34 287.32,-526.9 293.21,-529.82"/>
<polygon fill="#63b8ff" stroke="#63b8ff" points="191.31,-327.26 186.15,-318.01 184.42,-328.46 191.31,-327.26"/>
</a>
</g>
</g>
<!-- Node4 -->
<g id="Node000004" class="node">
<title>Node4</title>
<g id="a_Node000004"><a xlink:href="classApp_1_1Http_1_1Controllers_1_1API_1_1CinemaController.html" target="_top" xlink:title="Controlador para gestionar operaciones relacionadas con cines.">
<polygon fill="white" stroke="#666666" points="413.5,-510 289.5,-510 289.5,-480 413.5,-480 413.5,-510"/>
<text text-anchor="start" x="297.5" y="-498" font-family="Helvetica,sans-Serif" font-size="10.00">App\Http\Controllers</text>
<text text-anchor="middle" x="351.5" y="-487" font-family="Helvetica,sans-Serif" font-size="10.00">\API\CinemaController</text>
</a>
</g>
</g>
<!-- Node1&#45;&gt;Node4 -->
<g id="edge7_Node000001_Node000004" class="edge">
<title>Node1&#45;&gt;Node4</title>
<g id="a_edge7_Node000001_Node000004"><a xlink:title=" ">
<path fill="none" stroke="#63b8ff" d="M191.45,-328.39C203.49,-365.09 230.68,-432.74 277,-471 281.14,-474.42 285.78,-477.36 290.66,-479.88"/>
<polygon fill="#63b8ff" stroke="#63b8ff" points="194.67,-326.97 188.32,-318.49 187.99,-329.08 194.67,-326.97"/>
</a>
</g>
</g>
<!-- Node5 -->
<g id="Node000005" class="node">
<title>Node5</title>
<g id="a_Node000005"><a xlink:href="classApp_1_1Http_1_1Controllers_1_1API_1_1FunctionController.html" target="_top" xlink:title=" ">
<polygon fill="white" stroke="#666666" points="415.5,-462 287.5,-462 287.5,-432 415.5,-432 415.5,-462"/>
<text text-anchor="start" x="295.5" y="-450" font-family="Helvetica,sans-Serif" font-size="10.00">App\Http\Controllers</text>
<text text-anchor="middle" x="351.5" y="-439" font-family="Helvetica,sans-Serif" font-size="10.00">\API\FunctionController</text>
</a>
</g>
</g>
<!-- Node1&#45;&gt;Node5 -->
<g id="edge8_Node000001_Node000005" class="edge">
<title>Node1&#45;&gt;Node5</title>
<g id="a_edge8_Node000001_Node000005"><a xlink:title=" ">
<path fill="none" stroke="#63b8ff" d="M196.78,-327.1C212.31,-354.17 240.95,-397.61 277,-423 281.83,-426.4 287.17,-429.34 292.7,-431.88"/>
<polygon fill="#63b8ff" stroke="#63b8ff" points="199.78,-325.29 191.84,-318.27 193.67,-328.71 199.78,-325.29"/>
</a>
</g>
</g>
<!-- Node6 -->
<g id="Node000006" class="node">
<title>Node6</title>
<g id="a_Node000006"><a xlink:href="classApp_1_1Http_1_1Controllers_1_1API_1_1GenreController.html" target="_top" xlink:title=" ">
<polygon fill="white" stroke="#666666" points="409.5,-414 293.5,-414 293.5,-384 409.5,-384 409.5,-414"/>
<text text-anchor="start" x="301.5" y="-402" font-family="Helvetica,sans-Serif" font-size="10.00">App\Http\Controllers</text>
<text text-anchor="middle" x="351.5" y="-391" font-family="Helvetica,sans-Serif" font-size="10.00">\API\GenreController</text>
</a>
</g>
</g>
<!-- Node1&#45;&gt;Node6 -->
<g id="edge9_Node000001_Node000006" class="edge">
<title>Node1&#45;&gt;Node6</title>
<g id="a_edge9_Node000001_Node000006"><a xlink:title=" ">
<path fill="none" stroke="#63b8ff" d="M207.58,-324.97C225.49,-340.69 251.34,-361.4 277,-375 283.29,-378.33 290.12,-381.31 297.01,-383.94"/>
<polygon fill="#63b8ff" stroke="#63b8ff" points="209.72,-322.19 199.94,-318.14 205.06,-327.41 209.72,-322.19"/>
</a>
</g>
</g>
<!-- Node7 -->
<g id="Node000007" class="node">
<title>Node7</title>
<g id="a_Node000007"><a xlink:href="classApp_1_1Http_1_1Controllers_1_1API_1_1MovieController.html" target="_top" xlink:title="Class MovieController.">
<polygon fill="white" stroke="#666666" points="409.5,-366 293.5,-366 293.5,-336 409.5,-336 409.5,-366"/>
<text text-anchor="start" x="301.5" y="-354" font-family="Helvetica,sans-Serif" font-size="10.00">App\Http\Controllers</text>
<text text-anchor="middle" x="351.5" y="-343" font-family="Helvetica,sans-Serif" font-size="10.00">\API\MovieController</text>
</a>
</g>
</g>
<!-- Node1&#45;&gt;Node7 -->
<g id="edge10_Node000001_Node000007" class="edge">
<title>Node1&#45;&gt;Node7</title>
<g id="a_edge10_Node000001_Node000007"><a xlink:title=" ">
<path fill="none" stroke="#63b8ff" d="M246.19,-320.93C263.4,-325.89 281.89,-331.22 298.46,-336"/>
<polygon fill="#63b8ff" stroke="#63b8ff" points="246.8,-317.46 236.22,-318.06 244.86,-324.19 246.8,-317.46"/>
</a>
</g>
</g>
<!-- Node8 -->
<g id="Node000008" class="node">
<title>Node8</title>
<g id="a_Node000008"><a xlink:href="classApp_1_1Http_1_1Controllers_1_1API_1_1ProfileController.html" target="_top" xlink:title=" ">
<polygon fill="white" stroke="#666666" points="410,-318 293,-318 293,-288 410,-288 410,-318"/>
<text text-anchor="start" x="301" y="-306" font-family="Helvetica,sans-Serif" font-size="10.00">App\Http\Controllers</text>
<text text-anchor="middle" x="351.5" y="-295" font-family="Helvetica,sans-Serif" font-size="10.00">\API\ProfileController</text>
</a>
</g>
</g>
<!-- Node1&#45;&gt;Node8 -->
<g id="edge11_Node000001_Node000008" class="edge">
<title>Node1&#45;&gt;Node8</title>
<g id="a_edge11_Node000001_Node000008"><a xlink:title=" ">
<path fill="none" stroke="#63b8ff" d="M251.61,-303C265.28,-303 279.53,-303 292.81,-303"/>
<polygon fill="#63b8ff" stroke="#63b8ff" points="251.3,-299.5 241.3,-303 251.3,-306.5 251.3,-299.5"/>
</a>
</g>
</g>
<!-- Node9 -->
<g id="Node000009" class="node">
<title>Node9</title>
<g id="a_Node000009"><a xlink:href="classApp_1_1Http_1_1Controllers_1_1API_1_1ServerStatusController.html" target="_top" xlink:title=" ">
<polygon fill="white" stroke="#666666" points="426,-270 277,-270 277,-240 426,-240 426,-270"/>
<text text-anchor="start" x="285" y="-258" font-family="Helvetica,sans-Serif" font-size="10.00">App\Http\Controllers</text>
<text text-anchor="middle" x="351.5" y="-247" font-family="Helvetica,sans-Serif" font-size="10.00">\API\ServerStatusController</text>
</a>
</g>
</g>
<!-- Node1&#45;&gt;Node9 -->
<g id="edge12_Node000001_Node000009" class="edge">
<title>Node1&#45;&gt;Node9</title>
<g id="a_edge12_Node000001_Node000009"><a xlink:title=" ">
<path fill="none" stroke="#63b8ff" d="M246.19,-285.07C263.4,-280.11 281.89,-274.78 298.46,-270"/>
<polygon fill="#63b8ff" stroke="#63b8ff" points="244.86,-281.81 236.22,-287.94 246.8,-288.54 244.86,-281.81"/>
</a>
</g>
</g>
<!-- Node10 -->
<g id="Node000010" class="node">
<title>Node10</title>
<g id="a_Node000010"><a xlink:href="classApp_1_1Http_1_1Controllers_1_1API_1_1UserController.html" target="_top" xlink:title=" ">
<polygon fill="white" stroke="#666666" points="409.5,-222 293.5,-222 293.5,-192 409.5,-192 409.5,-222"/>
<text text-anchor="start" x="301.5" y="-210" font-family="Helvetica,sans-Serif" font-size="10.00">App\Http\Controllers</text>
<text text-anchor="middle" x="351.5" y="-199" font-family="Helvetica,sans-Serif" font-size="10.00">\API\UserController</text>
</a>
</g>
</g>
<!-- Node1&#45;&gt;Node10 -->
<g id="edge13_Node000001_Node000010" class="edge">
<title>Node1&#45;&gt;Node10</title>
<g id="a_edge13_Node000001_Node000010"><a xlink:title=" ">
<path fill="none" stroke="#63b8ff" d="M207.58,-281.03C225.49,-265.31 251.34,-244.6 277,-231 283.29,-227.67 290.12,-224.69 297.01,-222.06"/>
<polygon fill="#63b8ff" stroke="#63b8ff" points="205.06,-278.59 199.94,-287.86 209.72,-283.81 205.06,-278.59"/>
</a>
</g>
</g>
<!-- Node11 -->
<g id="Node000011" class="node">
<title>Node11</title>
<g id="a_Node000011"><a xlink:href="classApp_1_1Http_1_1Controllers_1_1LanguageController.html" target="_top" xlink:title="Controlador para manejar el cambio de idioma en la aplicación.">
<polygon fill="white" stroke="#666666" points="409.5,-174 293.5,-174 293.5,-144 409.5,-144 409.5,-174"/>
<text text-anchor="start" x="301.5" y="-162" font-family="Helvetica,sans-Serif" font-size="10.00">App\Http\Controllers</text>
<text text-anchor="middle" x="351.5" y="-151" font-family="Helvetica,sans-Serif" font-size="10.00">\LanguageController</text>
</a>
</g>
</g>
<!-- Node1&#45;&gt;Node11 -->
<g id="edge14_Node000001_Node000011" class="edge">
<title>Node1&#45;&gt;Node11</title>
<g id="a_edge14_Node000001_Node000011"><a xlink:title=" ">
<path fill="none" stroke="#63b8ff" d="M196.78,-278.9C212.31,-251.83 240.95,-208.39 277,-183 282.05,-179.44 287.66,-176.39 293.46,-173.78"/>
<polygon fill="#63b8ff" stroke="#63b8ff" points="193.67,-277.29 191.84,-287.73 199.78,-280.71 193.67,-277.29"/>
</a>
</g>
</g>
<!-- Node12 -->
<g id="Node000012" class="node">
<title>Node12</title>
<g id="a_Node000012"><a xlink:href="classApp_1_1Http_1_1Controllers_1_1MovieController.html" target="_top" xlink:title="Controlador para manejar las vistas relacionadas con películas.">
<polygon fill="white" stroke="#666666" points="409.5,-126 293.5,-126 293.5,-96 409.5,-96 409.5,-126"/>
<text text-anchor="start" x="301.5" y="-114" font-family="Helvetica,sans-Serif" font-size="10.00">App\Http\Controllers</text>
<text text-anchor="middle" x="351.5" y="-103" font-family="Helvetica,sans-Serif" font-size="10.00">\MovieController</text>
</a>
</g>
</g>
<!-- Node1&#45;&gt;Node12 -->
<g id="edge15_Node000001_Node000012" class="edge">
<title>Node1&#45;&gt;Node12</title>
<g id="a_edge15_Node000001_Node000012"><a xlink:title=" ">
<path fill="none" stroke="#63b8ff" d="M191.45,-277.61C203.49,-240.91 230.68,-173.26 277,-135 281.86,-130.98 287.42,-127.63 293.25,-124.84"/>
<polygon fill="#63b8ff" stroke="#63b8ff" points="187.99,-276.92 188.32,-287.51 194.67,-279.03 187.99,-276.92"/>
</a>
</g>
</g>
<!-- Node13 -->
<g id="Node000013" class="node">
<title>Node13</title>
<g id="a_Node000013"><a xlink:href="classApp_1_1Http_1_1Controllers_1_1SimpleEndpointController.html" target="_top" xlink:title="Controlador para mostrar los endpoints disponibles en la aplicación.">
<polygon fill="white" stroke="#666666" points="423.5,-78 279.5,-78 279.5,-48 423.5,-48 423.5,-78"/>
<text text-anchor="start" x="287.5" y="-66" font-family="Helvetica,sans-Serif" font-size="10.00">App\Http\Controllers</text>
<text text-anchor="middle" x="351.5" y="-55" font-family="Helvetica,sans-Serif" font-size="10.00">\SimpleEndpointController</text>
</a>
</g>
</g>
<!-- Node1&#45;&gt;Node13 -->
<g id="edge16_Node000001_Node000013" class="edge">
<title>Node1&#45;&gt;Node13</title>
<g id="a_edge16_Node000001_Node000013"><a xlink:title=" ">
<path fill="none" stroke="#63b8ff" d="M187.89,-277.98C196.16,-233.25 219.62,-139.39 277,-87 280.77,-83.56 285.04,-80.61 289.57,-78.09"/>
<polygon fill="#63b8ff" stroke="#63b8ff" points="184.42,-277.54 186.15,-287.99 191.31,-278.74 184.42,-277.54"/>
</a>
</g>
</g>
<!-- Node14 -->
<g id="Node000014" class="node">
<title>Node14</title>
<g id="a_Node000014"><a xlink:href="classApp_1_1Http_1_1Controllers_1_1WelcomeController.html" target="_top" xlink:title="Controlador que gestiona la página principal de bienvenida.">
<polygon fill="white" stroke="#666666" points="409.5,-30 293.5,-30 293.5,0 409.5,0 409.5,-30"/>
<text text-anchor="start" x="301.5" y="-18" font-family="Helvetica,sans-Serif" font-size="10.00">App\Http\Controllers</text>
<text text-anchor="middle" x="351.5" y="-7" font-family="Helvetica,sans-Serif" font-size="10.00">\WelcomeController</text>
</a>
</g>
</g>
<!-- Node1&#45;&gt;Node14 -->
<g id="edge17_Node000001_Node000014" class="edge">
<title>Node1&#45;&gt;Node14</title>
<g id="a_edge17_Node000001_Node000014"><a xlink:title=" ">
<path fill="none" stroke="#63b8ff" d="M185.67,-277.68C190.46,-225.59 208.7,-105.74 277,-39 281.7,-34.4 287.3,-30.69 293.27,-27.68"/>
<polygon fill="#63b8ff" stroke="#63b8ff" points="182.17,-277.47 184.84,-287.72 189.15,-278.04 182.17,-277.47"/>
</a>
</g>
</g>
</g>
</svg>
