<?xml version="1.0" encoding="UTF-8" standalone="no"?>
<!DOCTYPE svg PUBLIC "-//W3C//DTD SVG 1.1//EN"
 "http://www.w3.org/Graphics/SVG/1.1/DTD/svg11.dtd">
<!-- Generated by graphviz version 2.43.0 (0)
 -->
<!-- Title: Gráfico de jerarquía de clases Pages: 1 -->
<svg width="434pt" height="710pt"
 viewBox="0.00 0.00 434.00 710.00" xmlns="http://www.w3.org/2000/svg" xmlns:xlink="http://www.w3.org/1999/xlink">
<g id="graph0" class="graph" transform="scale(1 1) rotate(0) translate(4 706)">
<title>Gráfico de jerarquía de clases</title>
<!-- Node0 -->
<g id="Node000000" class="node">
<title>Node0</title>
<g id="a_Node000000"><a xlink:title=" ">
<polygon fill="#e0e0e0" stroke="#999999" points="89,-360.5 0,-360.5 0,-341.5 89,-341.5 89,-360.5"/>
<text text-anchor="middle" x="44.5" y="-348.5" font-family="Helvetica,sans-Serif" font-size="10.00">BaseController</text>
</a>
</g>
</g>
<!-- Node1 -->
<g id="Node000001" class="node">
<title>Node1</title>
<g id="a_Node000001"><a xlink:href="classApp_1_1Http_1_1Controllers_1_1Controller.html" target="_top" xlink:title=" ">
<polygon fill="white" stroke="#666666" points="241,-366 125,-366 125,-336 241,-336 241,-366"/>
<text text-anchor="start" x="133" y="-354" font-family="Helvetica,sans-Serif" font-size="10.00">App\Http\Controllers</text>
<text text-anchor="middle" x="183" y="-343" font-family="Helvetica,sans-Serif" font-size="10.00">\Controller</text>
</a>
</g>
</g>
<!-- Node0&#45;&gt;Node1 -->
<g id="edge3_Node000000_Node000001" class="edge">
<title>Node0&#45;&gt;Node1</title>
<g id="a_edge3_Node000000_Node000001"><a xlink:title=" ">
<path fill="none" stroke="#63b8ff" d="M99.17,-351C107.62,-351 116.37,-351 124.89,-351"/>
<polygon fill="#63b8ff" stroke="#63b8ff" points="99.06,-347.5 89.06,-351 99.06,-354.5 99.06,-347.5"/>
</a>
</g>
</g>
<!-- Node2 -->
<g id="Node000002" class="node">
<title>Node2</title>
<g id="a_Node000002"><a xlink:href="classApp_1_1Http_1_1Controllers_1_1API_1_1ApiInfoController.html" target="_top" xlink:title="Controlador para obtener información sobre los endpoints de la API.">
<polygon fill="white" stroke="#666666" points="412,-702 291,-702 291,-672 412,-672 412,-702"/>
<text text-anchor="start" x="299" y="-690" font-family="Helvetica,sans-Serif" font-size="10.00">App\Http\Controllers</text>
<text text-anchor="middle" x="351.5" y="-679" font-family="Helvetica,sans-Serif" font-size="10.00">\API\ApiInfoController</text>
</a>
</g>
</g>
<!-- Node1&#45;&gt;Node2 -->
<g id="edge4_Node000001_Node000002" class="edge">
<title>Node1&#45;&gt;Node2</title>
<g id="a_edge4_Node000001_Node000002"><a xlink:title=" ">
<path fill="none" stroke="#63b8ff" d="M184.04,-376.3C185.54,-434.95 197.51,-581.42 277,-663 281.03,-667.13 285.78,-670.56 290.89,-673.39"/>
<polygon fill="#63b8ff" stroke="#63b8ff" points="187.54,-376.03 183.87,-366.09 180.54,-376.15 187.54,-376.03"/>
</a>
</g>
</g>
<!-- Node3 -->
<g id="Node000003" class="node">
<title>Node3</title>
<g id="a_Node000003"><a xlink:href="classApp_1_1Http_1_1Controllers_1_1API_1_1AuthController.html" target="_top" xlink:title=" ">
<polygon fill="white" stroke="#666666" points="409.5,-654 293.5,-654 293.5,-624 409.5,-624 409.5,-654"/>
<text text-anchor="start" x="301.5" y="-642" font-family="Helvetica,sans-Serif" font-size="10.00">App\Http\Controllers</text>
<text text-anchor="middle" x="351.5" y="-631" font-family="Helvetica,sans-Serif" font-size="10.00">\API\AuthController</text>
</a>
</g>
</g>
<!-- Node1&#45;&gt;Node3 -->
<g id="edge5_Node000001_Node000003" class="edge">
<title>Node1&#45;&gt;Node3</title>
<g id="a_edge5_Node000001_Node000003"><a xlink:title=" ">
<path fill="none" stroke="#63b8ff" d="M185.67,-376.32C190.46,-428.41 208.7,-548.26 277,-615 281.7,-619.6 287.3,-623.31 293.27,-626.32"/>
<polygon fill="#63b8ff" stroke="#63b8ff" points="189.15,-375.96 184.84,-366.28 182.17,-376.53 189.15,-375.96"/>
</a>
</g>
</g>
<!-- Node4 -->
<g id="Node000004" class="node">
<title>Node4</title>
<g id="a_Node000004"><a xlink:href="classApp_1_1Http_1_1Controllers_1_1API_1_1CinemaController.html" target="_top" xlink:title="Controlador para gestionar operaciones relacionadas con cines.">
<polygon fill="white" stroke="#666666" points="413.5,-606 289.5,-606 289.5,-576 413.5,-576 413.5,-606"/>
<text text-anchor="start" x="297.5" y="-594" font-family="Helvetica,sans-Serif" font-size="10.00">App\Http\Controllers</text>
<text text-anchor="middle" x="351.5" y="-583" font-family="Helvetica,sans-Serif" font-size="10.00">\API\CinemaController</text>
</a>
</g>
</g>
<!-- Node1&#45;&gt;Node4 -->
<g id="edge6_Node000001_Node000004" class="edge">
<title>Node1&#45;&gt;Node4</title>
<g id="a_edge6_Node000001_Node000004"><a xlink:title=" ">
<path fill="none" stroke="#63b8ff" d="M187.89,-376.02C196.16,-420.75 219.62,-514.61 277,-567 280.77,-570.44 285.04,-573.39 289.57,-575.91"/>
<polygon fill="#63b8ff" stroke="#63b8ff" points="191.31,-375.26 186.15,-366.01 184.42,-376.46 191.31,-375.26"/>
</a>
</g>
</g>
<!-- Node5 -->
<g id="Node000005" class="node">
<title>Node5</title>
<g id="a_Node000005"><a xlink:href="classApp_1_1Http_1_1Controllers_1_1API_1_1FunctionController.html" target="_top" xlink:title=" ">
<polygon fill="white" stroke="#666666" points="415.5,-558 287.5,-558 287.5,-528 415.5,-528 415.5,-558"/>
<text text-anchor="start" x="295.5" y="-546" font-family="Helvetica,sans-Serif" font-size="10.00">App\Http\Controllers</text>
<text text-anchor="middle" x="351.5" y="-535" font-family="Helvetica,sans-Serif" font-size="10.00">\API\FunctionController</text>
</a>
</g>
</g>
<!-- Node1&#45;&gt;Node5 -->
<g id="edge7_Node000001_Node000005" class="edge">
<title>Node1&#45;&gt;Node5</title>
<g id="a_edge7_Node000001_Node000005"><a xlink:title=" ">
<path fill="none" stroke="#63b8ff" d="M191.45,-376.39C203.49,-413.09 230.68,-480.74 277,-519 281.14,-522.42 285.78,-525.36 290.66,-527.88"/>
<polygon fill="#63b8ff" stroke="#63b8ff" points="194.67,-374.97 188.32,-366.49 187.99,-377.08 194.67,-374.97"/>
</a>
</g>
</g>
<!-- Node6 -->
<g id="Node000006" class="node">
<title>Node6</title>
<g id="a_Node000006"><a xlink:href="classApp_1_1Http_1_1Controllers_1_1API_1_1GenreController.html" target="_top" xlink:title=" ">
<polygon fill="white" stroke="#666666" points="409.5,-510 293.5,-510 293.5,-480 409.5,-480 409.5,-510"/>
<text text-anchor="start" x="301.5" y="-498" font-family="Helvetica,sans-Serif" font-size="10.00">App\Http\Controllers</text>
<text text-anchor="middle" x="351.5" y="-487" font-family="Helvetica,sans-Serif" font-size="10.00">\API\GenreController</text>
</a>
</g>
</g>
<!-- Node1&#45;&gt;Node6 -->
<g id="edge8_Node000001_Node000006" class="edge">
<title>Node1&#45;&gt;Node6</title>
<g id="a_edge8_Node000001_Node000006"><a xlink:title=" ">
<path fill="none" stroke="#63b8ff" d="M196.78,-375.1C212.31,-402.17 240.95,-445.61 277,-471 282.05,-474.56 287.66,-477.61 293.46,-480.22"/>
<polygon fill="#63b8ff" stroke="#63b8ff" points="199.78,-373.29 191.84,-366.27 193.67,-376.71 199.78,-373.29"/>
</a>
</g>
</g>
<!-- Node7 -->
<g id="Node000007" class="node">
<title>Node7</title>
<g id="a_Node000007"><a xlink:href="classApp_1_1Http_1_1Controllers_1_1API_1_1ImageController.html" target="_top" xlink:title=" ">
<polygon fill="white" stroke="#666666" points="410,-462 293,-462 293,-432 410,-432 410,-462"/>
<text text-anchor="start" x="301" y="-450" font-family="Helvetica,sans-Serif" font-size="10.00">App\Http\Controllers</text>
<text text-anchor="middle" x="351.5" y="-439" font-family="Helvetica,sans-Serif" font-size="10.00">\API\ImageController</text>
</a>
</g>
</g>
<!-- Node1&#45;&gt;Node7 -->
<g id="edge9_Node000001_Node000007" class="edge">
<title>Node1&#45;&gt;Node7</title>
<g id="a_edge9_Node000001_Node000007"><a xlink:title=" ">
<path fill="none" stroke="#63b8ff" d="M207.58,-372.97C225.49,-388.69 251.34,-409.4 277,-423 283.29,-426.33 290.12,-429.31 297.01,-431.94"/>
<polygon fill="#63b8ff" stroke="#63b8ff" points="209.72,-370.19 199.94,-366.14 205.06,-375.41 209.72,-370.19"/>
</a>
</g>
</g>
<!-- Node8 -->
<g id="Node000008" class="node">
<title>Node8</title>
<g id="a_Node000008"><a xlink:href="classApp_1_1Http_1_1Controllers_1_1API_1_1MovieController.html" target="_top" xlink:title="Class MovieController.">
<polygon fill="white" stroke="#666666" points="409.5,-414 293.5,-414 293.5,-384 409.5,-384 409.5,-414"/>
<text text-anchor="start" x="301.5" y="-402" font-family="Helvetica,sans-Serif" font-size="10.00">App\Http\Controllers</text>
<text text-anchor="middle" x="351.5" y="-391" font-family="Helvetica,sans-Serif" font-size="10.00">\API\MovieController</text>
</a>
</g>
</g>
<!-- Node1&#45;&gt;Node8 -->
<g id="edge10_Node000001_Node000008" class="edge">
<title>Node1&#45;&gt;Node8</title>
<g id="a_edge10_Node000001_Node000008"><a xlink:title=" ">
<path fill="none" stroke="#63b8ff" d="M246.19,-368.93C263.4,-373.89 281.89,-379.22 298.46,-384"/>
<polygon fill="#63b8ff" stroke="#63b8ff" points="246.8,-365.46 236.22,-366.06 244.86,-372.19 246.8,-365.46"/>
</a>
</g>
</g>
<!-- Node9 -->
<g id="Node000009" class="node">
<title>Node9</title>
<g id="a_Node000009"><a xlink:href="classApp_1_1Http_1_1Controllers_1_1API_1_1ProfileController.html" target="_top" xlink:title=" ">
<polygon fill="white" stroke="#666666" points="410,-366 293,-366 293,-336 410,-336 410,-366"/>
<text text-anchor="start" x="301" y="-354" font-family="Helvetica,sans-Serif" font-size="10.00">App\Http\Controllers</text>
<text text-anchor="middle" x="351.5" y="-343" font-family="Helvetica,sans-Serif" font-size="10.00">\API\ProfileController</text>
</a>
</g>
</g>
<!-- Node1&#45;&gt;Node9 -->
<g id="edge11_Node000001_Node000009" class="edge">
<title>Node1&#45;&gt;Node9</title>
<g id="a_edge11_Node000001_Node000009"><a xlink:title=" ">
<path fill="none" stroke="#63b8ff" d="M251.61,-351C265.28,-351 279.53,-351 292.81,-351"/>
<polygon fill="#63b8ff" stroke="#63b8ff" points="251.3,-347.5 241.3,-351 251.3,-354.5 251.3,-347.5"/>
</a>
</g>
</g>
<!-- Node10 -->
<g id="Node000010" class="node">
<title>Node10</title>
<g id="a_Node000010"><a xlink:href="classApp_1_1Http_1_1Controllers_1_1API_1_1ServerStatusController.html" target="_top" xlink:title=" ">
<polygon fill="white" stroke="#666666" points="426,-318 277,-318 277,-288 426,-288 426,-318"/>
<text text-anchor="start" x="285" y="-306" font-family="Helvetica,sans-Serif" font-size="10.00">App\Http\Controllers</text>
<text text-anchor="middle" x="351.5" y="-295" font-family="Helvetica,sans-Serif" font-size="10.00">\API\ServerStatusController</text>
</a>
</g>
</g>
<!-- Node1&#45;&gt;Node10 -->
<g id="edge12_Node000001_Node000010" class="edge">
<title>Node1&#45;&gt;Node10</title>
<g id="a_edge12_Node000001_Node000010"><a xlink:title=" ">
<path fill="none" stroke="#63b8ff" d="M246.19,-333.07C263.4,-328.11 281.89,-322.78 298.46,-318"/>
<polygon fill="#63b8ff" stroke="#63b8ff" points="244.86,-329.81 236.22,-335.94 246.8,-336.54 244.86,-329.81"/>
</a>
</g>
</g>
<!-- Node11 -->
<g id="Node000011" class="node">
<title>Node11</title>
<g id="a_Node000011"><a xlink:href="classApp_1_1Http_1_1Controllers_1_1API_1_1UserController.html" target="_top" xlink:title=" ">
<polygon fill="white" stroke="#666666" points="409.5,-270 293.5,-270 293.5,-240 409.5,-240 409.5,-270"/>
<text text-anchor="start" x="301.5" y="-258" font-family="Helvetica,sans-Serif" font-size="10.00">App\Http\Controllers</text>
<text text-anchor="middle" x="351.5" y="-247" font-family="Helvetica,sans-Serif" font-size="10.00">\API\UserController</text>
</a>
</g>
</g>
<!-- Node1&#45;&gt;Node11 -->
<g id="edge13_Node000001_Node000011" class="edge">
<title>Node1&#45;&gt;Node11</title>
<g id="a_edge13_Node000001_Node000011"><a xlink:title=" ">
<path fill="none" stroke="#63b8ff" d="M207.58,-329.03C225.49,-313.31 251.34,-292.6 277,-279 283.29,-275.67 290.12,-272.69 297.01,-270.06"/>
<polygon fill="#63b8ff" stroke="#63b8ff" points="205.06,-326.59 199.94,-335.86 209.72,-331.81 205.06,-326.59"/>
</a>
</g>
</g>
<!-- Node12 -->
<g id="Node000012" class="node">
<title>Node12</title>
<g id="a_Node000012"><a xlink:href="classApp_1_1Http_1_1Controllers_1_1Admin_1_1AdminController.html" target="_top" xlink:title=" ">
<polygon fill="white" stroke="#666666" points="418.5,-222 284.5,-222 284.5,-192 418.5,-192 418.5,-222"/>
<text text-anchor="start" x="292.5" y="-210" font-family="Helvetica,sans-Serif" font-size="10.00">App\Http\Controllers</text>
<text text-anchor="middle" x="351.5" y="-199" font-family="Helvetica,sans-Serif" font-size="10.00">\Admin\AdminController</text>
</a>
</g>
</g>
<!-- Node1&#45;&gt;Node12 -->
<g id="edge14_Node000001_Node000012" class="edge">
<title>Node1&#45;&gt;Node12</title>
<g id="a_edge14_Node000001_Node000012"><a xlink:title=" ">
<path fill="none" stroke="#63b8ff" d="M196.78,-326.9C212.31,-299.83 240.95,-256.39 277,-231 281.83,-227.6 287.17,-224.66 292.7,-222.12"/>
<polygon fill="#63b8ff" stroke="#63b8ff" points="193.67,-325.29 191.84,-335.73 199.78,-328.71 193.67,-325.29"/>
</a>
</g>
</g>
<!-- Node13 -->
<g id="Node000013" class="node">
<title>Node13</title>
<g id="a_Node000013"><a xlink:href="classApp_1_1Http_1_1Controllers_1_1LanguageController.html" target="_top" xlink:title="Controlador para manejar el cambio de idioma en la aplicación.">
<polygon fill="white" stroke="#666666" points="409.5,-174 293.5,-174 293.5,-144 409.5,-144 409.5,-174"/>
<text text-anchor="start" x="301.5" y="-162" font-family="Helvetica,sans-Serif" font-size="10.00">App\Http\Controllers</text>
<text text-anchor="middle" x="351.5" y="-151" font-family="Helvetica,sans-Serif" font-size="10.00">\LanguageController</text>
</a>
</g>
</g>
<!-- Node1&#45;&gt;Node13 -->
<g id="edge15_Node000001_Node000013" class="edge">
<title>Node1&#45;&gt;Node13</title>
<g id="a_edge15_Node000001_Node000013"><a xlink:title=" ">
<path fill="none" stroke="#63b8ff" d="M191.45,-325.61C203.49,-288.91 230.68,-221.26 277,-183 281.86,-178.98 287.42,-175.63 293.25,-172.84"/>
<polygon fill="#63b8ff" stroke="#63b8ff" points="187.99,-324.92 188.32,-335.51 194.67,-327.03 187.99,-324.92"/>
</a>
</g>
</g>
<!-- Node14 -->
<g id="Node000014" class="node">
<title>Node14</title>
<g id="a_Node000014"><a xlink:href="classApp_1_1Http_1_1Controllers_1_1MovieController.html" target="_top" xlink:title="Controlador para manejar las vistas relacionadas con películas.">
<polygon fill="white" stroke="#666666" points="409.5,-126 293.5,-126 293.5,-96 409.5,-96 409.5,-126"/>
<text text-anchor="start" x="301.5" y="-114" font-family="Helvetica,sans-Serif" font-size="10.00">App\Http\Controllers</text>
<text text-anchor="middle" x="351.5" y="-103" font-family="Helvetica,sans-Serif" font-size="10.00">\MovieController</text>
</a>
</g>
</g>
<!-- Node1&#45;&gt;Node14 -->
<g id="edge16_Node000001_Node000014" class="edge">
<title>Node1&#45;&gt;Node14</title>
<g id="a_edge16_Node000001_Node000014"><a xlink:title=" ">
<path fill="none" stroke="#63b8ff" d="M187.89,-325.98C196.16,-281.25 219.62,-187.39 277,-135 281.76,-130.66 287.32,-127.1 293.21,-124.18"/>
<polygon fill="#63b8ff" stroke="#63b8ff" points="184.42,-325.54 186.15,-335.99 191.31,-326.74 184.42,-325.54"/>
</a>
</g>
</g>
<!-- Node15 -->
<g id="Node000015" class="node">
<title>Node15</title>
<g id="a_Node000015"><a xlink:href="classApp_1_1Http_1_1Controllers_1_1SimpleEndpointController.html" target="_top" xlink:title="Controlador para mostrar los endpoints disponibles en la aplicación.">
<polygon fill="white" stroke="#666666" points="423.5,-78 279.5,-78 279.5,-48 423.5,-48 423.5,-78"/>
<text text-anchor="start" x="287.5" y="-66" font-family="Helvetica,sans-Serif" font-size="10.00">App\Http\Controllers</text>
<text text-anchor="middle" x="351.5" y="-55" font-family="Helvetica,sans-Serif" font-size="10.00">\SimpleEndpointController</text>
</a>
</g>
</g>
<!-- Node1&#45;&gt;Node15 -->
<g id="edge17_Node000001_Node000015" class="edge">
<title>Node1&#45;&gt;Node15</title>
<g id="a_edge17_Node000001_Node000015"><a xlink:title=" ">
<path fill="none" stroke="#63b8ff" d="M185.67,-325.68C190.46,-273.59 208.7,-153.74 277,-87 280.55,-83.53 284.61,-80.56 288.96,-78.02"/>
<polygon fill="#63b8ff" stroke="#63b8ff" points="182.17,-325.47 184.84,-335.72 189.15,-326.04 182.17,-325.47"/>
</a>
</g>
</g>
<!-- Node16 -->
<g id="Node000016" class="node">
<title>Node16</title>
<g id="a_Node000016"><a xlink:href="classApp_1_1Http_1_1Controllers_1_1WelcomeController.html" target="_top" xlink:title="Controlador que gestiona la página principal de bienvenida.">
<polygon fill="white" stroke="#666666" points="409.5,-30 293.5,-30 293.5,0 409.5,0 409.5,-30"/>
<text text-anchor="start" x="301.5" y="-18" font-family="Helvetica,sans-Serif" font-size="10.00">App\Http\Controllers</text>
<text text-anchor="middle" x="351.5" y="-7" font-family="Helvetica,sans-Serif" font-size="10.00">\WelcomeController</text>
</a>
</g>
</g>
<!-- Node1&#45;&gt;Node16 -->
<g id="edge18_Node000001_Node000016" class="edge">
<title>Node1&#45;&gt;Node16</title>
<g id="a_edge18_Node000001_Node000016"><a xlink:title=" ">
<path fill="none" stroke="#63b8ff" d="M184.04,-325.7C185.54,-267.05 197.51,-120.58 277,-39 281.68,-34.19 287.34,-30.35 293.42,-27.27"/>
<polygon fill="#63b8ff" stroke="#63b8ff" points="180.54,-325.85 183.87,-335.91 187.54,-325.97 180.54,-325.85"/>
</a>
</g>
</g>
</g>
</svg>
