<?xml version="1.0" encoding="UTF-8" standalone="no"?>
<!DOCTYPE svg PUBLIC "-//W3C//DTD SVG 1.1//EN"
 "http://www.w3.org/Graphics/SVG/1.1/DTD/svg11.dtd">
<!-- Generated by graphviz version 2.43.0 (0)
 -->
<!-- Title: Gráfico de jerarquía de clases Pages: 1 -->
<svg width="450pt" height="1142pt"
 viewBox="0.00 0.00 450.00 1142.00" xmlns="http://www.w3.org/2000/svg" xmlns:xlink="http://www.w3.org/1999/xlink">
<g id="graph0" class="graph" transform="scale(1 1) rotate(0) translate(4 1138)">
<title>Gráfico de jerarquía de clases</title>
<!-- Node0 -->
<g id="Node000000" class="node">
<title>Node0</title>
<g id="a_Node000000"><a xlink:title=" ">
<polygon fill="#e0e0e0" stroke="#999999" points="89,-576.5 0,-576.5 0,-557.5 89,-557.5 89,-576.5"/>
<text text-anchor="middle" x="44.5" y="-564.5" font-family="Helvetica,sans-Serif" font-size="10.00">BaseController</text>
</a>
</g>
</g>
<!-- Node1 -->
<g id="Node000001" class="node">
<title>Node1</title>
<g id="a_Node000001"><a xlink:href="classApp_1_1Http_1_1Controllers_1_1Controller.html" target="_top" xlink:title=" ">
<polygon fill="white" stroke="#666666" points="241,-582 125,-582 125,-552 241,-552 241,-582"/>
<text text-anchor="start" x="133" y="-570" font-family="Helvetica,sans-Serif" font-size="10.00">App\Http\Controllers</text>
<text text-anchor="middle" x="183" y="-559" font-family="Helvetica,sans-Serif" font-size="10.00">\Controller</text>
</a>
</g>
</g>
<!-- Node0&#45;&gt;Node1 -->
<g id="edge3_Node000000_Node000001" class="edge">
<title>Node0&#45;&gt;Node1</title>
<g id="a_edge3_Node000000_Node000001"><a xlink:title=" ">
<path fill="none" stroke="#63b8ff" d="M99.17,-567C107.62,-567 116.37,-567 124.89,-567"/>
<polygon fill="#63b8ff" stroke="#63b8ff" points="99.06,-563.5 89.06,-567 99.06,-570.5 99.06,-563.5"/>
</a>
</g>
</g>
<!-- Node2 -->
<g id="Node000002" class="node">
<title>Node2</title>
<g id="a_Node000002"><a xlink:href="classApp_1_1Http_1_1Controllers_1_1API_1_1ActorController.html" target="_top" xlink:title=" ">
<polygon fill="white" stroke="#666666" points="417.5,-1134 301.5,-1134 301.5,-1104 417.5,-1104 417.5,-1134"/>
<text text-anchor="start" x="309.5" y="-1122" font-family="Helvetica,sans-Serif" font-size="10.00">App\Http\Controllers</text>
<text text-anchor="middle" x="359.5" y="-1111" font-family="Helvetica,sans-Serif" font-size="10.00">\API\ActorController</text>
</a>
</g>
</g>
<!-- Node1&#45;&gt;Node2 -->
<g id="edge4_Node000001_Node000002" class="edge">
<title>Node1&#45;&gt;Node2</title>
<g id="a_edge4_Node000001_Node000002"><a xlink:title=" ">
<path fill="none" stroke="#63b8ff" d="M185.02,-592.35C189.34,-687.13 209.13,-1019.07 277,-1095 283.49,-1102.26 292.05,-1107.37 301.18,-1110.96"/>
<polygon fill="#63b8ff" stroke="#63b8ff" points="188.51,-592.08 184.58,-582.24 181.52,-592.38 188.51,-592.08"/>
</a>
</g>
</g>
<!-- Node3 -->
<g id="Node000003" class="node">
<title>Node3</title>
<g id="a_Node000003"><a xlink:href="classApp_1_1Http_1_1Controllers_1_1API_1_1ApiInfoController.html" target="_top" xlink:title="Controlador para obtener información sobre los endpoints de la API.">
<polygon fill="white" stroke="#666666" points="420,-1086 299,-1086 299,-1056 420,-1056 420,-1086"/>
<text text-anchor="start" x="307" y="-1074" font-family="Helvetica,sans-Serif" font-size="10.00">App\Http\Controllers</text>
<text text-anchor="middle" x="359.5" y="-1063" font-family="Helvetica,sans-Serif" font-size="10.00">\API\ApiInfoController</text>
</a>
</g>
</g>
<!-- Node1&#45;&gt;Node3 -->
<g id="edge5_Node000001_Node000003" class="edge">
<title>Node1&#45;&gt;Node3</title>
<g id="a_edge5_Node000001_Node000003"><a xlink:title=" ">
<path fill="none" stroke="#63b8ff" d="M185.51,-592.34C191.31,-681.48 215.06,-978.87 277,-1047 282.95,-1053.55 290.59,-1058.35 298.8,-1061.85"/>
<polygon fill="#63b8ff" stroke="#63b8ff" points="189,-592.07 184.87,-582.31 182.01,-592.51 189,-592.07"/>
</a>
</g>
</g>
<!-- Node4 -->
<g id="Node000004" class="node">
<title>Node4</title>
<g id="a_Node000004"><a xlink:href="classApp_1_1Http_1_1Controllers_1_1API_1_1AuthController.html" target="_top" xlink:title=" ">
<polygon fill="white" stroke="#666666" points="417.5,-1038 301.5,-1038 301.5,-1008 417.5,-1008 417.5,-1038"/>
<text text-anchor="start" x="309.5" y="-1026" font-family="Helvetica,sans-Serif" font-size="10.00">App\Http\Controllers</text>
<text text-anchor="middle" x="359.5" y="-1015" font-family="Helvetica,sans-Serif" font-size="10.00">\API\AuthController</text>
</a>
</g>
</g>
<!-- Node1&#45;&gt;Node4 -->
<g id="edge6_Node000001_Node000004" class="edge">
<title>Node1&#45;&gt;Node4</title>
<g id="a_edge6_Node000001_Node000004"><a xlink:title=" ">
<path fill="none" stroke="#63b8ff" d="M186.09,-592.21C193.47,-675.29 220.93,-938.6 277,-999 283.62,-1006.13 292.25,-1011.19 301.4,-1014.75"/>
<polygon fill="#63b8ff" stroke="#63b8ff" points="189.57,-591.81 185.22,-582.15 182.59,-592.41 189.57,-591.81"/>
</a>
</g>
</g>
<!-- Node5 -->
<g id="Node000005" class="node">
<title>Node5</title>
<g id="a_Node000005"><a xlink:href="classApp_1_1Http_1_1Controllers_1_1API_1_1BookingController.html" target="_top" xlink:title=" ">
<polygon fill="white" stroke="#666666" points="422.5,-990 296.5,-990 296.5,-960 422.5,-960 422.5,-990"/>
<text text-anchor="start" x="304.5" y="-978" font-family="Helvetica,sans-Serif" font-size="10.00">App\Http\Controllers</text>
<text text-anchor="middle" x="359.5" y="-967" font-family="Helvetica,sans-Serif" font-size="10.00">\API\BookingController</text>
</a>
</g>
</g>
<!-- Node1&#45;&gt;Node5 -->
<g id="edge7_Node000001_Node000005" class="edge">
<title>Node1&#45;&gt;Node5</title>
<g id="a_edge7_Node000001_Node000005"><a xlink:title=" ">
<path fill="none" stroke="#63b8ff" d="M186.84,-592.39C195.96,-669.41 226.84,-898.33 277,-951 282.39,-956.66 289.04,-961.01 296.2,-964.34"/>
<polygon fill="#63b8ff" stroke="#63b8ff" points="190.29,-591.7 185.66,-582.17 183.33,-592.5 190.29,-591.7"/>
</a>
</g>
</g>
<!-- Node6 -->
<g id="Node000006" class="node">
<title>Node6</title>
<g id="a_Node000006"><a xlink:href="classApp_1_1Http_1_1Controllers_1_1API_1_1CinemaController.html" target="_top" xlink:title="Controlador para gestionar operaciones relacionadas con cines.">
<polygon fill="white" stroke="#666666" points="421.5,-942 297.5,-942 297.5,-912 421.5,-912 421.5,-942"/>
<text text-anchor="start" x="305.5" y="-930" font-family="Helvetica,sans-Serif" font-size="10.00">App\Http\Controllers</text>
<text text-anchor="middle" x="359.5" y="-919" font-family="Helvetica,sans-Serif" font-size="10.00">\API\CinemaController</text>
</a>
</g>
</g>
<!-- Node1&#45;&gt;Node6 -->
<g id="edge8_Node000001_Node000006" class="edge">
<title>Node1&#45;&gt;Node6</title>
<g id="a_edge8_Node000001_Node000006"><a xlink:title=" ">
<path fill="none" stroke="#63b8ff" d="M183.23,-592.28C182.78,-654.25 190.51,-815.08 277,-903 282.69,-908.78 289.7,-913.19 297.19,-916.54"/>
<polygon fill="#63b8ff" stroke="#63b8ff" points="186.73,-592.27 183.39,-582.22 179.73,-592.17 186.73,-592.27"/>
</a>
</g>
</g>
<!-- Node7 -->
<g id="Node000007" class="node">
<title>Node7</title>
<g id="a_Node000007"><a xlink:href="classApp_1_1Http_1_1Controllers_1_1API_1_1DirectorController.html" target="_top" xlink:title=" ">
<polygon fill="white" stroke="#666666" points="422,-894 297,-894 297,-864 422,-864 422,-894"/>
<text text-anchor="start" x="305" y="-882" font-family="Helvetica,sans-Serif" font-size="10.00">App\Http\Controllers</text>
<text text-anchor="middle" x="359.5" y="-871" font-family="Helvetica,sans-Serif" font-size="10.00">\API\DirectorController</text>
</a>
</g>
</g>
<!-- Node1&#45;&gt;Node7 -->
<g id="edge9_Node000001_Node000007" class="edge">
<title>Node1&#45;&gt;Node7</title>
<g id="a_edge9_Node000001_Node000007"><a xlink:title=" ">
<path fill="none" stroke="#63b8ff" d="M184.61,-592.05C187.35,-647.55 201.85,-781.78 277,-855 282.6,-860.46 289.37,-864.68 296.6,-867.95"/>
<polygon fill="#63b8ff" stroke="#63b8ff" points="188.11,-591.89 184.21,-582.04 181.11,-592.17 188.11,-591.89"/>
</a>
</g>
</g>
<!-- Node8 -->
<g id="Node000008" class="node">
<title>Node8</title>
<g id="a_Node000008"><a xlink:href="classApp_1_1Http_1_1Controllers_1_1API_1_1FunctionController.html" target="_top" xlink:title=" ">
<polygon fill="white" stroke="#666666" points="423.5,-846 295.5,-846 295.5,-816 423.5,-816 423.5,-846"/>
<text text-anchor="start" x="303.5" y="-834" font-family="Helvetica,sans-Serif" font-size="10.00">App\Http\Controllers</text>
<text text-anchor="middle" x="359.5" y="-823" font-family="Helvetica,sans-Serif" font-size="10.00">\API\FunctionController</text>
</a>
</g>
</g>
<!-- Node1&#45;&gt;Node8 -->
<g id="edge10_Node000001_Node000008" class="edge">
<title>Node1&#45;&gt;Node8</title>
<g id="a_edge10_Node000001_Node000008"><a xlink:title=" ">
<path fill="none" stroke="#63b8ff" d="M186.51,-592.21C192.72,-640.92 213.25,-748.35 277,-807 282.32,-811.89 288.59,-815.79 295.25,-818.9"/>
<polygon fill="#63b8ff" stroke="#63b8ff" points="189.98,-591.73 185.34,-582.21 183.03,-592.55 189.98,-591.73"/>
</a>
</g>
</g>
<!-- Node9 -->
<g id="Node000009" class="node">
<title>Node9</title>
<g id="a_Node000009"><a xlink:href="classApp_1_1Http_1_1Controllers_1_1API_1_1GenreController.html" target="_top" xlink:title=" ">
<polygon fill="white" stroke="#666666" points="417.5,-798 301.5,-798 301.5,-768 417.5,-768 417.5,-798"/>
<text text-anchor="start" x="309.5" y="-786" font-family="Helvetica,sans-Serif" font-size="10.00">App\Http\Controllers</text>
<text text-anchor="middle" x="359.5" y="-775" font-family="Helvetica,sans-Serif" font-size="10.00">\API\GenreController</text>
</a>
</g>
</g>
<!-- Node1&#45;&gt;Node9 -->
<g id="edge11_Node000001_Node000009" class="edge">
<title>Node1&#45;&gt;Node9</title>
<g id="a_edge11_Node000001_Node000009"><a xlink:title=" ">
<path fill="none" stroke="#63b8ff" d="M189.21,-592C199.07,-632.98 224.35,-714.38 277,-759 284.09,-765.01 292.62,-769.51 301.47,-772.89"/>
<polygon fill="#63b8ff" stroke="#63b8ff" points="192.58,-591 186.93,-582.03 185.75,-592.56 192.58,-591"/>
</a>
</g>
</g>
<!-- Node10 -->
<g id="Node000010" class="node">
<title>Node10</title>
<g id="a_Node000010"><a xlink:href="classApp_1_1Http_1_1Controllers_1_1API_1_1ImageController.html" target="_top" xlink:title=" ">
<polygon fill="white" stroke="#666666" points="418,-750 301,-750 301,-720 418,-720 418,-750"/>
<text text-anchor="start" x="309" y="-738" font-family="Helvetica,sans-Serif" font-size="10.00">App\Http\Controllers</text>
<text text-anchor="middle" x="359.5" y="-727" font-family="Helvetica,sans-Serif" font-size="10.00">\API\ImageController</text>
</a>
</g>
</g>
<!-- Node1&#45;&gt;Node10 -->
<g id="edge12_Node000001_Node000010" class="edge">
<title>Node1&#45;&gt;Node10</title>
<g id="a_edge12_Node000001_Node000010"><a xlink:title=" ">
<path fill="none" stroke="#63b8ff" d="M193.5,-591.73C207.13,-623.94 235.27,-679.81 277,-711 284.09,-716.3 292.33,-720.43 300.8,-723.65"/>
<polygon fill="#63b8ff" stroke="#63b8ff" points="196.61,-590.1 189.59,-582.17 190.13,-592.75 196.61,-590.1"/>
</a>
</g>
</g>
<!-- Node11 -->
<g id="Node000011" class="node">
<title>Node11</title>
<g id="a_Node000011"><a xlink:href="classApp_1_1Http_1_1Controllers_1_1API_1_1MovieController.html" target="_top" xlink:title="Class MovieController.">
<polygon fill="white" stroke="#666666" points="417.5,-702 301.5,-702 301.5,-672 417.5,-672 417.5,-702"/>
<text text-anchor="start" x="309.5" y="-690" font-family="Helvetica,sans-Serif" font-size="10.00">App\Http\Controllers</text>
<text text-anchor="middle" x="359.5" y="-679" font-family="Helvetica,sans-Serif" font-size="10.00">\API\MovieController</text>
</a>
</g>
</g>
<!-- Node1&#45;&gt;Node11 -->
<g id="edge13_Node000001_Node000011" class="edge">
<title>Node1&#45;&gt;Node11</title>
<g id="a_edge13_Node000001_Node000011"><a xlink:title=" ">
<path fill="none" stroke="#63b8ff" d="M200.94,-590.45C217.86,-612.26 245.8,-644.13 277,-663 284.45,-667.5 292.79,-671.2 301.22,-674.24"/>
<polygon fill="#63b8ff" stroke="#63b8ff" points="203.63,-588.21 194.8,-582.35 198.05,-592.44 203.63,-588.21"/>
</a>
</g>
</g>
<!-- Node12 -->
<g id="Node000012" class="node">
<title>Node12</title>
<g id="a_Node000012"><a xlink:href="classApp_1_1Http_1_1Controllers_1_1API_1_1ProfileController.html" target="_top" xlink:title=" ">
<polygon fill="white" stroke="#666666" points="418,-654 301,-654 301,-624 418,-624 418,-654"/>
<text text-anchor="start" x="309" y="-642" font-family="Helvetica,sans-Serif" font-size="10.00">App\Http\Controllers</text>
<text text-anchor="middle" x="359.5" y="-631" font-family="Helvetica,sans-Serif" font-size="10.00">\API\ProfileController</text>
</a>
</g>
</g>
<!-- Node1&#45;&gt;Node12 -->
<g id="edge14_Node000001_Node000012" class="edge">
<title>Node1&#45;&gt;Node12</title>
<g id="a_edge14_Node000001_Node000012"><a xlink:title=" ">
<path fill="none" stroke="#63b8ff" d="M218.91,-587.02C236.05,-596.33 257.22,-607.07 277,-615 285.08,-618.24 293.76,-621.26 302.34,-623.99"/>
<polygon fill="#63b8ff" stroke="#63b8ff" points="220.28,-583.78 209.83,-582.02 216.9,-589.91 220.28,-583.78"/>
</a>
</g>
</g>
<!-- Node13 -->
<g id="Node000013" class="node">
<title>Node13</title>
<g id="a_Node000013"><a xlink:href="classApp_1_1Http_1_1Controllers_1_1API_1_1RoomController.html" target="_top" xlink:title=" ">
<polygon fill="white" stroke="#666666" points="417.5,-606 301.5,-606 301.5,-576 417.5,-576 417.5,-606"/>
<text text-anchor="start" x="309.5" y="-594" font-family="Helvetica,sans-Serif" font-size="10.00">App\Http\Controllers</text>
<text text-anchor="middle" x="359.5" y="-583" font-family="Helvetica,sans-Serif" font-size="10.00">\API\RoomController</text>
</a>
</g>
</g>
<!-- Node1&#45;&gt;Node13 -->
<g id="edge15_Node000001_Node000013" class="edge">
<title>Node1&#45;&gt;Node13</title>
<g id="a_edge15_Node000001_Node000013"><a xlink:title=" ">
<path fill="none" stroke="#63b8ff" d="M251.26,-576.25C267.75,-578.52 285.26,-580.93 301.23,-583.12"/>
<polygon fill="#63b8ff" stroke="#63b8ff" points="251.52,-572.75 241.14,-574.86 250.57,-579.69 251.52,-572.75"/>
</a>
</g>
</g>
<!-- Node14 -->
<g id="Node000014" class="node">
<title>Node14</title>
<g id="a_Node000014"><a xlink:href="classApp_1_1Http_1_1Controllers_1_1API_1_1ServerStatusController.html" target="_top" xlink:title=" ">
<polygon fill="white" stroke="#666666" points="434,-558 285,-558 285,-528 434,-528 434,-558"/>
<text text-anchor="start" x="293" y="-546" font-family="Helvetica,sans-Serif" font-size="10.00">App\Http\Controllers</text>
<text text-anchor="middle" x="359.5" y="-535" font-family="Helvetica,sans-Serif" font-size="10.00">\API\ServerStatusController</text>
</a>
</g>
</g>
<!-- Node1&#45;&gt;Node14 -->
<g id="edge16_Node000001_Node000014" class="edge">
<title>Node1&#45;&gt;Node14</title>
<g id="a_edge16_Node000001_Node000014"><a xlink:title=" ">
<path fill="none" stroke="#63b8ff" d="M251.09,-557.77C262.09,-556.26 273.55,-554.68 284.7,-553.15"/>
<polygon fill="#63b8ff" stroke="#63b8ff" points="250.57,-554.31 241.14,-559.14 251.52,-561.25 250.57,-554.31"/>
</a>
</g>
</g>
<!-- Node15 -->
<g id="Node000015" class="node">
<title>Node15</title>
<g id="a_Node000015"><a xlink:href="classApp_1_1Http_1_1Controllers_1_1API_1_1TicketController.html" target="_top" xlink:title=" ">
<polygon fill="white" stroke="#666666" points="417.5,-510 301.5,-510 301.5,-480 417.5,-480 417.5,-510"/>
<text text-anchor="start" x="309.5" y="-498" font-family="Helvetica,sans-Serif" font-size="10.00">App\Http\Controllers</text>
<text text-anchor="middle" x="359.5" y="-487" font-family="Helvetica,sans-Serif" font-size="10.00">\API\TicketController</text>
</a>
</g>
</g>
<!-- Node1&#45;&gt;Node15 -->
<g id="edge17_Node000001_Node000015" class="edge">
<title>Node1&#45;&gt;Node15</title>
<g id="a_edge17_Node000001_Node000015"><a xlink:title=" ">
<path fill="none" stroke="#63b8ff" d="M218.91,-546.98C236.05,-537.67 257.22,-526.93 277,-519 285.08,-515.76 293.76,-512.74 302.34,-510.01"/>
<polygon fill="#63b8ff" stroke="#63b8ff" points="216.9,-544.09 209.83,-551.98 220.28,-550.22 216.9,-544.09"/>
</a>
</g>
</g>
<!-- Node16 -->
<g id="Node000016" class="node">
<title>Node16</title>
<g id="a_Node000016"><a xlink:href="classApp_1_1Http_1_1Controllers_1_1API_1_1UserController.html" target="_top" xlink:title=" ">
<polygon fill="white" stroke="#666666" points="417.5,-462 301.5,-462 301.5,-432 417.5,-432 417.5,-462"/>
<text text-anchor="start" x="309.5" y="-450" font-family="Helvetica,sans-Serif" font-size="10.00">App\Http\Controllers</text>
<text text-anchor="middle" x="359.5" y="-439" font-family="Helvetica,sans-Serif" font-size="10.00">\API\UserController</text>
</a>
</g>
</g>
<!-- Node1&#45;&gt;Node16 -->
<g id="edge18_Node000001_Node000016" class="edge">
<title>Node1&#45;&gt;Node16</title>
<g id="a_edge18_Node000001_Node000016"><a xlink:title=" ">
<path fill="none" stroke="#63b8ff" d="M200.94,-543.55C217.86,-521.74 245.8,-489.87 277,-471 284.45,-466.5 292.79,-462.8 301.22,-459.76"/>
<polygon fill="#63b8ff" stroke="#63b8ff" points="198.05,-541.56 194.8,-551.65 203.63,-545.79 198.05,-541.56"/>
</a>
</g>
</g>
<!-- Node17 -->
<g id="Node000017" class="node">
<title>Node17</title>
<g id="a_Node000017"><a xlink:href="classApp_1_1Http_1_1Controllers_1_1API_1_1V1_1_1TicketController.html" target="_top" xlink:title=" ">
<polygon fill="white" stroke="#666666" points="425,-414 294,-414 294,-384 425,-384 425,-414"/>
<text text-anchor="start" x="302" y="-402" font-family="Helvetica,sans-Serif" font-size="10.00">App\Http\Controllers</text>
<text text-anchor="middle" x="359.5" y="-391" font-family="Helvetica,sans-Serif" font-size="10.00">\API\V1\TicketController</text>
</a>
</g>
</g>
<!-- Node1&#45;&gt;Node17 -->
<g id="edge19_Node000001_Node000017" class="edge">
<title>Node1&#45;&gt;Node17</title>
<g id="a_edge19_Node000001_Node000017"><a xlink:title=" ">
<path fill="none" stroke="#63b8ff" d="M193.5,-542.27C207.13,-510.06 235.27,-454.19 277,-423 282.08,-419.2 287.75,-416 293.68,-413.31"/>
<polygon fill="#63b8ff" stroke="#63b8ff" points="190.13,-541.25 189.59,-551.83 196.61,-543.9 190.13,-541.25"/>
</a>
</g>
</g>
<!-- Node18 -->
<g id="Node000018" class="node">
<title>Node18</title>
<g id="a_Node000018"><a xlink:href="classApp_1_1Http_1_1Controllers_1_1Admin_1_1AdminController.html" target="_top" xlink:title=" ">
<polygon fill="white" stroke="#666666" points="426.5,-366 292.5,-366 292.5,-336 426.5,-336 426.5,-366"/>
<text text-anchor="start" x="300.5" y="-354" font-family="Helvetica,sans-Serif" font-size="10.00">App\Http\Controllers</text>
<text text-anchor="middle" x="359.5" y="-343" font-family="Helvetica,sans-Serif" font-size="10.00">\Admin\AdminController</text>
</a>
</g>
</g>
<!-- Node1&#45;&gt;Node18 -->
<g id="edge20_Node000001_Node000018" class="edge">
<title>Node1&#45;&gt;Node18</title>
<g id="a_edge20_Node000001_Node000018"><a xlink:title=" ">
<path fill="none" stroke="#63b8ff" d="M189.21,-542C199.07,-501.02 224.35,-419.62 277,-375 281.61,-371.09 286.84,-367.82 292.36,-365.08"/>
<polygon fill="#63b8ff" stroke="#63b8ff" points="185.75,-541.44 186.93,-551.97 192.58,-543 185.75,-541.44"/>
</a>
</g>
</g>
<!-- Node19 -->
<g id="Node000019" class="node">
<title>Node19</title>
<g id="a_Node000019"><a xlink:href="classApp_1_1Http_1_1Controllers_1_1Admin_1_1MaintenanceController.html" target="_top" xlink:title=" ">
<polygon fill="white" stroke="#666666" points="442,-318 277,-318 277,-288 442,-288 442,-318"/>
<text text-anchor="start" x="285" y="-306" font-family="Helvetica,sans-Serif" font-size="10.00">App\Http\Controllers</text>
<text text-anchor="middle" x="359.5" y="-295" font-family="Helvetica,sans-Serif" font-size="10.00">\Admin\MaintenanceController</text>
</a>
</g>
</g>
<!-- Node1&#45;&gt;Node19 -->
<g id="edge21_Node000001_Node000019" class="edge">
<title>Node1&#45;&gt;Node19</title>
<g id="a_edge21_Node000001_Node000019"><a xlink:title=" ">
<path fill="none" stroke="#63b8ff" d="M186.51,-541.79C192.72,-493.08 213.25,-385.65 277,-327 280.69,-323.6 284.84,-320.69 289.26,-318.18"/>
<polygon fill="#63b8ff" stroke="#63b8ff" points="183.03,-541.45 185.34,-551.79 189.98,-542.27 183.03,-541.45"/>
</a>
</g>
</g>
<!-- Node20 -->
<g id="Node000020" class="node">
<title>Node20</title>
<g id="a_Node000020"><a xlink:href="classApp_1_1Http_1_1Controllers_1_1Api_1_1V1_1_1FunctionController.html" target="_top" xlink:title=" ">
<polygon fill="white" stroke="#666666" points="431,-270 288,-270 288,-240 431,-240 431,-270"/>
<text text-anchor="start" x="296" y="-258" font-family="Helvetica,sans-Serif" font-size="10.00">App\Http\Controllers</text>
<text text-anchor="middle" x="359.5" y="-247" font-family="Helvetica,sans-Serif" font-size="10.00">\Api\V1\FunctionController</text>
</a>
</g>
</g>
<!-- Node1&#45;&gt;Node20 -->
<g id="edge22_Node000001_Node000020" class="edge">
<title>Node1&#45;&gt;Node20</title>
<g id="a_edge22_Node000001_Node000020"><a xlink:title=" ">
<path fill="none" stroke="#63b8ff" d="M184.61,-541.95C187.35,-486.45 201.85,-352.22 277,-279 280.49,-275.6 284.43,-272.68 288.65,-270.17"/>
<polygon fill="#63b8ff" stroke="#63b8ff" points="181.11,-541.83 184.21,-551.96 188.11,-542.11 181.11,-541.83"/>
</a>
</g>
</g>
<!-- Node21 -->
<g id="Node000021" class="node">
<title>Node21</title>
<g id="a_Node000021"><a xlink:href="classApp_1_1Http_1_1Controllers_1_1BookingController.html" target="_top" xlink:title=" ">
<polygon fill="white" stroke="#666666" points="417.5,-222 301.5,-222 301.5,-192 417.5,-192 417.5,-222"/>
<text text-anchor="start" x="309.5" y="-210" font-family="Helvetica,sans-Serif" font-size="10.00">App\Http\Controllers</text>
<text text-anchor="middle" x="359.5" y="-199" font-family="Helvetica,sans-Serif" font-size="10.00">\BookingController</text>
</a>
</g>
</g>
<!-- Node1&#45;&gt;Node21 -->
<g id="edge23_Node000001_Node000021" class="edge">
<title>Node1&#45;&gt;Node21</title>
<g id="a_edge23_Node000001_Node000021"><a xlink:title=" ">
<path fill="none" stroke="#63b8ff" d="M183.23,-541.72C182.78,-479.75 190.51,-318.92 277,-231 283.72,-224.17 292.29,-219.25 301.32,-215.73"/>
<polygon fill="#63b8ff" stroke="#63b8ff" points="179.73,-541.83 183.39,-551.78 186.73,-541.73 179.73,-541.83"/>
</a>
</g>
</g>
<!-- Node22 -->
<g id="Node000022" class="node">
<title>Node22</title>
<g id="a_Node000022"><a xlink:href="classApp_1_1Http_1_1Controllers_1_1LanguageController.html" target="_top" xlink:title="Controlador para manejar el cambio de idioma en la aplicación.">
<polygon fill="white" stroke="#666666" points="417.5,-174 301.5,-174 301.5,-144 417.5,-144 417.5,-174"/>
<text text-anchor="start" x="309.5" y="-162" font-family="Helvetica,sans-Serif" font-size="10.00">App\Http\Controllers</text>
<text text-anchor="middle" x="359.5" y="-151" font-family="Helvetica,sans-Serif" font-size="10.00">\LanguageController</text>
</a>
</g>
</g>
<!-- Node1&#45;&gt;Node22 -->
<g id="edge24_Node000001_Node000022" class="edge">
<title>Node1&#45;&gt;Node22</title>
<g id="a_edge24_Node000001_Node000022"><a xlink:title=" ">
<path fill="none" stroke="#63b8ff" d="M186.84,-541.61C195.96,-464.59 226.84,-235.67 277,-183 283.61,-176.06 292.12,-171.09 301.14,-167.55"/>
<polygon fill="#63b8ff" stroke="#63b8ff" points="183.33,-541.5 185.66,-551.83 190.29,-542.3 183.33,-541.5"/>
</a>
</g>
</g>
<!-- Node23 -->
<g id="Node000023" class="node">
<title>Node23</title>
<g id="a_Node000023"><a xlink:href="classApp_1_1Http_1_1Controllers_1_1MovieController.html" target="_top" xlink:title="Controlador para manejar las vistas relacionadas con películas.">
<polygon fill="white" stroke="#666666" points="417.5,-126 301.5,-126 301.5,-96 417.5,-96 417.5,-126"/>
<text text-anchor="start" x="309.5" y="-114" font-family="Helvetica,sans-Serif" font-size="10.00">App\Http\Controllers</text>
<text text-anchor="middle" x="359.5" y="-103" font-family="Helvetica,sans-Serif" font-size="10.00">\MovieController</text>
</a>
</g>
</g>
<!-- Node1&#45;&gt;Node23 -->
<g id="edge25_Node000001_Node000023" class="edge">
<title>Node1&#45;&gt;Node23</title>
<g id="a_edge25_Node000001_Node000023"><a xlink:title=" ">
<path fill="none" stroke="#63b8ff" d="M186.09,-541.79C193.47,-458.71 220.93,-195.4 277,-135 283.62,-127.87 292.25,-122.81 301.4,-119.25"/>
<polygon fill="#63b8ff" stroke="#63b8ff" points="182.59,-541.59 185.22,-551.85 189.57,-542.19 182.59,-541.59"/>
</a>
</g>
</g>
<!-- Node24 -->
<g id="Node000024" class="node">
<title>Node24</title>
<g id="a_Node000024"><a xlink:href="classApp_1_1Http_1_1Controllers_1_1SimpleEndpointController.html" target="_top" xlink:title="Controlador para mostrar los endpoints disponibles en la aplicación.">
<polygon fill="white" stroke="#666666" points="431.5,-78 287.5,-78 287.5,-48 431.5,-48 431.5,-78"/>
<text text-anchor="start" x="295.5" y="-66" font-family="Helvetica,sans-Serif" font-size="10.00">App\Http\Controllers</text>
<text text-anchor="middle" x="359.5" y="-55" font-family="Helvetica,sans-Serif" font-size="10.00">\SimpleEndpointController</text>
</a>
</g>
</g>
<!-- Node1&#45;&gt;Node24 -->
<g id="edge26_Node000001_Node000024" class="edge">
<title>Node1&#45;&gt;Node24</title>
<g id="a_edge26_Node000001_Node000024"><a xlink:title=" ">
<path fill="none" stroke="#63b8ff" d="M185.51,-541.66C191.31,-452.52 215.06,-155.13 277,-87 280.08,-83.62 283.6,-80.7 287.42,-78.19"/>
<polygon fill="#63b8ff" stroke="#63b8ff" points="182.01,-541.49 184.87,-551.69 189,-541.93 182.01,-541.49"/>
</a>
</g>
</g>
<!-- Node25 -->
<g id="Node000025" class="node">
<title>Node25</title>
<g id="a_Node000025"><a xlink:href="classApp_1_1Http_1_1Controllers_1_1WelcomeController.html" target="_top" xlink:title="Controlador que gestiona la página principal de bienvenida.">
<polygon fill="white" stroke="#666666" points="417.5,-30 301.5,-30 301.5,0 417.5,0 417.5,-30"/>
<text text-anchor="start" x="309.5" y="-18" font-family="Helvetica,sans-Serif" font-size="10.00">App\Http\Controllers</text>
<text text-anchor="middle" x="359.5" y="-7" font-family="Helvetica,sans-Serif" font-size="10.00">\WelcomeController</text>
</a>
</g>
</g>
<!-- Node1&#45;&gt;Node25 -->
<g id="edge27_Node000001_Node000025" class="edge">
<title>Node1&#45;&gt;Node25</title>
<g id="a_edge27_Node000001_Node000025"><a xlink:title=" ">
<path fill="none" stroke="#63b8ff" d="M185.02,-541.65C189.34,-446.87 209.13,-114.93 277,-39 283.49,-31.74 292.05,-26.63 301.18,-23.04"/>
<polygon fill="#63b8ff" stroke="#63b8ff" points="181.52,-541.62 184.58,-551.76 188.51,-541.92 181.52,-541.62"/>
</a>
</g>
</g>
</g>
</svg>
