<?xml version="1.0" encoding="UTF-8" standalone="no"?>
<!DOCTYPE svg PUBLIC "-//W3C//DTD SVG 1.1//EN"
 "http://www.w3.org/Graphics/SVG/1.1/DTD/svg11.dtd">
<!-- Generated by graphviz version 2.43.0 (0)
 -->
<!-- Title: Gráfico de jerarquía de clases Pages: 1 -->
<svg width="309pt" height="230pt"
 viewBox="0.00 0.00 309.00 230.00" xmlns="http://www.w3.org/2000/svg" xmlns:xlink="http://www.w3.org/1999/xlink">
<g id="graph0" class="graph" transform="scale(1 1) rotate(0) translate(4 226)">
<title>Gráfico de jerarquía de clases</title>
<!-- Node0 -->
<g id="Node000000" class="node">
<title>Node0</title>
<g id="a_Node000000"><a xlink:title=" ">
<polygon fill="#e0e0e0" stroke="#999999" points="93,-120.5 0,-120.5 0,-101.5 93,-101.5 93,-120.5"/>
<text text-anchor="middle" x="46.5" y="-108.5" font-family="Helvetica,sans-Serif" font-size="10.00">ServiceProvider</text>
</a>
</g>
</g>
<!-- Node1 -->
<g id="Node000001" class="node">
<title>Node1</title>
<g id="a_Node000001"><a xlink:href="classApp_1_1Providers_1_1AppServiceProvider.html" target="_top" xlink:title=" ">
<polygon fill="white" stroke="#666666" points="286,-222 144,-222 144,-192 286,-192 286,-222"/>
<text text-anchor="start" x="152" y="-210" font-family="Helvetica,sans-Serif" font-size="10.00">App\Providers\AppService</text>
<text text-anchor="middle" x="215" y="-199" font-family="Helvetica,sans-Serif" font-size="10.00">Provider</text>
</a>
</g>
</g>
<!-- Node0&#45;&gt;Node1 -->
<g id="edge74_Node000000_Node000001" class="edge">
<title>Node0&#45;&gt;Node1</title>
<g id="a_edge74_Node000000_Node000001"><a xlink:title=" ">
<path fill="none" stroke="#63b8ff" d="M63.05,-128.7C78.32,-145.04 103.03,-168.83 129,-183 135.19,-186.38 141.9,-189.32 148.75,-191.87"/>
<polygon fill="#63b8ff" stroke="#63b8ff" points="65.3,-125.97 55.98,-120.93 60.12,-130.68 65.3,-125.97"/>
</a>
</g>
</g>
<!-- Node2 -->
<g id="Node000002" class="node">
<title>Node2</title>
<g id="a_Node000002"><a xlink:href="classApp_1_1Providers_1_1AuthServiceProvider.html" target="_top" xlink:title=" ">
<polygon fill="white" stroke="#666666" points="288,-174 142,-174 142,-144 288,-144 288,-174"/>
<text text-anchor="start" x="150" y="-162" font-family="Helvetica,sans-Serif" font-size="10.00">App\Providers\AuthService</text>
<text text-anchor="middle" x="215" y="-151" font-family="Helvetica,sans-Serif" font-size="10.00">Provider</text>
</a>
</g>
</g>
<!-- Node0&#45;&gt;Node2 -->
<g id="edge75_Node000000_Node000002" class="edge">
<title>Node0&#45;&gt;Node2</title>
<g id="a_edge75_Node000000_Node000002"><a xlink:title=" ">
<path fill="none" stroke="#63b8ff" d="M89.46,-123.45C102.16,-127.2 116.14,-131.29 129,-135 139.17,-137.93 150.03,-141.03 160.47,-143.98"/>
<polygon fill="#63b8ff" stroke="#63b8ff" points="90.19,-120.02 79.6,-120.54 88.2,-126.73 90.19,-120.02"/>
</a>
</g>
</g>
<!-- Node3 -->
<g id="Node000003" class="node">
<title>Node3</title>
<g id="a_Node000003"><a xlink:href="classApp_1_1Providers_1_1BroadcastServiceProvider.html" target="_top" xlink:title=" ">
<polygon fill="white" stroke="#666666" points="301,-126 129,-126 129,-96 301,-96 301,-126"/>
<text text-anchor="start" x="137" y="-114" font-family="Helvetica,sans-Serif" font-size="10.00">App\Providers\BroadcastService</text>
<text text-anchor="middle" x="215" y="-103" font-family="Helvetica,sans-Serif" font-size="10.00">Provider</text>
</a>
</g>
</g>
<!-- Node0&#45;&gt;Node3 -->
<g id="edge76_Node000000_Node000003" class="edge">
<title>Node0&#45;&gt;Node3</title>
<g id="a_edge76_Node000000_Node000003"><a xlink:title=" ">
<path fill="none" stroke="#63b8ff" d="M103.56,-111C111.74,-111 120.32,-111 128.92,-111"/>
<polygon fill="#63b8ff" stroke="#63b8ff" points="103.44,-107.5 93.44,-111 103.44,-114.5 103.44,-107.5"/>
</a>
</g>
</g>
<!-- Node4 -->
<g id="Node000004" class="node">
<title>Node4</title>
<g id="a_Node000004"><a xlink:href="classApp_1_1Providers_1_1EventServiceProvider.html" target="_top" xlink:title=" ">
<polygon fill="white" stroke="#666666" points="290.5,-78 139.5,-78 139.5,-48 290.5,-48 290.5,-78"/>
<text text-anchor="start" x="147.5" y="-66" font-family="Helvetica,sans-Serif" font-size="10.00">App\Providers\EventService</text>
<text text-anchor="middle" x="215" y="-55" font-family="Helvetica,sans-Serif" font-size="10.00">Provider</text>
</a>
</g>
</g>
<!-- Node0&#45;&gt;Node4 -->
<g id="edge77_Node000000_Node000004" class="edge">
<title>Node0&#45;&gt;Node4</title>
<g id="a_edge77_Node000000_Node000004"><a xlink:title=" ">
<path fill="none" stroke="#63b8ff" d="M89.46,-98.55C102.16,-94.8 116.14,-90.71 129,-87 139.17,-84.07 150.03,-80.97 160.47,-78.02"/>
<polygon fill="#63b8ff" stroke="#63b8ff" points="88.2,-95.27 79.6,-101.46 90.19,-101.98 88.2,-95.27"/>
</a>
</g>
</g>
<!-- Node5 -->
<g id="Node000005" class="node">
<title>Node5</title>
<g id="a_Node000005"><a xlink:href="classApp_1_1Providers_1_1RouteServiceProvider.html" target="_top" xlink:title=" ">
<polygon fill="white" stroke="#666666" points="291,-30 139,-30 139,0 291,0 291,-30"/>
<text text-anchor="start" x="147" y="-18" font-family="Helvetica,sans-Serif" font-size="10.00">App\Providers\RouteService</text>
<text text-anchor="middle" x="215" y="-7" font-family="Helvetica,sans-Serif" font-size="10.00">Provider</text>
</a>
</g>
</g>
<!-- Node0&#45;&gt;Node5 -->
<g id="edge78_Node000000_Node000005" class="edge">
<title>Node0&#45;&gt;Node5</title>
<g id="a_edge78_Node000000_Node000005"><a xlink:title=" ">
<path fill="none" stroke="#63b8ff" d="M63.05,-93.3C78.32,-76.96 103.03,-53.17 129,-39 135.19,-35.62 141.9,-32.68 148.75,-30.13"/>
<polygon fill="#63b8ff" stroke="#63b8ff" points="60.12,-91.32 55.98,-101.07 65.3,-96.03 60.12,-91.32"/>
</a>
</g>
</g>
</g>
</svg>
