<?xml version="1.0" encoding="UTF-8" standalone="no"?>
<!DOCTYPE svg PUBLIC "-//W3C//DTD SVG 1.1//EN"
 "http://www.w3.org/Graphics/SVG/1.1/DTD/svg11.dtd">
<!-- Generated by graphviz version 2.43.0 (0)
 -->
<!-- Title: handleSubmit Pages: 1 -->
<svg width="226pt" height="101pt"
 viewBox="0.00 0.00 226.00 101.00" xmlns="http://www.w3.org/2000/svg" xmlns:xlink="http://www.w3.org/1999/xlink">

<svg id="main" version="1.1" xmlns="http://www.w3.org/2000/svg" xmlns:xlink="http://www.w3.org/1999/xlink" xml:space="preserve" onload="init(evt)">
<style type="text/css"><![CDATA[
.node, .edge {opacity: 0.7;}
.node.selected, .edge.selected {opacity: 1;}
.edge:hover path { stroke: red; }
.edge:hover polygon { stroke: red; fill: red; }
]]></style>
<script type="application/ecmascript" xlink:href="svg.min.js"/>
<svg id="graph" class="graph">
<g id="graph0" class="graph" transform="scale(1 1) rotate(0) translate(4 97)">
<title>handleSubmit</title>
<!-- Node1 -->
<g id="Node000001" class="node">
<title>Node1</title>
<g id="a_Node000001"><a xlink:title=" ">
<polygon fill="#999999" stroke="#666666" points="84,-56 0,-56 0,-37 84,-37 84,-56"/>
<text text-anchor="middle" x="42" y="-44" font-family="Helvetica,sans-Serif" font-size="10.00">handleSubmit</text>
</a>
</g>
</g>
<!-- Node2 -->
<g id="Node000002" class="node">
<title>Node2</title>
<g id="a_Node000002"><a xlink:href="login_2_09page_8svelte.html#aced84ee1d9988a3d59f7a24cb2c32dc9" target="_top" xlink:title=" ">
<polygon fill="white" stroke="#666666" points="218,-93 120,-93 120,-74 218,-74 218,-93"/>
<text text-anchor="middle" x="169" y="-81" font-family="Helvetica,sans-Serif" font-size="10.00">setErrorMessage</text>
</a>
</g>
</g>
<!-- Node1&#45;&gt;Node2 -->
<g id="edge1_Node000001_Node000002" class="edge">
<title>Node1&#45;&gt;Node2</title>
<g id="a_edge1_Node000001_Node000002"><a xlink:title=" ">
<path fill="none" stroke="#63b8ff" d="M75.19,-56.03C90.53,-60.57 109.07,-66.06 125.54,-70.93"/>
<polygon fill="#63b8ff" stroke="#63b8ff" points="124.9,-74.39 135.48,-73.88 126.89,-67.68 124.9,-74.39"/>
</a>
</g>
</g>
<!-- Node3 -->
<g id="Node000003" class="node">
<title>Node3</title>
<g id="a_Node000003"><a xlink:href="login_2_09page_8svelte.html#a39644628c1600cf16d2400a8667ff425" target="_top" xlink:title=" ">
<polygon fill="white" stroke="#666666" points="204,-56 134,-56 134,-37 204,-37 204,-56"/>
<text text-anchor="middle" x="169" y="-44" font-family="Helvetica,sans-Serif" font-size="10.00">setLoading</text>
</a>
</g>
</g>
<!-- Node1&#45;&gt;Node3 -->
<g id="edge2_Node000001_Node000003" class="edge">
<title>Node1&#45;&gt;Node3</title>
<g id="a_edge2_Node000001_Node000003"><a xlink:title=" ">
<path fill="none" stroke="#63b8ff" d="M84.28,-46.5C96.96,-46.5 110.96,-46.5 123.83,-46.5"/>
<polygon fill="#63b8ff" stroke="#63b8ff" points="123.86,-50 133.86,-46.5 123.86,-43 123.86,-50"/>
</a>
</g>
</g>
<!-- Node4 -->
<g id="Node000004" class="node">
<title>Node4</title>
<g id="a_Node000004"><a xlink:href="login_2_09page_8svelte.html#af51e86e7a286c62e6aee92cb814049ce" target="_top" xlink:title=" ">
<polygon fill="white" stroke="#666666" points="209.5,-19 128.5,-19 128.5,0 209.5,0 209.5,-19"/>
<text text-anchor="middle" x="169" y="-7" font-family="Helvetica,sans-Serif" font-size="10.00">setShowError</text>
</a>
</g>
</g>
<!-- Node1&#45;&gt;Node4 -->
<g id="edge3_Node000001_Node000004" class="edge">
<title>Node1&#45;&gt;Node4</title>
<g id="a_edge3_Node000001_Node000004"><a xlink:title=" ">
<path fill="none" stroke="#63b8ff" d="M75.19,-36.97C90.53,-32.43 109.07,-26.94 125.54,-22.07"/>
<polygon fill="#63b8ff" stroke="#63b8ff" points="126.89,-25.32 135.48,-19.12 124.9,-18.61 126.89,-25.32"/>
</a>
</g>
</g>
</g>
</svg>
</svg>

<style type='text/css'>
<![CDATA[
[data-mouse-over-selected='false'] { opacity: 0.7; }
[data-mouse-over-selected='true']  { opacity: 1.0; }
]]>
</style>
<script type="application/ecmascript"><![CDATA[
document.addEventListener('DOMContentLoaded', (event) => {
  highlightEdges();
  highlightAdjacentNodes();
});
]]></script>
</svg>
