<?xml version="1.0" encoding="UTF-8" standalone="no"?>
<!DOCTYPE svg PUBLIC "-//W3C//DTD SVG 1.1//EN"
 "http://www.w3.org/Graphics/SVG/1.1/DTD/svg11.dtd">
<!-- Generated by graphviz version 2.43.0 (0)
 -->
<!-- Title: setupNavbar Pages: 1 -->
<svg width="250pt" height="101pt"
 viewBox="0.00 0.00 250.00 101.00" xmlns="http://www.w3.org/2000/svg" xmlns:xlink="http://www.w3.org/1999/xlink">
<g id="graph0" class="graph" transform="scale(1 1) rotate(0) translate(4 97)">
<title>setupNavbar</title>
<!-- Node1 -->
<g id="Node000001" class="node">
<title>Node1</title>
<g id="a_Node000001"><a xlink:title=" ">
<polygon fill="#999999" stroke="#666666" points="79,-56 0,-56 0,-37 79,-37 79,-56"/>
<text text-anchor="middle" x="39.5" y="-44" font-family="Helvetica,sans-Serif" font-size="10.00">setupNavbar</text>
</a>
</g>
</g>
<!-- Node2 -->
<g id="Node000002" class="node">
<title>Node2</title>
<g id="a_Node000002"><a xlink:href="Navbar_8svelte.html#a08e0ecfb3751db7913e2a06d7b29bfd4" target="_top" xlink:title=" ">
<polygon fill="white" stroke="#666666" points="214.5,-93 142.5,-93 142.5,-74 214.5,-74 214.5,-93"/>
<text text-anchor="middle" x="178.5" y="-81" font-family="Helvetica,sans-Serif" font-size="10.00">fetchProfile</text>
</a>
</g>
</g>
<!-- Node1&#45;&gt;Node2 -->
<g id="edge1_Node000001_Node000002" class="edge">
<title>Node1&#45;&gt;Node2</title>
<g id="a_edge1_Node000001_Node000002"><a xlink:title=" ">
<path fill="none" stroke="#63b8ff" d="M75.78,-56.03C93.12,-60.71 114.2,-66.41 132.67,-71.39"/>
<polygon fill="#63b8ff" stroke="#63b8ff" points="131.77,-74.78 142.34,-74 133.6,-68.02 131.77,-74.78"/>
</a>
</g>
</g>
<!-- Node3 -->
<g id="Node000003" class="node">
<title>Node3</title>
<g id="a_Node000003"><a xlink:href="Navbar_8svelte.html#ac32e511cabb6ca2f6e807231a1a887ad" target="_top" xlink:title=" ">
<polygon fill="white" stroke="#666666" points="220,-56 137,-56 137,-37 220,-37 220,-56"/>
<text text-anchor="middle" x="178.5" y="-44" font-family="Helvetica,sans-Serif" font-size="10.00">handleLogout</text>
</a>
</g>
</g>
<!-- Node1&#45;&gt;Node3 -->
<g id="edge2_Node000001_Node000003" class="edge">
<title>Node1&#45;&gt;Node3</title>
<g id="a_edge2_Node000001_Node000003"><a xlink:title=" ">
<path fill="none" stroke="#63b8ff" d="M79.03,-46.5C93.83,-46.5 110.96,-46.5 126.74,-46.5"/>
<polygon fill="#63b8ff" stroke="#63b8ff" points="126.87,-50 136.87,-46.5 126.87,-43 126.87,-50"/>
</a>
</g>
</g>
<!-- Node4 -->
<g id="Node000004" class="node">
<title>Node4</title>
<g id="a_Node000004"><a xlink:href="Navbar_8svelte.html#a6f440dc7eb9eba54ce2500cba13d15da" target="_top" xlink:title=" ">
<polygon fill="white" stroke="#666666" points="242,-19 115,-19 115,0 242,0 242,-19"/>
<text text-anchor="middle" x="178.5" y="-7" font-family="Helvetica,sans-Serif" font-size="10.00">setupDefaultLanguage</text>
</a>
</g>
</g>
<!-- Node1&#45;&gt;Node4 -->
<g id="edge3_Node000001_Node000004" class="edge">
<title>Node1&#45;&gt;Node4</title>
<g id="a_edge3_Node000001_Node000004"><a xlink:title=" ">
<path fill="none" stroke="#63b8ff" d="M75.78,-36.97C92.91,-32.35 113.69,-26.73 131.99,-21.79"/>
<polygon fill="#63b8ff" stroke="#63b8ff" points="133.12,-25.11 141.86,-19.12 131.3,-18.35 133.12,-25.11"/>
</a>
</g>
</g>
</g>
</svg>
