<?xml version="1.0" encoding="UTF-8" standalone="no"?>
<!DOCTYPE svg PUBLIC "-//W3C//DTD SVG 1.1//EN"
 "http://www.w3.org/Graphics/SVG/1.1/DTD/svg11.dtd">
<!-- Generated by graphviz version 2.43.0 (0)
 -->
<!-- Title: handleSubmit Pages: 1 -->
<svg width="209pt" height="64pt"
 viewBox="0.00 0.00 209.00 64.00" xmlns="http://www.w3.org/2000/svg" xmlns:xlink="http://www.w3.org/1999/xlink">
<g id="graph0" class="graph" transform="scale(1 1) rotate(0) translate(4 60)">
<title>handleSubmit</title>
<!-- Node1 -->
<g id="Node000001" class="node">
<title>Node1</title>
<g id="a_Node000001"><a xlink:title=" ">
<polygon fill="#999999" stroke="#666666" points="84,-37 0,-37 0,-18 84,-18 84,-37"/>
<text text-anchor="middle" x="42" y="-25" font-family="Helvetica,sans-Serif" font-size="10.00">handleSubmit</text>
</a>
</g>
</g>
<!-- Node2 -->
<g id="Node000002" class="node">
<title>Node2</title>
<g id="a_Node000002"><a xlink:href="register_2_09page_8svelte.html#a6c604967c6336bb0bfbd2ee9770a6479" target="_top" xlink:title=" ">
<polygon fill="white" stroke="#666666" points="199,-56 122,-56 122,-37 199,-37 199,-56"/>
<text text-anchor="middle" x="160.5" y="-44" font-family="Helvetica,sans-Serif" font-size="10.00">registerUser</text>
</a>
</g>
</g>
<!-- Node1&#45;&gt;Node2 -->
<g id="edge1_Node000001_Node000002" class="edge">
<title>Node1&#45;&gt;Node2</title>
<g id="a_edge1_Node000001_Node000002"><a xlink:title=" ">
<path fill="none" stroke="#63b8ff" d="M84.07,-34.2C93.02,-35.66 102.56,-37.21 111.75,-38.71"/>
<polygon fill="#63b8ff" stroke="#63b8ff" points="111.48,-42.21 121.91,-40.37 112.6,-35.31 111.48,-42.21"/>
</a>
</g>
</g>
<!-- Node3 -->
<g id="Node000003" class="node">
<title>Node3</title>
<g id="a_Node000003"><a xlink:href="register_2_09page_8svelte.html#a331c4d836fd6417f618d2f9cd4d55af3" target="_top" xlink:title=" ">
<polygon fill="white" stroke="#666666" points="201,-19 120,-19 120,0 201,0 201,-19"/>
<text text-anchor="middle" x="160.5" y="-7" font-family="Helvetica,sans-Serif" font-size="10.00">validateForm</text>
</a>
</g>
</g>
<!-- Node1&#45;&gt;Node3 -->
<g id="edge2_Node000001_Node000003" class="edge">
<title>Node1&#45;&gt;Node3</title>
<g id="a_edge2_Node000001_Node000003"><a xlink:title=" ">
<path fill="none" stroke="#63b8ff" d="M84.07,-21.15C92.45,-19.86 101.36,-18.48 110,-17.15"/>
<polygon fill="#63b8ff" stroke="#63b8ff" points="110.62,-20.59 119.97,-15.61 109.55,-13.68 110.62,-20.59"/>
</a>
</g>
</g>
</g>
</svg>
