<?xml version="1.0" standalone="no"?>
<!DOCTYPE svg PUBLIC "-//W3C//DTD SVG 20010904//EN"
 "http://www.w3.org/TR/2001/REC-SVG-20010904/DTD/svg10.dtd">
<svg version="1.0" xmlns="http://www.w3.org/2000/svg"
 width="300.000000pt" height="450.000000pt" viewBox="0 0 300.000000 450.000000"
 preserveAspectRatio="xMidYMid meet">
<metadata>
Created by potrace 1.10, written by Peter Selinger 2001-2011
</metadata>
<g transform="translate(0.000000,450.000000) scale(0.100000,-0.100000)"
fill="#000000" stroke="none">
<path d="M593 4025 c-116 -31 -242 -159 -274 -277 -15 -59 -14 -1989 2 -2053
39 -159 154 -284 312 -339 l67 -23 802 3 c791 2 804 3 867 24 79 26 124 55
188 117 41 40 100 123 101 143 0 3 5 17 11 32 31 82 33 162 28 1116 -5 1021
-3 970 -54 1068 -43 81 -128 150 -231 185 -78 27 -115 24 -167 -11 -53 -36
-70 -37 -117 -5 -20 14 -49 25 -63 25 -14 0 -43 -11 -63 -25 -20 -14 -44 -25
-52 -25 -8 0 -32 11 -52 25 -20 14 -45 25 -55 25 -10 0 -35 -11 -55 -25 -20
-14 -46 -25 -58 -25 -12 0 -36 11 -54 25 -41 31 -70 31 -121 0 -50 -31 -67
-31 -113 0 -20 14 -44 25 -52 25 -8 0 -32 -11 -52 -25 -20 -14 -48 -25 -61
-25 -12 0 -38 11 -57 25 -19 14 -43 25 -55 25 -12 0 -36 -11 -55 -25 -19 -14
-44 -25 -56 -25 -11 0 -38 11 -58 25 -46 31 -73 32 -115 1 -40 -29 -73 -27
-134 9 -49 28 -78 30 -154 10z m147 -50 c42 -45 122 -42 166 6 18 20 54 26 54
9 0 -17 63 -50 97 -50 22 0 44 10 66 30 19 17 39 30 45 30 6 0 24 -13 40 -30
22 -21 40 -30 64 -30 34 0 98 32 98 50 0 20 33 9 60 -20 20 -21 37 -30 60 -30
34 0 79 20 99 44 18 22 48 20 60 -3 26 -48 124 -51 160 -6 24 31 34 31 65 0
45 -45 107 -45 152 0 31 31 54 32 84 1 12 -14 35 -28 51 -31 38 -9 96 11 110
37 9 18 18 20 68 16 31 -2 78 -15 106 -28 64 -31 154 -121 186 -185 l24 -50 0
-1015 0 -1015 -37 -77 c-63 -133 -176 -222 -313 -247 -39 -7 -316 -11 -826
-11 -725 0 -771 1 -828 19 -163 51 -275 180 -301 347 -7 46 -10 391 -8 1029
l3 960 33 67 c58 118 182 206 293 207 36 1 50 -4 69 -24z"/>
<path d="M575 3851 c-22 -10 -57 -36 -77 -59 -67 -74 -68 -85 -68 -644 l0
-498 128 0 c147 0 238 -17 329 -60 122 -57 228 -194 253 -329 5 -29 10 -153
10 -275 l0 -221 -47 -67 c-27 -37 -51 -68 -54 -68 -3 0 -4 42 -1 93 13 251
-55 400 -217 476 -52 24 -67 26 -228 29 l-173 4 0 -209 c0 -226 10 -313 41
-377 21 -41 86 -116 101 -116 4 0 8 121 8 268 0 195 3 271 12 280 18 18 56 14
68 -7 6 -12 10 -129 10 -309 l0 -290 23 -6 c12 -3 34 -6 50 -6 l27 0 0 268 c0
282 2 292 45 292 43 0 45 -10 45 -292 l0 -268 95 0 95 0 0 39 c0 53 34 81 100
81 66 0 94 -24 92 -78 -2 -39 0 -42 23 -42 22 0 25 4 25 39 0 57 19 71 94 71
74 0 96 -17 96 -73 0 -30 4 -37 20 -37 17 0 20 7 20 39 0 57 19 71 94 71 74 0
96 -17 96 -73 0 -30 4 -37 20 -37 16 0 20 7 20 38 0 45 8 58 42 71 34 13 113
8 132 -8 10 -9 16 -30 16 -57 l0 -44 100 0 100 0 0 268 c0 195 3 271 12 280
17 17 44 15 62 -4 14 -13 16 -53 16 -281 l0 -266 42 7 c22 4 45 9 50 12 4 3 8
137 8 298 0 214 3 295 12 304 16 16 53 15 67 -1 7 -9 12 -105 13 -283 l3 -269
39 40 c22 22 53 69 70 105 l31 65 3 248 4 249 -178 -4 c-172 -3 -181 -4 -236
-31 -77 -38 -134 -96 -171 -175 -32 -67 -32 -68 -32 -229 0 -90 -3 -163 -7
-163 -3 0 -27 29 -52 64 l-46 65 0 251 c0 226 2 257 21 312 27 80 75 154 135
207 106 93 200 121 417 121 l148 0 -3 523 -3 522 -27 46 c-31 53 -77 96 -125
116 -26 10 -197 13 -915 13 -833 0 -885 -1 -923 -19z m1840 -40 c105 -63 115
-91 115 -331 0 -111 -4 -199 -10 -210 -8 -15 -7 -18 2 -15 17 7 15 -202 -1
-234 -8 -14 -8 -21 -1 -21 12 0 14 -296 2 -304 -4 -2 -72 -7 -150 -10 -144 -6
-215 -21 -301 -64 -72 -35 -151 -116 -197 -200 -51 -95 -64 -174 -64 -390 l0
-189 -36 33 c-37 35 -88 46 -111 23 -7 -7 -23 -7 -52 2 -34 10 -49 10 -76 0
-26 -9 -39 -9 -56 -1 -12 7 -37 9 -58 6 -47 -8 -58 -8 -111 -1 -40 6 -50 4
-78 -20 -18 -15 -32 -36 -32 -48 0 -18 -2 -19 -10 -7 -5 8 -10 107 -10 225 0
193 -2 215 -23 275 -58 162 -168 271 -327 323 -71 24 -101 28 -201 28 -52 0
-107 3 -122 6 l-28 5 1 163 c1 90 -1 169 -5 175 -10 16 -12 229 -2 223 4 -3 7
94 6 216 -1 210 0 222 21 263 28 54 75 89 135 100 11 2 407 4 880 3 l860 0 40
-24z m-1592 -1650 c73 -36 116 -79 150 -151 30 -62 32 -71 35 -215 4 -143 5
-151 28 -176 22 -23 23 -28 10 -38 -8 -7 -20 -28 -26 -47 -11 -32 -14 -34 -60
-34 -27 0 -52 4 -55 10 -3 5 -7 115 -9 245 -2 219 -4 237 -23 263 -25 34 -76
41 -105 15 -44 -39 -50 -73 -47 -296 2 -157 0 -212 -9 -215 -9 -3 -12 62 -12
272 0 271 0 275 -22 299 -31 32 -53 39 -83 25 -51 -23 -55 -41 -56 -263 0
-112 -5 -207 -9 -210 -5 -3 -18 12 -30 34 -18 37 -20 58 -20 276 l0 236 148
-3 c131 -3 152 -6 195 -27z m1685 23 c22 -6 22 -7 22 -208 0 -208 -9 -274 -46
-321 -26 -35 -32 -1 -32 213 -1 204 -1 205 -25 230 -33 32 -72 32 -106 -2
l-26 -26 -5 -278 c-3 -177 -9 -276 -15 -274 -12 2 -12 14 -14 281 -1 192 -2
201 -23 226 -34 38 -63 39 -101 5 l-32 -28 -5 -249 -5 -248 -50 -3 c-50 -2
-50 -2 -80 46 l-30 47 25 22 c24 20 25 25 28 165 4 185 24 248 99 319 41 40
91 68 138 80 37 9 252 11 283 3z m-1174 -310 c9 -3 16 -17 16 -31 0 -21 -4
-24 -22 -19 -13 3 -38 6 -56 6 -47 0 -41 33 8 41 19 4 36 7 37 8 1 0 8 -2 17
-5z m144 -10 c6 -2 12 -12 12 -22 0 -17 -7 -19 -55 -18 -43 0 -55 4 -55 16 0
35 35 44 98 24z m141 2 c7 -4 11 -15 9 -24 -2 -13 -16 -17 -56 -18 -44 -1 -52
2 -52 17 0 10 7 22 16 27 18 10 65 9 83 -2z m129 0 c7 -4 12 -15 12 -25 0 -15
-9 -19 -50 -20 -51 -1 -64 7 -54 33 9 22 64 30 92 12z m-440 -88 c7 -7 12 -19
12 -27 0 -13 -13 -16 -65 -16 -59 0 -65 2 -65 21 0 11 3 24 7 27 11 12 98 8
111 -5z m170 -18 c3 -24 1 -25 -60 -24 -64 1 -80 12 -57 40 9 11 27 14 63 12
46 -3 51 -5 54 -28z m157 2 c0 -22 -4 -24 -57 -25 -53 -2 -58 0 -58 19 0 31 9
35 65 32 45 -3 50 -5 50 -26z m163 -2 c3 -24 1 -25 -58 -25 -54 0 -60 2 -60
21 0 31 9 35 65 32 45 -3 50 -5 53 -28z m-520 -107 l3 -33 -75 0 c-73 0 -76 1
-76 23 0 38 19 48 85 45 60 -3 60 -3 63 -35z m190 25 c7 -7 12 -22 12 -35 0
-22 -3 -23 -75 -23 l-75 0 0 28 c0 16 3 32 7 35 11 12 118 8 131 -5z m203 -20
c4 -15 4 -29 1 -32 -3 -3 -38 -6 -79 -6 -65 0 -73 2 -73 19 0 46 9 52 78 49
62 -3 66 -5 73 -30z m187 -5 l3 -33 -70 0 -71 0 0 28 c0 16 3 32 7 36 4 4 34
6 68 4 60 -3 60 -3 63 -35z"/>
<path d="M1905 3770 c-10 -11 -23 -56 -32 -112 -8 -51 -20 -98 -27 -105 -6 -6
-47 -18 -91 -27 -91 -19 -131 -46 -112 -76 15 -25 42 -36 118 -51 80 -15 99
-25 99 -50 0 -45 32 -158 51 -178 17 -18 23 -20 36 -10 25 21 42 65 54 139 11
67 15 73 43 85 17 7 51 16 76 19 65 10 98 25 106 48 10 34 -24 56 -111 73 -89
17 -101 26 -110 88 -9 63 -27 130 -38 145 -22 28 -44 32 -62 12z m46 -57 c6
-32 17 -89 23 -126 7 -40 18 -72 26 -77 8 -4 38 -11 65 -14 101 -14 159 -28
144 -36 -8 -4 -62 -16 -120 -25 l-106 -17 -18 -107 c-21 -122 -30 -154 -39
-131 -3 8 -12 64 -21 125 -9 60 -17 110 -18 111 -1 0 -51 9 -112 19 -60 10
-114 21 -119 26 -8 7 47 21 163 38 35 6 65 12 67 14 4 4 34 220 34 244 0 7 4
13 9 13 5 0 15 -26 22 -57z"/>
<path d="M1662 3731 c-28 -23 -28 -32 2 -60 l24 -23 21 21 c25 25 27 44 5 65
-20 20 -26 20 -52 -3z m48 -25 c0 -15 -24 -28 -34 -19 -13 14 -5 33 14 33 11
0 20 -6 20 -14z"/>
<path d="M1381 3714 c-36 -30 -39 -51 -11 -86 30 -39 64 -41 95 -7 14 16 25
35 25 43 0 15 -56 76 -70 76 -5 0 -22 -12 -39 -26z m71 -38 c21 -5 21 -6 -5
-30 l-27 -25 -27 25 c-26 24 -26 25 -6 30 12 3 24 16 28 27 l8 22 4 -21 c2
-12 14 -24 25 -28z"/>
<path d="M666 3701 c-15 -16 -15 -22 -4 -40 16 -26 40 -27 61 -3 15 16 15 20
1 40 -19 27 -36 28 -58 3z m44 -15 c0 -8 -5 -18 -11 -22 -14 -8 -33 11 -25 25
10 16 36 13 36 -3z"/>
<path d="M1019 3671 c-27 -27 -49 -54 -49 -60 0 -17 90 -111 107 -111 18 0 86
63 103 95 13 24 11 28 -35 75 -27 28 -55 50 -63 50 -7 0 -36 -22 -63 -49z m82
-5 c6 -13 25 -30 42 -38 l32 -15 -31 -16 c-16 -8 -35 -27 -42 -41 -15 -33 -30
-33 -42 -1 -5 14 -21 30 -35 37 -32 14 -32 26 0 38 14 5 30 21 35 35 12 31 27
32 41 1z"/>
<path d="M2217 3662 c-26 -26 -47 -55 -47 -64 0 -16 89 -98 106 -98 17 0 94
82 94 99 0 19 -79 111 -96 111 -5 0 -31 -22 -57 -48z m73 -8 c0 -19 7 -28 30
-35 33 -12 40 -29 12 -29 -23 0 -42 -19 -42 -42 0 -27 -27 -22 -34 6 -4 15
-16 26 -32 30 -30 8 -27 30 5 34 15 2 24 13 28 33 7 36 33 39 33 3z"/>
<path d="M761 3614 c-57 -49 -55 -74 11 -133 26 -23 28 -23 52 -7 33 21 76 68
76 82 0 13 -56 71 -81 84 -12 7 -27 0 -58 -26z m104 -48 c20 -7 20 -7 0 -18
-11 -5 -30 -22 -42 -36 l-22 -26 -12 26 c-6 15 -20 29 -30 31 -22 6 -26 27 -4
27 8 0 22 12 31 26 l17 25 21 -24 c12 -14 30 -28 41 -31z"/>
<path d="M1220 3482 c-22 -26 -22 -37 0 -57 14 -13 23 -14 38 -6 31 17 36 43
12 63 -28 22 -32 22 -50 0z"/>
<path d="M599 3431 c-38 -38 -37 -60 6 -101 33 -32 36 -33 61 -20 40 22 67 65
55 89 -14 25 -60 61 -78 61 -8 0 -28 -13 -44 -29z m61 -16 c5 -14 16 -25 25
-25 21 0 19 -5 -12 -36 l-27 -27 -14 22 c-8 11 -21 21 -28 21 -8 0 -14 5 -14
10 0 6 7 10 15 10 9 0 20 11 25 25 5 14 12 25 15 25 3 0 10 -11 15 -25z"/>
<path d="M2352 3394 c-29 -20 -28 -45 2 -73 l23 -22 27 32 c21 25 24 34 15 46
-23 27 -45 33 -67 17z m43 -24 c4 -6 1 -17 -5 -26 -15 -18 -42 0 -33 22 6 16
29 19 38 4z"/>
<path d="M876 3331 c-25 -26 -46 -56 -46 -66 0 -27 84 -115 109 -115 11 0 41
24 70 56 39 44 48 61 41 74 -11 20 -99 94 -116 96 -6 1 -33 -19 -58 -45z m79
-11 c9 -16 21 -30 28 -30 7 0 22 -6 32 -14 18 -13 17 -14 -14 -30 -17 -9 -36
-28 -41 -41 -13 -33 -26 -31 -45 5 -9 17 -19 30 -23 30 -5 0 -17 6 -27 14 -18
13 -17 14 11 29 17 9 35 27 42 41 15 33 18 33 37 -4z"/>
<path d="M1401 3287 c-51 -15 -73 -28 -120 -76 -73 -74 -96 -137 -89 -249 8
-120 67 -207 178 -264 66 -33 195 -32 264 1 129 64 209 222 176 351 -6 25 -12
50 -13 56 -2 6 -10 23 -20 37 -9 15 -17 29 -17 33 0 19 -126 110 -142 104 -2
-1 -16 4 -33 10 -47 19 -115 18 -184 -3z m224 -50 c101 -51 154 -137 155 -247
1 -260 -316 -380 -488 -185 -163 186 -23 476 223 461 39 -2 78 -12 110 -29z"/>
<path d="M2130 3246 c-24 -24 -44 -50 -46 -59 -2 -14 94 -107 111 -107 11 0
105 93 105 104 0 19 -89 106 -108 106 -10 0 -38 -20 -62 -44z m81 -8 c8 -19
24 -35 37 -38 13 -3 23 -9 23 -15 0 -5 -10 -12 -23 -15 -13 -3 -29 -18 -36
-33 -17 -35 -25 -34 -39 3 -9 23 -18 30 -37 30 -36 0 -33 26 3 33 22 5 31 13
36 37 8 38 18 38 36 -2z"/>
<path d="M735 3160 c-4 -6 -10 -8 -14 -5 -15 9 -6 -50 9 -62 23 -19 38 -15 56
12 16 24 16 27 -1 45 -20 22 -40 26 -50 10z m35 -36 c0 -17 -26 -19 -36 -3 -7
12 15 31 28 23 4 -3 8 -12 8 -20z"/>
<path d="M2000 3000 c-24 -24 -24 -29 -4 -58 18 -27 36 -28 57 -4 22 24 21 45
-1 65 -24 22 -28 21 -52 -3z m40 -30 c0 -11 -7 -20 -15 -20 -8 0 -15 9 -15 20
0 11 7 20 15 20 8 0 15 -9 15 -20z"/>
<path d="M430 2441 l0 -119 168 -5 c116 -3 183 -9 219 -21 70 -22 170 -91 212
-146 l34 -45 -5 85 c-4 70 -10 96 -36 146 -58 114 -158 191 -281 214 -29 5
-112 10 -182 10 l-129 0 0 -119z m390 46 c30 -15 66 -38 80 -50 30 -27 94
-107 86 -107 -4 0 0 -10 8 -22 18 -30 29 -78 18 -78 -5 0 -20 9 -33 19 -93 73
-183 98 -363 103 l-136 3 0 83 0 84 143 -4 c131 -4 146 -6 197 -31z"/>
<path d="M2215 2546 c-165 -52 -269 -182 -282 -352 l-6 -79 57 63 c65 69 147
116 235 132 29 5 121 10 202 10 l149 0 0 120 0 120 -157 -1 c-98 0 -173 -5
-198 -13z m303 -31 c14 -5 17 -141 3 -150 -6 -3 -74 -7 -153 -10 -79 -2 -159
-8 -178 -13 -57 -15 -143 -55 -170 -79 -50 -46 -55 -13 -9 72 61 115 160 175
303 184 94 6 182 5 204 -4z"/>
<path d="M673 1283 c-19 -3 -49 -20 -75 -44 -49 -44 -58 -47 -58 -19 0 35 -35
60 -83 60 -75 0 -77 -7 -77 -233 l0 -196 27 -21 c51 -40 133 -5 133 56 0 13 3
24 6 24 3 0 31 -23 62 -51 54 -49 58 -51 100 -45 25 3 51 11 59 18 11 9 19 9
33 1 9 -7 33 -15 52 -18 32 -6 39 -3 82 40 43 42 51 46 84 41 20 -3 40 -5 45
-6 4 0 7 -6 7 -14 0 -8 13 -26 30 -39 37 -31 90 -30 125 3 l24 22 22 -21 c21
-19 49 -26 89 -22 8 1 25 13 38 27 21 24 22 32 22 204 -1 163 -3 181 -21 204
-16 21 -29 26 -63 26 -43 0 -66 -15 -79 -52 -3 -10 -7 -87 -8 -173 0 -85 -4
-155 -9 -155 -4 0 -15 21 -25 48 -9 26 -35 92 -57 147 -73 185 -73 185 -155
187 -60 1 -75 -17 -127 -154 -21 -57 -51 -132 -67 -166 l-29 -64 -39 46 c-22
26 -52 62 -67 81 l-26 35 25 33 c14 17 44 52 66 76 40 43 48 65 33 87 -9 13
-47 35 -59 32 -4 0 -22 -3 -40 -5z m-171 -118 c-3 -49 -1 -85 5 -85 5 0 39 38
76 85 l67 85 56 0 c65 0 69 11 -43 -113 l-71 -79 84 -96 c46 -53 84 -99 84
-104 0 -4 -24 -8 -53 -8 l-53 0 -68 90 c-38 50 -73 90 -79 90 -6 0 -8 -33 -5
-90 l5 -90 -48 0 -49 0 0 200 0 200 48 0 48 0 -4 -85z m631 -108 c42 -106 77
-196 77 -200 0 -4 -22 -7 -48 -7 -47 0 -48 1 -62 41 l-15 41 -75 0 -75 0 -18
-41 c-17 -39 -20 -41 -62 -41 -25 0 -45 3 -45 6 0 4 25 70 56 148 31 78 65
165 76 194 l19 52 48 0 47 0 77 -193z m247 -7 l0 -200 -45 0 -45 0 0 200 0
200 45 0 45 0 0 -200z"/>
<path d="M981 1074 c-11 -31 -21 -60 -21 -65 0 -5 23 -9 50 -9 28 0 50 3 50 7
0 14 -45 123 -51 123 -3 0 -16 -25 -28 -56z"/>
<path d="M1503 1282 c-51 -8 -69 -79 -32 -126 16 -20 29 -26 58 -26 21 0 41
-3 44 -6 6 -6 -39 -93 -53 -104 -4 -3 -13 -17 -21 -31 -8 -15 -21 -39 -30 -55
-31 -54 -32 -71 -6 -96 24 -24 29 -25 170 -24 128 1 147 3 166 20 27 25 28 79
1 106 -19 19 -29 22 -92 24 -16 0 -28 6 -28 13 0 6 23 49 51 95 87 142 93 156
74 184 -10 15 -26 24 -43 25 -103 3 -241 4 -259 1z m287 -38 c0 -3 -42 -74
-92 -157 -51 -84 -93 -154 -93 -156 0 -2 42 -3 93 -2 l92 2 0 -40 0 -41 -160
0 c-88 0 -160 3 -160 6 0 4 41 74 90 155 50 82 90 151 90 154 0 3 -38 5 -84 5
l-85 0 1 40 0 40 154 0 c85 0 154 -3 154 -6z"/>
<path d="M1886 1275 c-38 -19 -45 -52 -47 -238 -2 -175 -1 -177 22 -196 26
-22 25 -22 156 -27 105 -4 136 11 149 68 6 29 2 36 -30 64 l-37 32 26 27 c30
34 32 71 4 94 -21 16 -21 17 15 54 19 20 37 33 40 28 3 -4 6 -78 7 -163 1
-155 1 -156 27 -181 19 -17 36 -24 56 -21 48 5 68 34 75 106 l6 63 40 -51 c22
-27 49 -62 60 -77 35 -47 111 -58 146 -21 20 21 21 32 21 215 0 180 -1 193
-21 212 -27 27 -85 28 -111 2 -13 -14 -20 -38 -23 -78 -2 -31 -7 -60 -10 -63
-3 -3 -27 23 -54 59 -60 80 -85 99 -129 99 -38 0 -59 -13 -84 -55 l-17 -28 -6
30 c-4 16 -15 34 -25 40 -26 14 -231 19 -256 6z m251 -65 l0 -40 -83 0 -84 0
0 -40 0 -40 70 0 70 0 0 -35 0 -35 -70 0 -70 0 0 -45 0 -45 80 0 80 0 0 -40 0
-40 -125 0 -125 0 0 200 0 200 129 0 128 0 0 -40z m265 -87 l93 -128 3 128 3
127 44 0 45 0 0 -200 0 -200 -43 0 -43 0 -94 127 -95 127 -3 -127 -3 -127 -39
0 -40 0 0 200 0 200 39 0 c39 0 41 -2 133 -127z"/>
<path d="M434 751 c-14 -14 -30 -37 -35 -50 -13 -34 18 -91 64 -116 36 -19 38
-19 68 -3 22 13 36 15 48 8 13 -6 24 -4 40 6 20 14 24 14 46 0 20 -13 28 -14
45 -4 15 10 22 10 32 0 16 -16 33 -15 51 2 12 13 18 13 42 0 36 -18 75 -18
103 2 12 8 22 11 22 6 0 -19 29 -21 61 -5 30 15 35 15 59 1 18 -10 33 -12 43
-7 9 6 25 5 40 -2 16 -7 31 -8 43 -1 11 5 28 6 39 1 33 -13 42 -10 60 17 16
25 16 29 0 73 -22 57 -61 102 -84 94 -9 -3 -26 -15 -39 -26 l-22 -21 -29 28
c-16 15 -33 27 -38 26 -4 -1 -18 -6 -31 -11 -14 -6 -31 -5 -43 1 -14 8 -25 6
-46 -7 -19 -13 -28 -14 -31 -5 -2 7 -8 10 -13 6 -5 -3 -9 0 -9 5 0 17 -58 13
-85 -5 -19 -13 -28 -14 -39 -5 -8 7 -28 9 -45 6 -18 -3 -40 -1 -49 4 -12 7
-22 5 -34 -6 -11 -10 -23 -13 -35 -7 -10 5 -34 10 -53 11 -19 2 -54 5 -77 7
-35 3 -47 0 -69 -23z m104 -22 c2 -13 -5 -16 -35 -15 -37 1 -38 0 -38 -34 0
-33 2 -35 38 -38 50 -4 52 -32 2 -32 -71 0 -102 77 -48 120 31 24 76 23 81 -1z
m72 -49 c0 -56 -3 -70 -15 -70 -12 0 -15 14 -15 70 0 56 3 70 15 70 12 0 15
-14 15 -70z m110 30 c14 -22 28 -40 32 -40 5 0 8 18 8 41 0 26 4 39 12 37 16
-6 17 -138 1 -138 -7 0 -25 19 -40 42 l-28 42 -3 -42 c-2 -26 -8 -42 -16 -42
-10 0 -12 17 -10 68 3 79 2 72 12 72 4 0 18 -18 32 -40z m205 25 c0 -5 -12
-11 -27 -13 -17 -2 -28 -9 -28 -18 0 -10 8 -14 22 -12 11 2 23 -3 25 -9 3 -8
-5 -13 -21 -13 -16 0 -26 -6 -26 -15 0 -10 10 -15 30 -15 20 0 30 -5 30 -16 0
-12 -9 -14 -41 -12 l-40 3 -3 63 c-1 34 0 65 3 68 9 9 76 0 76 -11z m107 -22
l15 -38 17 38 c12 26 22 37 34 35 24 -5 31 -138 7 -138 -11 0 -15 12 -16 48
l0 47 -16 -32 c-9 -18 -20 -33 -25 -33 -4 0 -15 15 -25 33 l-18 32 -3 -47 c-2
-35 -7 -48 -19 -48 -10 0 -13 6 -9 16 3 9 6 40 6 70 0 46 3 54 19 54 12 0 23
-13 33 -37z m232 -25 c14 -35 26 -66 26 -70 0 -14 -28 -8 -34 7 -3 8 -16 15
-30 15 -13 0 -26 -7 -30 -15 -5 -13 -36 -22 -36 -11 0 15 61 136 68 136 5 0
21 -28 36 -62z"/>
<path d="M1413 761 c-19 -16 -23 -29 -23 -78 0 -41 6 -65 19 -82 l19 -24 43
31 43 32 24 -30 c19 -24 31 -30 61 -30 20 0 42 5 48 11 8 8 17 8 29 1 13 -7
25 -7 37 0 14 7 26 6 42 -2 19 -10 28 -9 54 6 30 18 31 18 45 -1 14 -20 15
-20 46 3 l32 24 19 -21 c26 -27 37 -26 71 6 26 25 65 42 53 23 -9 -15 52 -50
85 -50 18 0 44 9 60 20 27 19 28 19 45 1 17 -20 77 -23 118 -6 11 4 29 2 44
-6 21 -11 27 -11 30 -1 6 15 65 16 80 1 8 -8 18 -6 37 6 23 16 26 23 26 80 0
57 -3 66 -27 85 -16 12 -33 18 -42 14 -9 -4 -24 -6 -33 -6 -10 1 -29 2 -43 3
-14 1 -35 -7 -46 -17 -14 -13 -22 -15 -27 -7 -8 13 -55 33 -76 33 -7 0 -22 -9
-34 -21 l-22 -20 -29 20 c-36 26 -77 27 -118 1 -32 -19 -32 -19 -47 1 -12 18
-21 20 -58 15 -58 -8 -65 -8 -120 0 -39 5 -49 4 -54 -10 -3 -9 -10 -13 -15
-10 -5 3 -9 0 -9 -6 0 -6 -14 -2 -30 10 -29 21 -32 21 -55 6 -14 -9 -35 -37
-46 -61 -12 -25 -23 -45 -24 -45 -2 0 -9 17 -15 38 -7 20 -22 47 -33 59 -19
21 -21 22 -47 6 -25 -15 -29 -15 -51 1 -30 21 -59 20 -86 -3z m89 -33 c15 -25
8 -49 -22 -66 -16 -9 -30 -25 -30 -34 0 -10 -7 -18 -15 -18 -12 0 -15 15 -15
71 l0 72 37 -6 c20 -4 40 -12 45 -19z m88 -33 c0 -52 1 -55 25 -55 16 0 25 -6
25 -15 0 -11 -11 -15 -40 -15 l-40 0 0 70 c0 56 3 70 15 70 12 0 15 -13 15
-55z m186 -10 c28 -69 29 -75 9 -75 -8 0 -15 7 -15 15 0 10 -10 15 -29 15 -16
0 -31 -6 -35 -15 -3 -8 -12 -15 -21 -15 -12 0 -12 8 6 51 42 109 50 111 85 24z
m144 50 c0 -8 -7 -15 -15 -15 -12 0 -15 -13 -15 -55 0 -42 -3 -55 -15 -55 -12
0 -15 13 -15 55 0 42 -3 55 -15 55 -8 0 -15 7 -15 15 0 11 12 15 45 15 33 0
45 -4 45 -15z m130 0 c0 -9 -9 -15 -24 -15 -13 0 -26 -7 -30 -15 -4 -11 2 -15
24 -15 21 0 30 -5 30 -16 0 -12 -7 -15 -25 -12 -22 5 -25 2 -25 -23 0 -19 -5
-29 -15 -29 -12 0 -15 14 -15 70 l0 70 40 0 c29 0 40 -4 40 -15z m155 -10 c31
-30 32 -62 3 -92 -41 -44 -118 -15 -118 44 0 30 42 73 70 73 12 0 32 -11 45
-25z m143 9 c24 -16 29 -43 11 -61 -8 -8 -6 -18 6 -37 15 -23 15 -26 2 -26 -8
0 -25 12 -36 28 l-20 27 -1 -27 c0 -18 -5 -28 -15 -28 -12 0 -15 14 -15 70 0
66 1 70 23 70 12 0 33 -7 45 -16z m134 -21 l15 -38 16 38 c12 27 22 38 34 35
15 -3 19 -15 21 -71 2 -54 0 -67 -12 -67 -11 0 -16 14 -18 48 l-4 47 -13 -32
c-7 -18 -18 -33 -25 -33 -6 0 -18 15 -26 33 l-14 32 -4 -47 c-2 -35 -7 -48
-19 -48 -10 0 -13 6 -9 16 3 9 6 40 6 70 0 46 3 54 19 54 12 0 23 -13 33 -37z"/>
<path d="M1450 701 c0 -12 6 -21 16 -21 9 0 14 7 12 17 -5 25 -28 28 -28 4z"/>
<path d="M2130 706 c-6 -8 -10 -25 -8 -38 2 -18 10 -24 35 -26 28 -3 33 1 39
23 11 45 -37 75 -66 41z"/>
<path d="M2310 700 c0 -11 7 -20 15 -20 8 0 15 9 15 20 0 11 -7 20 -15 20 -8
0 -15 -9 -15 -20z"/>
</g>
</svg>
