<?xml version="1.0" standalone="no"?>
<!DOCTYPE svg PUBLIC "-//W3C//DTD SVG 20010904//EN"
 "http://www.w3.org/TR/2001/REC-SVG-20010904/DTD/svg10.dtd">
<svg version="1.0" xmlns="http://www.w3.org/2000/svg"
 width="450.000000pt" height="676.000000pt" viewBox="0 0 450.000000 676.000000"
 preserveAspectRatio="xMidYMid meet">
<metadata>
Created by potrace 1.10, written by Peter Selinger 2001-2011
</metadata>
<g transform="translate(0.000000,676.000000) scale(0.050000,-0.050000)"
fill="#000000" stroke="none">
<path d="M0 6760 l0 -6760 4500 0 4500 0 0 6760 0 6760 -4500 0 -4500 0 0
-6760z m2193 5202 c108 -155 435 -151 538 6 44 68 117 68 162 1 106 -162 407
-167 525 -8 55 75 108 75 160 1 114 -159 375 -162 507 -5 64 76 119 80 164 12
108 -165 415 -164 524 3 43 66 114 62 165 -10 23 -31 72 -72 110 -90 136 -64
312 -24 394 90 51 72 103 74 147 6 104 -159 419 -156 524 4 44 67 106 60 196
-22 155 -142 357 -141 486 3 l64 73 155 -12 c367 -28 769 -349 913 -731 l43
-113 6 -2890 c7 -3256 13 -3105 -136 -3410 -194 -400 -512 -644 -940 -721
-193 -35 -4639 -42 -4831 -8 -344 62 -744 366 -896 680 -143 299 -134 61 -128
3402 l5 3009 76 154 c183 371 581 646 909 629 104 -6 131 -15 158 -53z m-673
-8473 c0 -162 7 -247 20 -239 11 7 105 120 210 251 l190 239 163 0 c151 0 160
-2 135 -35 -83 -108 -133 -167 -234 -275 -61 -66 -138 -148 -169 -183 l-58
-62 251 -297 c298 -352 291 -328 93 -328 l-158 0 -207 269 c-113 149 -212 270
-220 270 -8 1 -17 -118 -20 -264 l-6 -265 -135 -6 -135 -6 0 591 0 591 140 0
140 0 0 -251z m1867 -284 c116 -294 220 -560 232 -590 l20 -55 -139 0 -140 0
-58 128 -58 129 -217 -4 -217 -3 -34 -69 c-19 -38 -44 -94 -54 -125 -19 -54
-24 -56 -161 -56 l-141 0 37 95 c20 52 118 302 217 555 99 253 186 476 192
495 11 29 38 35 161 35 l149 0 211 -535z m753 -56 l0 -591 -135 6 -135 6 -5
585 -6 585 141 0 140 0 0 -591z m1220 573 c0 -10 -121 -216 -270 -459 -148
-243 -270 -451 -270 -462 0 -14 95 -21 270 -21 l270 0 0 -110 0 -110 -460 0
c-562 0 -542 -52 -200 509 143 235 260 433 260 439 0 7 -112 12 -250 12 l-250
0 0 110 0 110 450 0 c253 0 450 -8 450 -18z m1040 -92 l0 -110 -250 0 -250 0
0 -119 0 -120 215 -5 215 -6 0 -100 0 -100 -215 -6 -215 -5 0 -140 0 -139 240
0 240 0 0 -110 0 -110 -370 0 -370 0 0 590 0 590 380 0 380 0 0 -110z m797
-250 c148 -198 275 -360 282 -360 18 0 41 304 41 543 l0 177 120 0 120 0 0
-590 0 -590 -125 0 -125 0 -275 371 c-152 204 -285 365 -295 359 -12 -7 -20
-158 -20 -371 l0 -359 -120 0 -120 0 0 590 0 590 125 0 125 0 267 -360z
m-5592 -1179 c14 -52 2 -60 -62 -42 -114 33 -204 -61 -163 -169 21 -55 101
-96 150 -77 46 17 91 -7 78 -42 -21 -53 -174 -40 -246 21 -142 119 -47 348
144 348 72 0 91 -8 99 -39z m225 -161 c0 -165 -5 -190 -35 -196 -31 -6 -35 13
-35 196 0 183 4 202 35 196 30 -6 35 -31 35 -196z m340 81 c94 -138 110 -136
110 10 0 84 7 109 30 109 25 0 30 -36 30 -200 0 -244 -20 -255 -144 -78 l-86
121 -6 -121 c-11 -226 -64 -161 -64 78 0 239 16 249 130 81z m590 79 c0 -32
-13 -40 -70 -40 -98 0 -103 -74 -5 -84 36 -3 65 -15 65 -26 0 -11 -29 -23 -65
-26 -110 -11 -97 -124 15 -124 58 0 80 -8 80 -30 0 -23 -27 -30 -120 -30
l-120 0 0 200 0 200 110 0 c97 0 110 -5 110 -40z m327 -50 c46 -112 61 -112
111 0 87 198 186 55 159 -230 -14 -142 -77 -102 -77 49 0 153 -16 163 -71 47
-53 -115 -82 -117 -130 -8 -56 126 -79 115 -79 -38 0 -102 -6 -130 -30 -130
-31 0 -47 357 -17 387 42 41 99 9 134 -77z m701 -90 c40 -99 72 -189 72 -200
0 -38 -75 -20 -86 20 -8 32 -27 40 -94 40 -67 0 -86 -8 -94 -40 -10 -37 -86
-59 -86 -25 0 8 33 98 73 200 97 243 119 243 215 5z m688 149 c93 -65 45 -207
-81 -237 -45 -10 -55 -24 -55 -72 0 -40 -10 -60 -30 -60 -25 0 -30 36 -30 200
l0 200 76 0 c41 0 95 -14 120 -31z m284 -128 l0 -159 75 -6 c141 -11 112 -76
-34 -76 l-121 0 0 187 c0 189 6 213 53 213 20 0 27 -40 27 -159z m564 -31 c41
-99 75 -187 75 -195 2 -35 -83 -12 -93 25 -9 32 -27 40 -96 40 -69 0 -87 -8
-96 -40 -12 -47 -74 -55 -74 -9 0 16 24 86 52 155 29 68 61 145 70 170 34 88
84 43 162 -146z m433 143 c5 -28 -4 -35 -40 -30 -46 7 -47 2 -53 -158 -5 -149
-10 -165 -45 -165 -35 0 -39 14 -39 160 0 145 -4 160 -39 160 -44 0 -69 30
-50 61 24 39 258 15 266 -28z m383 7 c0 -33 -13 -40 -81 -40 -117 0 -111 -86
6 -96 107 -9 103 -64 -5 -64 l-80 0 0 -81 c0 -67 -6 -81 -35 -75 -35 6 -64
298 -36 369 18 48 231 36 231 -13z m438 11 c115 -60 132 -249 29 -330 -123
-96 -327 -10 -327 138 0 177 146 271 298 192z m463 -2 c68 -35 82 -131 27
-191 -30 -33 -29 -40 10 -90 51 -65 53 -88 7 -88 -19 0 -56 32 -82 70 -54 79
-83 75 -83 -11 0 -39 -10 -59 -30 -59 -25 0 -30 36 -30 200 l0 200 61 0 c34 0
88 -14 120 -31z m403 -74 l52 -105 22 55 c12 30 31 78 42 106 16 41 32 50 75
45 l55 -6 6 -197 c5 -179 2 -196 -30 -189 -29 5 -37 30 -42 131 -7 147 -24
157 -67 40 -43 -118 -84 -119 -140 -1 l-46 96 -10 -130 c-12 -147 -81 -213
-81 -76 1 345 63 434 164 231z"/>
<path d="M1800 11604 c-207 -78 -344 -204 -437 -400 l-53 -114 -5 -1562 -6
-1562 456 -12 c667 -16 951 -115 1275 -443 357 -361 410 -555 410 -1521 l0
-701 -145 -199 -145 -199 -12 469 c-16 601 -71 773 -328 1030 -250 250 -459
309 -1085 310 l-425 0 0 -685 c1 -763 12 -863 124 -1090 86 -174 284 -381 290
-305 3 28 7 395 10 817 l6 767 47 38 c61 49 124 48 179 -3 44 -41 44 -41 44
-928 l0 -887 127 -22 c69 -12 137 -22 150 -22 17 0 23 203 23 800 0 899 -3
880 148 880 124 0 121 15 128 -874 l6 -807 284 5 284 6 10 120 c15 182 76 230
290 230 218 0 290 -65 290 -261 0 -97 1 -99 60 -99 59 0 60 1 60 112 0 178 63
228 287 228 228 0 276 -36 289 -217 9 -120 10 -123 66 -123 58 0 58 1 58 121
0 185 43 219 280 219 237 0 280 -34 280 -219 0 -120 0 -121 58 -121 68 0 82
27 82 158 0 152 53 189 278 190 233 2 277 -31 286 -216 l6 -122 290 0 290 0
10 816 c11 888 6 853 125 854 136 0 135 9 135 -881 l0 -801 95 14 c52 8 117
20 145 27 l50 14 10 881 c11 973 10 966 138 966 140 -1 142 -16 142 -899 0
-444 8 -781 18 -781 36 0 234 235 296 353 115 215 125 301 126 1062 l0 685
-476 0 c-629 0 -789 -48 -1054 -312 -254 -254 -312 -449 -317 -1058 -2 -237
-7 -430 -13 -430 -5 1 -75 88 -155 195 l-145 195 6 760 6 760 53 160 c132 392
424 712 795 869 226 96 289 105 805 116 l496 9 -6 1563 -5 1563 -55 112 c-83
169 -197 287 -351 362 l-133 66 -2631 4 c-2419 3 -2637 0 -2720 -30z m4028
-379 c17 -52 54 -225 81 -383 60 -342 24 -294 252 -332 566 -95 572 -105 104
-187 l-315 -54 -36 -210 c-56 -326 -95 -499 -112 -499 -19 0 -72 243 -102 470
-12 88 -25 178 -30 200 -7 35 -45 46 -304 88 -163 26 -323 58 -356 72 l-60 24
110 24 c61 13 214 42 340 63 284 49 280 47 280 107 0 105 94 712 111 712 3 0
20 -43 37 -95z m-712 -90 c8 -42 -50 -69 -80 -39 -30 30 -3 88 39 80 19 -3 38
-22 41 -41z m-768 -95 c53 0 56 -39 5 -59 -27 -10 -55 -37 -63 -60 -7 -22 -20
-41 -30 -41 -10 0 -23 19 -30 41 -8 23 -36 50 -63 60 -50 19 -48 59 4 59 15 0
43 29 61 64 l33 63 26 -63 c15 -35 40 -64 57 -64z m-2228 20 c0 -27 -13 -40
-40 -40 -27 0 -40 13 -40 40 0 27 13 40 40 40 27 0 40 -13 40 -40z m1181 -45
c17 -38 60 -82 104 -105 93 -50 94 -73 4 -116 -46 -23 -81 -59 -100 -104 -37
-89 -97 -94 -126 -11 -11 34 -55 80 -102 110 -99 63 -99 59 -2 121 44 27 94
77 111 110 40 78 76 76 111 -5z m3567 -43 c15 -78 41 -105 112 -115 73 -10 61
-58 -20 -84 -54 -18 -75 -39 -93 -93 -25 -79 -74 -93 -83 -25 -8 52 -93 125
-148 125 -61 0 -35 65 34 83 70 19 110 66 110 129 0 42 34 72 63 56 7 -4 18
-38 25 -76z m-4408 -163 c12 -30 49 -63 91 -81 79 -33 77 -51 -9 -87 -36 -15
-68 -48 -80 -83 -24 -70 -73 -76 -90 -10 -6 26 -45 68 -86 92 -75 44 -60 100
27 100 14 0 40 27 57 60 38 73 65 76 90 9z m1320 -420 c0 -16 -14 -36 -31 -42
-38 -15 -79 21 -60 51 20 33 91 26 91 -9z m-1803 -128 c13 -38 39 -64 72 -72
65 -17 65 -45 1 -69 -28 -11 -61 -42 -73 -70 -13 -27 -30 -50 -37 -50 -7 0
-24 23 -37 50 -12 28 -45 59 -73 70 -66 25 -63 46 10 74 38 14 60 37 60 61 0
83 49 86 77 6z m5196 -151 c15 -40 -28 -91 -64 -77 -47 18 -37 107 12 107 22
0 45 -14 52 -30z m-4310 -131 c16 -44 48 -74 114 -106 113 -53 115 -72 16
-121 -57 -27 -88 -61 -116 -125 -49 -109 -67 -109 -120 1 -32 64 -65 98 -120
123 -97 44 -97 74 0 118 50 22 89 59 110 103 40 84 88 87 116 7z m1846 -190
c973 -253 763 -1685 -242 -1645 -528 21 -895 501 -779 1020 104 468 559 746
1021 625z m1903 -40 c14 -75 60 -117 154 -140 71 -17 61 -50 -24 -78 -73 -25
-122 -79 -122 -135 0 -64 -72 -43 -92 27 -20 67 -45 88 -133 106 -81 17 -67
63 30 94 77 25 87 35 103 112 22 104 65 111 84 14z m-4305 -338 c18 -48 -43
-84 -80 -46 -18 17 -26 41 -18 53 19 32 85 27 98 -7z m3803 -491 c0 -71 -58
-65 -66 7 -6 46 0 55 30 49 23 -4 36 -24 36 -56z m-855 -3326 c83 -64 29 -114
-124 -114 -162 0 -181 11 -152 87 26 69 200 86 276 27z m-1214 -16 c44 -81 13
-100 -155 -94 -164 6 -204 36 -145 107 41 49 272 40 300 -13z m415 -34 l7 -66
-156 6 c-132 5 -158 12 -163 42 -14 72 34 96 174 90 l132 -6 6 -66z m410 34
c44 -71 4 -98 -146 -98 -153 0 -182 21 -140 99 29 55 252 54 286 -1z m-934
-248 c59 -91 29 -110 -171 -110 l-181 0 0 59 c0 112 285 154 352 51z m469 29
c25 -13 39 -42 39 -80 l0 -59 -190 0 c-207 0 -229 16 -159 116 35 49 234 64
310 23z m488 -10 c89 -90 44 -129 -149 -129 l-180 0 0 59 c0 98 248 150 329
70z m474 -2 c97 -87 52 -127 -143 -127 -177 0 -180 1 -180 49 0 107 230 162
323 78z m-1560 -300 c22 -20 37 -61 37 -100 l0 -67 -220 0 -220 0 0 63 c0 109
45 137 217 137 111 0 159 -8 186 -33z m608 -16 c76 -116 43 -140 -206 -147
l-225 -5 0 56 c0 149 346 226 431 96z m578 18 c17 -18 31 -63 31 -100 l0 -69
-220 0 -220 0 0 76 c0 42 11 87 24 100 38 38 345 32 385 -7z m552 10 c29 -15
39 -42 39 -100 l0 -79 -210 0 -210 0 0 63 c0 124 234 195 381 116z"/>
<path d="M1335 7687 c-32 -9 -35 -44 -35 -366 l0 -357 495 -8 c709 -12 976
-117 1310 -517 l74 -89 1 181 c1 518 -366 989 -870 1116 -120 30 -901 63 -975
40z"/>
<path d="M6724 7669 c-545 -118 -925 -579 -923 -1118 l0 -181 64 80 c318 403
553 494 1300 505 l535 8 0 369 0 368 -425 -2 c-279 -1 -468 -11 -551 -29z"/>
<path d="M3004 3367 c-44 -82 -124 -296 -124 -330 0 -41 265 -57 289 -19 12
20 -100 340 -128 369 -10 10 -26 1 -37 -20z"/>
<path d="M3653 2060 c-30 -69 -29 -70 20 -77 68 -8 72 0 39 79 l-29 68 -30
-70z"/>
<path d="M4340 2105 c0 -74 15 -89 64 -63 53 28 40 106 -19 114 -38 6 -45 -3
-45 -51z"/>
<path d="M5182 2059 c-29 -84 -30 -79 30 -79 47 0 51 6 39 55 -21 86 -44 94
-69 24z"/>
<path d="M6417 2152 c-72 -35 -78 -177 -9 -223 106 -69 225 39 181 165 -23 64
-105 92 -172 58z"/>
<path d="M6931 2164 c-6 -6 -11 -37 -11 -69 0 -79 87 -73 96 7 6 50 -54 94
-85 62z"/>
</g>
</svg>
